<svg width="68" height="50" viewBox="0 0 68 50" fill="none" xmlns="http://www.w3.org/2000/svg">
<path d="M6.90055 40.4544C6.82867 40.4544 6.68491 40.5258 6.46927 40.5258C6.25362 40.5258 6.03798 40.5972 5.75046 40.5972C5.46294 40.5972 5.17541 40.6686 4.81601 40.6686C4.4566 40.6686 4.0972 40.6686 3.7378 40.6686C2.94711 40.6686 2.37206 40.5972 1.8689 40.4544C1.36573 40.3116 1.00633 40.1687 0.718807 39.9545C0.431284 39.7403 0.287523 39.4547 0.143761 39.1691C0.0718807 38.9548 0 38.6692 0 38.3836C0 37.9551 0.0718807 37.6695 0.215642 37.3125C0.359404 37.0269 0.503165 36.7412 0.790688 36.527C1.07821 36.3128 1.43761 36.17 1.8689 36.0986C2.30018 36.0272 2.87523 35.9557 3.52216 35.9557C3.88156 35.9557 4.24096 35.9557 4.60037 36.0272C4.95977 36.0272 5.17541 36.0986 5.31917 36.0986C5.31917 35.7415 5.24729 35.4559 5.17541 35.2417C5.03165 35.0275 4.88789 34.8132 4.74413 34.7418C4.52849 34.599 4.31284 34.5276 4.02532 34.4562C3.7378 34.3848 3.45028 34.3848 3.09087 34.3848C2.51583 34.3848 2.08454 34.4562 1.72514 34.599C1.36573 34.7418 1.15009 34.8132 1.07821 34.8846C1.00633 34.8132 0.934449 34.7418 0.862569 34.599C0.790688 34.4562 0.718807 34.3134 0.718807 34.0992C0.718807 33.9564 0.790688 33.8135 0.862569 33.6707C0.934449 33.5279 1.07821 33.4565 1.22197 33.3137C1.43761 33.2423 1.65326 33.0995 1.94078 33.0995C2.2283 33.0281 2.65959 33.0281 3.09087 33.0281C3.66592 33.0281 4.16908 33.0995 4.67225 33.1709C5.17541 33.3137 5.53482 33.4565 5.89422 33.6707C6.25362 33.885 6.46927 34.242 6.68491 34.599C6.90055 35.0275 6.97243 35.4559 6.97243 36.0272V40.4544H6.90055ZM5.31917 37.2411C5.24729 37.2411 5.03165 37.1697 4.74413 37.1697C4.4566 37.0983 4.0972 37.0983 3.52216 37.0983C2.87523 37.0983 2.37206 37.1697 2.08454 37.3839C1.79702 37.5981 1.65326 37.8837 1.65326 38.3122C1.65326 38.455 1.65326 38.6692 1.72514 38.812C1.79702 38.9548 1.8689 39.0976 2.08454 39.1691C2.2283 39.2405 2.44394 39.3119 2.73147 39.3833C3.01899 39.4547 3.30651 39.4547 3.7378 39.4547C4.16908 39.4547 4.52849 39.4547 4.81601 39.3833C5.10353 39.3833 5.24729 39.3119 5.31917 39.3119V37.2411Z" fill="white"/>
<path d="M8.69758 31.9569C8.69758 31.6712 8.76946 31.457 8.91322 31.3856C9.05698 31.2428 9.27262 31.1714 9.56014 31.1714C9.70391 31.1714 9.91955 31.1714 10.0633 31.2428C10.2071 31.3142 10.279 31.3142 10.3508 31.3142V33.1708H12.4354C12.7229 33.1708 13.0104 33.2422 13.0823 33.385C13.2261 33.5278 13.2979 33.6706 13.2979 33.9562C13.2979 34.0991 13.2979 34.2419 13.2261 34.3847C13.1542 34.5275 13.1542 34.5989 13.0823 34.6703H10.279V37.8836C10.279 38.1692 10.279 38.3121 10.3508 38.5263C10.4227 38.6691 10.4946 38.8119 10.6384 38.8833C10.7821 38.9547 10.9259 39.0261 11.0696 39.0975C11.2134 39.1689 11.429 39.1689 11.5728 39.1689C11.8603 39.1689 12.1479 39.0975 12.3635 39.0261C12.5791 38.9547 12.7948 38.8833 12.8667 38.8119L13.5136 39.883C13.4417 39.9544 13.2979 40.0258 13.1542 40.0972C13.0104 40.1686 12.8667 40.24 12.651 40.3114C12.4354 40.3828 12.2197 40.4543 11.9322 40.5257C11.6447 40.5971 11.429 40.5971 11.0696 40.5971C10.2071 40.5971 9.56014 40.3828 9.12886 39.9544C8.69758 39.526 8.48193 38.9547 8.48193 38.2406V31.9569H8.69758Z" fill="white"/>
<path d="M18.1858 33.0281C18.7609 33.0281 19.2641 33.0995 19.7672 33.3137C20.2704 33.5279 20.7017 33.7421 21.0611 34.0992C21.4205 34.4562 21.708 34.8132 21.9236 35.3131C22.1393 35.8129 22.2112 36.3128 22.2112 36.8126C22.2112 37.3839 22.1393 37.8837 21.9236 38.3122C21.708 38.812 21.4205 39.1691 21.0611 39.5261C20.7017 39.8831 20.2704 40.1687 19.7672 40.3116C19.2641 40.5258 18.7609 40.5972 18.1858 40.5972C17.6108 40.5972 17.1076 40.5258 16.6045 40.3116C16.1013 40.0973 15.67 39.8117 15.3106 39.5261C14.9512 39.1691 14.6637 38.812 14.448 38.3122C14.2324 37.8123 14.1605 37.3125 14.1605 36.8126C14.1605 36.2414 14.2324 35.7415 14.448 35.3131C14.6637 34.8132 14.9512 34.4562 15.3106 34.0992C15.67 33.7421 16.1013 33.4565 16.6045 33.3137C17.1076 33.0995 17.6108 33.0281 18.1858 33.0281ZM18.1858 39.2405C18.5452 39.2405 18.8328 39.1691 19.1203 39.0262C19.4078 38.8834 19.6235 38.7406 19.8391 38.5264C20.0547 38.3122 20.1985 38.0265 20.2704 37.7409C20.4141 37.4553 20.4141 37.1697 20.4141 36.8126C20.4141 36.4556 20.3423 36.17 20.2704 35.8843C20.1266 35.5987 19.9829 35.3131 19.8391 35.0989C19.6235 34.8846 19.4078 34.7418 19.1203 34.599C18.8328 34.4562 18.5452 34.3848 18.1858 34.3848C17.8264 34.3848 17.5389 34.4562 17.2514 34.599C16.9639 34.7418 16.7482 34.8846 16.5326 35.0989C16.3169 35.3131 16.1732 35.5987 16.1013 35.8843C15.9575 36.17 15.9575 36.527 15.9575 36.8126C15.9575 37.1697 16.0294 37.4553 16.1013 37.7409C16.2451 38.0265 16.3888 38.2408 16.5326 38.5264C16.7482 38.7406 16.9639 38.8834 17.2514 39.0262C17.5389 39.1691 17.8264 39.2405 18.1858 39.2405Z" fill="white"/>
<path d="M23.5769 35.8129C23.5769 35.3845 23.6488 34.9561 23.7925 34.599C23.9363 34.242 24.152 33.9564 24.4395 33.7421C24.727 33.5279 25.0864 33.3137 25.4458 33.2423C25.8052 33.0995 26.2365 33.0281 26.7397 33.0281C27.3147 33.0281 27.8897 33.1709 28.321 33.3851C28.8242 33.5993 29.1836 33.9564 29.4711 34.3848C29.7586 33.9564 30.118 33.5993 30.6212 33.3851C31.0525 33.1709 31.6275 33.0281 32.2026 33.0281C32.6339 33.0281 33.0652 33.0995 33.4246 33.1709C33.784 33.3137 34.1434 33.4565 34.4309 33.6707C34.7184 33.885 34.9341 34.1706 35.0778 34.5276C35.2216 34.8846 35.2935 35.3131 35.2935 35.7415V40.4544H33.6402V36.3128C33.6402 35.6701 33.4964 35.1703 33.2089 34.8846C32.9214 34.599 32.4901 34.4562 31.9869 34.4562C31.4838 34.4562 31.0525 34.599 30.765 34.9561C30.4056 35.2417 30.2618 35.8129 30.2618 36.527V40.4544H28.6086V36.527C28.6086 35.8129 28.4648 35.3131 28.1054 34.9561C27.746 34.6704 27.3866 34.4562 26.8834 34.4562C26.3803 34.4562 25.949 34.599 25.6614 34.8846C25.3739 35.1703 25.2302 35.6701 25.2302 36.3128V40.383H23.5769V35.8129Z" fill="white"/>
<path d="M36.8749 37.1697C36.8749 36.527 36.9468 35.8843 37.1624 35.3845C37.378 34.8846 37.5937 34.4562 37.9531 34.0992C38.3125 33.7421 38.7438 33.4565 39.2469 33.3137C39.7501 33.0995 40.2533 33.0281 40.9002 33.0281C41.4752 33.0281 41.9784 33.0995 42.4097 33.3137C42.841 33.5279 43.2723 33.7421 43.6317 34.0992C43.9911 34.4562 44.2786 34.8132 44.4224 35.3131C44.638 35.8129 44.7099 36.3128 44.7099 36.8126C44.7099 37.3839 44.638 37.8837 44.4224 38.3836C44.2067 38.8834 43.9911 39.2405 43.6317 39.5975C43.2723 39.9545 42.9129 40.1687 42.4816 40.383C42.0503 40.5972 41.5471 40.6686 40.9721 40.6686C40.397 40.6686 39.9658 40.5972 39.5345 40.383C39.1032 40.1687 38.7438 39.8831 38.5281 39.5975V43.382H36.8749V37.1697ZM40.8283 39.2405C41.1877 39.2405 41.4752 39.169 41.7628 39.0262C42.0503 38.8834 42.2659 38.7406 42.4816 38.5264C42.6972 38.3122 42.841 38.0979 42.9129 37.7409C42.9847 37.4553 43.0566 37.1697 43.0566 36.8126C43.0566 36.4556 42.9847 36.17 42.9129 35.8843C42.841 35.5987 42.6253 35.3845 42.4816 35.1703C42.2659 34.9561 42.0503 34.8132 41.7628 34.6704C41.4752 34.5276 41.1877 34.4562 40.8283 34.4562C40.4689 34.4562 40.1814 34.5276 39.8939 34.599C39.6063 34.7418 39.3907 34.8846 39.1751 35.0989C38.9594 35.3131 38.8157 35.5273 38.7438 35.8129C38.6 36.0986 38.6 36.3842 38.6 36.7412C38.6 37.0983 38.6719 37.3839 38.7438 37.6695C38.8875 37.9551 39.0313 38.2408 39.1751 38.455C39.3907 38.6692 39.6063 38.812 39.8939 38.9548C40.1814 39.1691 40.4689 39.2405 40.8283 39.2405Z" fill="white"/>
<path d="M52.7604 40.4542C52.6885 40.4542 52.5448 40.5257 52.3291 40.5257C52.1135 40.5257 51.8979 40.5971 51.6103 40.5971C51.3228 40.5971 51.0353 40.6685 50.6759 40.6685C50.3165 40.6685 49.9571 40.6685 49.5977 40.6685C48.807 40.6685 48.2319 40.5971 47.7288 40.4542C47.2256 40.3114 46.8662 40.1686 46.5787 39.9544C46.2912 39.7402 46.1474 39.4546 46.0036 39.1689C45.9317 38.8833 45.8599 38.5977 45.8599 38.312C45.8599 37.8836 45.9317 37.598 46.0755 37.2409C46.2193 36.9553 46.363 36.6697 46.6506 36.4555C46.9381 36.2413 47.2975 36.0984 47.7288 36.027C48.16 35.9556 48.7351 35.8842 49.382 35.8842C49.7414 35.8842 50.1008 35.8842 50.4602 35.9556C50.8196 35.9556 51.0353 36.027 51.179 36.027C51.179 35.67 51.1072 35.3844 51.0353 35.1702C50.8915 34.9559 50.7478 34.7417 50.604 34.6703C50.3884 34.5275 50.1727 34.4561 49.8852 34.3847C49.5977 34.3133 49.3101 34.3133 48.9507 34.3133C48.3757 34.3133 47.9444 34.3847 47.585 34.5275C47.2256 34.6703 47.01 34.7417 46.9381 34.8131C46.8662 34.7417 46.7943 34.6703 46.7224 34.5275C46.6506 34.3847 46.5787 34.2419 46.5787 34.0276C46.5787 33.8848 46.6506 33.742 46.7224 33.5992C46.7943 33.4564 46.9381 33.385 47.0818 33.2422C47.2975 33.1708 47.5131 33.028 47.8006 33.028C48.0882 32.9565 48.5195 32.9565 48.9507 32.9565C49.5258 32.9565 50.029 33.028 50.5321 33.0994C51.0353 33.2422 51.3947 33.385 51.7541 33.5992C52.1135 33.8134 52.3291 34.1705 52.5448 34.5275C52.7604 34.9559 52.8323 35.3844 52.8323 35.9556V40.4542H52.7604ZM51.1072 37.2409C51.0353 37.2409 50.8196 37.1695 50.5321 37.1695C50.2446 37.0981 49.8852 37.0981 49.3101 37.0981C48.6632 37.0981 48.16 37.1695 47.8725 37.3838C47.585 37.598 47.4412 37.8836 47.4412 38.312C47.4412 38.4549 47.4412 38.6691 47.5131 38.8119C47.585 38.9547 47.6569 39.0975 47.8725 39.1689C48.0163 39.2403 48.2319 39.3117 48.5195 39.3831C48.807 39.4546 49.0945 39.4546 49.5258 39.4546C49.9571 39.4546 50.3165 39.4546 50.604 39.3831C50.8915 39.3831 51.0353 39.3117 51.1072 39.3117V37.2409Z" fill="white"/>
<path d="M54.4137 35.8129C54.4137 34.9561 54.7012 34.242 55.2044 33.7421C55.7794 33.2423 56.4982 33.0281 57.5046 33.0281C58.0796 33.0281 58.5828 33.0995 59.0141 33.3137C59.3735 33.4565 59.5891 33.7421 59.5891 34.0992C59.5891 34.242 59.5172 34.4562 59.4453 34.599C59.3735 34.7418 59.3016 34.8846 59.2297 34.8846C59.0859 34.8132 58.8703 34.7418 58.6547 34.6704C58.439 34.599 58.1515 34.599 57.7921 34.599C56.642 34.599 56.067 35.1703 56.067 36.3842V40.5972H54.4137V35.8129Z" fill="white"/>
<path d="M60.4517 30.6002C60.4517 30.3145 60.5235 30.1717 60.6673 30.0289C60.8111 29.8861 61.0267 29.8147 61.3142 29.8147C61.458 29.8147 61.6736 29.8147 61.8174 29.8861C61.9612 29.9575 62.033 29.9575 62.1049 29.9575V35.8843C62.2487 35.8129 62.3924 35.67 62.6081 35.5272C62.8237 35.3844 63.1112 35.1702 63.3988 34.956C63.6863 34.7418 63.9738 34.5275 64.2613 34.3133C64.5489 34.0991 64.8364 33.8849 65.1239 33.6707C65.3395 33.5278 65.5552 33.385 65.699 33.3136C65.8427 33.2422 66.1302 33.1708 66.4178 33.1708C66.7053 33.1708 66.9209 33.2422 67.0647 33.385C67.2803 33.5278 67.3522 33.6707 67.4241 33.7421C67.2084 33.9563 66.9209 34.1705 66.5615 34.3847C66.2021 34.6704 65.8427 34.8846 65.4833 35.1702C65.1239 35.4558 64.7645 35.67 64.4051 35.8843C64.0457 36.0985 63.8301 36.2413 63.6863 36.3841C64.477 36.9554 65.2677 37.6694 65.9146 38.3835C66.5615 39.0976 67.1366 39.7402 67.6397 40.3829H65.5552C65.3395 40.0973 65.052 39.8116 64.8364 39.526C64.5489 39.2404 64.2613 38.9548 63.9738 38.6691C63.6863 38.3835 63.3269 38.0979 63.0394 37.8122C62.68 37.5266 62.3924 37.3124 62.1049 37.0982V40.3829H60.4517V30.6002Z" fill="white"/>
<path d="M7.11626 48.6661C7.11626 48.6661 7.18814 48.7375 7.3319 48.7375C7.40378 48.8089 7.54754 48.8089 7.6913 48.8803C7.83507 48.9517 7.97883 48.9517 8.12259 49.0231C8.26635 49.0231 8.48199 49.0945 8.69763 49.0945C8.98516 49.0945 9.2008 49.0945 9.34456 49.0231C9.48832 48.9517 9.5602 48.8089 9.5602 48.6661C9.5602 48.5233 9.48832 48.4519 9.41644 48.3805C9.34456 48.309 9.12892 48.2376 8.8414 48.2376L8.26635 48.1662C8.05071 48.1662 7.90695 48.0948 7.6913 48.0234C7.47566 47.952 7.40378 47.8806 7.26002 47.8092C7.11626 47.7378 7.04438 47.595 6.9725 47.4522C6.90062 47.3094 6.90062 47.1665 6.90062 46.9523C6.90062 46.8095 6.90062 46.6667 6.9725 46.5239C7.04438 46.3811 7.11626 46.2383 7.26002 46.1668C7.40378 46.024 7.54754 45.9526 7.76318 45.8812C7.97883 45.8098 8.26635 45.8098 8.55387 45.8098C9.05704 45.8098 9.48832 45.8812 9.77585 45.9526C10.0634 46.0954 10.2071 46.2383 10.2071 46.3811C10.2071 46.4525 10.2071 46.5239 10.2071 46.5239C10.2071 46.5239 10.1352 46.5953 10.1352 46.6667L10.0634 46.7381L9.99149 46.8095C9.99149 46.8095 9.91961 46.7381 9.84773 46.7381C9.77584 46.6667 9.70396 46.6667 9.5602 46.5953C9.41644 46.5239 9.27268 46.5239 9.12892 46.4525C8.98516 46.4525 8.76951 46.3811 8.55387 46.3811C7.97883 46.3811 7.6913 46.5239 7.6913 46.8095C7.6913 46.9523 7.76318 47.0237 7.83507 47.0951C7.97883 47.1665 8.12259 47.238 8.33823 47.238L9.12892 47.3094C9.5602 47.3808 9.84773 47.4522 10.1352 47.6664C10.4228 47.8806 10.4947 48.0948 10.4947 48.4519C10.4947 48.8089 10.3509 49.1659 10.0634 49.3802C9.77585 49.5944 9.34456 49.7372 8.76951 49.7372C8.48199 49.7372 8.26635 49.7372 8.05071 49.6658C7.83507 49.5944 7.61942 49.5944 7.47566 49.523C7.3319 49.4516 7.18814 49.4516 7.04438 49.3802C6.9725 49.3087 6.90062 49.3087 6.82874 49.2373L7.11626 48.6661Z" fill="#F8BA00"/>
<path d="M16.1732 45.667C16.4607 45.667 16.7482 45.7384 16.9639 45.8098C17.2514 45.8812 17.467 46.024 17.6108 46.2382C17.8264 46.4525 17.9702 46.5953 18.0421 46.8809C18.114 47.0951 18.1858 47.3808 18.1858 47.6664C18.1858 47.952 18.114 48.2376 18.0421 48.4519C17.9702 48.6661 17.7546 48.8803 17.6108 49.0945C17.3952 49.3087 17.1795 49.3801 16.9639 49.523C16.6763 49.5944 16.4607 49.6658 16.1732 49.6658C15.8857 49.6658 15.5981 49.5944 15.3825 49.523C15.095 49.4515 14.8793 49.3087 14.7356 49.0945C14.5199 48.8803 14.3762 48.7375 14.3043 48.4519C14.2324 48.2376 14.1605 47.952 14.1605 47.6664C14.1605 47.3808 14.2324 47.0951 14.3043 46.8809C14.3762 46.6667 14.5918 46.4525 14.7356 46.2382C14.9512 46.024 15.1669 45.9526 15.3825 45.8098C15.5981 45.7384 15.8857 45.667 16.1732 45.667ZM16.1732 48.9517C16.3169 48.9517 16.5326 48.9517 16.6763 48.8803C16.8201 48.8089 16.9639 48.7375 17.0358 48.5947C17.1076 48.4519 17.2514 48.3804 17.2514 48.1662C17.3233 48.0234 17.3233 47.8806 17.3233 47.6664C17.3233 47.5236 17.3233 47.3093 17.2514 47.1665C17.1795 47.0237 17.1076 46.8809 17.0358 46.7381C16.9639 46.5953 16.8201 46.5239 16.6763 46.4525C16.5326 46.3811 16.3888 46.3811 16.1732 46.3811C16.0294 46.3811 15.8138 46.3811 15.67 46.4525C15.5263 46.5239 15.3825 46.5953 15.3106 46.7381C15.2387 46.8809 15.095 46.9523 15.095 47.1665C15.0231 47.3093 15.0231 47.4522 15.0231 47.6664C15.0231 47.8092 15.0231 48.0234 15.095 48.1662C15.1669 48.309 15.2387 48.4519 15.3106 48.5947C15.3825 48.7375 15.5263 48.8089 15.67 48.8803C15.8857 48.8803 16.0294 48.9517 16.1732 48.9517Z" fill="#F8BA00"/>
<path d="M22.0675 45.5241C22.0675 45.2384 22.1394 45.0242 22.2112 44.81C22.2831 44.5958 22.4269 44.453 22.4988 44.3102C22.6425 44.1673 22.7863 44.0959 23.0019 44.0245C23.2176 43.9531 23.4332 43.9531 23.6489 43.9531C24.0801 43.9531 24.3677 44.0245 24.5114 44.0959C24.6552 44.1673 24.799 44.3102 24.799 44.453C24.799 44.5244 24.799 44.5958 24.7271 44.6672C24.6552 44.7386 24.6552 44.81 24.5833 44.81C24.5114 44.7386 24.3677 44.6672 24.2239 44.6672C24.0801 44.5958 23.9364 44.5958 23.7926 44.5958C23.5051 44.5958 23.2895 44.6672 23.1457 44.81C23.0019 44.9528 22.9301 45.167 22.9301 45.4527V45.6669H24.0801C24.2239 45.6669 24.3677 45.6669 24.4396 45.7383C24.5114 45.8097 24.5114 45.8811 24.5114 46.0239C24.5114 46.0953 24.5114 46.1667 24.4396 46.2381C24.4396 46.3095 24.3677 46.381 24.3677 46.381H22.8582V49.38H21.9956V45.5241H22.0675Z" fill="#F8BA00"/>
<path d="M27.9617 45.0956C27.9617 44.9527 28.0335 44.8813 28.1054 44.8099C28.1773 44.7385 28.3211 44.7385 28.4648 44.7385C28.5367 44.7385 28.6086 44.7385 28.7524 44.7385C28.8242 44.7385 28.8961 44.8099 28.8961 44.8099V45.8096H29.9743C30.1181 45.8096 30.2619 45.8096 30.3337 45.881C30.4056 45.9524 30.4056 46.0238 30.4056 46.1667C30.4056 46.2381 30.4056 46.3095 30.3337 46.3809C30.3337 46.4523 30.2618 46.5237 30.2618 46.5237H28.8242V48.2375C28.8242 48.3803 28.8242 48.4517 28.8961 48.5231C28.8961 48.5945 28.968 48.6659 29.0399 48.7373C29.1118 48.8087 29.1836 48.8087 29.2555 48.8087C29.3274 48.8087 29.3993 48.8087 29.543 48.8087C29.6868 48.8087 29.8306 48.8087 29.9743 48.7373C30.1181 48.6659 30.19 48.6659 30.2618 48.5945L30.6213 49.1657C30.5494 49.1657 30.5494 49.2371 30.4775 49.3086C30.4056 49.38 30.3337 49.38 30.19 49.4514C30.0462 49.5228 29.9743 49.5228 29.8306 49.5228C29.6868 49.5228 29.543 49.5942 29.3993 49.5942C28.968 49.5942 28.6086 49.4514 28.393 49.2371C28.1773 49.0229 28.0335 48.7373 28.0335 48.3089V45.0956H27.9617Z" fill="#F8BA00"/>
<path d="M34.9341 49.5944C34.7185 49.0231 34.5028 48.5233 34.2872 48.0948C34.1434 47.6664 33.9997 47.3808 33.9278 47.0951C33.8559 46.8095 33.784 46.5953 33.7121 46.4525C33.6403 46.3097 33.6403 46.2382 33.6403 46.1668C33.6403 46.0954 33.6403 45.9526 33.7121 45.8812C33.784 45.8098 33.9278 45.7384 34.0715 45.7384C34.2153 45.7384 34.2872 45.7384 34.3591 45.7384C34.4309 45.7384 34.4309 45.7384 34.5028 45.8098C34.5747 46.024 34.6466 46.2382 34.7185 46.5239C34.7904 46.7381 34.8622 47.0237 34.9341 47.2379C35.006 47.4522 35.0779 47.7378 35.1498 47.952C35.2216 48.1662 35.2935 48.3804 35.3654 48.5233C35.4373 48.3804 35.5092 48.1662 35.5092 47.952C35.581 47.7378 35.6529 47.5236 35.7248 47.3093C35.7967 47.0951 35.8686 46.8809 35.9404 46.6667C36.0123 46.4525 36.0842 46.2382 36.1561 46.024C36.228 45.8812 36.228 45.8098 36.2998 45.7384C36.3717 45.667 36.5155 45.667 36.6593 45.667C36.7311 45.667 36.8749 45.667 36.9468 45.7384C37.0187 45.7384 37.0905 45.8098 37.0905 45.8098C37.1624 46.024 37.2343 46.3097 37.3062 46.5239C37.3781 46.7381 37.4499 47.0237 37.5218 47.2379C37.5937 47.4522 37.6656 47.7378 37.7375 47.952C37.8093 48.1662 37.8812 48.3804 37.9531 48.5233C38.0969 48.1662 38.2406 47.8092 38.3844 47.3808C38.5282 46.9523 38.6719 46.5239 38.7438 46.1668C38.8157 46.024 38.8157 45.8812 38.8876 45.8098C38.9594 45.7384 39.1032 45.667 39.247 45.667C39.3907 45.667 39.4626 45.667 39.6064 45.7384C39.6782 45.8098 39.7501 45.8098 39.7501 45.8098C39.6782 45.9526 39.6064 46.2382 39.5345 46.5239C39.4626 46.8095 39.3188 47.1665 39.1751 47.4522C39.0313 47.8092 38.8876 48.1662 38.7438 48.5233C38.6 48.8803 38.4563 49.1659 38.3125 49.4515H37.4499C37.3781 49.3801 37.3781 49.1659 37.3062 48.9517C37.2343 48.7375 37.1624 48.5233 37.0905 48.309C37.0187 48.0948 36.9468 47.8092 36.8749 47.595C36.803 47.3093 36.7311 47.0951 36.6593 46.8809C36.5874 47.0951 36.5155 47.3093 36.4436 47.595C36.3717 47.8806 36.2998 48.0948 36.228 48.309C36.1561 48.5233 36.0842 48.8089 36.0123 48.9517C35.9404 49.1659 35.8686 49.3087 35.8686 49.4515H34.9341V49.5944Z" fill="#F8BA00"/>
<path d="M46.7226 49.5943C46.6507 49.5943 46.5788 49.5943 46.5069 49.5943C46.3632 49.5943 46.2913 49.5943 46.1475 49.6657C46.0038 49.6657 45.86 49.6657 45.6444 49.6657C45.4287 49.6657 45.285 49.6657 45.0693 49.6657C44.638 49.6657 44.3505 49.6657 44.1349 49.5943C43.9192 49.5229 43.7036 49.4515 43.5598 49.3087C43.4161 49.1659 43.3442 49.0945 43.2723 48.8803C43.1285 48.8089 43.1285 48.5946 43.1285 48.4518C43.1285 48.2376 43.1285 48.0948 43.2004 47.8806C43.2723 47.7378 43.3442 47.5949 43.4879 47.4521C43.6317 47.3807 43.8473 47.2379 44.063 47.2379C44.2786 47.1665 44.5662 47.1665 44.9256 47.1665C45.1412 47.1665 45.285 47.1665 45.5006 47.1665C45.6444 47.1665 45.7881 47.1665 45.86 47.1665C45.86 47.0237 45.86 46.8095 45.7881 46.7381C45.7162 46.5953 45.6444 46.5238 45.5725 46.4524C45.5006 46.381 45.3568 46.3096 45.2131 46.3096C45.0693 46.3096 44.9256 46.2382 44.7099 46.2382C44.4224 46.2382 44.2068 46.2382 43.9911 46.3096C43.7755 46.381 43.7036 46.4524 43.6317 46.4524C43.6317 46.4524 43.5598 46.381 43.4879 46.3096C43.4161 46.2382 43.4161 46.1668 43.4161 46.024C43.4161 45.9526 43.4161 45.8812 43.4879 45.8098C43.5598 45.7384 43.5598 45.667 43.7036 45.5956C43.7755 45.5242 43.9192 45.5242 44.063 45.4528C44.2068 45.4528 44.4224 45.3813 44.7099 45.3813C44.9974 45.3813 45.285 45.3813 45.5006 45.4528C45.7162 45.5242 45.9319 45.5956 46.1475 45.7384C46.3632 45.8812 46.4351 46.024 46.5788 46.2382C46.6507 46.4524 46.7226 46.6667 46.7226 46.9523V49.5943ZM45.86 47.8806C45.7881 47.8806 45.7162 47.8806 45.5725 47.8092C45.4287 47.8092 45.2131 47.8092 44.9256 47.8092C44.5662 47.8092 44.3505 47.8806 44.2068 47.952C44.063 48.0234 43.9911 48.2376 43.9911 48.4518C43.9911 48.5232 43.9911 48.5946 44.063 48.6661C44.063 48.7375 44.1349 48.8089 44.2068 48.8803C44.2786 48.9517 44.4224 48.9517 44.5662 49.0231C44.7099 49.0231 44.8537 49.0945 45.0693 49.0945C45.285 49.0945 45.5006 49.0945 45.6444 49.0945C45.7881 49.0945 45.86 49.0945 45.9319 49.0231V47.8806H45.86Z" fill="#F8BA00"/>
<path d="M50.676 47.1667C50.676 46.7382 50.8198 46.3098 51.1073 46.0956C51.3948 45.8099 51.8261 45.7385 52.3293 45.7385C52.6168 45.7385 52.9043 45.8099 53.12 45.8813C53.3356 45.9527 53.4075 46.0956 53.4075 46.3098C53.4075 46.3812 53.4075 46.4526 53.3356 46.524C53.2637 46.5954 53.1919 46.5954 53.1919 46.5954C53.12 46.524 52.9762 46.524 52.9043 46.4526C52.7606 46.4526 52.6168 46.3812 52.473 46.3812C51.898 46.3812 51.6105 46.6668 51.6105 47.3095V49.5231H50.7479V47.1667H50.676Z" fill="#F8BA00"/>
<path d="M60.2361 49.3086C60.1642 49.3086 60.1642 49.38 60.0205 49.38C59.9486 49.4514 59.8048 49.4514 59.6611 49.5228C59.5173 49.5942 59.3736 49.5942 59.2298 49.5942C59.086 49.5942 58.8704 49.6656 58.6547 49.6656C58.3672 49.6656 58.0797 49.5942 57.8641 49.5228C57.6484 49.4514 57.4328 49.3086 57.2171 49.1658C57.0015 49.023 56.8577 48.8088 56.7858 48.5231C56.714 48.3089 56.6421 48.0233 56.6421 47.6663C56.6421 47.3806 56.714 47.095 56.7858 46.8094C56.8577 46.5951 57.0015 46.3809 57.2171 46.1667C57.4328 45.9525 57.6484 45.8811 57.8641 45.7383C58.0797 45.6669 58.3672 45.5955 58.6547 45.5955C58.9423 45.5955 59.1579 45.5955 59.3736 45.6669C59.5892 45.7383 59.733 45.8097 59.8767 45.9525C60.0205 46.0953 60.0924 46.1667 60.1642 46.3809C60.2361 46.5237 60.2361 46.6666 60.2361 46.8808C60.2361 47.0236 60.2361 47.2378 60.1642 47.3806C60.0924 47.5234 59.9486 47.6663 59.8048 47.7377C59.6611 47.8091 59.4454 47.9519 59.1579 47.9519C58.8704 48.0233 58.511 48.0233 58.0797 48.0233C58.0078 48.0233 57.8641 48.0233 57.7922 48.0233C57.7203 48.0233 57.5765 48.0233 57.5047 48.0233C57.5765 48.3089 57.6484 48.5231 57.8641 48.6659C58.0797 48.8088 58.3672 48.8802 58.7985 48.8802C58.9423 48.8802 59.086 48.8802 59.1579 48.8802C59.3017 48.8802 59.3736 48.8088 59.4454 48.8088C59.5173 48.8088 59.5892 48.7374 59.6611 48.7374C59.733 48.7374 59.8048 48.6659 59.8048 48.6659L60.2361 49.3086ZM57.5047 47.5234C57.6484 47.5234 57.7203 47.5234 57.8641 47.5234C57.9359 47.5234 58.0797 47.5234 58.1516 47.5234C58.4391 47.5234 58.6548 47.5234 58.7985 47.452C58.9423 47.452 59.086 47.3806 59.2298 47.3092C59.3017 47.2378 59.3736 47.1664 59.4454 47.095C59.4454 47.0236 59.5173 46.9522 59.5173 46.8808C59.5173 46.6666 59.4454 46.5237 59.3017 46.4523C59.1579 46.3809 58.9423 46.3095 58.7266 46.3095C58.511 46.3095 58.3672 46.3095 58.2235 46.3809C58.0797 46.4523 57.9359 46.5237 57.8641 46.6666C57.7922 46.8094 57.7203 46.8808 57.6484 47.0236C57.5765 47.2378 57.5047 47.3806 57.5047 47.5234Z" fill="#F8BA00"/>
<path d="M32.0588 7.82144C31.9869 7.67863 31.9869 7.46441 32.0588 7.25019C32.2026 6.67893 32.8495 6.3219 33.4245 6.46471L37.6655 7.60722C38.2405 7.75003 38.5999 8.39269 38.4562 8.96395C38.3843 9.10676 38.3124 9.24957 38.2405 9.39239C38.2405 9.39239 38.1687 9.46379 38.0249 9.5352C37.378 9.96364 35.2215 11.4632 35.2215 11.4632C34.934 11.6774 34.5746 11.7488 34.2871 11.606C33.9277 11.5346 33.6402 11.249 33.5683 10.9633V11.0347L32.1307 7.96425C32.0588 7.75003 31.9869 7.46441 32.0588 7.17878C32.2026 6.60753 32.8495 6.25049 33.4245 6.39331L37.6655 7.53581C38.2405 7.67863 38.5999 8.32129 38.4562 8.89254C38.3843 9.17817 38.2405 9.39239 38.0249 9.5352" fill="#F8BA00"/>
<path d="M60.1642 19.2465L54.27 11.3204C53.1918 9.82082 51.6104 8.67831 49.8134 8.17846C49.2383 8.03565 48.6633 7.96424 48.0164 7.89284C47.4413 7.03596 46.5069 6.32189 45.3568 5.96486L27.6741 1.25202C26.4521 0.894983 25.2302 1.1092 24.2238 1.68046C23.5769 1.32342 22.93 1.0378 22.1393 0.823576C20.3423 0.323729 18.4015 0.537949 16.7482 1.32342L7.61939 5.25079C7.11622 5.46501 6.90058 6.03626 7.11622 6.53611C7.25999 6.82174 7.47563 7.03596 7.76315 7.10736C7.97879 7.17877 8.19444 7.17877 8.41008 7.03596L17.5389 3.10859C18.8328 2.53734 20.2704 2.39452 21.5643 2.75156C21.9237 2.82296 22.2831 2.96578 22.5706 3.10859C22.2831 3.53703 22.1393 3.96547 21.9955 4.39391L18.7609 16.4616C18.114 18.8895 19.5516 21.3887 21.9955 22.0314L39.6782 26.7442C42.1221 27.3869 44.638 25.9587 45.2849 23.5309L48.5195 11.4632C48.6633 10.9633 48.7352 10.4635 48.6633 9.96363C48.8789 9.96363 49.0227 10.035 49.2383 10.1064C50.6041 10.4635 51.7542 11.3204 52.5448 12.4629L58.4391 20.389C58.5828 20.6032 58.7985 20.6746 59.0141 20.746C59.3016 20.8174 59.5892 20.746 59.8767 20.6032C60.4517 20.3176 60.5236 19.6749 60.1642 19.2465ZM44.8536 7.89284C45.213 7.96424 45.5724 8.17846 45.7881 8.39268L35.4372 12.8913C35.4372 12.8913 35.3654 12.8913 35.3654 12.9627C34.9341 13.1769 34.4309 13.2483 33.9277 13.1055C33.4246 12.9627 32.9933 12.6771 32.7058 12.2486C32.7058 12.2486 32.7058 12.1772 32.6339 12.1772L25.949 3.18C26.3084 3.10859 26.7397 3.10859 27.0991 3.18L44.8536 7.89284ZM43.416 23.1025C43.0566 24.4592 41.619 25.2447 40.2532 24.8876L22.5706 20.1748C21.2048 19.8178 20.4142 18.3896 20.7736 17.0329L24.0082 4.96516C24.0801 4.67954 24.2238 4.46532 24.3676 4.2511L31.1244 13.3197C31.6994 14.1766 32.4901 14.7479 33.4246 14.9621C34.359 15.2477 35.4372 15.1049 36.2998 14.6765L46.7225 10.1779C46.7225 10.4635 46.7225 10.7491 46.6506 11.0347L43.416 23.1025Z" fill="white"/>
<path d="M16.7482 6.03633L10.7102 8.60697C10.207 8.82119 9.9914 9.39244 10.207 9.89229C10.3508 10.1779 10.5664 10.3921 10.854 10.4635C11.0696 10.535 11.2853 10.535 11.5009 10.3921L17.5389 7.8215C18.042 7.60728 18.2577 7.03602 18.042 6.53618C17.8264 6.03633 17.2514 5.82211 16.7482 6.03633Z" fill="white"/>
<path d="M15.2387 11.249L13.6574 11.8916C13.1542 12.1059 12.9385 12.6771 13.1542 13.177C13.2979 13.4626 13.5136 13.6768 13.8011 13.7482C14.0168 13.8196 14.2324 13.8196 14.448 13.6768L16.0294 13.0341C16.5326 12.8199 16.7482 12.2487 16.5326 11.7488C16.3169 11.249 15.7419 11.0348 15.2387 11.249Z" fill="white"/>
<path d="M51.8261 15.462L55.7076 20.7461C56.067 21.1745 55.9233 21.8172 55.492 22.1028C55.2045 22.317 54.917 22.317 54.6294 22.2456C54.4138 22.1742 54.1982 22.0314 54.1263 21.8886L50.2447 16.6045C49.8853 16.1761 50.0291 15.5334 50.4604 15.2478C50.8916 14.8907 51.5386 15.0335 51.8261 15.462Z" fill="white"/>
<path d="M50.5322 20.8175L51.5385 22.1742C51.8979 22.6026 51.7541 23.2453 51.3228 23.5309C51.0353 23.7451 50.7478 23.7451 50.4603 23.6737C50.2446 23.6023 50.029 23.4595 49.9571 23.3167L48.9508 22.0314C48.5914 21.6029 48.7351 20.9603 49.1664 20.6746C49.5977 20.3176 50.1727 20.389 50.5322 20.8175Z" fill="white"/>
</svg>
