<svg width="68" height="50" viewBox="0 0 68 50" fill="none" xmlns="http://www.w3.org/2000/svg">
<path d="M6.90055 40.1037C6.82867 40.1037 6.68491 40.1751 6.46927 40.1751C6.25362 40.1751 6.03798 40.2465 5.75046 40.2465C5.46294 40.2465 5.17541 40.3179 4.81601 40.3179C4.4566 40.3179 4.0972 40.3179 3.7378 40.3179C2.94711 40.3179 2.37206 40.2465 1.8689 40.1037C1.36573 39.9609 1.00633 39.818 0.718807 39.6038C0.431284 39.3896 0.287523 39.104 0.143761 38.8183C0.0718807 38.6041 0 38.3185 0 38.0329C0 37.6044 0.0718807 37.3188 0.215642 36.9618C0.359404 36.6761 0.503165 36.3905 0.790688 36.1763C1.07821 35.9621 1.43761 35.8193 1.8689 35.7479C2.30018 35.6764 2.87523 35.605 3.52216 35.605C3.88156 35.605 4.24096 35.605 4.60037 35.6764C4.95977 35.6764 5.17541 35.7479 5.31917 35.7479C5.31917 35.3908 5.24729 35.1052 5.17541 34.891C5.03165 34.6768 4.88789 34.4625 4.74413 34.3911C4.52849 34.2483 4.31284 34.1769 4.02532 34.1055C3.7378 34.0341 3.45028 34.0341 3.09087 34.0341C2.51583 34.0341 2.08454 34.1055 1.72514 34.2483C1.36573 34.3911 1.15009 34.4625 1.07821 34.5339C1.00633 34.4625 0.934449 34.3911 0.862569 34.2483C0.790688 34.1055 0.718807 33.9627 0.718807 33.7485C0.718807 33.6057 0.790688 33.4628 0.862569 33.32C0.934449 33.1772 1.07821 33.1058 1.22197 32.963C1.43761 32.8916 1.65326 32.7488 1.94078 32.7488C2.2283 32.6774 2.65959 32.6774 3.09087 32.6774C3.66592 32.6774 4.16908 32.7488 4.67225 32.8202C5.17541 32.963 5.53482 33.1058 5.89422 33.32C6.25362 33.5342 6.46927 33.8913 6.68491 34.2483C6.90055 34.6768 6.97243 35.1052 6.97243 35.6764V40.1037H6.90055ZM5.31917 36.8904C5.24729 36.8904 5.03165 36.819 4.74413 36.819C4.4566 36.7475 4.0972 36.7475 3.52216 36.7475C2.87523 36.7475 2.37206 36.819 2.08454 37.0332C1.79702 37.2474 1.65326 37.533 1.65326 37.9615C1.65326 38.1043 1.65326 38.3185 1.72514 38.4613C1.79702 38.6041 1.8689 38.7469 2.08454 38.8183C2.2283 38.8898 2.44394 38.9612 2.73147 39.0326C3.01899 39.104 3.30651 39.104 3.7378 39.104C4.16908 39.104 4.52849 39.104 4.81601 39.0326C5.10353 39.0326 5.24729 38.9612 5.31917 38.9612V36.8904Z" fill="#1062AA"/>
<path d="M8.69756 31.6063C8.69756 31.3206 8.76944 31.1064 8.9132 31.035C9.05696 30.8922 9.27261 30.8208 9.56013 30.8208C9.70389 30.8208 9.91953 30.8208 10.0633 30.8922C10.2071 30.9636 10.2789 30.9636 10.3508 30.9636V32.8202H12.4354C12.7229 32.8202 13.0104 32.8916 13.0823 33.0344C13.226 33.1772 13.2979 33.32 13.2979 33.6057C13.2979 33.7485 13.2979 33.8913 13.226 34.0341C13.1542 34.1769 13.1542 34.2483 13.0823 34.3197H10.2789V37.533C10.2789 37.8187 10.2789 37.9615 10.3508 38.1757C10.4227 38.3185 10.4946 38.4613 10.6383 38.5327C10.7821 38.6041 10.9259 38.6755 11.0696 38.7469C11.2134 38.8184 11.429 38.8184 11.5728 38.8184C11.8603 38.8184 12.1478 38.7469 12.3635 38.6755C12.5791 38.6041 12.7948 38.5327 12.8666 38.4613L13.5136 39.5324C13.4417 39.6038 13.2979 39.6752 13.1542 39.7466C13.0104 39.818 12.8666 39.8894 12.651 39.9609C12.4354 40.0323 12.2197 40.1037 11.9322 40.1751C11.6447 40.2465 11.429 40.2465 11.0696 40.2465C10.2071 40.2465 9.56013 40.0323 9.12884 39.6038C8.69756 39.1754 8.48192 38.6041 8.48192 37.8901V31.6063H8.69756Z" fill="#1062AA"/>
<path d="M18.1858 32.6774C18.7609 32.6774 19.264 32.7488 19.7672 32.963C20.2704 33.1772 20.7017 33.3914 21.0611 33.7485C21.4205 34.1055 21.708 34.4625 21.9236 34.9624C22.1393 35.4622 22.2111 35.9621 22.2111 36.4619C22.2111 37.0332 22.1393 37.533 21.9236 37.9615C21.708 38.4613 21.4205 38.8183 21.0611 39.1754C20.7017 39.5324 20.2704 39.818 19.7672 39.9608C19.264 40.1751 18.7609 40.2465 18.1858 40.2465C17.6108 40.2465 17.1076 40.1751 16.6045 39.9608C16.1013 39.7466 15.67 39.461 15.3106 39.1754C14.9512 38.8183 14.6637 38.4613 14.448 37.9615C14.2324 37.4616 14.1605 36.9618 14.1605 36.4619C14.1605 35.8907 14.2324 35.3908 14.448 34.9624C14.6637 34.4625 14.9512 34.1055 15.3106 33.7485C15.67 33.3914 16.1013 33.1058 16.6045 32.963C17.1076 32.7488 17.6108 32.6774 18.1858 32.6774ZM18.1858 38.8897C18.5452 38.8897 18.8328 38.8183 19.1203 38.6755C19.4078 38.5327 19.6234 38.3899 19.8391 38.1757C20.0547 37.9615 20.1985 37.6758 20.2704 37.3902C20.4141 37.1046 20.4141 36.819 20.4141 36.4619C20.4141 36.1049 20.3423 35.8193 20.2704 35.5336C20.1266 35.248 19.9828 34.9624 19.8391 34.7482C19.6234 34.5339 19.4078 34.3911 19.1203 34.2483C18.8328 34.1055 18.5452 34.0341 18.1858 34.0341C17.8264 34.0341 17.5389 34.1055 17.2514 34.2483C16.9639 34.3911 16.7482 34.5339 16.5326 34.7482C16.3169 34.9624 16.1732 35.248 16.1013 35.5336C15.9575 35.8193 15.9575 36.1763 15.9575 36.4619C15.9575 36.819 16.0294 37.1046 16.1013 37.3902C16.245 37.6758 16.3888 37.8901 16.5326 38.1757C16.7482 38.3899 16.9639 38.5327 17.2514 38.6755C17.5389 38.8183 17.8264 38.8897 18.1858 38.8897Z" fill="#1062AA"/>
<path d="M23.5769 35.4622C23.5769 35.0338 23.6488 34.6053 23.7925 34.2483C23.9363 33.8913 24.1519 33.6057 24.4395 33.3914C24.727 33.1772 25.0864 32.963 25.4458 32.8916C25.8052 32.7488 26.2365 32.6774 26.7396 32.6774C27.3147 32.6774 27.8897 32.8202 28.321 33.0344C28.8242 33.2486 29.1836 33.6057 29.4711 34.0341C29.7586 33.6057 30.118 33.2486 30.6212 33.0344C31.0525 32.8202 31.6275 32.6774 32.2026 32.6774C32.6339 32.6774 33.0652 32.7488 33.4246 32.8202C33.784 32.963 34.1434 33.1058 34.4309 33.32C34.7184 33.5342 34.934 33.8199 35.0778 34.1769C35.2216 34.5339 35.2935 34.9624 35.2935 35.3908V40.1037H33.6402V35.9621C33.6402 35.3194 33.4964 34.8196 33.2089 34.5339C32.9214 34.2483 32.4901 34.1055 31.9869 34.1055C31.4838 34.1055 31.0525 34.2483 30.765 34.6053C30.4056 34.891 30.2618 35.4622 30.2618 36.1763V40.1037H28.6085V36.1763C28.6085 35.4622 28.4648 34.9624 28.1054 34.6053C27.746 34.3197 27.3866 34.1055 26.8834 34.1055C26.3802 34.1055 25.949 34.2483 25.6614 34.5339C25.3739 34.8196 25.2302 35.3194 25.2302 35.9621V40.0323H23.5769V35.4622Z" fill="#1062AA"/>
<path d="M36.8748 36.819C36.8748 36.1763 36.9467 35.5336 37.1623 35.0338C37.378 34.5339 37.5936 34.1055 37.953 33.7485C38.3124 33.3914 38.7437 33.1058 39.2469 32.963C39.7501 32.7488 40.2532 32.6774 40.9001 32.6774C41.4752 32.6774 41.9784 32.7488 42.4096 32.963C42.8409 33.1772 43.2722 33.3914 43.6316 33.7485C43.991 34.1055 44.2785 34.4625 44.4223 34.9624C44.6379 35.4622 44.7098 35.9621 44.7098 36.4619C44.7098 37.0332 44.6379 37.533 44.4223 38.0329C44.2067 38.5327 43.991 38.8897 43.6316 39.2468C43.2722 39.6038 42.9128 39.818 42.4815 40.0323C42.0502 40.2465 41.5471 40.3179 40.972 40.3179C40.397 40.3179 39.9657 40.2465 39.5344 40.0323C39.1031 39.818 38.7437 39.5324 38.5281 39.2468V43.0313H36.8748V36.819ZM40.8283 38.8897C41.1877 38.8897 41.4752 38.8183 41.7627 38.6755C42.0502 38.5327 42.2659 38.3899 42.4815 38.1757C42.6972 37.9615 42.8409 37.7472 42.9128 37.3902C42.9847 37.1046 43.0566 36.819 43.0566 36.4619C43.0566 36.1049 42.9847 35.8193 42.9128 35.5336C42.8409 35.248 42.6253 35.0338 42.4815 34.8196C42.2659 34.6053 42.0502 34.4625 41.7627 34.3197C41.4752 34.1769 41.1877 34.1055 40.8283 34.1055C40.4689 34.1055 40.1813 34.1769 39.8938 34.2483C39.6063 34.3911 39.3907 34.5339 39.175 34.7482C38.9594 34.9624 38.8156 35.1766 38.7437 35.4622C38.6 35.7479 38.6 36.0335 38.6 36.3905C38.6 36.7475 38.6718 37.0332 38.7437 37.3188C38.8875 37.6044 39.0312 37.8901 39.175 38.1043C39.3907 38.3185 39.6063 38.4613 39.8938 38.6041C40.1813 38.8183 40.4689 38.8897 40.8283 38.8897Z" fill="#1062AA"/>
<path d="M52.7604 40.1038C52.6886 40.1038 52.5448 40.1752 52.3292 40.1752C52.1135 40.1752 51.8979 40.2466 51.6104 40.2466C51.3228 40.2466 51.0353 40.318 50.6759 40.318C50.3165 40.318 49.9571 40.318 49.5977 40.318C48.807 40.318 48.232 40.2466 47.7288 40.1038C47.2256 39.961 46.8662 39.8182 46.5787 39.6039C46.2912 39.3897 46.1474 39.1041 46.0037 38.8185C45.9318 38.5328 45.8599 38.2472 45.8599 37.9616C45.8599 37.5331 45.9318 37.2475 46.0755 36.8905C46.2193 36.6049 46.3631 36.3192 46.6506 36.105C46.9381 35.8908 47.2975 35.748 47.7288 35.6766C48.1601 35.6052 48.7351 35.5338 49.382 35.5338C49.7415 35.5338 50.1009 35.5338 50.4603 35.6052C50.8197 35.6052 51.0353 35.6766 51.1791 35.6766C51.1791 35.3195 51.1072 35.0339 51.0353 34.8197C50.8915 34.6055 50.7478 34.3912 50.604 34.3198C50.3884 34.177 50.1727 34.1056 49.8852 34.0342C49.5977 33.9628 49.3102 33.9628 48.9508 33.9628C48.3757 33.9628 47.9444 34.0342 47.585 34.177C47.2256 34.3198 47.01 34.3912 46.9381 34.4627C46.8662 34.3912 46.7943 34.3198 46.7225 34.177C46.6506 34.0342 46.5787 33.8914 46.5787 33.6772C46.5787 33.5344 46.6506 33.3916 46.7225 33.2487C46.7943 33.1059 46.9381 33.0345 47.0819 32.8917C47.2975 32.8203 47.5132 32.6775 47.8007 32.6775C48.0882 32.6061 48.5195 32.6061 48.9508 32.6061C49.5258 32.6061 50.029 32.6775 50.5321 32.7489C51.0353 32.8917 51.3947 33.0345 51.7541 33.2487C52.1135 33.463 52.3292 33.82 52.5448 34.177C52.7604 34.6055 52.8323 35.0339 52.8323 35.6052V40.1038H52.7604ZM51.1072 36.8905C51.0353 36.8905 50.8197 36.8191 50.5321 36.8191C50.2446 36.7477 49.8852 36.7477 49.3102 36.7477C48.6632 36.7477 48.1601 36.8191 47.8726 37.0333C47.585 37.2475 47.4413 37.5331 47.4413 37.9616C47.4413 38.1044 47.4413 38.3186 47.5132 38.4614C47.585 38.6042 47.6569 38.7471 47.8726 38.8185C48.0163 38.8899 48.232 38.9613 48.5195 39.0327C48.807 39.1041 49.0945 39.1041 49.5258 39.1041C49.9571 39.1041 50.3165 39.1041 50.604 39.0327C50.8915 39.0327 51.0353 38.9613 51.1072 38.9613V36.8905Z" fill="#1062AA"/>
<path d="M54.4137 35.4622C54.4137 34.6053 54.7012 33.8913 55.2044 33.3914C55.7794 32.8916 56.4983 32.6774 57.5046 32.6774C58.0796 32.6774 58.5828 32.7488 59.0141 32.963C59.3735 33.1058 59.5891 33.3914 59.5891 33.7485C59.5891 33.8913 59.5172 34.1055 59.4454 34.2483C59.3735 34.3911 59.3016 34.5339 59.2297 34.5339C59.086 34.4625 58.8703 34.3911 58.6547 34.3197C58.439 34.2483 58.1515 34.2483 57.7921 34.2483C56.642 34.2483 56.067 34.8196 56.067 36.0335V40.2465H54.4137V35.4622Z" fill="#1062AA"/>
<path d="M60.4517 30.2496C60.4517 29.964 60.5236 29.8211 60.6674 29.6783C60.8111 29.5355 61.0268 29.4641 61.3143 29.4641C61.458 29.4641 61.6737 29.4641 61.8174 29.5355C61.9612 29.6069 62.0331 29.6069 62.105 29.6069V35.5337C62.2487 35.4623 62.3925 35.3195 62.6081 35.1766C62.8238 35.0338 63.1113 34.8196 63.3988 34.6054C63.6863 34.3912 63.9739 34.177 64.2614 33.9627C64.5489 33.7485 64.8364 33.5343 65.1239 33.3201C65.3396 33.1773 65.5552 33.0344 65.699 32.963C65.8428 32.8916 66.1303 32.8202 66.4178 32.8202C66.7053 32.8202 66.921 32.8916 67.0647 33.0344C67.2804 33.1773 67.3523 33.3201 67.4241 33.3915C67.2085 33.6057 66.921 33.8199 66.5616 34.0341C66.2022 34.3198 65.8428 34.534 65.4834 34.8196C65.1239 35.1052 64.7645 35.3195 64.4051 35.5337C64.0457 35.7479 63.8301 35.8907 63.6863 36.0335C64.477 36.6048 65.2677 37.3188 65.9146 38.0329C66.5616 38.747 67.1366 39.3896 67.6398 40.0323H65.5552C65.3396 39.7467 65.0521 39.461 64.8364 39.1754C64.5489 38.8898 64.2614 38.6042 63.9739 38.3185C63.6863 38.0329 63.3269 37.7473 63.0394 37.4617C62.68 37.176 62.3925 36.9618 62.105 36.7476V40.0323H60.4517V30.2496Z" fill="#1062AA"/>
<path d="M7.1162 48.3156C7.1162 48.3156 7.18808 48.387 7.33184 48.387C7.40372 48.4584 7.54748 48.4584 7.69124 48.5298C7.835 48.6012 7.97877 48.6012 8.12253 48.6727C8.26629 48.6727 8.48193 48.7441 8.69757 48.7441C8.9851 48.7441 9.20074 48.7441 9.3445 48.6727C9.48826 48.6012 9.56014 48.4584 9.56014 48.3156C9.56014 48.1728 9.48826 48.1014 9.41638 48.03C9.3445 47.9586 9.12886 47.8872 8.84133 47.8872L8.26629 47.8158C8.05065 47.8158 7.90689 47.7444 7.69124 47.673C7.4756 47.6016 7.40372 47.5301 7.25996 47.4587C7.1162 47.3873 7.04432 47.2445 6.97244 47.1017C6.90055 46.9589 6.90056 46.8161 6.90056 46.6019C6.90056 46.459 6.90055 46.3162 6.97244 46.1734C7.04432 46.0306 7.1162 45.8878 7.25996 45.8164C7.40372 45.6736 7.54748 45.6022 7.76312 45.5308C7.97877 45.4594 8.26629 45.4594 8.55381 45.4594C9.05698 45.4594 9.48826 45.5308 9.77578 45.6022C10.0633 45.745 10.2071 45.8878 10.2071 46.0306C10.2071 46.102 10.2071 46.1734 10.2071 46.1734C10.2071 46.1734 10.1352 46.2448 10.1352 46.3162L10.0633 46.3876L9.99143 46.459C9.99143 46.459 9.91955 46.3876 9.84766 46.3876C9.77578 46.3162 9.7039 46.3162 9.56014 46.2448C9.41638 46.1734 9.27262 46.1734 9.12886 46.102C8.9851 46.102 8.76945 46.0306 8.55381 46.0306C7.97877 46.0306 7.69124 46.1734 7.69124 46.459C7.69124 46.6019 7.76312 46.6733 7.835 46.7447C7.97877 46.8161 8.12253 46.8875 8.33817 46.8875L9.12886 46.9589C9.56014 47.0303 9.84766 47.1017 10.1352 47.3159C10.4227 47.5301 10.4946 47.7444 10.4946 48.1014C10.4946 48.4584 10.3508 48.8155 10.0633 49.0297C9.77578 49.2439 9.3445 49.3867 8.76945 49.3867C8.48193 49.3867 8.26629 49.3867 8.05065 49.3153C7.835 49.2439 7.61936 49.2439 7.4756 49.1725C7.33184 49.1011 7.18808 49.1011 7.04432 49.0297C6.97244 48.9583 6.90056 48.9583 6.82867 48.8869L7.1162 48.3156Z" fill="#F8BA00"/>
<path d="M16.1732 45.3165C16.4607 45.3165 16.7482 45.3879 16.9639 45.4593C17.2514 45.5307 17.467 45.6736 17.6108 45.8878C17.8264 46.102 17.9702 46.2448 18.0421 46.5304C18.1139 46.7447 18.1858 47.0303 18.1858 47.3159C18.1858 47.6015 18.1139 47.8872 18.0421 48.1014C17.9702 48.3156 17.7545 48.5298 17.6108 48.7441C17.3951 48.9583 17.1795 49.0297 16.9639 49.1725C16.6763 49.2439 16.4607 49.3153 16.1732 49.3153C15.8856 49.3153 15.5981 49.2439 15.3825 49.1725C15.095 49.1011 14.8793 48.9583 14.7356 48.7441C14.5199 48.5298 14.3761 48.387 14.3043 48.1014C14.2324 47.8872 14.1605 47.6015 14.1605 47.3159C14.1605 47.0303 14.2324 46.7447 14.3043 46.5304C14.3761 46.3162 14.5918 46.102 14.7356 45.8878C14.9512 45.6736 15.1668 45.6022 15.3825 45.4593C15.5981 45.3879 15.8856 45.3165 16.1732 45.3165ZM16.1732 48.6012C16.3169 48.6012 16.5326 48.6012 16.6763 48.5298C16.8201 48.4584 16.9639 48.387 17.0357 48.2442C17.1076 48.1014 17.2514 48.03 17.2514 47.8158C17.3233 47.673 17.3233 47.5301 17.3233 47.3159C17.3233 47.1731 17.3233 46.9589 17.2514 46.8161C17.1795 46.6733 17.1076 46.5304 17.0357 46.3876C16.9639 46.2448 16.8201 46.1734 16.6763 46.102C16.5326 46.0306 16.3888 46.0306 16.1732 46.0306C16.0294 46.0306 15.8138 46.0306 15.67 46.102C15.5262 46.1734 15.3825 46.2448 15.3106 46.3876C15.2387 46.5304 15.095 46.6018 15.095 46.8161C15.0231 46.9589 15.0231 47.1017 15.0231 47.3159C15.0231 47.4587 15.0231 47.673 15.095 47.8158C15.1668 47.9586 15.2387 48.1014 15.3106 48.2442C15.3825 48.387 15.5262 48.4584 15.67 48.5298C15.8856 48.5298 16.0294 48.6012 16.1732 48.6012Z" fill="#F8BA00"/>
<path d="M22.0674 45.1737C22.0674 44.8881 22.1393 44.6739 22.2112 44.4597C22.283 44.2454 22.4268 44.1026 22.4987 43.9598C22.6424 43.817 22.7862 43.7456 23.0018 43.6742C23.2175 43.6028 23.4331 43.6028 23.6488 43.6028C24.0801 43.6028 24.3676 43.6742 24.5113 43.7456C24.6551 43.817 24.7989 43.9598 24.7989 44.1026C24.7989 44.174 24.7989 44.2454 24.727 44.3169C24.6551 44.3883 24.6551 44.4597 24.5832 44.4597C24.5113 44.3883 24.3676 44.3169 24.2238 44.3169C24.0801 44.2454 23.9363 44.2454 23.7925 44.2454C23.505 44.2454 23.2894 44.3169 23.1456 44.4597C23.0018 44.6025 22.93 44.8167 22.93 45.1023V45.3165H24.0801C24.2238 45.3165 24.3676 45.3165 24.4395 45.388C24.5113 45.4594 24.5113 45.5308 24.5113 45.6736C24.5113 45.745 24.5113 45.8164 24.4395 45.8878C24.4395 45.9592 24.3676 46.0306 24.3676 46.0306H22.8581V49.0297H21.9955V45.1737H22.0674Z" fill="#F8BA00"/>
<path d="M27.9616 44.7452C27.9616 44.6024 28.0335 44.531 28.1054 44.4596C28.1773 44.3882 28.321 44.3882 28.4648 44.3882C28.5367 44.3882 28.6085 44.3882 28.7523 44.3882C28.8242 44.3882 28.8961 44.4596 28.8961 44.4596V45.4593H29.9743C30.118 45.4593 30.2618 45.4593 30.3337 45.5307C30.4056 45.6021 30.4056 45.6735 30.4056 45.8163C30.4056 45.8877 30.4056 45.9591 30.3337 46.0305C30.3337 46.1019 30.2618 46.1734 30.2618 46.1734H28.8242V47.8871C28.8242 48.0299 28.8242 48.1013 28.8961 48.1727C28.8961 48.2441 28.9679 48.3156 29.0398 48.387C29.1117 48.4584 29.1836 48.4584 29.2555 48.4584C29.3273 48.4584 29.3992 48.4584 29.543 48.4584C29.6868 48.4584 29.8305 48.4584 29.9743 48.387C30.118 48.3156 30.1899 48.3156 30.2618 48.2441L30.6212 48.8154C30.5493 48.8154 30.5493 48.8868 30.4774 48.9582C30.4056 49.0296 30.3337 49.0296 30.1899 49.101C30.0462 49.1724 29.9743 49.1724 29.8305 49.1724C29.6868 49.1724 29.543 49.2438 29.3992 49.2438C28.9679 49.2438 28.6085 49.101 28.3929 48.8868C28.1773 48.6726 28.0335 48.387 28.0335 47.9585V44.7452H27.9616Z" fill="#F8BA00"/>
<path d="M34.9341 49.2439C34.7184 48.6726 34.5028 48.1728 34.2871 47.7444C34.1434 47.3159 33.9996 47.0303 33.9277 46.7447C33.8558 46.459 33.784 46.2448 33.7121 46.102C33.6402 45.9592 33.6402 45.8878 33.6402 45.8164C33.6402 45.745 33.6402 45.6022 33.7121 45.5308C33.784 45.4593 33.9277 45.3879 34.0715 45.3879C34.2152 45.3879 34.2871 45.3879 34.359 45.3879C34.4309 45.3879 34.4309 45.3879 34.5028 45.4593C34.5746 45.6736 34.6465 45.8878 34.7184 46.1734C34.7903 46.3876 34.8622 46.6733 34.9341 46.8875C35.0059 47.1017 35.0778 47.3873 35.1497 47.6015C35.2216 47.8158 35.2935 48.03 35.3653 48.1728C35.4372 48.03 35.5091 47.8158 35.5091 47.6015C35.581 47.3873 35.6529 47.1731 35.7247 46.9589C35.7966 46.7447 35.8685 46.5304 35.9404 46.3162C36.0123 46.102 36.0841 45.8878 36.156 45.6736C36.2279 45.5307 36.2279 45.4593 36.2998 45.3879C36.3717 45.3165 36.5154 45.3165 36.6592 45.3165C36.7311 45.3165 36.8748 45.3165 36.9467 45.3879C37.0186 45.3879 37.0905 45.4593 37.0905 45.4593C37.1624 45.6736 37.2342 45.9592 37.3061 46.1734C37.378 46.3876 37.4499 46.6733 37.5218 46.8875C37.5936 47.1017 37.6655 47.3873 37.7374 47.6015C37.8093 47.8158 37.8812 48.03 37.953 48.1728C38.0968 47.8158 38.2406 47.4587 38.3843 47.0303C38.5281 46.6019 38.6719 46.1734 38.7437 45.8164C38.8156 45.6736 38.8156 45.5307 38.8875 45.4593C38.9594 45.3879 39.1031 45.3165 39.2469 45.3165C39.3907 45.3165 39.4625 45.3165 39.6063 45.3879C39.6782 45.4593 39.7501 45.4593 39.7501 45.4593C39.6782 45.6022 39.6063 45.8878 39.5344 46.1734C39.4625 46.459 39.3188 46.8161 39.175 47.1017C39.0313 47.4587 38.8875 47.8158 38.7437 48.1728C38.6 48.5298 38.4562 48.8155 38.3124 49.1011H37.4499C37.378 49.0297 37.378 48.8155 37.3061 48.6012C37.2342 48.387 37.1624 48.1728 37.0905 47.9586C37.0186 47.7444 36.9467 47.4587 36.8748 47.2445C36.8029 46.9589 36.7311 46.7447 36.6592 46.5304C36.5873 46.7447 36.5154 46.9589 36.4435 47.2445C36.3717 47.5301 36.2998 47.7444 36.2279 47.9586C36.156 48.1728 36.0841 48.4584 36.0123 48.6012C35.9404 48.8155 35.8685 48.9583 35.8685 49.1011H34.9341V49.2439Z" fill="#F8BA00"/>
<path d="M46.7225 49.2439C46.6506 49.2439 46.5787 49.2439 46.5069 49.2439C46.3631 49.2439 46.2912 49.2439 46.1474 49.3153C46.0037 49.3153 45.8599 49.3153 45.6443 49.3153C45.4286 49.3153 45.2849 49.3153 45.0692 49.3153C44.638 49.3153 44.3504 49.3153 44.1348 49.2439C43.9191 49.1725 43.7035 49.1011 43.5597 48.9582C43.416 48.8154 43.3441 48.744 43.2722 48.5298C43.1285 48.4584 43.1285 48.2442 43.1285 48.1014C43.1285 47.8871 43.1285 47.7443 43.2003 47.5301C43.2722 47.3873 43.3441 47.2445 43.4879 47.1017C43.6316 47.0303 43.8473 46.8875 44.0629 46.8875C44.2785 46.816 44.5661 46.816 44.9255 46.816C45.1411 46.816 45.2849 46.816 45.5005 46.816C45.6443 46.816 45.788 46.816 45.8599 46.816C45.8599 46.6732 45.8599 46.459 45.788 46.3876C45.7162 46.2448 45.6443 46.1734 45.5724 46.102C45.5005 46.0306 45.3568 45.9592 45.213 45.9592C45.0692 45.9592 44.9255 45.8878 44.7098 45.8878C44.4223 45.8878 44.2067 45.8878 43.991 45.9592C43.7754 46.0306 43.7035 46.102 43.6316 46.102C43.6316 46.102 43.5597 46.0306 43.4879 45.9592C43.416 45.8878 43.416 45.8164 43.416 45.6735C43.416 45.6021 43.416 45.5307 43.4879 45.4593C43.5597 45.3879 43.5597 45.3165 43.7035 45.2451C43.7754 45.1737 43.9191 45.1737 44.0629 45.1023C44.2067 45.1023 44.4223 45.0309 44.7098 45.0309C44.9974 45.0309 45.2849 45.0309 45.5005 45.1023C45.7162 45.1737 45.9318 45.2451 46.1474 45.3879C46.3631 45.5307 46.435 45.6735 46.5787 45.8878C46.6506 46.102 46.7225 46.3162 46.7225 46.6018V49.2439ZM45.8599 47.5301C45.788 47.5301 45.7162 47.5301 45.5724 47.4587C45.4286 47.4587 45.213 47.4587 44.9255 47.4587C44.5661 47.4587 44.3504 47.5301 44.2067 47.6015C44.0629 47.6729 43.991 47.8871 43.991 48.1014C43.991 48.1728 43.991 48.2442 44.0629 48.3156C44.0629 48.387 44.1348 48.4584 44.2067 48.5298C44.2785 48.6012 44.4223 48.6012 44.5661 48.6726C44.7098 48.6726 44.8536 48.744 45.0692 48.744C45.2849 48.744 45.5005 48.744 45.6443 48.744C45.788 48.744 45.8599 48.744 45.9318 48.6726V47.5301H45.8599Z" fill="#F8BA00"/>
<path d="M50.6759 46.8161C50.6759 46.3876 50.8197 45.9592 51.1072 45.745C51.3947 45.4593 51.826 45.3879 52.3292 45.3879C52.6167 45.3879 52.9042 45.4593 53.1199 45.5308C53.3355 45.6022 53.4074 45.745 53.4074 45.9592C53.4074 46.0306 53.4074 46.102 53.3355 46.1734C53.2636 46.2448 53.1917 46.2448 53.1917 46.2448C53.1199 46.1734 52.9761 46.1734 52.9042 46.102C52.7605 46.102 52.6167 46.0306 52.4729 46.0306C51.8979 46.0306 51.6104 46.3162 51.6104 46.9589V49.1725H50.7478V46.8161H50.6759Z" fill="#F8BA00"/>
<path d="M60.2361 48.9583C60.1642 48.9583 60.1642 49.0297 60.0204 49.0297C59.9485 49.1011 59.8048 49.1011 59.661 49.1725C59.5173 49.2439 59.3735 49.2439 59.2297 49.2439C59.086 49.2439 58.8703 49.3153 58.6547 49.3153C58.3672 49.3153 58.0796 49.2439 57.864 49.1725C57.6484 49.1011 57.4327 48.9583 57.2171 48.8154C57.0014 48.6726 56.8577 48.4584 56.7858 48.1728C56.7139 47.9586 56.642 47.6729 56.642 47.3159C56.642 47.0303 56.7139 46.7447 56.7858 46.459C56.8577 46.2448 57.0014 46.0306 57.2171 45.8164C57.4327 45.6021 57.6484 45.5307 57.864 45.3879C58.0796 45.3165 58.3672 45.2451 58.6547 45.2451C58.9422 45.2451 59.1579 45.2451 59.3735 45.3165C59.5891 45.3879 59.7329 45.4593 59.8767 45.6022C60.0204 45.745 60.0923 45.8164 60.1642 46.0306C60.2361 46.1734 60.2361 46.3162 60.2361 46.5304C60.2361 46.6733 60.2361 46.8875 60.1642 47.0303C60.0923 47.1731 59.9485 47.3159 59.8048 47.3873C59.661 47.4587 59.4454 47.6015 59.1579 47.6015C58.8703 47.6729 58.5109 47.6729 58.0796 47.6729C58.0078 47.6729 57.864 47.6729 57.7921 47.6729C57.7202 47.6729 57.5765 47.6729 57.5046 47.6729C57.5765 47.9586 57.6484 48.1728 57.864 48.3156C58.0796 48.4584 58.3672 48.5298 58.7985 48.5298C58.9422 48.5298 59.086 48.5298 59.1579 48.5298C59.3016 48.5298 59.3735 48.4584 59.4454 48.4584C59.5173 48.4584 59.5891 48.387 59.661 48.387C59.7329 48.387 59.8048 48.3156 59.8048 48.3156L60.2361 48.9583ZM57.5046 47.1731C57.6484 47.1731 57.7202 47.1731 57.864 47.1731C57.9359 47.1731 58.0796 47.1731 58.1515 47.1731C58.439 47.1731 58.6547 47.1731 58.7985 47.1017C58.9422 47.1017 59.086 47.0303 59.2297 46.9589C59.3016 46.8875 59.3735 46.8161 59.4454 46.7447C59.4454 46.6732 59.5173 46.6018 59.5173 46.5304C59.5173 46.3162 59.4454 46.1734 59.3016 46.102C59.1579 46.0306 58.9422 45.9592 58.7266 45.9592C58.5109 45.9592 58.3672 45.9592 58.2234 46.0306C58.0796 46.102 57.9359 46.1734 57.864 46.3162C57.7921 46.459 57.7202 46.5304 57.6484 46.6733C57.5765 46.8875 57.5046 47.0303 57.5046 47.1731Z" fill="#F8BA00"/>
<path d="M32.0588 7.47086C31.9869 7.32804 31.9869 7.11382 32.0588 6.8996C32.2026 6.32835 32.8495 5.97131 33.4245 6.11413L37.6655 7.25664C38.2406 7.39945 38.6 8.04211 38.4562 8.61336C38.3843 8.75617 38.3124 8.89899 38.2406 9.0418C38.2406 9.0418 38.1687 9.11321 38.0249 9.18462C37.378 9.61306 35.2216 11.1126 35.2216 11.1126C34.934 11.3268 34.5746 11.3982 34.2871 11.2554C33.9277 11.184 33.6402 10.8984 33.5683 10.6127V10.6842L32.1307 7.61367C32.0588 7.39945 31.9869 7.11382 32.0588 6.82819C32.2026 6.25694 32.8495 5.89991 33.4245 6.04272L37.6655 7.18523C38.2406 7.32804 38.6 7.9707 38.4562 8.54196C38.3843 8.82758 38.2406 9.0418 38.0249 9.18462" fill="#F8BA00"/>
<path d="M60.1642 18.8959L54.2699 10.9698C53.1917 9.47023 51.6104 8.32773 49.8133 7.82788C49.2383 7.68507 48.6632 7.61366 48.0163 7.54225C47.4413 6.68537 46.5068 5.9713 45.3567 5.61427L27.6741 0.90143C26.4521 0.544397 25.2301 0.758617 24.2238 1.32987C23.5769 0.972837 22.9299 0.68721 22.1393 0.47299C20.3422 -0.0268566 18.4015 0.187363 16.7482 0.972837L7.61934 4.9002C7.11618 5.11442 6.90054 5.68568 7.11618 6.18552C7.25994 6.47115 7.47558 6.68537 7.76311 6.75678C7.97875 6.82819 8.19439 6.82819 8.41003 6.68537L17.5389 2.758C18.8327 2.18675 20.2704 2.04394 21.5642 2.40097C21.9236 2.47238 22.283 2.61519 22.5705 2.758C22.283 3.18644 22.1393 3.61488 21.9955 4.04332L18.7609 16.1111C18.1139 18.5389 19.5515 21.0381 21.9955 21.6808L39.6782 26.3936C42.1221 27.0363 44.6379 25.6081 45.2848 23.1803L48.5195 11.1126C48.6632 10.6127 48.7351 10.1129 48.6632 9.61305C48.8789 9.61305 49.0226 9.68445 49.2383 9.75586C50.604 10.1129 51.7541 10.9698 52.5448 12.1123L58.439 20.0384C58.5828 20.2526 58.7984 20.324 59.0141 20.3955C59.3016 20.4669 59.5891 20.3955 59.8766 20.2526C60.4517 19.967 60.5236 19.3244 60.1642 18.8959ZM44.8536 7.54225C45.213 7.61366 45.5724 7.82788 45.788 8.0421L35.4372 12.5407C35.4372 12.5407 35.3653 12.5407 35.3653 12.6121C34.934 12.8263 34.4309 12.8978 33.9277 12.7549C33.4245 12.6121 32.9932 12.3265 32.7057 11.8981C32.7057 11.8981 32.7057 11.8267 32.6338 11.8267L25.9489 2.82941C26.3083 2.758 26.7396 2.758 27.099 2.82941L44.8536 7.54225ZM43.4159 22.7519C43.0565 24.1086 41.6189 24.8941 40.2532 24.537L22.5705 19.8242C21.2048 19.4672 20.4141 18.039 20.7735 16.6823L24.0082 4.61458C24.08 4.32895 24.2238 4.11473 24.3676 3.90051L31.1243 12.9692C31.6994 13.826 32.4901 14.3973 33.4245 14.6115C34.359 14.8971 35.4372 14.7543 36.2998 14.3259L46.7225 9.82727C46.7225 10.1129 46.7225 10.3985 46.6506 10.6841L43.4159 22.7519Z" fill="#1062AA"/>
<path d="M16.7482 5.68574L10.7102 8.25638C10.2071 8.4706 9.99142 9.04186 10.2071 9.54171C10.3508 9.82733 10.5665 10.0416 10.854 10.113C11.0696 10.1844 11.2853 10.1844 11.5009 10.0416L17.5389 7.47091C18.0421 7.25669 18.2577 6.68544 18.0421 6.18559C17.8264 5.68574 17.2514 5.47152 16.7482 5.68574Z" fill="#1062AA"/>
<path d="M15.2387 10.8983L13.6573 11.5409C13.1542 11.7551 12.9385 12.3264 13.1542 12.8263C13.2979 13.1119 13.5136 13.3261 13.8011 13.3975C14.0167 13.4689 14.2324 13.4689 14.448 13.3261L16.0294 12.6834C16.5326 12.4692 16.7482 11.898 16.5326 11.3981C16.3169 10.8983 15.7419 10.684 15.2387 10.8983Z" fill="#1062AA"/>
<path d="M51.826 15.1114L55.7076 20.3955C56.067 20.8239 55.9232 21.4666 55.4919 21.7522C55.2044 21.9664 54.9169 21.9664 54.6294 21.895C54.4137 21.8236 54.1981 21.6808 54.1262 21.538L50.2446 16.2539C49.8852 15.8255 50.029 15.1828 50.4603 14.8972C50.8916 14.5401 51.5385 14.683 51.826 15.1114Z" fill="#1062AA"/>
<path d="M50.5322 20.4669L51.5385 21.8236C51.8979 22.252 51.7541 22.8947 51.3229 23.1803C51.0353 23.3945 50.7478 23.3945 50.4603 23.3231C50.2446 23.2517 50.029 23.1089 49.9571 22.9661L48.9508 21.6808C48.5914 21.2523 48.7351 20.6097 49.1664 20.3241C49.5977 19.967 50.1728 20.0384 50.5322 20.4669Z" fill="#1062AA"/>
</svg>
