<svg width="270" height="225" viewBox="0 0 270 225" fill="none" xmlns="http://www.w3.org/2000/svg">
<path d="M0.00439453 25.0726C0.00439453 11.2655 11.1973 0.0726318 25.0044 0.0726318H240C256.569 0.0726318 270 13.5041 270 30.0726V50.0726H25.0044C11.1972 50.0726 0.00439453 38.8798 0.00439453 25.0726Z" fill="#00ADEE"/>
<path d="M46.4337 24.0326H49.7736V25.9838H46.4337V29.7894H44.3595V25.9838H41.0021V24.0326H44.3595V20.473H46.4337V24.0326ZM59.4591 21.6508C59.4591 22.2777 59.298 22.8373 58.9757 23.3295C58.6534 23.8158 58.214 24.1996 57.6573 24.4808C58.3253 24.7914 58.838 25.2162 59.1954 25.7552C59.5587 26.2943 59.7404 26.9037 59.7404 27.5834C59.7404 28.7084 59.3595 29.6019 58.5978 30.264C57.8361 30.9203 56.8224 31.2484 55.5568 31.2484C54.2853 31.2484 53.2657 30.9174 52.4982 30.2552C51.7365 29.5931 51.3556 28.7025 51.3556 27.5834C51.3556 26.8978 51.5372 26.2826 51.9005 25.7377C52.2638 25.1927 52.7736 24.7738 53.4298 24.4808C52.879 24.1996 52.4425 23.8158 52.1202 23.3295C51.8038 22.8373 51.6456 22.2777 51.6456 21.6508C51.6456 20.5609 51.9972 19.6967 52.7003 19.058C53.4034 18.4193 54.3527 18.1 55.548 18.1C56.7491 18.1 57.7013 18.4193 58.4044 19.058C59.1075 19.6967 59.4591 20.5609 59.4591 21.6508ZM57.6046 27.4779C57.6046 26.8451 57.4142 26.3353 57.0333 25.9486C56.6583 25.556 56.1603 25.3597 55.5392 25.3597C54.9181 25.3597 54.42 25.5531 54.045 25.9398C53.6759 26.3265 53.4913 26.8392 53.4913 27.4779C53.4913 28.1049 53.673 28.6058 54.0363 28.9808C54.4054 29.3558 54.9122 29.5433 55.5568 29.5433C56.2013 29.5433 56.7023 29.3617 57.0597 28.9984C57.423 28.6351 57.6046 28.1283 57.6046 27.4779ZM57.3322 21.7299C57.3322 21.1732 57.171 20.7162 56.8488 20.3588C56.5265 19.9955 56.0929 19.8138 55.548 19.8138C55.0031 19.8138 54.5724 19.9867 54.256 20.3324C53.9396 20.6722 53.7814 21.1381 53.7814 21.7299C53.7814 22.3158 53.9396 22.7816 54.256 23.1273C54.5782 23.473 55.0118 23.6459 55.5568 23.6459C56.1017 23.6459 56.5323 23.473 56.8488 23.1273C57.171 22.7816 57.3322 22.3158 57.3322 21.7299ZM70.1466 19.4623L65.0314 31.0726H62.7902L67.8966 19.9896H61.2784V18.2758H70.1466V19.4623ZM78.9093 26.3177V31.0726H76.6857V18.2758H81.5812C83.0109 18.2758 84.1447 18.6478 84.9825 19.392C85.8263 20.1361 86.2482 21.1205 86.2482 22.3451C86.2482 23.599 85.8351 24.5746 85.0089 25.2719C84.1886 25.9691 83.0372 26.3177 81.5548 26.3177H78.9093ZM78.9093 24.5336H81.5812C82.3722 24.5336 82.9757 24.349 83.3917 23.9799C83.8077 23.6049 84.0157 23.0658 84.0157 22.3627C84.0157 21.6713 83.8048 21.1205 83.3829 20.7103C82.9611 20.2943 82.381 20.0804 81.6427 20.0687H78.9093V24.5336ZM93.798 28.0931H88.8409L87.8038 31.0726H85.4923L90.3263 18.2758H92.3214L97.1642 31.0726H94.8439L93.798 28.0931ZM89.465 26.3002H93.174L91.3195 20.9916L89.465 26.3002ZM103.325 26.142H100.847V31.0726H98.6232V18.2758H103.123C104.6 18.2758 105.739 18.6068 106.542 19.2689C107.345 19.931 107.746 20.889 107.746 22.1429C107.746 22.9984 107.538 23.7162 107.122 24.2963C106.712 24.8705 106.138 25.3129 105.4 25.6234L108.274 30.9584V31.0726H105.892L103.325 26.142ZM100.847 24.3578H103.132C103.882 24.3578 104.468 24.1703 104.89 23.7953C105.312 23.4144 105.523 22.8959 105.523 22.2396C105.523 21.5541 105.326 21.0238 104.934 20.6488C104.547 20.2738 103.967 20.0804 103.193 20.0687H100.847V24.3578ZM118.662 20.0687H114.672V31.0726H112.466V20.0687H108.511V18.2758H118.662V20.0687ZM130.501 31.0726H128.277L122.573 21.9935V31.0726H120.35V18.2758H122.573L128.295 27.39V18.2758H130.501V31.0726ZM140.609 25.3597H135.353V29.2972H141.496V31.0726H133.129V18.2758H141.435V20.0687H135.353V23.6019H140.609V25.3597ZM148.009 26.142H145.53V31.0726H143.307V18.2758H147.807C149.283 18.2758 150.423 18.6068 151.226 19.2689C152.028 19.931 152.43 20.889 152.43 22.1429C152.43 22.9984 152.222 23.7162 151.806 24.2963C151.396 24.8705 150.821 25.3129 150.083 25.6234L152.957 30.9584V31.0726H150.575L148.009 26.142ZM145.53 24.3578H147.816C148.566 24.3578 149.151 24.1703 149.573 23.7953C149.995 23.4144 150.206 22.8959 150.206 22.2396C150.206 21.5541 150.01 21.0238 149.617 20.6488C149.231 20.2738 148.651 20.0804 147.877 20.0687H145.53V24.3578ZM167.74 20.0687H163.75V31.0726H161.544V20.0687H157.589V18.2758H167.74V20.0687ZM179.395 25.0082C179.395 26.2621 179.178 27.3636 178.744 28.3129C178.311 29.2562 177.69 29.9828 176.881 30.4926C176.078 30.9965 175.152 31.2484 174.104 31.2484C173.067 31.2484 172.141 30.9965 171.326 30.4926C170.518 29.9828 169.891 29.2592 169.445 28.3217C169.006 27.3842 168.783 26.3031 168.777 25.0785V24.3578C168.777 23.1097 168.997 22.0082 169.437 21.0531C169.882 20.098 170.506 19.3685 171.309 18.8646C172.117 18.3549 173.043 18.1 174.086 18.1C175.129 18.1 176.052 18.3519 176.855 18.8558C177.663 19.3539 178.287 20.0746 178.727 21.0179C179.166 21.9554 179.389 23.0482 179.395 24.2963V25.0082ZM177.171 24.3402C177.171 22.9222 176.901 21.8353 176.362 21.0795C175.829 20.3236 175.07 19.9457 174.086 19.9457C173.125 19.9457 172.372 20.3236 171.827 21.0795C171.288 21.8295 171.013 22.8929 171.001 24.2699V25.0082C171.001 26.4144 171.274 27.5013 171.818 28.2689C172.369 29.0365 173.131 29.4203 174.104 29.4203C175.088 29.4203 175.844 29.0453 176.371 28.2953C176.904 27.5453 177.171 26.4496 177.171 25.0082V24.3402ZM181.609 31.0726V18.2758H185.389C186.52 18.2758 187.522 18.5277 188.395 19.0316C189.274 19.5355 189.953 20.2504 190.434 21.1761C190.914 22.1019 191.154 23.1625 191.154 24.3578V24.9994C191.154 26.2123 190.911 27.2787 190.425 28.1986C189.944 29.1185 189.256 29.8275 188.359 30.3256C187.469 30.8236 186.446 31.0726 185.292 31.0726H181.609ZM183.833 20.0687V29.2972H185.283C186.449 29.2972 187.343 28.934 187.964 28.2074C188.591 27.475 188.91 26.4261 188.922 25.0609V24.349C188.922 22.9603 188.62 21.8998 188.017 21.1674C187.413 20.4349 186.537 20.0687 185.389 20.0687H183.833ZM200.339 28.0931H195.382L194.345 31.0726H192.033L196.867 18.2758H198.862L203.705 31.0726H201.385L200.339 28.0931ZM196.006 26.3002H199.715L197.86 20.9916L196.006 26.3002ZM208.021 24.3402L210.965 18.2758H213.426L209.137 26.3617V31.0726H206.904V26.3617L202.607 18.2758H205.076L208.021 24.3402Z" fill="white"/>
<circle cx="240.572" cy="84.4479" r="10.9105" stroke="#333333"/>
<path d="M234.348 84.4479H246.796" stroke="#333333" stroke-linecap="round" stroke-linejoin="round"/>
<path d="M240.572 78.224L240.572 90.6718" stroke="#333333" stroke-linecap="round" stroke-linejoin="round"/>
<circle cx="143.005" cy="129.467" r="53.6762" fill="white" stroke="white" stroke-width="3"/>
<circle cx="143.005" cy="129.467" r="62.1059" stroke="white" stroke-width="3"/>
<circle cx="50.8607" cy="182.558" r="10.0149" stroke="#1062AA" stroke-linecap="round" stroke-linejoin="round"/>
<path d="M46.2225 183.258L50.4121 187.001L55.9386 179.157" stroke="#1062AA" stroke-linecap="round" stroke-linejoin="round"/>
<path d="M121.279 136.56C121.279 135.232 120.857 134.139 120.013 133.279C119.169 132.404 117.763 131.623 115.794 130.935C113.825 130.232 112.294 129.584 111.2 128.99C107.56 127.037 105.74 124.146 105.74 120.318C105.74 117.725 106.529 115.592 108.107 113.92C109.685 112.248 111.825 111.256 114.529 110.943V105.834H118.279V110.99C120.997 111.381 123.099 112.537 124.583 114.459C126.068 116.365 126.81 118.85 126.81 121.912H121.138C121.138 119.943 120.693 118.396 119.802 117.271C118.927 116.131 117.732 115.56 116.216 115.56C114.716 115.56 113.544 115.967 112.7 116.779C111.857 117.592 111.435 118.756 111.435 120.271C111.435 121.631 111.849 122.725 112.677 123.553C113.521 124.365 114.943 125.139 116.943 125.873C118.943 126.607 120.513 127.287 121.654 127.912C122.794 128.537 123.755 129.256 124.536 130.068C125.318 130.865 125.919 131.787 126.341 132.834C126.763 133.881 126.974 135.107 126.974 136.514C126.974 139.154 126.161 141.295 124.536 142.935C122.927 144.576 120.677 145.545 117.786 145.842V150.412H114.06V145.865C110.966 145.521 108.583 144.412 106.911 142.537C105.255 140.662 104.427 138.178 104.427 135.084H110.122C110.122 137.053 110.615 138.576 111.599 139.654C112.599 140.732 114.005 141.271 115.818 141.271C117.599 141.271 118.95 140.842 119.872 139.982C120.81 139.123 121.279 137.982 121.279 136.56ZM154.865 145.467H131.919V141.553L143.286 129.154C144.927 127.326 146.091 125.803 146.779 124.584C147.482 123.35 147.833 122.115 147.833 120.881C147.833 119.256 147.372 117.943 146.45 116.943C145.544 115.943 144.318 115.443 142.771 115.443C140.927 115.443 139.497 116.006 138.482 117.131C137.466 118.256 136.958 119.795 136.958 121.748H131.263C131.263 119.67 131.732 117.803 132.669 116.146C133.622 114.475 134.974 113.178 136.724 112.256C138.49 111.334 140.521 110.873 142.818 110.873C146.13 110.873 148.74 111.709 150.646 113.381C152.568 115.037 153.529 117.334 153.529 120.271C153.529 121.975 153.044 123.764 152.075 125.639C151.122 127.498 149.552 129.615 147.365 131.99L139.021 140.92H154.865V145.467ZM181.443 131.1C181.443 136.006 180.521 139.709 178.677 142.209C176.849 144.693 174.06 145.935 170.31 145.935C166.622 145.935 163.841 144.725 161.966 142.303C160.107 139.865 159.154 136.264 159.107 131.498V125.592C159.107 120.685 160.021 117.006 161.849 114.553C163.693 112.1 166.497 110.873 170.263 110.873C173.997 110.873 176.779 112.068 178.607 114.459C180.45 116.85 181.396 120.428 181.443 125.193V131.1ZM175.747 124.725C175.747 121.521 175.31 119.178 174.435 117.693C173.56 116.193 172.169 115.443 170.263 115.443C168.404 115.443 167.036 116.154 166.161 117.576C165.286 118.982 164.825 121.185 164.779 124.185V131.92C164.779 135.107 165.224 137.482 166.115 139.045C167.005 140.607 168.404 141.389 170.31 141.389C172.138 141.389 173.49 140.67 174.365 139.232C175.24 137.779 175.7 135.514 175.747 132.435V124.725Z" fill="#00ADEE"/>
<path d="M70.1028 143.471L57.4281 145.235L56.8512 141.092C56.6597 139.716 56.8002 138.644 57.2728 137.874C57.7446 137.098 58.5376 136.633 59.6518 136.478C60.2438 136.395 60.7924 136.491 61.2978 136.763C61.7973 137.037 62.2122 137.447 62.5426 137.992C62.6387 137.281 62.9292 136.69 63.414 136.22C63.8921 135.745 64.5026 135.456 65.2455 135.353C66.3829 135.195 67.328 135.439 68.0806 136.085C68.8332 136.732 69.3032 137.728 69.4907 139.075L70.1028 143.471ZM63.9419 142.625L68.5033 141.99L68.1191 139.23C68.0108 138.452 67.7254 137.868 67.2627 137.477C66.7935 137.081 66.2048 136.932 65.4968 137.031C63.9705 137.243 63.3229 138.179 63.554 139.839L63.9419 142.625ZM62.6013 142.811L62.2498 140.287C62.148 139.556 61.884 138.998 61.4578 138.613C61.0307 138.223 60.5038 138.072 59.8771 138.159C59.1807 138.256 58.704 138.53 58.4472 138.979C58.1846 139.43 58.1111 140.07 58.2266 140.9L58.5708 143.372L62.6013 142.811Z" fill="#333333"/>
<path d="M62.9246 119.739C64.1761 119.817 65.2567 120.095 66.1663 120.574C67.0701 121.053 67.7437 121.693 68.1871 122.496C68.6305 123.298 68.8204 124.214 68.7566 125.243C68.6943 126.249 68.3934 127.126 67.854 127.873C67.3087 128.62 66.5665 129.182 65.6274 129.558C64.6828 129.928 63.6078 130.081 62.4023 130.019L61.4812 129.961C60.2531 129.885 59.1815 129.605 58.2664 129.119C57.3513 128.634 56.6693 127.987 56.2204 127.179C55.766 126.364 55.5699 125.454 55.6322 124.448C55.6956 123.424 56 122.539 56.5452 121.792C57.085 121.039 57.8387 120.481 58.8064 120.118C59.7682 119.755 60.8719 119.612 62.1175 119.689L62.9246 119.739ZM61.9962 121.364C60.4815 121.27 59.3018 121.502 58.4571 122.06C57.6066 122.618 57.1474 123.444 57.0797 124.537C57.0137 125.602 57.3682 126.466 58.143 127.131C58.9124 127.789 60.0159 128.171 61.4534 128.278L62.3921 128.336C63.86 128.427 65.034 128.191 65.9142 127.63C66.7889 127.061 67.2597 126.236 67.3267 125.154C67.3941 124.067 67.0515 123.2 66.299 122.555C65.5406 121.909 64.4221 121.531 62.9436 121.422L61.9962 121.364Z" fill="#333333"/>
<path d="M72.2215 104.549L71.7446 106.177L60.4699 109.588L69.9336 112.36L69.4567 113.988L57.1759 110.39L57.6528 108.762L68.9746 105.347L59.4688 102.563L59.9407 100.952L72.2215 104.549Z" fill="#333333"/>
<path d="M67.5443 83.8991L75.1809 88.0695C76.2375 88.6531 76.9214 89.4606 77.2328 90.4919C77.547 91.518 77.4363 92.6192 76.9008 93.7955L76.7014 94.1973C76.0302 95.4264 75.1635 96.2249 74.1013 96.5929C73.0392 96.9608 71.9242 96.8326 70.7563 96.2082L63.1043 92.0294L63.9047 90.5638L71.5104 94.7173C72.323 95.161 73.0777 95.2828 73.7745 95.0825C74.4662 94.8794 75.0382 94.3639 75.4903 93.536C75.9481 92.6977 76.074 91.9353 75.8681 91.2487C75.6651 90.557 75.1573 89.9893 74.3448 89.5456L66.7313 85.3878L67.5443 83.8991Z" fill="#333333"/>
<path d="M79.7277 78.5669C78.4809 79.4114 77.4138 79.8945 76.5262 80.0161C75.6378 80.1295 74.8518 79.9009 74.168 79.3302C73.3943 78.6844 73.0127 77.8431 73.0232 76.8063C73.033 75.7613 73.4509 74.7439 74.2769 73.7543C74.84 73.0795 75.4717 72.5878 76.1719 72.2793C76.8758 71.9662 77.5774 71.8572 78.2765 71.9523C78.9794 72.0428 79.603 72.3152 80.1473 72.7695L79.0604 74.0718C78.4666 73.5762 77.8433 73.3766 77.1905 73.4729C76.5333 73.5654 75.9174 73.9558 75.343 74.6441C74.8099 75.2829 74.5348 75.9005 74.5179 76.4969C74.5002 77.085 74.741 77.5875 75.2403 78.0042C75.6407 78.3384 76.1211 78.4531 76.6816 78.3485C77.2413 78.2357 77.9757 77.8679 78.8847 77.2451C79.7974 76.6179 80.5847 76.1912 81.2466 75.9651C81.9077 75.7308 82.5147 75.6574 83.0675 75.7448C83.6241 75.8278 84.1521 76.0776 84.6514 76.4944C85.4476 77.1589 85.8274 78.0024 85.7906 79.0249C85.7493 80.0437 85.295 81.0727 84.4277 82.1118C83.8646 82.7866 83.2107 83.3094 82.4663 83.6802C81.7173 84.0472 80.9846 84.2027 80.2681 84.1466C79.5555 84.0861 78.9135 83.8174 78.3422 83.3406L79.4291 82.0383C80.0229 82.5339 80.6751 82.708 81.3857 82.5608C82.0955 82.4053 82.7564 81.9609 83.3684 81.2276C83.939 80.5439 84.237 79.9034 84.2622 79.3062C84.2874 78.7091 84.0593 78.2097 83.578 77.8079C83.0967 77.4062 82.5847 77.2651 82.0422 77.3848C81.4952 77.5006 80.7237 77.8947 79.7277 78.5669Z" fill="#333333"/>
<mask id="path-16-inside-1" fill="white">
<path d="M15.0908 69.3153C15.1489 68.8254 15.8599 68.8254 15.918 69.3153L16.4057 73.4254C17.0354 78.7325 21.2197 82.9168 26.5269 83.5466L30.6369 84.0342C31.1269 84.0924 31.1269 84.8033 30.6369 84.8615L26.5269 85.3492C21.2197 85.9789 17.0354 90.1632 16.4057 95.4703L15.918 99.5804C15.8599 100.07 15.1489 100.07 15.0908 99.5804L14.6031 95.4703C13.9734 90.1632 9.78906 85.9789 4.48188 85.3492L0.37184 84.8615C-0.118087 84.8033 -0.118087 84.0924 0.37184 84.0342L4.48188 83.5466C9.78906 82.9168 13.9734 78.7325 14.6031 73.4254L15.0908 69.3153Z"/>
</mask>
<path d="M15.0908 69.3153L14.0977 69.1974L14.0977 69.1975L15.0908 69.3153ZM15.918 69.3153L16.9111 69.1975L16.9111 69.1974L15.918 69.3153ZM16.4057 73.4254L15.4127 73.5432L16.4057 73.4254ZM26.5269 83.5466L26.409 84.5396H26.409L26.5269 83.5466ZM30.6369 84.0342L30.7548 83.0412L30.7547 83.0412L30.6369 84.0342ZM30.6369 84.8615L30.7547 85.8546L30.7548 85.8545L30.6369 84.8615ZM26.5269 85.3492L26.409 84.3562H26.409L26.5269 85.3492ZM16.4057 95.4703L15.4127 95.3525V95.3525L16.4057 95.4703ZM15.918 99.5804L16.9111 99.6983L16.9111 99.6982L15.918 99.5804ZM15.0908 99.5804L14.0977 99.6982L14.0977 99.6983L15.0908 99.5804ZM14.6031 95.4703L15.5961 95.3525V95.3525L14.6031 95.4703ZM4.48188 85.3492L4.59971 84.3562L4.48188 85.3492ZM0.37184 84.8615L0.25391 85.8545L0.254013 85.8546L0.37184 84.8615ZM0.37184 84.0342L0.254013 83.0412L0.25391 83.0412L0.37184 84.0342ZM4.48188 83.5466L4.36406 82.5535L4.48188 83.5466ZM14.6031 73.4254L13.61 73.3075L14.6031 73.4254ZM16.0838 69.4333C16.0683 69.5639 15.9967 69.711 15.8651 69.8173C15.7462 69.9135 15.6147 69.9479 15.5044 69.9479C15.3941 69.9479 15.2626 69.9135 15.1437 69.8173C15.0121 69.711 14.9405 69.5639 14.925 69.4333L16.9111 69.1974C16.7132 67.5314 14.2956 67.5314 14.0977 69.1974L16.0838 69.4333ZM14.925 69.4331L15.4127 73.5432L17.3987 73.3075L16.9111 69.1975L14.925 69.4331ZM15.4127 73.5432C16.0968 79.3093 20.643 83.8554 26.409 84.5396L26.6447 82.5535C21.7965 81.9783 17.974 78.1558 17.3987 73.3075L15.4127 73.5432ZM26.409 84.5396L30.5191 85.0273L30.7547 83.0412L26.6447 82.5535L26.409 84.5396ZM30.519 85.0273C30.3883 85.0117 30.2413 84.9402 30.135 84.8087C30.0388 84.6898 30.0044 84.5582 30.0044 84.4479C30.0044 84.3375 30.0388 84.206 30.135 84.0871C30.2413 83.9555 30.3883 83.884 30.519 83.8685L30.7548 85.8545C32.4209 85.6567 32.4209 83.2391 30.7548 83.0412L30.519 85.0273ZM30.5191 83.8685L26.409 84.3562L26.6447 86.3422L30.7547 85.8546L30.5191 83.8685ZM26.409 84.3562C20.643 85.0403 16.0968 89.5865 15.4127 95.3525L17.3987 95.5882C17.974 90.74 21.7965 86.9175 26.6447 86.3422L26.409 84.3562ZM15.4127 95.3525L14.925 99.4626L16.9111 99.6982L17.3987 95.5882L15.4127 95.3525ZM14.925 99.4625C14.9405 99.3318 15.0121 99.1848 15.1436 99.0784C15.2625 98.9823 15.3941 98.9479 15.5044 98.9479C15.6147 98.9479 15.7463 98.9823 15.8652 99.0784C15.9967 99.1848 16.0683 99.3318 16.0838 99.4625L14.0977 99.6983C14.2956 101.364 16.7132 101.364 16.9111 99.6983L14.925 99.4625ZM16.0838 99.4626L15.5961 95.3525L13.61 95.5882L14.0977 99.6982L16.0838 99.4626ZM15.5961 95.3525C14.9119 89.5865 10.3658 85.0403 4.59971 84.3562L4.36406 86.3422C9.21231 86.9175 13.0348 90.74 13.61 95.5882L15.5961 95.3525ZM4.59971 84.3562L0.489667 83.8685L0.254013 85.8546L4.36406 86.3422L4.59971 84.3562ZM0.489769 83.8685C0.620464 83.884 0.767487 83.9556 0.873863 84.0871C0.970007 84.206 1.00439 84.3376 1.00439 84.4479C1.00439 84.5582 0.970007 84.6897 0.873863 84.8086C0.767487 84.9402 0.620464 85.0117 0.489769 85.0273L0.25391 83.0412C-1.41211 83.2391 -1.41211 85.6567 0.25391 85.8545L0.489769 83.8685ZM0.489667 85.0273L4.59971 84.5396L4.36406 82.5535L0.254013 83.0412L0.489667 85.0273ZM4.59971 84.5396C10.3658 83.8554 14.9119 79.3093 15.5961 73.5432L13.61 73.3075C13.0348 78.1558 9.21231 81.9783 4.36406 82.5535L4.59971 84.5396ZM15.5961 73.5432L16.0838 69.4331L14.0977 69.1975L13.61 73.3075L15.5961 73.5432Z" fill="#81859C" mask="url(#path-16-inside-1)"/>
</svg>
