<svg width="630" height="551" viewBox="0 0 630 551" fill="none" xmlns="http://www.w3.org/2000/svg">
<path d="M0 0H630V251C630 416.685 495.685 551 330 551H0V0Z" fill="#00ADEE"/>
<path d="M529.152 218.493L473.618 218.493C468.328 218.493 464 222.787 464 228.036V241.236C464 246.485 468.328 250.779 473.618 250.779V256.982L481.151 250.779H529.312C534.602 250.779 538.929 246.485 538.929 241.236V228.036C538.769 222.787 534.441 218.493 529.152 218.493Z" fill="#EBF0FF"/>
<path d="M481.157 241.13C479.653 241.13 478.43 240.638 477.486 239.653C476.543 238.662 476.071 237.339 476.071 235.685V235.336C476.071 234.236 476.28 233.255 476.697 232.394C477.121 231.525 477.708 230.849 478.46 230.363C479.219 229.871 480.04 229.625 480.921 229.625C482.364 229.625 483.485 230.1 484.285 231.05C485.084 232 485.484 233.361 485.484 235.131V235.921H477.968C477.996 237.015 478.313 237.9 478.922 238.577C479.537 239.247 480.316 239.582 481.26 239.582C481.93 239.582 482.497 239.445 482.962 239.171C483.427 238.898 483.833 238.536 484.182 238.084L485.341 238.987C484.411 240.416 483.017 241.13 481.157 241.13ZM480.921 231.184C480.156 231.184 479.513 231.464 478.994 232.024C478.474 232.578 478.153 233.357 478.03 234.362H483.587V234.219C483.533 233.255 483.273 232.51 482.808 231.983C482.343 231.45 481.714 231.184 480.921 231.184ZM489.473 229.83L489.524 231.061C490.338 230.104 491.435 229.625 492.816 229.625C494.368 229.625 495.424 230.22 495.984 231.409C496.354 230.876 496.832 230.445 497.42 230.117C498.015 229.789 498.715 229.625 499.522 229.625C501.956 229.625 503.193 230.914 503.234 233.491V240.925H501.337V233.604C501.337 232.811 501.156 232.219 500.793 231.83C500.431 231.433 499.823 231.235 498.968 231.235C498.264 231.235 497.68 231.447 497.215 231.871C496.75 232.288 496.48 232.852 496.405 233.562V240.925H494.498V233.655C494.498 232.042 493.708 231.235 492.129 231.235C490.885 231.235 490.034 231.765 489.576 232.824V240.925H487.679V229.83H489.473ZM512.955 240.925C512.845 240.706 512.756 240.316 512.688 239.756C511.806 240.672 510.753 241.13 509.53 241.13C508.436 241.13 507.537 240.822 506.833 240.207C506.136 239.585 505.787 238.799 505.787 237.849C505.787 236.693 506.225 235.798 507.1 235.162C507.981 234.52 509.219 234.198 510.812 234.198H512.657V233.327C512.657 232.664 512.459 232.137 512.062 231.748C511.666 231.351 511.082 231.153 510.309 231.153C509.632 231.153 509.065 231.324 508.607 231.666C508.149 232.007 507.92 232.421 507.92 232.906H506.013C506.013 232.353 506.208 231.819 506.597 231.307C506.994 230.787 507.527 230.377 508.197 230.076C508.874 229.775 509.615 229.625 510.422 229.625C511.7 229.625 512.702 229.946 513.426 230.589C514.151 231.225 514.527 232.103 514.554 233.224V238.331C514.554 239.349 514.684 240.159 514.944 240.761V240.925H512.955ZM509.807 239.479C510.401 239.479 510.965 239.325 511.499 239.018C512.032 238.71 512.418 238.31 512.657 237.818V235.542H511.17C508.846 235.542 507.684 236.222 507.684 237.582C507.684 238.177 507.882 238.642 508.279 238.977C508.675 239.312 509.185 239.479 509.807 239.479ZM519.589 240.925H517.692V229.83H519.589V240.925ZM517.538 226.887C517.538 226.58 517.63 226.32 517.815 226.108C518.006 225.896 518.287 225.79 518.656 225.79C519.025 225.79 519.305 225.896 519.497 226.108C519.688 226.32 519.784 226.58 519.784 226.887C519.784 227.195 519.688 227.451 519.497 227.656C519.305 227.861 519.025 227.964 518.656 227.964C518.287 227.964 518.006 227.861 517.815 227.656C517.63 227.451 517.538 227.195 517.538 226.887ZM524.695 240.925H522.798V225.175H524.695V240.925Z" fill="#333333"/>
<path d="M413.886 51.8009L361.618 51.8009C356.328 51.8009 352 56.0951 352 61.3436V74.5443C352 79.7928 356.328 84.087 361.618 84.087V90.2898L369.151 84.087H414.047C419.336 84.087 423.664 79.7928 423.664 74.5443V61.3436C423.504 56.0951 419.176 51.8009 413.886 51.8009Z" fill="#EBF0FF"/>
<path d="M378.446 69.3533C378.446 71.0486 378.056 72.4124 377.277 73.4446C376.497 74.47 375.452 74.9827 374.139 74.9827C372.738 74.9827 371.654 74.4871 370.889 73.4958L370.796 74.7776H369.053V59.0276H370.95V64.9031C371.716 63.9529 372.772 63.4778 374.119 63.4778C375.465 63.4778 376.521 63.9871 377.287 65.0056C378.059 66.0242 378.446 67.4187 378.446 69.1892V69.3533ZM376.549 69.1379C376.549 67.8459 376.299 66.8479 375.8 66.1438C375.301 65.4397 374.583 65.0876 373.647 65.0876C372.396 65.0876 371.497 65.6687 370.95 66.8308V71.6296C371.531 72.7917 372.437 73.3728 373.667 73.3728C374.577 73.3728 375.284 73.0208 375.79 72.3167C376.296 71.6125 376.549 70.553 376.549 69.1379ZM382.906 74.7776H381.009V59.0276H382.906V74.7776ZM385.449 69.1277C385.449 68.0408 385.661 67.0632 386.085 66.1951C386.516 65.3269 387.11 64.657 387.869 64.1853C388.635 63.7136 389.506 63.4778 390.484 63.4778C391.995 63.4778 393.215 64.0007 394.144 65.0466C395.081 66.0925 395.549 67.4836 395.549 69.22V69.3533C395.549 70.4333 395.341 71.4041 394.924 72.2654C394.514 73.1199 393.922 73.7864 393.15 74.2649C392.384 74.7434 391.502 74.9827 390.504 74.9827C389 74.9827 387.78 74.4597 386.844 73.4138C385.914 72.3679 385.449 70.9836 385.449 69.261V69.1277ZM387.356 69.3533C387.356 70.5837 387.64 71.5715 388.207 72.3167C388.782 73.0618 389.547 73.4343 390.504 73.4343C391.468 73.4343 392.234 73.0583 392.801 72.3064C393.369 71.5476 393.652 70.488 393.652 69.1277C393.652 67.9109 393.362 66.9265 392.781 66.1746C392.206 65.4158 391.441 65.0364 390.484 65.0364C389.547 65.0364 388.792 65.4089 388.218 66.1541C387.643 66.8992 387.356 67.9656 387.356 69.3533ZM397.477 69.1379C397.477 67.4084 397.877 66.0344 398.677 65.0159C399.476 63.9905 400.536 63.4778 401.855 63.4778C403.209 63.4778 404.265 63.9563 405.024 64.9133L405.116 63.6829H406.849V74.511C406.849 75.9465 406.422 77.0779 405.567 77.905C404.72 78.7322 403.578 79.1458 402.142 79.1458C401.343 79.1458 400.56 78.9749 399.794 78.6331C399.029 78.2913 398.444 77.823 398.041 77.2283L399.025 76.0901C399.839 77.095 400.833 77.5974 402.009 77.5974C402.932 77.5974 403.65 77.3376 404.162 76.8181C404.682 76.2986 404.942 75.5671 404.942 74.6238V73.6702C404.183 74.5452 403.147 74.9827 401.835 74.9827C400.536 74.9827 399.483 74.4597 398.677 73.4138C397.877 72.3679 397.477 70.9426 397.477 69.1379ZM399.384 69.3533C399.384 70.6042 399.641 71.5886 400.153 72.3064C400.666 73.0173 401.384 73.3728 402.307 73.3728C403.503 73.3728 404.381 72.8293 404.942 71.7424V66.677C404.361 65.6174 403.489 65.0876 402.327 65.0876C401.404 65.0876 400.683 65.4465 400.163 66.1643C399.644 66.8821 399.384 67.9451 399.384 69.3533Z" fill="#333333"/>
<path d="M250.529 314.684C247.862 301.137 234.717 292.317 221.17 294.985C207.623 297.652 198.804 310.797 201.471 324.344L250.529 314.684ZM336.128 297.83C340.782 321.467 325.393 344.402 301.756 349.056L311.415 398.114C362.147 388.125 395.175 338.902 385.186 288.17L336.128 297.83ZM301.756 349.056C278.118 353.71 255.183 338.322 250.529 314.684L201.471 324.344C211.46 375.075 260.684 408.103 311.415 398.114L301.756 349.056Z" fill="#FFC635"/>
<path d="M233.778 92.4817L289.312 92.4817C294.602 92.4817 298.93 96.7759 298.93 102.024V115.225C298.93 120.474 294.602 124.768 289.312 124.768V130.971L281.778 124.768H233.618C228.328 124.768 224 120.474 224 115.225V102.024C224.16 96.7759 228.488 92.4817 233.778 92.4817Z" fill="#EBF0FF"/>
<path d="M242.563 108.804C240.875 108.318 239.645 107.724 238.872 107.019C238.106 106.308 237.724 105.433 237.724 104.394C237.724 103.219 238.192 102.248 239.128 101.482C240.072 100.71 241.295 100.324 242.799 100.324C243.825 100.324 244.737 100.522 245.537 100.918C246.344 101.315 246.966 101.862 247.403 102.559C247.848 103.256 248.07 104.018 248.07 104.846H246.091C246.091 103.943 245.804 103.236 245.229 102.723C244.655 102.203 243.845 101.944 242.799 101.944C241.829 101.944 241.07 102.159 240.523 102.59C239.983 103.014 239.713 103.605 239.713 104.364C239.713 104.972 239.969 105.488 240.482 105.912C241.001 106.329 241.88 106.712 243.117 107.06C244.361 107.409 245.332 107.795 246.029 108.219C246.733 108.636 247.253 109.125 247.588 109.685C247.93 110.246 248.101 110.906 248.101 111.664C248.101 112.874 247.629 113.845 246.686 114.577C245.742 115.301 244.481 115.663 242.902 115.663C241.876 115.663 240.919 115.469 240.031 115.079C239.142 114.682 238.455 114.142 237.97 113.459C237.491 112.775 237.252 111.999 237.252 111.131H239.231C239.231 112.034 239.562 112.748 240.226 113.274C240.896 113.794 241.788 114.054 242.902 114.054C243.941 114.054 244.737 113.842 245.291 113.418C245.845 112.994 246.122 112.416 246.122 111.685C246.122 110.953 245.865 110.39 245.353 109.993C244.84 109.59 243.91 109.193 242.563 108.804ZM253.176 100.529L258.057 112.71L262.938 100.529H265.491V115.458H263.522V109.644L263.707 103.369L258.806 115.458H257.298L252.407 103.4L252.602 109.644V115.458H250.633V100.529H253.176ZM271.51 100.529L276.391 112.71L281.272 100.529H283.825V115.458H281.856V109.644L282.041 103.369L277.14 115.458H275.632L270.741 103.4L270.936 109.644V115.458H268.967V100.529H271.51Z" fill="#333333"/>
<path d="M79.7778 122.248L160.429 122.248C165.719 122.248 170.047 126.542 170.047 131.791V144.991C170.047 150.24 165.719 154.534 160.429 154.534V160.737L152.896 154.534H79.6176C74.3279 154.534 70 150.24 70 144.991V131.791C70.1603 126.542 74.4881 122.248 79.7778 122.248Z" fill="#EBF0FF"/>
<path d="M88.183 142.446L90.767 134.13H92.7972L88.3368 146.937C87.6464 148.783 86.5492 149.706 85.0453 149.706L84.6864 149.675L83.9789 149.542V148.004L84.4916 148.045C85.1342 148.045 85.6332 147.915 85.9886 147.655C86.351 147.395 86.6483 146.92 86.8807 146.23L87.3011 145.102L83.3431 134.13H85.4144L88.183 142.446ZM93.8329 139.575C93.8329 138.488 94.0448 137.51 94.4686 136.642C94.8993 135.774 95.494 135.104 96.2528 134.632C97.0184 134.161 97.89 133.925 98.8676 133.925C100.378 133.925 101.599 134.448 102.528 135.494C103.465 136.54 103.933 137.931 103.933 139.667V139.8C103.933 140.88 103.724 141.851 103.307 142.713C102.897 143.567 102.306 144.234 101.534 144.712C100.768 145.191 99.8861 145.43 98.8881 145.43C97.3842 145.43 96.1639 144.907 95.2274 143.861C94.2977 142.815 93.8329 141.431 93.8329 139.708V139.575ZM95.7401 139.8C95.7401 141.031 96.0238 142.019 96.5912 142.764C97.1654 143.509 97.931 143.881 98.8881 143.881C99.8519 143.881 100.618 143.505 101.185 142.754C101.752 141.995 102.036 140.935 102.036 139.575C102.036 138.358 101.745 137.374 101.164 136.622C100.59 135.863 99.8246 135.484 98.8676 135.484C97.931 135.484 97.1757 135.856 96.6014 136.601C96.0272 137.346 95.7401 138.413 95.7401 139.8ZM113.161 144.128C112.423 144.996 111.34 145.43 109.911 145.43C108.728 145.43 107.826 145.088 107.204 144.404C106.589 143.714 106.278 142.695 106.271 141.349V134.13H108.168V141.297C108.168 142.979 108.851 143.82 110.219 143.82C111.668 143.82 112.632 143.28 113.11 142.2V134.13H115.007V145.225H113.203L113.161 144.128ZM120.473 131.443V134.13H122.544V135.596H120.473V142.477C120.473 142.921 120.565 143.256 120.749 143.482C120.934 143.7 121.248 143.81 121.693 143.81C121.911 143.81 122.212 143.769 122.595 143.687V145.225C122.096 145.361 121.611 145.43 121.139 145.43C120.291 145.43 119.652 145.173 119.222 144.661C118.791 144.148 118.576 143.42 118.576 142.477V135.596H116.556V134.13H118.576V131.443H120.473ZM131.619 144.128C130.88 144.996 129.797 145.43 128.368 145.43C127.185 145.43 126.283 145.088 125.661 144.404C125.046 143.714 124.735 142.695 124.728 141.349V134.13H126.625V141.297C126.625 142.979 127.308 143.82 128.676 143.82C130.125 143.82 131.089 143.28 131.567 142.2V134.13H133.464V145.225H131.66L131.619 144.128ZM145.748 139.8C145.748 141.496 145.359 142.859 144.579 143.892C143.8 144.917 142.754 145.43 141.442 145.43C140.04 145.43 138.957 144.934 138.191 143.943L138.099 145.225H136.356V129.475H138.253V135.35C139.018 134.4 140.075 133.925 141.421 133.925C142.768 133.925 143.824 134.434 144.59 135.453C145.362 136.471 145.748 137.866 145.748 139.636V139.8ZM143.851 139.585C143.851 138.293 143.602 137.295 143.103 136.591C142.604 135.887 141.886 135.535 140.95 135.535C139.699 135.535 138.8 136.116 138.253 137.278V142.077C138.834 143.239 139.74 143.82 140.97 143.82C141.879 143.82 142.587 143.468 143.093 142.764C143.599 142.06 143.851 141 143.851 139.585ZM152.752 145.43C151.248 145.43 150.024 144.938 149.081 143.953C148.138 142.962 147.666 141.639 147.666 139.985V139.636C147.666 138.536 147.874 137.555 148.291 136.693C148.715 135.825 149.303 135.149 150.055 134.663C150.814 134.171 151.634 133.925 152.516 133.925C153.958 133.925 155.079 134.4 155.879 135.35C156.679 136.3 157.079 137.661 157.079 139.431V140.221H149.563C149.59 141.315 149.908 142.2 150.516 142.877C151.132 143.547 151.911 143.881 152.854 143.881C153.524 143.881 154.092 143.745 154.557 143.471C155.021 143.198 155.428 142.836 155.777 142.384L156.935 143.287C156.006 144.715 154.611 145.43 152.752 145.43ZM152.516 135.484C151.75 135.484 151.108 135.764 150.588 136.324C150.069 136.878 149.747 137.657 149.624 138.662H155.182V138.519C155.127 137.555 154.868 136.81 154.403 136.283C153.938 135.75 153.309 135.484 152.516 135.484Z" fill="#333333"/>
<path d="M122 377C122 343.863 148.863 317 182 317H206C261.228 317 306 361.772 306 417V551H122V377Z" fill="#1062AA"/>
<ellipse cx="196" cy="311" rx="65" ry="40" fill="#1062AA"/>
<path d="M261 311C261 333.091 231.899 351 196 351C160.101 351 131 333.091 131 311" stroke="white" stroke-linecap="round" stroke-linejoin="round"/>
<path d="M209.189 278.026H205.811C198.736 278.026 193 283.726 193 290.758V312.92C193 319.952 198.736 325.652 205.811 325.652H209.189C216.264 325.652 222 319.952 222 312.92V290.758C222 283.726 216.264 278.026 209.189 278.026Z" fill="#F7DECE"/>
<path d="M209.189 254.213H205.811C198.736 254.213 193 259.913 193 266.944V289.107C193 296.138 198.736 301.839 205.811 301.839H209.189C216.264 301.839 222 296.138 222 289.107V266.944C222 259.913 216.264 254.213 209.189 254.213Z" fill="#DDBDAB"/>
<circle cx="202.5" cy="231.5" r="58.5" fill="#333333"/>
<circle cx="207.993" cy="244.771" r="53" transform="rotate(-3.74523 207.993 244.771)" fill="#F7DECE"/>
<path d="M192.992 242.564C192.941 240.554 193.678 238.603 195.047 237.122C196.416 235.64 198.312 234.744 200.334 234.622C202.356 234.5 204.347 235.161 205.888 236.466C207.429 237.771 208.399 239.619 208.594 241.62" stroke="#333333" stroke-linecap="round" stroke-linejoin="round"/>
<path d="M224.027 266.128C224.803 266.156 225.537 266.482 226.076 267.037C226.614 267.593 226.914 268.333 226.913 269.104C226.912 269.874 226.61 270.614 226.07 271.168C225.53 271.721 224.794 272.045 224.018 272.072" stroke="#333333" stroke-linecap="round" stroke-linejoin="round"/>
<path d="M224.027 271.674C224.803 271.703 225.537 272.029 226.076 272.584C226.614 273.139 226.914 273.88 226.913 274.65C226.912 275.421 226.61 276.161 226.07 276.714C225.53 277.268 224.794 277.592 224.018 277.618" stroke="#333333" stroke-linecap="round" stroke-linejoin="round"/>
<path d="M221.93 240.684C221.879 238.675 222.616 236.724 223.985 235.242C225.354 233.761 227.25 232.865 229.272 232.742C231.294 232.62 233.285 233.281 234.826 234.587C236.367 235.892 237.337 237.74 237.532 239.741" stroke="#333333" stroke-linecap="round" stroke-linejoin="round"/>
<circle cx="200.541" cy="245.76" r="14" transform="rotate(-3.74523 200.541 245.76)" stroke="#00ADEE"/>
<circle cx="229.479" cy="243.866" r="14" transform="rotate(-3.74523 229.479 243.866)" stroke="#00ADEE"/>
<circle cx="149.519" cy="247.096" r="9.5" transform="rotate(-3.74523 149.519 247.096)" fill="#F7DECE"/>
<circle cx="259.285" cy="239.911" r="9.5" transform="rotate(-3.74523 259.285 239.911)" fill="#F7DECE"/>
<path d="M396.067 422.839C396.067 422.839 388.62 427.106 388.62 427.106C378.336 432.997 374.813 446.043 380.75 456.247C386.687 466.45 399.836 469.946 410.12 464.055C410.12 464.055 417.567 459.788 417.567 459.788" stroke="white" stroke-width="10" stroke-linecap="round"/>
<path d="M403.093 443.447L432.885 426.381" stroke="white" stroke-width="10" stroke-linecap="round"/>
<path d="M439.911 446.989C439.911 446.989 447.359 442.722 447.359 442.722C457.642 436.832 461.165 423.785 455.228 413.581C449.291 403.378 436.142 399.882 425.859 405.773C425.859 405.773 418.411 410.04 418.411 410.04" stroke="white" stroke-width="10" stroke-linecap="round"/>
<line x1="389.12" y1="450.844" x2="365.844" y2="464.527" stroke="#F7DECE" stroke-width="10" stroke-linecap="round" stroke-linejoin="round"/>
<line x1="395.12" y1="458.844" x2="371.844" y2="472.527" stroke="#F7DECE" stroke-width="10" stroke-linecap="round" stroke-linejoin="round"/>
<line x1="399.12" y1="467.844" x2="375.844" y2="481.527" stroke="#F7DECE" stroke-width="10" stroke-linecap="round" stroke-linejoin="round"/>
<line x1="384.12" y1="442.844" x2="360.844" y2="456.527" stroke="#F7DECE" stroke-width="10" stroke-linecap="round" stroke-linejoin="round"/>
<path d="M236 343L252.5 403.5" stroke="white" stroke-linecap="round" stroke-linejoin="round"/>
<path d="M214 350L230.5 410.5" stroke="white" stroke-linecap="round" stroke-linejoin="round"/>
<path d="M514.959 148.92C510.222 148.923 505.591 147.533 501.651 144.924C497.711 142.315 494.64 138.606 492.826 134.264C491.012 129.923 490.536 125.145 491.459 120.536C492.382 115.926 494.663 111.692 498.012 108.369C501.361 105.046 505.629 102.783 510.274 101.867C514.92 100.951 519.735 101.423 524.11 103.223C528.486 105.023 532.225 108.071 534.854 111.98C537.483 115.889 538.884 120.484 538.881 125.184C538.871 131.476 536.348 137.508 531.864 141.957C527.379 146.406 521.3 148.91 514.959 148.92ZM514.959 103.983C510.732 103.979 506.599 105.219 503.083 107.547C499.566 109.874 496.825 113.184 495.205 117.058C493.585 120.932 493.159 125.195 493.981 129.309C494.804 133.423 496.837 137.202 499.825 140.169C502.812 143.136 506.62 145.157 510.765 145.976C514.911 146.796 519.208 146.377 523.113 144.773C527.019 143.169 530.357 140.451 532.706 136.964C535.054 133.477 536.308 129.378 536.308 125.184C536.303 119.565 534.053 114.178 530.051 110.204C526.048 106.229 520.621 103.992 514.959 103.983Z" fill="#FFE735"/>
<path fill-rule="evenodd" clip-rule="evenodd" d="M511.199 125.292V139.052C511.199 139.148 511.237 139.24 511.306 139.308C511.374 139.376 511.467 139.414 511.564 139.414H516.71C516.806 139.414 516.899 139.376 516.968 139.308C517.036 139.24 517.075 139.148 517.075 139.052V125.056H520.724C520.77 125.059 520.815 125.052 520.858 125.037C520.901 125.022 520.941 124.999 520.975 124.969C521.009 124.938 521.036 124.902 521.056 124.861C521.075 124.82 521.087 124.776 521.089 124.73L521.454 120.512C521.456 120.463 521.449 120.414 521.432 120.368C521.414 120.322 521.388 120.28 521.354 120.244C521.32 120.209 521.279 120.18 521.233 120.161C521.188 120.142 521.139 120.132 521.089 120.132H517.075V117.144C517.079 116.978 517.117 116.814 517.186 116.662C517.254 116.51 517.352 116.373 517.474 116.259C517.596 116.144 517.74 116.055 517.897 115.996C518.054 115.936 518.221 115.908 518.388 115.913H521.272C521.319 115.913 521.365 115.904 521.409 115.885C521.452 115.867 521.491 115.84 521.523 115.806C521.556 115.772 521.581 115.732 521.597 115.688C521.614 115.645 521.621 115.598 521.618 115.551V111.296C521.621 111.25 521.614 111.203 521.597 111.159C521.581 111.115 521.556 111.075 521.523 111.041C521.491 111.008 521.452 110.981 521.409 110.962C521.365 110.944 521.319 110.934 521.272 110.934H516.363C514.992 110.939 513.678 111.483 512.71 112.447C511.743 113.411 511.199 114.716 511.199 116.076V120.132H508.626C508.529 120.132 508.437 120.17 508.368 120.238C508.3 120.306 508.261 120.398 508.261 120.494V124.712C508.261 124.759 508.271 124.805 508.289 124.848C508.308 124.891 508.335 124.93 508.369 124.962C508.403 124.994 508.444 125.019 508.488 125.036C508.532 125.052 508.579 125.059 508.626 125.056H511.199V125.292Z" fill="#FFE735"/>
<path d="M168.328 86.4101C163.716 86.4137 159.207 85.0231 155.371 82.4144C151.535 79.8056 148.544 76.096 146.778 71.7547C145.011 67.4135 144.548 62.6359 145.447 58.0264C146.346 53.4169 148.566 49.1826 151.827 45.8595C155.089 42.5364 159.244 40.2736 163.767 39.3577C168.291 38.4417 172.979 38.9136 177.239 40.7137C181.499 42.5139 185.14 45.5613 187.7 49.4704C190.26 53.3795 191.624 57.9746 191.621 62.6742C191.611 68.9664 189.154 74.9982 184.788 79.4475C180.422 83.8967 174.503 86.4005 168.328 86.4101ZM168.328 41.473C164.213 41.4695 160.188 42.7098 156.765 45.0373C153.341 47.3647 150.671 50.6746 149.094 54.5483C147.517 58.422 147.102 62.6854 147.903 66.7993C148.704 70.9131 150.684 74.6925 153.593 77.6593C156.502 80.6261 160.209 82.6472 164.245 83.4667C168.281 84.2862 172.465 83.8674 176.268 82.2633C180.071 80.6591 183.321 77.9417 185.608 74.4548C187.895 70.9679 189.116 66.8682 189.116 62.6742C189.111 57.0559 186.92 51.6688 183.023 47.6944C179.126 43.72 173.842 41.4826 168.328 41.473Z" fill="#FFE735"/>
<path d="M181.707 54.0012C180.831 54.3841 179.912 54.6518 178.97 54.7978C179.415 54.7978 180.072 53.9107 180.321 53.5848C180.73 53.0813 181.044 52.504 181.245 51.8829C181.245 51.8829 181.245 51.7743 181.245 51.738C181.223 51.7253 181.199 51.7186 181.174 51.7186C181.149 51.7186 181.124 51.7253 181.102 51.738C180.074 52.2947 178.982 52.7203 177.851 53.0054C177.817 53.028 177.777 53.04 177.736 53.04C177.695 53.04 177.655 53.028 177.62 53.0054L177.336 52.7157C176.866 52.3019 176.332 51.9714 175.755 51.738C174.99 51.4161 174.163 51.2797 173.338 51.3397C172.538 51.392 171.757 51.614 171.046 51.9915C170.325 52.3688 169.691 52.8981 169.185 53.5442C168.68 54.1904 168.315 54.9386 168.115 55.7393C167.955 56.5276 167.955 57.3409 168.115 58.1292C168.115 58.2559 168.115 58.274 167.99 58.2559C163.677 57.8158 159.682 55.7418 156.797 52.4441C156.673 52.2993 156.602 52.2993 156.495 52.4441C155.906 53.537 155.682 54.795 155.855 56.0291C156.028 57.2632 156.589 58.4068 157.455 59.2879C157.668 59.4871 157.899 59.7043 158.147 59.9035C157.393 59.8424 156.657 59.6334 155.98 59.2879C155.855 59.2879 155.784 59.2879 155.784 59.3965C155.758 59.613 155.758 59.8319 155.784 60.0483C155.916 61.0784 156.315 62.054 156.939 62.875C157.564 63.696 158.392 64.3326 159.338 64.7195C159.565 64.8216 159.804 64.8945 160.049 64.9367C159.348 65.0505 158.635 65.0505 157.934 64.9367C157.774 64.9367 157.721 64.9367 157.774 65.1359C158.141 66.1026 158.742 66.9586 159.522 67.6236C160.302 68.2886 161.235 68.7409 162.234 68.938H162.838C161.973 69.7325 160.93 70.2983 159.8 70.5856C158.321 71.1251 156.744 71.329 155.18 71.183C154.932 71.183 154.878 71.183 154.807 71.183C154.736 71.183 154.807 71.2917 154.807 71.3641L155.767 71.9434C156.727 72.5128 157.746 72.9742 158.805 73.3194C161.563 74.1701 164.493 74.2666 167.299 73.5992C170.106 72.9319 172.691 71.5242 174.795 69.5173C176.307 67.8447 177.475 65.8812 178.232 63.7422C178.988 61.6031 179.318 59.3316 179.201 57.061C179.201 56.8799 179.415 56.7894 179.539 56.6989C180.367 56.0429 181.097 55.2684 181.707 54.3995C181.8 54.2689 181.844 54.1081 181.831 53.9469C181.831 53.9469 181.831 53.9469 181.707 54.0012Z" fill="#FFE735"/>
<path fill-rule="evenodd" clip-rule="evenodd" d="M163.638 73.9894C163.638 73.9894 164.116 73.9894 163.638 73.9894C163.638 73.9712 163.691 73.9894 163.638 73.9894Z" fill="#FFE735"/>
<path d="M454.328 344.386C449.716 344.389 445.207 342.999 441.371 340.39C437.535 337.781 434.544 334.072 432.778 329.73C431.011 325.389 430.548 320.611 431.447 316.002C432.346 311.392 434.566 307.158 437.827 303.835C441.089 300.512 445.244 298.249 449.767 297.333C454.291 296.417 458.979 296.889 463.239 298.689C467.499 300.489 471.14 303.537 473.7 307.446C476.26 311.355 477.624 315.95 477.621 320.65C477.611 326.942 475.154 332.974 470.788 337.423C466.422 341.872 460.503 344.376 454.328 344.386ZM454.328 299.449C450.213 299.445 446.188 300.685 442.765 303.013C439.341 305.34 436.671 308.65 435.094 312.524C433.517 316.398 433.102 320.661 433.903 324.775C434.704 328.889 436.684 332.668 439.593 335.635C442.502 338.602 446.209 340.623 450.245 341.442C454.281 342.262 458.465 341.843 462.268 340.239C466.071 338.635 469.321 335.917 471.608 332.43C473.895 328.944 475.116 324.844 475.116 320.65C475.111 315.032 472.92 309.644 469.023 305.67C465.126 301.696 459.842 299.458 454.328 299.449Z" fill="#FFE735"/>
<path d="M468.329 317.046C468.329 316.241 468.172 315.443 467.868 314.699C467.564 313.955 467.118 313.28 466.556 312.713C465.994 312.145 465.328 311.697 464.595 311.394C463.863 311.09 463.079 310.938 462.288 310.945H446.759C445.974 310.945 445.196 311.103 444.471 311.41C443.745 311.717 443.086 312.166 442.532 312.733C441.977 313.3 441.538 313.973 441.239 314.713C440.94 315.453 440.787 316.246 440.79 317.046V324.451C440.787 325.252 440.94 326.045 441.239 326.785C441.538 327.525 441.977 328.198 442.532 328.765C443.086 329.332 443.745 329.781 444.471 330.088C445.196 330.395 445.974 330.553 446.759 330.553H462.288C463.079 330.56 463.863 330.408 464.595 330.104C465.328 329.801 465.994 329.352 466.556 328.785C467.118 328.218 467.564 327.543 467.868 326.799C468.172 326.055 468.329 325.257 468.329 324.451V317.046ZM458.539 321.12L452.338 324.578C452.072 324.723 451.841 324.578 451.841 324.216V317.119C451.841 316.793 452.089 316.612 452.356 316.757L458.592 320.378C458.65 320.425 458.695 320.487 458.723 320.558C458.75 320.628 458.759 320.705 458.748 320.78C458.737 320.855 458.707 320.926 458.661 320.986C458.615 321.045 458.555 321.092 458.486 321.12H458.539Z" fill="#FFE735"/>
<path d="M204.363 209.881L175.372 225.272C174.462 225.754 173.486 226.097 172.474 226.289C164.831 227.735 158.43 220.467 160.829 213.068L164.727 201.052C166.47 195.676 170.671 191.454 176.038 189.684L199.008 182.109C208.668 178.923 219.285 180.85 227.21 187.226L255.472 209.966C257.094 211.271 258.148 213.153 258.413 215.218C259.264 221.858 252.116 226.579 246.344 223.191L224.397 210.309C218.246 206.699 210.663 206.537 204.363 209.881Z" fill="#333333"/>
<path d="M282.5 505V525H190V511.5L211.5 492.5" stroke="white" stroke-linecap="round" stroke-linejoin="round"/>
<path d="M396.25 179.879L397.853 173.898C398.282 172.297 399.927 171.348 401.527 171.776L404.611 172.603C406.211 173.032 407.856 172.082 408.285 170.481L409.111 167.398C409.54 165.797 411.185 164.848 412.785 165.276L415.869 166.103C417.469 166.532 419.114 165.582 419.543 163.981L421.146 158" stroke="white" stroke-linecap="round" stroke-linejoin="round"/>
<path d="M406.528 199.12L410.537 194.4C411.609 193.137 413.502 192.983 414.765 194.055L417.199 196.122C418.461 197.194 420.355 197.04 421.427 195.777L423.494 193.343C424.566 192.08 426.459 191.926 427.722 192.999L430.156 195.065C431.418 196.137 433.312 195.983 434.384 194.72L438.392 190" stroke="white" stroke-linecap="round" stroke-linejoin="round"/>
<path d="M384.915 157.827L384.47 151.651C384.35 149.998 385.594 148.562 387.246 148.443L390.43 148.214C392.083 148.095 393.326 146.658 393.207 145.006L392.977 141.822C392.858 140.169 394.102 138.733 395.754 138.614L398.938 138.384C400.591 138.265 401.834 136.829 401.715 135.176L401.27 129" stroke="white" stroke-linecap="round" stroke-linejoin="round"/>
<path d="M526.563 399.201C521.903 399.201 517.347 397.83 513.472 395.261C509.597 392.692 506.577 389.041 504.794 384.768C503.01 380.496 502.544 375.795 503.453 371.26C504.362 366.725 506.606 362.559 509.902 359.289C513.197 356.02 517.395 353.793 521.966 352.891C526.537 351.989 531.275 352.452 535.58 354.221C539.886 355.991 543.566 358.988 546.155 362.832C548.745 366.677 550.126 371.197 550.126 375.821C550.122 382.021 547.638 387.965 543.22 392.348C538.802 396.732 532.811 399.197 526.563 399.201ZM526.563 354.674C522.346 354.674 518.223 355.915 514.717 358.24C511.21 360.565 508.477 363.87 506.864 367.736C505.25 371.602 504.829 375.856 505.652 379.96C506.475 384.064 508.507 387.834 511.49 390.792C514.472 393.751 518.272 395.765 522.409 396.58C526.545 397.396 530.833 396.975 534.729 395.373C538.625 393.77 541.954 391.057 544.296 387.577C546.638 384.097 547.887 380.006 547.885 375.821C547.88 370.213 545.632 364.835 541.634 360.87C537.636 356.905 532.216 354.677 526.563 354.674ZM534.513 366.338C534.17 366.338 533.834 366.44 533.548 366.629C533.262 366.819 533.039 367.088 532.908 367.403C532.776 367.718 532.742 368.065 532.809 368.399C532.876 368.733 533.041 369.041 533.284 369.282C533.528 369.523 533.837 369.687 534.174 369.754C534.511 369.82 534.861 369.786 535.178 369.656C535.496 369.525 535.767 369.304 535.958 369.021C536.149 368.737 536.251 368.404 536.251 368.063C536.251 367.605 536.068 367.167 535.742 366.843C535.416 366.52 534.974 366.338 534.513 366.338ZM526.763 368.563C525.314 368.563 523.898 368.989 522.693 369.788C521.488 370.587 520.549 371.722 519.995 373.051C519.441 374.379 519.297 375.841 519.58 377.251C519.863 378.661 520.562 379.956 521.587 380.972C522.612 381.988 523.918 382.679 525.339 382.959C526.761 383.238 528.234 383.093 529.572 382.542C530.91 381.99 532.054 381.058 532.857 379.861C533.661 378.665 534.089 377.259 534.087 375.821C534.083 373.896 533.309 372.051 531.937 370.691C530.564 369.33 528.703 368.565 526.763 368.563ZM526.763 380.477C525.835 380.477 524.928 380.204 524.156 379.692C523.385 379.181 522.784 378.454 522.428 377.603C522.073 376.752 521.98 375.816 522.161 374.913C522.342 374.01 522.789 373.181 523.445 372.53C524.102 371.879 524.938 371.435 525.848 371.256C526.758 371.076 527.701 371.168 528.559 371.521C529.416 371.873 530.149 372.47 530.664 373.235C531.18 374.001 531.455 374.901 531.455 375.821C531.455 377.056 530.961 378.24 530.081 379.113C529.201 379.986 528.007 380.477 526.763 380.477ZM541.534 369.787C541.534 367.436 540.593 365.182 538.917 363.52C537.242 361.858 534.971 360.925 532.602 360.925H520.82C518.45 360.925 516.178 361.858 514.501 363.52C512.825 365.182 511.882 367.436 511.88 369.787V381.485C511.876 382.652 512.105 383.809 512.553 384.888C513 385.967 513.658 386.948 514.489 387.775C515.32 388.601 516.306 389.257 517.393 389.704C518.479 390.152 519.644 390.382 520.82 390.382H532.602C533.778 390.382 534.942 390.152 536.028 389.704C537.114 389.257 538.1 388.601 538.93 387.774C539.76 386.948 540.417 385.967 540.864 384.887C541.31 383.808 541.538 382.652 541.534 381.485V369.787ZM538.736 381.485C538.736 383.1 538.09 384.648 536.939 385.789C535.789 386.93 534.229 387.572 532.602 387.572H520.82C519.192 387.572 517.631 386.931 516.48 385.79C515.328 384.648 514.68 383.1 514.677 381.485V369.787C514.68 368.172 515.328 366.624 516.48 365.483C517.631 364.341 519.192 363.701 520.82 363.701H532.602C534.229 363.701 535.789 364.342 536.939 365.483C538.09 366.625 538.736 368.173 538.736 369.787V381.485Z" fill="#FFE735"/>
<path d="M337 455C337 455 352.5 455 363 450C373.5 445 394.847 474.521 382.5 483.5C366 495.5 337 492 337 492V455Z" fill="#F7DECE"/>
<path d="M196 387C196 373.193 184.807 362 171 362C157.193 362 146 373.193 146 387H196ZM264 455C226.445 455 196 424.555 196 387H146C146 452.17 198.83 505 264 505V455ZM264 505H339.5V455H264V505Z" fill="#FFE735"/>
<path d="M348 278.707L359.019 241.139C359.234 240.405 360.135 240.196 360.619 240.788C362.739 243.382 367.592 250.035 372.75 262C379.647 278 381.5 289 381.5 289L349.5 295.5L348 278.707Z" fill="#F7DECE"/>
<rect x="327" y="242.528" width="18" height="44" transform="rotate(-28.2794 327 242.528)" fill="#1062AA"/>
<line x1="359.086" y1="252.504" x2="334.697" y2="264.088" stroke="#F7DECE" stroke-width="10" stroke-linecap="round" stroke-linejoin="round"/>
<path d="M363.5 261.5L339.971 272.584" stroke="#F7DECE" stroke-width="10" stroke-linecap="round" stroke-linejoin="round"/>
<line x1="367.553" y1="270.317" x2="343.164" y2="281.901" stroke="#F7DECE" stroke-width="10" stroke-linecap="round" stroke-linejoin="round"/>
<path d="M356 243L330.42 255.679" stroke="#F7DECE" stroke-width="10" stroke-linecap="round" stroke-linejoin="round"/>
<path d="M320.642 228.895C316.023 228.895 313.137 223.895 315.446 219.895L357.448 147.145C359.758 143.145 365.531 143.145 367.841 147.145L409.843 219.895C412.152 223.895 409.266 228.895 404.647 228.895L320.642 228.895Z" fill="#1062AA"/>
<circle cx="326.428" cy="222.596" r="24" transform="rotate(-30 326.428 222.596)" fill="white"/>
<path d="M297.397 239.209C301.482 246.285 310.53 248.71 317.606 244.624L302.812 219C295.736 223.085 293.312 232.133 297.397 239.209Z" fill="#1062AA"/>
<path d="M339.5 492.5V455L350.5 492.5H339.5Z" fill="#DDBDAB"/>
<path d="M381.5 289L349.5 295L380.5 283L381.5 289Z" fill="#DDBDAB"/>
</svg>
