<svg width="540" height="245" viewBox="0 0 540 245" fill="none" xmlns="http://www.w3.org/2000/svg">
<path d="M506.761 68.45C506.761 69.99 506.171 71.3 504.991 72.38C503.811 73.44 502.081 74.03 499.801 74.15V77.6H498.301V74.18C496.841 74.1 495.461 73.82 494.161 73.34C492.881 72.84 491.871 72.21 491.131 71.45L492.001 69.74C492.701 70.42 493.611 70.99 494.731 71.45C495.871 71.91 497.061 72.18 498.301 72.26V64.37C496.921 64.03 495.771 63.67 494.851 63.29C493.931 62.89 493.161 62.32 492.541 61.58C491.941 60.82 491.641 59.82 491.641 58.58C491.641 57.04 492.201 55.75 493.321 54.71C494.441 53.65 496.101 53.03 498.301 52.85V49.4H499.801V52.82C500.941 52.86 502.041 53.05 503.101 53.39C504.181 53.71 505.111 54.14 505.891 54.68L505.141 56.45C504.321 55.93 503.451 55.52 502.531 55.22C501.611 54.92 500.701 54.75 499.801 54.71V62.66C501.281 63.02 502.491 63.39 503.431 63.77C504.371 64.13 505.161 64.69 505.801 65.45C506.441 66.21 506.761 67.21 506.761 68.45ZM493.831 58.52C493.831 59.56 494.211 60.35 494.971 60.89C495.751 61.43 496.861 61.89 498.301 62.27V54.77C496.821 54.89 495.701 55.3 494.941 56C494.201 56.68 493.831 57.52 493.831 58.52ZM499.801 72.26C501.381 72.14 502.571 71.75 503.371 71.09C504.171 70.43 504.571 69.59 504.571 68.57C504.571 67.49 504.161 66.68 503.341 66.14C502.521 65.6 501.341 65.14 499.801 64.76V72.26Z" fill="#00ADEE"/>
<g filter="url(#filter0_d)">
<rect x="24" y="16" width="435.872" height="94" rx="12" fill="white"/>
</g>
<g filter="url(#filter1_d)">
<rect x="92.1362" y="127" width="431.864" height="94" rx="12" fill="#EBF0FF"/>
</g>
<path d="M131.922 159.52H139.992V162.01H131.922V159.52ZM150.591 156.82C152.651 157.02 154.221 157.66 155.301 158.74C156.381 159.8 156.921 161.16 156.921 162.82C156.921 164.02 156.621 165.11 156.021 166.09C155.421 167.05 154.521 167.82 153.321 168.4C152.141 168.96 150.691 169.24 148.971 169.24C147.471 169.24 146.031 169.02 144.651 168.58C143.271 168.12 142.141 167.49 141.261 166.69L142.641 164.32C143.361 165 144.281 165.55 145.401 165.97C146.521 166.37 147.711 166.57 148.971 166.57C150.531 166.57 151.741 166.24 152.601 165.58C153.481 164.92 153.921 164.01 153.921 162.85C153.921 161.69 153.491 160.79 152.631 160.15C151.771 159.51 150.471 159.19 148.731 159.19H147.051V157.09L152.331 150.61H142.221V148H156.081V150.04L150.591 156.82ZM168.299 169.24C166.639 169.24 165.159 168.82 163.859 167.98C162.579 167.12 161.569 165.88 160.829 164.26C160.089 162.64 159.719 160.72 159.719 158.5C159.719 156.28 160.089 154.36 160.829 152.74C161.569 151.12 162.579 149.89 163.859 149.05C165.159 148.19 166.639 147.76 168.299 147.76C169.939 147.76 171.399 148.19 172.679 149.05C173.979 149.89 174.999 151.12 175.739 152.74C176.479 154.36 176.849 156.28 176.849 158.5C176.849 160.72 176.479 162.64 175.739 164.26C174.999 165.88 173.979 167.12 172.679 167.98C171.399 168.82 169.939 169.24 168.299 169.24ZM168.299 166.57C169.979 166.57 171.319 165.88 172.319 164.5C173.339 163.12 173.849 161.12 173.849 158.5C173.849 155.88 173.339 153.88 172.319 152.5C171.319 151.12 169.979 150.43 168.299 150.43C166.599 150.43 165.239 151.12 164.219 152.5C163.219 153.88 162.719 155.88 162.719 158.5C162.719 161.12 163.219 163.12 164.219 164.5C165.239 165.88 166.599 166.57 168.299 166.57ZM183.089 161.224C181.921 161.224 180.977 160.8 180.257 159.952C179.537 159.104 179.177 158 179.177 156.64C179.177 155.28 179.537 154.176 180.257 153.328C180.977 152.48 181.921 152.056 183.089 152.056C184.257 152.056 185.193 152.48 185.897 153.328C186.617 154.16 186.977 155.264 186.977 156.64C186.977 158.016 186.617 159.128 185.897 159.976C185.193 160.808 184.257 161.224 183.089 161.224ZM193.217 152.2H195.065L183.593 169H181.745L193.217 152.2ZM183.089 159.856C183.825 159.856 184.401 159.576 184.817 159.016C185.233 158.44 185.441 157.648 185.441 156.64C185.441 155.632 185.233 154.848 184.817 154.288C184.401 153.712 183.825 153.424 183.089 153.424C182.369 153.424 181.793 153.712 181.361 154.288C180.945 154.864 180.737 155.648 180.737 156.64C180.737 157.632 180.945 158.416 181.361 158.992C181.793 159.568 182.369 159.856 183.089 159.856ZM193.721 169.144C192.553 169.144 191.609 168.728 190.889 167.896C190.185 167.048 189.833 165.936 189.833 164.56C189.833 163.184 190.185 162.08 190.889 161.248C191.609 160.4 192.553 159.976 193.721 159.976C194.889 159.976 195.833 160.4 196.553 161.248C197.273 162.096 197.633 163.2 197.633 164.56C197.633 165.92 197.273 167.024 196.553 167.872C195.833 168.72 194.889 169.144 193.721 169.144ZM193.721 167.776C194.441 167.776 195.009 167.488 195.425 166.912C195.857 166.336 196.073 165.552 196.073 164.56C196.073 163.568 195.857 162.784 195.425 162.208C195.009 161.632 194.441 161.344 193.721 161.344C192.985 161.344 192.409 161.632 191.993 162.208C191.577 162.768 191.369 163.552 191.369 164.56C191.369 165.568 191.577 166.36 191.993 166.936C192.409 167.496 192.985 167.776 193.721 167.776Z" fill="#1062AA"/>
<path d="M285.775 157.99C286.975 158.45 287.895 159.11 288.535 159.97C289.175 160.83 289.495 161.86 289.495 163.06C289.495 164.32 289.155 165.42 288.475 166.36C287.795 167.28 286.825 167.99 285.565 168.49C284.305 168.99 282.825 169.24 281.125 169.24C279.445 169.24 277.975 168.99 276.715 168.49C275.475 167.99 274.515 167.28 273.835 166.36C273.155 165.42 272.815 164.32 272.815 163.06C272.815 161.86 273.125 160.83 273.745 159.97C274.385 159.11 275.305 158.45 276.505 157.99C275.545 157.53 274.815 156.92 274.315 156.16C273.815 155.4 273.565 154.5 273.565 153.46C273.565 152.3 273.875 151.29 274.495 150.43C275.135 149.57 276.025 148.91 277.165 148.45C278.305 147.99 279.625 147.76 281.125 147.76C282.645 147.76 283.975 147.99 285.115 148.45C286.275 148.91 287.165 149.57 287.785 150.43C288.425 151.29 288.745 152.3 288.745 153.46C288.745 154.48 288.485 155.38 287.965 156.16C287.465 156.92 286.735 157.53 285.775 157.99ZM281.125 150.19C279.705 150.19 278.585 150.5 277.765 151.12C276.945 151.72 276.535 152.54 276.535 153.58C276.535 154.62 276.935 155.44 277.735 156.04C278.555 156.64 279.685 156.94 281.125 156.94C282.585 156.94 283.725 156.64 284.545 156.04C285.385 155.44 285.805 154.62 285.805 153.58C285.805 152.54 285.375 151.72 284.515 151.12C283.675 150.5 282.545 150.19 281.125 150.19ZM281.125 166.81C282.785 166.81 284.095 166.47 285.055 165.79C286.015 165.09 286.495 164.15 286.495 162.97C286.495 161.81 286.015 160.9 285.055 160.24C284.095 159.56 282.785 159.22 281.125 159.22C279.465 159.22 278.165 159.56 277.225 160.24C276.285 160.9 275.815 161.81 275.815 162.97C275.815 164.15 276.285 165.09 277.225 165.79C278.165 166.47 279.465 166.81 281.125 166.81ZM300.282 156.82C302.342 157.02 303.912 157.66 304.992 158.74C306.072 159.8 306.612 161.16 306.612 162.82C306.612 164.02 306.312 165.11 305.712 166.09C305.112 167.05 304.212 167.82 303.012 168.4C301.832 168.96 300.382 169.24 298.662 169.24C297.162 169.24 295.722 169.02 294.342 168.58C292.962 168.12 291.832 167.49 290.952 166.69L292.332 164.32C293.052 165 293.972 165.55 295.092 165.97C296.212 166.37 297.402 166.57 298.662 166.57C300.222 166.57 301.432 166.24 302.292 165.58C303.172 164.92 303.612 164.01 303.612 162.85C303.612 161.69 303.182 160.79 302.322 160.15C301.462 159.51 300.162 159.19 298.422 159.19H296.742V157.09L302.022 150.61H291.912V148H305.772V150.04L300.282 156.82Z" fill="#1062AA"/>
<path d="M420.728 148V169H417.758V150.61H413.018V148H420.728ZM431.321 156.37C434.321 156.37 436.521 156.94 437.921 158.08C439.341 159.2 440.051 160.74 440.051 162.7C440.051 163.94 439.751 165.06 439.151 166.06C438.571 167.04 437.681 167.82 436.481 168.4C435.301 168.96 433.841 169.24 432.101 169.24C430.621 169.24 429.191 169.02 427.811 168.58C426.431 168.12 425.291 167.49 424.391 166.69L425.771 164.32C426.491 165 427.411 165.55 428.531 165.97C429.651 166.37 430.831 166.57 432.071 166.57C433.651 166.57 434.871 166.24 435.731 165.58C436.611 164.9 437.051 163.98 437.051 162.82C437.051 161.56 436.571 160.61 435.611 159.97C434.651 159.31 433.011 158.98 430.691 158.98H425.921L427.031 148H438.881V150.61H429.551L428.981 156.37H431.321Z" fill="#1062AA"/>
<path d="M131.203 189V180.469H133.611C134.353 180.469 135.009 180.633 135.58 180.961C136.15 181.289 136.589 181.756 136.898 182.361C137.21 182.967 137.369 183.662 137.373 184.447V184.992C137.373 185.797 137.216 186.502 136.904 187.107C136.595 187.713 136.152 188.178 135.574 188.502C135 188.826 134.33 188.992 133.564 189H131.203ZM132.328 181.395V188.08H133.511C134.378 188.08 135.052 187.811 135.533 187.271C136.017 186.732 136.259 185.965 136.259 184.969V184.471C136.259 183.502 136.031 182.75 135.574 182.215C135.121 181.676 134.476 181.402 133.64 181.395H132.328ZM140.085 189H139.001V182.66H140.085V189ZM138.914 180.979C138.914 180.803 138.966 180.654 139.072 180.533C139.181 180.412 139.341 180.352 139.552 180.352C139.763 180.352 139.923 180.412 140.033 180.533C140.142 180.654 140.197 180.803 140.197 180.979C140.197 181.154 140.142 181.301 140.033 181.418C139.923 181.535 139.763 181.594 139.552 181.594C139.341 181.594 139.181 181.535 139.072 181.418C138.966 181.301 138.914 181.154 138.914 180.979ZM145.517 187.318C145.517 187.025 145.406 186.799 145.183 186.639C144.964 186.475 144.58 186.334 144.029 186.217C143.482 186.1 143.046 185.959 142.722 185.795C142.402 185.631 142.164 185.436 142.007 185.209C141.855 184.982 141.779 184.713 141.779 184.4C141.779 183.881 141.998 183.441 142.435 183.082C142.876 182.723 143.439 182.543 144.123 182.543C144.841 182.543 145.423 182.729 145.869 183.1C146.318 183.471 146.542 183.945 146.542 184.523H145.453C145.453 184.227 145.326 183.971 145.072 183.756C144.822 183.541 144.505 183.434 144.123 183.434C143.728 183.434 143.419 183.52 143.197 183.691C142.974 183.863 142.863 184.088 142.863 184.365C142.863 184.627 142.966 184.824 143.173 184.957C143.38 185.09 143.753 185.217 144.292 185.338C144.835 185.459 145.275 185.604 145.611 185.771C145.947 185.939 146.195 186.143 146.355 186.381C146.519 186.615 146.601 186.902 146.601 187.242C146.601 187.809 146.375 188.264 145.921 188.607C145.468 188.947 144.88 189.117 144.158 189.117C143.65 189.117 143.201 189.027 142.81 188.848C142.419 188.668 142.113 188.418 141.89 188.098C141.671 187.773 141.562 187.424 141.562 187.049H142.646C142.666 187.412 142.81 187.701 143.08 187.916C143.353 188.127 143.712 188.232 144.158 188.232C144.568 188.232 144.896 188.15 145.142 187.986C145.392 187.818 145.517 187.596 145.517 187.318ZM150.556 188.232C150.943 188.232 151.281 188.115 151.57 187.881C151.859 187.646 152.019 187.354 152.05 187.002H153.076C153.056 187.365 152.931 187.711 152.701 188.039C152.47 188.367 152.162 188.629 151.775 188.824C151.392 189.02 150.986 189.117 150.556 189.117C149.693 189.117 149.005 188.83 148.494 188.256C147.986 187.678 147.732 186.889 147.732 185.889V185.707C147.732 185.09 147.845 184.541 148.072 184.061C148.298 183.58 148.623 183.207 149.044 182.941C149.47 182.676 149.972 182.543 150.55 182.543C151.261 182.543 151.851 182.756 152.32 183.182C152.792 183.607 153.044 184.16 153.076 184.84H152.05C152.019 184.43 151.863 184.094 151.582 183.832C151.304 183.566 150.96 183.434 150.55 183.434C150 183.434 149.572 183.633 149.267 184.031C148.966 184.426 148.816 184.998 148.816 185.748V185.953C148.816 186.684 148.966 187.246 149.267 187.641C149.568 188.035 149.998 188.232 150.556 188.232ZM154.007 185.771C154.007 185.15 154.128 184.592 154.371 184.096C154.617 183.6 154.957 183.217 155.39 182.947C155.828 182.678 156.326 182.543 156.884 182.543C157.748 182.543 158.445 182.842 158.976 183.439C159.511 184.037 159.779 184.832 159.779 185.824V185.9C159.779 186.518 159.66 187.072 159.421 187.564C159.187 188.053 158.849 188.434 158.408 188.707C157.97 188.98 157.466 189.117 156.896 189.117C156.037 189.117 155.339 188.818 154.804 188.221C154.273 187.623 154.007 186.832 154.007 185.848V185.771ZM155.097 185.9C155.097 186.604 155.259 187.168 155.583 187.594C155.912 188.02 156.349 188.232 156.896 188.232C157.447 188.232 157.884 188.018 158.208 187.588C158.533 187.154 158.695 186.549 158.695 185.771C158.695 185.076 158.529 184.514 158.197 184.084C157.869 183.65 157.431 183.434 156.884 183.434C156.349 183.434 155.917 183.646 155.589 184.072C155.261 184.498 155.097 185.107 155.097 185.9ZM165.052 188.373C164.63 188.869 164.011 189.117 163.195 189.117C162.519 189.117 162.003 188.922 161.648 188.531C161.296 188.137 161.119 187.555 161.115 186.785V182.66H162.199V186.756C162.199 187.717 162.589 188.197 163.371 188.197C164.199 188.197 164.75 187.889 165.023 187.271V182.66H166.107V189H165.076L165.052 188.373ZM168.785 182.66L168.82 183.457C169.304 182.848 169.937 182.543 170.718 182.543C172.058 182.543 172.734 183.299 172.746 184.811V189H171.662V184.805C171.658 184.348 171.552 184.01 171.345 183.791C171.142 183.572 170.824 183.463 170.39 183.463C170.039 183.463 169.73 183.557 169.464 183.744C169.199 183.932 168.992 184.178 168.843 184.482V189H167.759V182.66H168.785ZM175.851 181.125V182.66H177.035V183.498H175.851V187.43C175.851 187.684 175.904 187.875 176.009 188.004C176.115 188.129 176.294 188.191 176.548 188.191C176.673 188.191 176.845 188.168 177.064 188.121V189C176.779 189.078 176.501 189.117 176.232 189.117C175.748 189.117 175.382 188.971 175.136 188.678C174.89 188.385 174.767 187.969 174.767 187.43V183.498H173.613V182.66H174.767V181.125H175.851ZM180.996 185.771C180.996 185.15 181.117 184.592 181.359 184.096C181.605 183.6 181.945 183.217 182.378 182.947C182.816 182.678 183.314 182.543 183.873 182.543C184.736 182.543 185.433 182.842 185.964 183.439C186.5 184.037 186.767 184.832 186.767 185.824V185.9C186.767 186.518 186.648 187.072 186.41 187.564C186.175 188.053 185.837 188.434 185.396 188.707C184.958 188.98 184.455 189.117 183.884 189.117C183.025 189.117 182.328 188.818 181.792 188.221C181.261 187.623 180.996 186.832 180.996 185.848V185.771ZM182.085 185.9C182.085 186.604 182.248 187.168 182.572 187.594C182.9 188.02 183.337 188.232 183.884 188.232C184.435 188.232 184.873 188.018 185.197 187.588C185.521 187.154 185.683 186.549 185.683 185.771C185.683 185.076 185.517 184.514 185.185 184.084C184.857 183.65 184.419 183.434 183.873 183.434C183.337 183.434 182.906 183.646 182.578 184.072C182.25 184.498 182.085 185.107 182.085 185.9ZM189.152 182.66L189.187 183.457C189.671 182.848 190.304 182.543 191.085 182.543C192.425 182.543 193.101 183.299 193.113 184.811V189H192.029V184.805C192.025 184.348 191.919 184.01 191.712 183.791C191.509 183.572 191.191 183.463 190.757 183.463C190.406 183.463 190.097 183.557 189.832 183.744C189.566 183.932 189.359 184.178 189.21 184.482V189H188.126V182.66H189.152ZM134.097 199.633C133.933 199.605 133.755 199.592 133.564 199.592C132.853 199.592 132.371 199.895 132.117 200.5V205H131.033V198.66H132.087L132.105 199.393C132.46 198.826 132.964 198.543 133.617 198.543C133.828 198.543 133.988 198.57 134.097 198.625V199.633ZM137.613 205.117C136.753 205.117 136.054 204.836 135.515 204.273C134.976 203.707 134.707 202.951 134.707 202.006V201.807C134.707 201.178 134.826 200.617 135.064 200.125C135.306 199.629 135.642 199.242 136.072 198.965C136.505 198.684 136.974 198.543 137.478 198.543C138.302 198.543 138.943 198.814 139.4 199.357C139.857 199.9 140.085 200.678 140.085 201.689V202.141H135.791C135.806 202.766 135.988 203.271 136.335 203.658C136.687 204.041 137.132 204.232 137.671 204.232C138.054 204.232 138.378 204.154 138.644 203.998C138.91 203.842 139.142 203.635 139.341 203.377L140.003 203.893C139.472 204.709 138.675 205.117 137.613 205.117ZM137.478 199.434C137.041 199.434 136.673 199.594 136.376 199.914C136.08 200.23 135.896 200.676 135.826 201.25H139.001V201.168C138.97 200.617 138.822 200.191 138.556 199.891C138.291 199.586 137.931 199.434 137.478 199.434ZM145.037 203.318C145.037 203.025 144.925 202.799 144.703 202.639C144.484 202.475 144.099 202.334 143.548 202.217C143.001 202.1 142.566 201.959 142.242 201.795C141.921 201.631 141.683 201.436 141.527 201.209C141.375 200.982 141.298 200.713 141.298 200.4C141.298 199.881 141.517 199.441 141.955 199.082C142.396 198.723 142.958 198.543 143.642 198.543C144.361 198.543 144.943 198.729 145.388 199.1C145.837 199.471 146.062 199.945 146.062 200.523H144.972C144.972 200.227 144.845 199.971 144.591 199.756C144.341 199.541 144.025 199.434 143.642 199.434C143.248 199.434 142.939 199.52 142.716 199.691C142.494 199.863 142.382 200.088 142.382 200.365C142.382 200.627 142.486 200.824 142.693 200.957C142.9 201.09 143.273 201.217 143.812 201.338C144.355 201.459 144.794 201.604 145.13 201.771C145.466 201.939 145.714 202.143 145.875 202.381C146.039 202.615 146.121 202.902 146.121 203.242C146.121 203.809 145.894 204.264 145.441 204.607C144.988 204.947 144.4 205.117 143.677 205.117C143.169 205.117 142.72 205.027 142.33 204.848C141.939 204.668 141.632 204.418 141.41 204.098C141.191 203.773 141.082 203.424 141.082 203.049H142.166C142.185 203.412 142.33 203.701 142.599 203.916C142.873 204.127 143.232 204.232 143.677 204.232C144.087 204.232 144.416 204.15 144.662 203.986C144.912 203.818 145.037 203.596 145.037 203.318ZM150.164 205.117C149.304 205.117 148.605 204.836 148.066 204.273C147.527 203.707 147.257 202.951 147.257 202.006V201.807C147.257 201.178 147.376 200.617 147.615 200.125C147.857 199.629 148.193 199.242 148.623 198.965C149.056 198.684 149.525 198.543 150.029 198.543C150.853 198.543 151.494 198.814 151.951 199.357C152.408 199.9 152.636 200.678 152.636 201.689V202.141H148.341C148.357 202.766 148.539 203.271 148.886 203.658C149.238 204.041 149.683 204.232 150.222 204.232C150.605 204.232 150.929 204.154 151.195 203.998C151.46 203.842 151.693 203.635 151.892 203.377L152.554 203.893C152.023 204.709 151.226 205.117 150.164 205.117ZM150.029 199.434C149.591 199.434 149.224 199.594 148.927 199.914C148.63 200.23 148.447 200.676 148.376 201.25H151.552V201.168C151.521 200.617 151.373 200.191 151.107 199.891C150.841 199.586 150.482 199.434 150.029 199.434ZM155.074 205H153.99V196H155.074V205ZM157.992 205H156.908V196H157.992V205ZM160.91 205H159.826V198.66H160.91V205ZM159.738 196.979C159.738 196.803 159.791 196.654 159.896 196.533C160.005 196.412 160.166 196.352 160.376 196.352C160.587 196.352 160.748 196.412 160.857 196.533C160.966 196.654 161.021 196.803 161.021 196.979C161.021 197.154 160.966 197.301 160.857 197.418C160.748 197.535 160.587 197.594 160.376 197.594C160.166 197.594 160.005 197.535 159.896 197.418C159.791 197.301 159.738 197.154 159.738 196.979ZM163.675 198.66L163.71 199.457C164.195 198.848 164.828 198.543 165.609 198.543C166.949 198.543 167.625 199.299 167.636 200.811V205H166.552V200.805C166.548 200.348 166.443 200.01 166.236 199.791C166.033 199.572 165.714 199.463 165.281 199.463C164.929 199.463 164.621 199.557 164.355 199.744C164.089 199.932 163.882 200.178 163.734 200.482V205H162.65V198.66H163.675ZM169.013 201.777C169.013 200.789 169.242 200.004 169.699 199.422C170.156 198.836 170.761 198.543 171.515 198.543C172.289 198.543 172.892 198.816 173.326 199.363L173.378 198.66H174.369V204.848C174.369 205.668 174.125 206.314 173.636 206.787C173.152 207.26 172.5 207.496 171.679 207.496C171.222 207.496 170.775 207.398 170.337 207.203C169.9 207.008 169.566 206.74 169.335 206.4L169.898 205.75C170.363 206.324 170.931 206.611 171.603 206.611C172.13 206.611 172.541 206.463 172.833 206.166C173.13 205.869 173.279 205.451 173.279 204.912V204.367C172.845 204.867 172.253 205.117 171.503 205.117C170.761 205.117 170.16 204.818 169.699 204.221C169.242 203.623 169.013 202.809 169.013 201.777ZM170.103 201.9C170.103 202.615 170.25 203.178 170.542 203.588C170.835 203.994 171.246 204.197 171.773 204.197C172.457 204.197 172.958 203.887 173.279 203.266V200.371C172.947 199.766 172.449 199.463 171.785 199.463C171.257 199.463 170.845 199.668 170.548 200.078C170.251 200.488 170.103 201.096 170.103 201.9Z" fill="#333333"/>
<path d="M273.616 188.08H277.659V189H272.485V180.469H273.616V188.08ZM278.485 185.771C278.485 185.15 278.606 184.592 278.849 184.096C279.095 183.6 279.434 183.217 279.868 182.947C280.306 182.678 280.804 182.543 281.362 182.543C282.225 182.543 282.923 182.842 283.454 183.439C283.989 184.037 284.257 184.832 284.257 185.824V185.9C284.257 186.518 284.138 187.072 283.899 187.564C283.665 188.053 283.327 188.434 282.886 188.707C282.448 188.98 281.944 189.117 281.374 189.117C280.515 189.117 279.817 188.818 279.282 188.221C278.751 187.623 278.485 186.832 278.485 185.848V185.771ZM279.575 185.9C279.575 186.604 279.737 187.168 280.061 187.594C280.39 188.02 280.827 188.232 281.374 188.232C281.925 188.232 282.362 188.018 282.686 187.588C283.011 187.154 283.173 186.549 283.173 185.771C283.173 185.076 283.007 184.514 282.675 184.084C282.347 183.65 281.909 183.434 281.362 183.434C280.827 183.434 280.395 183.646 280.067 184.072C279.739 184.498 279.575 185.107 279.575 185.9ZM288.681 183.633C288.516 183.605 288.339 183.592 288.147 183.592C287.436 183.592 286.954 183.895 286.7 184.5V189H285.616V182.66H286.671L286.688 183.393C287.044 182.826 287.548 182.543 288.2 182.543C288.411 182.543 288.571 182.57 288.681 182.625V183.633ZM292.196 189.117C291.337 189.117 290.638 188.836 290.099 188.273C289.559 187.707 289.29 186.951 289.29 186.006V185.807C289.29 185.178 289.409 184.617 289.647 184.125C289.89 183.629 290.225 183.242 290.655 182.965C291.089 182.684 291.557 182.543 292.061 182.543C292.886 182.543 293.526 182.814 293.983 183.357C294.44 183.9 294.669 184.678 294.669 185.689V186.141H290.374C290.39 186.766 290.571 187.271 290.919 187.658C291.27 188.041 291.716 188.232 292.255 188.232C292.638 188.232 292.962 188.154 293.227 187.998C293.493 187.842 293.725 187.635 293.925 187.377L294.587 187.893C294.056 188.709 293.259 189.117 292.196 189.117ZM292.061 183.434C291.624 183.434 291.257 183.594 290.96 183.914C290.663 184.23 290.479 184.676 290.409 185.25H293.585V185.168C293.554 184.617 293.405 184.191 293.14 183.891C292.874 183.586 292.515 183.434 292.061 183.434ZM296.948 182.66L296.977 183.363C297.442 182.816 298.069 182.543 298.858 182.543C299.745 182.543 300.349 182.883 300.669 183.562C300.88 183.258 301.153 183.012 301.489 182.824C301.829 182.637 302.229 182.543 302.69 182.543C304.081 182.543 304.788 183.279 304.811 184.752V189H303.727V184.816C303.727 184.363 303.624 184.025 303.417 183.803C303.21 183.576 302.862 183.463 302.374 183.463C301.972 183.463 301.638 183.584 301.372 183.826C301.106 184.064 300.952 184.387 300.909 184.793V189H299.819V184.846C299.819 183.924 299.368 183.463 298.466 183.463C297.755 183.463 297.268 183.766 297.007 184.371V189H295.923V182.66H296.948ZM310.606 189H309.522V182.66H310.606V189ZM309.434 180.979C309.434 180.803 309.487 180.654 309.593 180.533C309.702 180.412 309.862 180.352 310.073 180.352C310.284 180.352 310.444 180.412 310.554 180.533C310.663 180.654 310.718 180.803 310.718 180.979C310.718 181.154 310.663 181.301 310.554 181.418C310.444 181.535 310.284 181.594 310.073 181.594C309.862 181.594 309.702 181.535 309.593 181.418C309.487 181.301 309.434 181.154 309.434 180.979ZM317.702 185.9C317.702 186.865 317.481 187.643 317.04 188.232C316.599 188.822 316.001 189.117 315.247 189.117C314.477 189.117 313.872 188.873 313.431 188.385V191.438H312.347V182.66H313.337L313.39 183.363C313.831 182.816 314.444 182.543 315.229 182.543C315.991 182.543 316.593 182.83 317.034 183.404C317.479 183.979 317.702 184.777 317.702 185.801V185.9ZM316.618 185.777C316.618 185.062 316.466 184.498 316.161 184.084C315.856 183.67 315.438 183.463 314.907 183.463C314.251 183.463 313.759 183.754 313.431 184.336V187.365C313.755 187.943 314.251 188.232 314.919 188.232C315.438 188.232 315.85 188.027 316.155 187.617C316.464 187.203 316.618 186.59 316.618 185.777ZM322.776 187.318C322.776 187.025 322.665 186.799 322.442 186.639C322.224 186.475 321.839 186.334 321.288 186.217C320.741 186.1 320.306 185.959 319.981 185.795C319.661 185.631 319.423 185.436 319.266 185.209C319.114 184.982 319.038 184.713 319.038 184.4C319.038 183.881 319.257 183.441 319.694 183.082C320.136 182.723 320.698 182.543 321.382 182.543C322.1 182.543 322.682 182.729 323.128 183.1C323.577 183.471 323.802 183.945 323.802 184.523H322.712C322.712 184.227 322.585 183.971 322.331 183.756C322.081 183.541 321.765 183.434 321.382 183.434C320.987 183.434 320.679 183.52 320.456 183.691C320.233 183.863 320.122 184.088 320.122 184.365C320.122 184.627 320.225 184.824 320.432 184.957C320.64 185.09 321.013 185.217 321.552 185.338C322.095 185.459 322.534 185.604 322.87 185.771C323.206 185.939 323.454 186.143 323.614 186.381C323.778 186.615 323.86 186.902 323.86 187.242C323.86 187.809 323.634 188.264 323.181 188.607C322.727 188.947 322.14 189.117 321.417 189.117C320.909 189.117 320.46 189.027 320.069 188.848C319.679 188.668 319.372 188.418 319.149 188.098C318.931 187.773 318.821 187.424 318.821 187.049H319.905C319.925 187.412 320.069 187.701 320.339 187.916C320.612 188.127 320.972 188.232 321.417 188.232C321.827 188.232 322.155 188.15 322.401 187.986C322.651 187.818 322.776 187.596 322.776 187.318ZM329.186 188.373C328.765 188.869 328.145 189.117 327.329 189.117C326.653 189.117 326.138 188.922 325.782 188.531C325.431 188.137 325.253 187.555 325.249 186.785V182.66H326.333V186.756C326.333 187.717 326.724 188.197 327.505 188.197C328.333 188.197 328.884 187.889 329.157 187.271V182.66H330.241V189H329.21L329.186 188.373ZM332.913 182.66L332.942 183.363C333.407 182.816 334.034 182.543 334.823 182.543C335.71 182.543 336.313 182.883 336.634 183.562C336.845 183.258 337.118 183.012 337.454 182.824C337.794 182.637 338.194 182.543 338.655 182.543C340.046 182.543 340.753 183.279 340.776 184.752V189H339.692V184.816C339.692 184.363 339.589 184.025 339.382 183.803C339.175 183.576 338.827 183.463 338.339 183.463C337.936 183.463 337.602 183.584 337.337 183.826C337.071 184.064 336.917 184.387 336.874 184.793V189H335.784V184.846C335.784 183.924 335.333 183.463 334.431 183.463C333.72 183.463 333.233 183.766 332.972 184.371V189H331.888V182.66H332.913ZM272.052 201.777C272.052 200.805 272.282 200.023 272.743 199.434C273.204 198.84 273.807 198.543 274.554 198.543C275.296 198.543 275.884 198.797 276.317 199.305V196H277.401V205H276.405L276.352 204.32C275.919 204.852 275.315 205.117 274.542 205.117C273.807 205.117 273.208 204.816 272.743 204.215C272.282 203.613 272.052 202.828 272.052 201.859V201.777ZM273.136 201.9C273.136 202.619 273.284 203.182 273.581 203.588C273.878 203.994 274.288 204.197 274.811 204.197C275.499 204.197 276.001 203.889 276.317 203.271V200.359C275.993 199.762 275.495 199.463 274.823 199.463C274.292 199.463 273.878 199.668 273.581 200.078C273.284 200.488 273.136 201.096 273.136 201.9ZM278.802 201.771C278.802 201.15 278.923 200.592 279.165 200.096C279.411 199.6 279.751 199.217 280.184 198.947C280.622 198.678 281.12 198.543 281.679 198.543C282.542 198.543 283.239 198.842 283.77 199.439C284.306 200.037 284.573 200.832 284.573 201.824V201.9C284.573 202.518 284.454 203.072 284.216 203.564C283.981 204.053 283.643 204.434 283.202 204.707C282.765 204.98 282.261 205.117 281.69 205.117C280.831 205.117 280.134 204.818 279.599 204.221C279.067 203.623 278.802 202.832 278.802 201.848V201.771ZM279.891 201.9C279.891 202.604 280.054 203.168 280.378 203.594C280.706 204.02 281.143 204.232 281.69 204.232C282.241 204.232 282.679 204.018 283.003 203.588C283.327 203.154 283.489 202.549 283.489 201.771C283.489 201.076 283.323 200.514 282.991 200.084C282.663 199.65 282.225 199.434 281.679 199.434C281.143 199.434 280.712 199.646 280.384 200.072C280.056 200.498 279.891 201.107 279.891 201.9ZM287.11 205H286.026V196H287.11V205ZM288.563 201.771C288.563 201.15 288.684 200.592 288.927 200.096C289.173 199.6 289.513 199.217 289.946 198.947C290.384 198.678 290.882 198.543 291.44 198.543C292.304 198.543 293.001 198.842 293.532 199.439C294.067 200.037 294.335 200.832 294.335 201.824V201.9C294.335 202.518 294.216 203.072 293.977 203.564C293.743 204.053 293.405 204.434 292.964 204.707C292.526 204.98 292.022 205.117 291.452 205.117C290.593 205.117 289.895 204.818 289.36 204.221C288.829 203.623 288.563 202.832 288.563 201.848V201.771ZM289.653 201.9C289.653 202.604 289.815 203.168 290.14 203.594C290.468 204.02 290.905 204.232 291.452 204.232C292.003 204.232 292.44 204.018 292.765 203.588C293.089 203.154 293.251 202.549 293.251 201.771C293.251 201.076 293.085 200.514 292.753 200.084C292.425 199.65 291.987 199.434 291.44 199.434C290.905 199.434 290.474 199.646 290.145 200.072C289.817 200.498 289.653 201.107 289.653 201.9ZM298.759 199.633C298.595 199.605 298.417 199.592 298.225 199.592C297.515 199.592 297.032 199.895 296.778 200.5V205H295.694V198.66H296.749L296.766 199.393C297.122 198.826 297.626 198.543 298.278 198.543C298.489 198.543 298.649 198.57 298.759 198.625V199.633ZM306.429 203.318C306.429 203.025 306.317 202.799 306.095 202.639C305.876 202.475 305.491 202.334 304.94 202.217C304.393 202.1 303.958 201.959 303.634 201.795C303.313 201.631 303.075 201.436 302.919 201.209C302.766 200.982 302.69 200.713 302.69 200.4C302.69 199.881 302.909 199.441 303.347 199.082C303.788 198.723 304.35 198.543 305.034 198.543C305.753 198.543 306.335 198.729 306.78 199.1C307.229 199.471 307.454 199.945 307.454 200.523H306.364C306.364 200.227 306.237 199.971 305.983 199.756C305.733 199.541 305.417 199.434 305.034 199.434C304.64 199.434 304.331 199.52 304.108 199.691C303.886 199.863 303.774 200.088 303.774 200.365C303.774 200.627 303.878 200.824 304.085 200.957C304.292 201.09 304.665 201.217 305.204 201.338C305.747 201.459 306.186 201.604 306.522 201.771C306.858 201.939 307.106 202.143 307.266 202.381C307.431 202.615 307.513 202.902 307.513 203.242C307.513 203.809 307.286 204.264 306.833 204.607C306.38 204.947 305.792 205.117 305.069 205.117C304.561 205.117 304.112 205.027 303.722 204.848C303.331 204.668 303.024 204.418 302.802 204.098C302.583 203.773 302.474 203.424 302.474 203.049H303.557C303.577 203.412 303.722 203.701 303.991 203.916C304.265 204.127 304.624 204.232 305.069 204.232C305.479 204.232 305.807 204.15 306.054 203.986C306.304 203.818 306.429 203.596 306.429 203.318ZM310.102 205H309.018V198.66H310.102V205ZM308.931 196.979C308.931 196.803 308.983 196.654 309.089 196.533C309.198 196.412 309.358 196.352 309.569 196.352C309.78 196.352 309.94 196.412 310.05 196.533C310.159 196.654 310.214 196.803 310.214 196.979C310.214 197.154 310.159 197.301 310.05 197.418C309.94 197.535 309.78 197.594 309.569 197.594C309.358 197.594 309.198 197.535 309.089 197.418C308.983 197.301 308.931 197.154 308.931 196.979ZM313.313 197.125V198.66H314.497V199.498H313.313V203.43C313.313 203.684 313.366 203.875 313.472 204.004C313.577 204.129 313.757 204.191 314.011 204.191C314.136 204.191 314.307 204.168 314.526 204.121V205C314.241 205.078 313.964 205.117 313.694 205.117C313.21 205.117 312.845 204.971 312.599 204.678C312.352 204.385 312.229 203.969 312.229 203.43V199.498H311.075V198.66H312.229V197.125H313.313ZM322.659 205C322.597 204.875 322.546 204.652 322.507 204.332C322.003 204.855 321.401 205.117 320.702 205.117C320.077 205.117 319.563 204.941 319.161 204.59C318.763 204.234 318.563 203.785 318.563 203.242C318.563 202.582 318.813 202.07 319.313 201.707C319.817 201.34 320.524 201.156 321.434 201.156H322.489V200.658C322.489 200.279 322.376 199.979 322.149 199.756C321.923 199.529 321.589 199.416 321.147 199.416C320.761 199.416 320.436 199.514 320.175 199.709C319.913 199.904 319.782 200.141 319.782 200.418H318.692C318.692 200.102 318.804 199.797 319.026 199.504C319.253 199.207 319.557 198.973 319.94 198.801C320.327 198.629 320.751 198.543 321.212 198.543C321.942 198.543 322.515 198.727 322.929 199.094C323.343 199.457 323.557 199.959 323.573 200.6V203.518C323.573 204.1 323.647 204.562 323.796 204.906V205H322.659ZM320.86 204.174C321.2 204.174 321.522 204.086 321.827 203.91C322.132 203.734 322.352 203.506 322.489 203.225V201.924H321.64C320.311 201.924 319.647 202.312 319.647 203.09C319.647 203.43 319.761 203.695 319.987 203.887C320.214 204.078 320.505 204.174 320.86 204.174ZM326.292 198.66L326.321 199.363C326.786 198.816 327.413 198.543 328.202 198.543C329.089 198.543 329.692 198.883 330.013 199.562C330.224 199.258 330.497 199.012 330.833 198.824C331.173 198.637 331.573 198.543 332.034 198.543C333.425 198.543 334.132 199.279 334.155 200.752V205H333.071V200.816C333.071 200.363 332.968 200.025 332.761 199.803C332.554 199.576 332.206 199.463 331.718 199.463C331.315 199.463 330.981 199.584 330.716 199.826C330.45 200.064 330.296 200.387 330.253 200.793V205H329.163V200.846C329.163 199.924 328.712 199.463 327.809 199.463C327.099 199.463 326.612 199.766 326.35 200.371V205H325.266V198.66H326.292ZM338.427 205.117C337.567 205.117 336.868 204.836 336.329 204.273C335.79 203.707 335.52 202.951 335.52 202.006V201.807C335.52 201.178 335.64 200.617 335.878 200.125C336.12 199.629 336.456 199.242 336.886 198.965C337.319 198.684 337.788 198.543 338.292 198.543C339.116 198.543 339.757 198.814 340.214 199.357C340.671 199.9 340.899 200.678 340.899 201.689V202.141H336.604C336.62 202.766 336.802 203.271 337.149 203.658C337.501 204.041 337.946 204.232 338.485 204.232C338.868 204.232 339.192 204.154 339.458 203.998C339.724 203.842 339.956 203.635 340.155 203.377L340.817 203.893C340.286 204.709 339.489 205.117 338.427 205.117ZM338.292 199.434C337.854 199.434 337.487 199.594 337.19 199.914C336.893 200.23 336.71 200.676 336.64 201.25H339.815V201.168C339.784 200.617 339.636 200.191 339.37 199.891C339.104 199.586 338.745 199.434 338.292 199.434ZM343.63 197.125V198.66H344.813V199.498H343.63V203.43C343.63 203.684 343.682 203.875 343.788 204.004C343.893 204.129 344.073 204.191 344.327 204.191C344.452 204.191 344.624 204.168 344.843 204.121V205C344.557 205.078 344.28 205.117 344.011 205.117C343.526 205.117 343.161 204.971 342.915 204.678C342.669 204.385 342.546 203.969 342.546 203.43V199.498H341.391V198.66H342.546V197.125H343.63Z" fill="#333333"/>
<path d="M414.899 188.08H418.942V189H413.768V180.469H414.899V188.08ZM419.768 185.771C419.768 185.15 419.889 184.592 420.131 184.096C420.377 183.6 420.717 183.217 421.151 182.947C421.588 182.678 422.086 182.543 422.645 182.543C423.508 182.543 424.205 182.842 424.737 183.439C425.272 184.037 425.539 184.832 425.539 185.824V185.9C425.539 186.518 425.42 187.072 425.182 187.564C424.948 188.053 424.61 188.434 424.168 188.707C423.731 188.98 423.227 189.117 422.656 189.117C421.797 189.117 421.1 188.818 420.565 188.221C420.033 187.623 419.768 186.832 419.768 185.848V185.771ZM420.858 185.9C420.858 186.604 421.02 187.168 421.344 187.594C421.672 188.02 422.11 188.232 422.656 188.232C423.207 188.232 423.645 188.018 423.969 187.588C424.293 187.154 424.455 186.549 424.455 185.771C424.455 185.076 424.289 184.514 423.957 184.084C423.629 183.65 423.192 183.434 422.645 183.434C422.11 183.434 421.678 183.646 421.35 184.072C421.022 184.498 420.858 185.107 420.858 185.9ZM429.963 183.633C429.799 183.605 429.621 183.592 429.43 183.592C428.719 183.592 428.237 183.895 427.983 184.5V189H426.899V182.66H427.953L427.971 183.393C428.326 182.826 428.83 182.543 429.483 182.543C429.694 182.543 429.854 182.57 429.963 182.625V183.633ZM433.479 189.117C432.619 189.117 431.92 188.836 431.381 188.273C430.842 187.707 430.573 186.951 430.573 186.006V185.807C430.573 185.178 430.692 184.617 430.93 184.125C431.172 183.629 431.508 183.242 431.938 182.965C432.371 182.684 432.84 182.543 433.344 182.543C434.168 182.543 434.809 182.814 435.266 183.357C435.723 183.9 435.951 184.678 435.951 185.689V186.141H431.656C431.672 186.766 431.854 187.271 432.201 187.658C432.553 188.041 432.998 188.232 433.537 188.232C433.92 188.232 434.244 188.154 434.51 187.998C434.776 187.842 435.008 187.635 435.207 187.377L435.869 187.893C435.338 188.709 434.541 189.117 433.479 189.117ZM433.344 183.434C432.906 183.434 432.539 183.594 432.242 183.914C431.946 184.23 431.762 184.676 431.692 185.25H434.867V185.168C434.836 184.617 434.688 184.191 434.422 183.891C434.156 183.586 433.797 183.434 433.344 183.434ZM438.231 182.66L438.26 183.363C438.725 182.816 439.352 182.543 440.141 182.543C441.028 182.543 441.631 182.883 441.951 183.562C442.162 183.258 442.436 183.012 442.772 182.824C443.112 182.637 443.512 182.543 443.973 182.543C445.364 182.543 446.071 183.279 446.094 184.752V189H445.01V184.816C445.01 184.363 444.906 184.025 444.699 183.803C444.492 183.576 444.145 183.463 443.656 183.463C443.254 183.463 442.92 183.584 442.655 183.826C442.389 184.064 442.235 184.387 442.192 184.793V189H441.102V184.846C441.102 183.924 440.651 183.463 439.748 183.463C439.037 183.463 438.551 183.766 438.289 184.371V189H437.205V182.66H438.231ZM451.889 189H450.805V182.66H451.889V189ZM450.717 180.979C450.717 180.803 450.77 180.654 450.875 180.533C450.985 180.412 451.145 180.352 451.356 180.352C451.567 180.352 451.727 180.412 451.836 180.533C451.946 180.654 452 180.803 452 180.979C452 181.154 451.946 181.301 451.836 181.418C451.727 181.535 451.567 181.594 451.356 181.594C451.145 181.594 450.985 181.535 450.875 181.418C450.77 181.301 450.717 181.154 450.717 180.979ZM458.985 185.9C458.985 186.865 458.764 187.643 458.323 188.232C457.881 188.822 457.283 189.117 456.53 189.117C455.76 189.117 455.155 188.873 454.713 188.385V191.438H453.629V182.66H454.619L454.672 183.363C455.114 182.816 455.727 182.543 456.512 182.543C457.274 182.543 457.875 182.83 458.317 183.404C458.762 183.979 458.985 184.777 458.985 185.801V185.9ZM457.901 185.777C457.901 185.062 457.748 184.498 457.444 184.084C457.139 183.67 456.721 183.463 456.19 183.463C455.533 183.463 455.041 183.754 454.713 184.336V187.365C455.037 187.943 455.533 188.232 456.201 188.232C456.721 188.232 457.133 188.027 457.438 187.617C457.746 187.203 457.901 186.59 457.901 185.777ZM464.059 187.318C464.059 187.025 463.948 186.799 463.725 186.639C463.506 186.475 463.121 186.334 462.571 186.217C462.024 186.1 461.588 185.959 461.264 185.795C460.944 185.631 460.705 185.436 460.549 185.209C460.397 184.982 460.321 184.713 460.321 184.4C460.321 183.881 460.539 183.441 460.977 183.082C461.418 182.723 461.981 182.543 462.664 182.543C463.383 182.543 463.965 182.729 464.41 183.1C464.86 183.471 465.084 183.945 465.084 184.523H463.994C463.994 184.227 463.867 183.971 463.614 183.756C463.364 183.541 463.047 183.434 462.664 183.434C462.27 183.434 461.961 183.52 461.739 183.691C461.516 183.863 461.405 184.088 461.405 184.365C461.405 184.627 461.508 184.824 461.715 184.957C461.922 185.09 462.295 185.217 462.834 185.338C463.377 185.459 463.817 185.604 464.153 185.771C464.489 185.939 464.737 186.143 464.897 186.381C465.061 186.615 465.143 186.902 465.143 187.242C465.143 187.809 464.916 188.264 464.463 188.607C464.01 188.947 463.422 189.117 462.699 189.117C462.192 189.117 461.742 189.027 461.352 188.848C460.961 188.668 460.655 188.418 460.432 188.098C460.213 187.773 460.104 187.424 460.104 187.049H461.188C461.207 187.412 461.352 187.701 461.621 187.916C461.895 188.127 462.254 188.232 462.699 188.232C463.11 188.232 463.438 188.15 463.684 187.986C463.934 187.818 464.059 187.596 464.059 187.318ZM470.469 188.373C470.047 188.869 469.428 189.117 468.612 189.117C467.936 189.117 467.42 188.922 467.065 188.531C466.713 188.137 466.535 187.555 466.531 186.785V182.66H467.615V186.756C467.615 187.717 468.006 188.197 468.787 188.197C469.615 188.197 470.166 187.889 470.44 187.271V182.66H471.524V189H470.492L470.469 188.373ZM474.196 182.66L474.225 183.363C474.69 182.816 475.317 182.543 476.106 182.543C476.992 182.543 477.596 182.883 477.916 183.562C478.127 183.258 478.401 183.012 478.737 182.824C479.076 182.637 479.477 182.543 479.938 182.543C481.328 182.543 482.035 183.279 482.059 184.752V189H480.975V184.816C480.975 184.363 480.871 184.025 480.664 183.803C480.457 183.576 480.11 183.463 479.621 183.463C479.219 183.463 478.885 183.584 478.619 183.826C478.354 184.064 478.199 184.387 478.156 184.793V189H477.067V184.846C477.067 183.924 476.615 183.463 475.713 183.463C475.002 183.463 474.516 183.766 474.254 184.371V189H473.17V182.66H474.196ZM413.334 201.777C413.334 200.805 413.565 200.023 414.026 199.434C414.487 198.84 415.09 198.543 415.836 198.543C416.578 198.543 417.166 198.797 417.6 199.305V196H418.684V205H417.688L417.635 204.32C417.201 204.852 416.598 205.117 415.824 205.117C415.09 205.117 414.49 204.816 414.026 204.215C413.565 203.613 413.334 202.828 413.334 201.859V201.777ZM414.418 201.9C414.418 202.619 414.567 203.182 414.864 203.588C415.16 203.994 415.571 204.197 416.094 204.197C416.781 204.197 417.283 203.889 417.6 203.271V200.359C417.276 199.762 416.778 199.463 416.106 199.463C415.574 199.463 415.16 199.668 414.864 200.078C414.567 200.488 414.418 201.096 414.418 201.9ZM420.084 201.771C420.084 201.15 420.205 200.592 420.448 200.096C420.694 199.6 421.033 199.217 421.467 198.947C421.905 198.678 422.403 198.543 422.961 198.543C423.824 198.543 424.522 198.842 425.053 199.439C425.588 200.037 425.856 200.832 425.856 201.824V201.9C425.856 202.518 425.737 203.072 425.498 203.564C425.264 204.053 424.926 204.434 424.485 204.707C424.047 204.98 423.543 205.117 422.973 205.117C422.114 205.117 421.416 204.818 420.881 204.221C420.35 203.623 420.084 202.832 420.084 201.848V201.771ZM421.174 201.9C421.174 202.604 421.336 203.168 421.66 203.594C421.989 204.02 422.426 204.232 422.973 204.232C423.524 204.232 423.961 204.018 424.285 203.588C424.61 203.154 424.772 202.549 424.772 201.771C424.772 201.076 424.606 200.514 424.274 200.084C423.946 199.65 423.508 199.434 422.961 199.434C422.426 199.434 421.994 199.646 421.666 200.072C421.338 200.498 421.174 201.107 421.174 201.9ZM428.393 205H427.309V196H428.393V205ZM429.846 201.771C429.846 201.15 429.967 200.592 430.209 200.096C430.455 199.6 430.795 199.217 431.229 198.947C431.666 198.678 432.164 198.543 432.723 198.543C433.586 198.543 434.283 198.842 434.815 199.439C435.35 200.037 435.617 200.832 435.617 201.824V201.9C435.617 202.518 435.498 203.072 435.26 203.564C435.026 204.053 434.688 204.434 434.246 204.707C433.809 204.98 433.305 205.117 432.735 205.117C431.875 205.117 431.178 204.818 430.643 204.221C430.112 203.623 429.846 202.832 429.846 201.848V201.771ZM430.936 201.9C430.936 202.604 431.098 203.168 431.422 203.594C431.75 204.02 432.188 204.232 432.735 204.232C433.285 204.232 433.723 204.018 434.047 203.588C434.371 203.154 434.533 202.549 434.533 201.771C434.533 201.076 434.367 200.514 434.035 200.084C433.707 199.65 433.27 199.434 432.723 199.434C432.188 199.434 431.756 199.646 431.428 200.072C431.1 200.498 430.936 201.107 430.936 201.9ZM440.041 199.633C439.877 199.605 439.699 199.592 439.508 199.592C438.797 199.592 438.315 199.895 438.061 200.5V205H436.977V198.66H438.031L438.049 199.393C438.405 198.826 438.908 198.543 439.561 198.543C439.772 198.543 439.932 198.57 440.041 198.625V199.633ZM447.711 203.318C447.711 203.025 447.6 202.799 447.377 202.639C447.158 202.475 446.774 202.334 446.223 202.217C445.676 202.1 445.24 201.959 444.916 201.795C444.596 201.631 444.358 201.436 444.201 201.209C444.049 200.982 443.973 200.713 443.973 200.4C443.973 199.881 444.192 199.441 444.629 199.082C445.071 198.723 445.633 198.543 446.317 198.543C447.035 198.543 447.617 198.729 448.063 199.1C448.512 199.471 448.737 199.945 448.737 200.523H447.647C447.647 200.227 447.52 199.971 447.266 199.756C447.016 199.541 446.699 199.434 446.317 199.434C445.922 199.434 445.614 199.52 445.391 199.691C445.168 199.863 445.057 200.088 445.057 200.365C445.057 200.627 445.16 200.824 445.367 200.957C445.574 201.09 445.948 201.217 446.487 201.338C447.03 201.459 447.469 201.604 447.805 201.771C448.141 201.939 448.389 202.143 448.549 202.381C448.713 202.615 448.795 202.902 448.795 203.242C448.795 203.809 448.569 204.264 448.115 204.607C447.662 204.947 447.074 205.117 446.352 205.117C445.844 205.117 445.395 205.027 445.004 204.848C444.614 204.668 444.307 204.418 444.084 204.098C443.865 203.773 443.756 203.424 443.756 203.049H444.84C444.86 203.412 445.004 203.701 445.274 203.916C445.547 204.127 445.906 204.232 446.352 204.232C446.762 204.232 447.09 204.15 447.336 203.986C447.586 203.818 447.711 203.596 447.711 203.318ZM451.385 205H450.301V198.66H451.385V205ZM450.213 196.979C450.213 196.803 450.266 196.654 450.371 196.533C450.481 196.412 450.641 196.352 450.852 196.352C451.063 196.352 451.223 196.412 451.332 196.533C451.442 196.654 451.496 196.803 451.496 196.979C451.496 197.154 451.442 197.301 451.332 197.418C451.223 197.535 451.063 197.594 450.852 197.594C450.641 197.594 450.481 197.535 450.371 197.418C450.266 197.301 450.213 197.154 450.213 196.979ZM454.596 197.125V198.66H455.78V199.498H454.596V203.43C454.596 203.684 454.649 203.875 454.754 204.004C454.86 204.129 455.039 204.191 455.293 204.191C455.418 204.191 455.59 204.168 455.809 204.121V205C455.524 205.078 455.246 205.117 454.977 205.117C454.492 205.117 454.127 204.971 453.881 204.678C453.635 204.385 453.512 203.969 453.512 203.43V199.498H452.358V198.66H453.512V197.125H454.596ZM463.942 205C463.879 204.875 463.828 204.652 463.789 204.332C463.285 204.855 462.684 205.117 461.985 205.117C461.36 205.117 460.846 204.941 460.444 204.59C460.045 204.234 459.846 203.785 459.846 203.242C459.846 202.582 460.096 202.07 460.596 201.707C461.1 201.34 461.807 201.156 462.717 201.156H463.772V200.658C463.772 200.279 463.658 199.979 463.432 199.756C463.205 199.529 462.871 199.416 462.43 199.416C462.043 199.416 461.719 199.514 461.457 199.709C461.196 199.904 461.065 200.141 461.065 200.418H459.975C459.975 200.102 460.086 199.797 460.309 199.504C460.535 199.207 460.84 198.973 461.223 198.801C461.61 198.629 462.033 198.543 462.494 198.543C463.225 198.543 463.797 198.727 464.211 199.094C464.625 199.457 464.84 199.959 464.856 200.6V203.518C464.856 204.1 464.93 204.562 465.078 204.906V205H463.942ZM462.143 204.174C462.483 204.174 462.805 204.086 463.11 203.91C463.414 203.734 463.635 203.506 463.772 203.225V201.924H462.922C461.594 201.924 460.93 202.312 460.93 203.09C460.93 203.43 461.043 203.695 461.27 203.887C461.496 204.078 461.787 204.174 462.143 204.174ZM467.574 198.66L467.604 199.363C468.069 198.816 468.696 198.543 469.485 198.543C470.371 198.543 470.975 198.883 471.295 199.562C471.506 199.258 471.78 199.012 472.115 198.824C472.455 198.637 472.856 198.543 473.317 198.543C474.707 198.543 475.414 199.279 475.438 200.752V205H474.354V200.816C474.354 200.363 474.25 200.025 474.043 199.803C473.836 199.576 473.489 199.463 473 199.463C472.598 199.463 472.264 199.584 471.998 199.826C471.733 200.064 471.578 200.387 471.535 200.793V205H470.446V200.846C470.446 199.924 469.994 199.463 469.092 199.463C468.381 199.463 467.895 199.766 467.633 200.371V205H466.549V198.66H467.574ZM479.709 205.117C478.85 205.117 478.151 204.836 477.612 204.273C477.073 203.707 476.803 202.951 476.803 202.006V201.807C476.803 201.178 476.922 200.617 477.16 200.125C477.403 199.629 477.739 199.242 478.168 198.965C478.602 198.684 479.071 198.543 479.574 198.543C480.399 198.543 481.039 198.814 481.496 199.357C481.953 199.9 482.182 200.678 482.182 201.689V202.141H477.887C477.903 202.766 478.084 203.271 478.432 203.658C478.783 204.041 479.229 204.232 479.768 204.232C480.151 204.232 480.475 204.154 480.74 203.998C481.006 203.842 481.239 203.635 481.438 203.377L482.1 203.893C481.569 204.709 480.772 205.117 479.709 205.117ZM479.574 199.434C479.137 199.434 478.77 199.594 478.473 199.914C478.176 200.23 477.992 200.676 477.922 201.25H481.098V201.168C481.067 200.617 480.918 200.191 480.653 199.891C480.387 199.586 480.028 199.434 479.574 199.434ZM484.912 197.125V198.66H486.096V199.498H484.912V203.43C484.912 203.684 484.965 203.875 485.071 204.004C485.176 204.129 485.356 204.191 485.61 204.191C485.735 204.191 485.906 204.168 486.125 204.121V205C485.84 205.078 485.563 205.117 485.293 205.117C484.809 205.117 484.444 204.971 484.198 204.678C483.951 204.385 483.828 203.969 483.828 203.43V199.498H482.674V198.66H483.828V197.125H484.912Z" fill="#333333"/>
<path d="M237.427 204V144" stroke="#00ADEE"/>
<path d="M376.705 204V144" stroke="#00ADEE"/>
<path d="M523 63C523 76.2529 512.234 87 498.95 87C485.665 87 474.9 76.2529 474.9 63C474.9 49.7471 485.665 39 498.95 39C512.234 39 523 49.7471 523 63Z" stroke="#00ADEE" stroke-width="2"/>
<circle cx="395.568" cy="62.9999" r="32.7158" transform="rotate(45 395.568 62.9999)" stroke="#00ADEE" stroke-width="3"/>
<path d="M371.525 63.0498C371.525 76.3287 382.29 87.0934 395.569 87.0934C408.848 87.0934 419.612 76.3287 419.612 63.0498C419.612 56.1384 416.696 49.908 412.027 45.5221" stroke="#FFE735" stroke-width="3" stroke-linecap="round" stroke-linejoin="round"/>
<path d="M374.48 84.0395C386.113 95.6728 404.974 95.6728 416.608 84.0395C428.241 72.4061 428.241 53.5446 416.608 41.9113" stroke="#1062AA" stroke-width="3" stroke-linecap="round" stroke-linejoin="round"/>
<path d="M414.602 82.237C425.184 71.6552 425.184 54.4988 414.602 43.917C404.02 33.3352 386.864 33.3352 376.282 43.917" stroke="#EBF0FF" stroke-width="3" stroke-linecap="round" stroke-linejoin="round"/>
<path d="M389.871 64.0654C388.703 64.0654 387.759 63.6414 387.039 62.7934C386.319 61.9454 385.959 60.8414 385.959 59.4814C385.959 58.1214 386.319 57.0174 387.039 56.1694C387.759 55.3214 388.703 54.8974 389.871 54.8974C391.039 54.8974 391.975 55.3214 392.679 56.1694C393.399 57.0014 393.759 58.1054 393.759 59.4814C393.759 60.8574 393.399 61.9694 392.679 62.8174C391.975 63.6494 391.039 64.0654 389.871 64.0654ZM399.999 55.0414H401.847L390.375 71.8414H388.527L399.999 55.0414ZM389.871 62.6974C390.607 62.6974 391.183 62.4174 391.599 61.8574C392.015 61.2814 392.223 60.4894 392.223 59.4814C392.223 58.4734 392.015 57.6894 391.599 57.1294C391.183 56.5534 390.607 56.2654 389.871 56.2654C389.151 56.2654 388.575 56.5534 388.143 57.1294C387.727 57.7054 387.519 58.4894 387.519 59.4814C387.519 60.4734 387.727 61.2574 388.143 61.8334C388.575 62.4094 389.151 62.6974 389.871 62.6974ZM400.503 71.9854C399.335 71.9854 398.391 71.5694 397.671 70.7374C396.967 69.8894 396.615 68.7774 396.615 67.4014C396.615 66.0254 396.967 64.9214 397.671 64.0894C398.391 63.2414 399.335 62.8174 400.503 62.8174C401.671 62.8174 402.615 63.2414 403.335 64.0894C404.055 64.9374 404.415 66.0414 404.415 67.4014C404.415 68.7614 404.055 69.8654 403.335 70.7134C402.615 71.5614 401.671 71.9854 400.503 71.9854ZM400.503 70.6174C401.223 70.6174 401.791 70.3294 402.207 69.7534C402.639 69.1774 402.855 68.3934 402.855 67.4014C402.855 66.4094 402.639 65.6254 402.207 65.0494C401.791 64.4734 401.223 64.1854 400.503 64.1854C399.767 64.1854 399.191 64.4734 398.775 65.0494C398.359 65.6094 398.151 66.3934 398.151 67.4014C398.151 68.4094 398.359 69.2014 398.775 69.7774C399.191 70.3374 399.767 70.6174 400.503 70.6174Z" fill="#333333"/>
<circle cx="80.5208" cy="63" r="25" fill="#00ADEE"/>
<path d="M87.0403 71.87H74.0156C73.8695 71.87 72.6589 71.8076 71.97 70.8495C71.2395 69.8289 71.5526 68.6834 71.8448 67.8919C73.2015 64.2678 76.6873 61.8518 80.5697 61.8518C84.4103 61.8518 87.7917 64.1429 89.211 67.7045C89.6494 68.8083 89.6076 70.0788 89.0858 70.8286C88.3761 71.8492 87.1655 71.87 87.0403 71.87ZM80.5697 63.3514C77.3344 63.3514 74.3913 65.3926 73.2642 68.4126C72.9093 69.3499 73.0346 69.7248 73.2015 69.9747C73.452 70.3288 74.0365 70.3704 74.0365 70.3704H87.0194C87.0194 70.3704 87.5621 70.3496 87.8126 69.9747C87.9795 69.7248 88.0839 69.0166 87.7917 68.246C86.6228 65.2884 83.7841 63.3514 80.5697 63.3514Z" fill="white"/>
<path d="M80.5699 63.3514C77.7103 63.3514 75.3726 61.0395 75.3726 58.1652C75.3726 55.291 77.7103 52.9999 80.5699 52.9999C83.4295 52.9999 85.7672 55.3118 85.7672 58.186C85.7672 61.0603 83.4295 63.3514 80.5699 63.3514ZM80.5699 54.4995C78.5452 54.4995 76.8963 56.1449 76.8963 58.1652C76.8963 60.1855 78.5452 61.8309 80.5699 61.8309C82.5946 61.8309 84.2435 60.1855 84.2435 58.1652C84.2435 56.1449 82.5946 54.4995 80.5699 54.4995Z" fill="white"/>
<circle cx="167.221" cy="63" r="25" fill="#F5F7FF"/>
<path d="M159.7 60.1063C159.788 58.5165 161.103 57.2727 162.695 57.2727H171.747C173.339 57.2727 174.654 58.5165 174.742 60.1063L175.227 68.8336C175.322 70.5532 173.954 72 172.231 72H162.21C160.488 72 159.119 70.5532 159.215 68.8336L159.7 60.1063Z" stroke="#81859C" stroke-width="2"/>
<path d="M171.221 60C171.221 56.6863 170.221 54 167.221 54C164.221 54 163.221 56.6863 163.221 60" stroke="#81859C" stroke-width="2" stroke-linecap="round" stroke-linejoin="round"/>
<circle cx="114.807" cy="64.6363" r="1.93052" fill="#00ADEE"/>
<circle cx="123.871" cy="64.6363" r="1.93052" fill="#00ADEE"/>
<circle cx="132.935" cy="64.6363" r="1.93052" fill="#00ADEE"/>
<circle cx="201.507" cy="64.6363" r="1.93052" fill="#00ADEE"/>
<circle cx="210.571" cy="64.6363" r="1.93052" fill="#00ADEE"/>
<circle cx="219.635" cy="64.6363" r="1.93052" fill="#00ADEE"/>
<circle cx="253.921" cy="64.6362" r="25" fill="#FFE735"/>
<path d="M258.187 66.9568C258.187 67.7812 257.882 68.4834 257.271 69.0635C256.671 69.6334 255.796 69.9795 254.646 70.1016V71.8113H253.394V70.1168C252.641 70.066 251.928 69.9286 251.257 69.7047C250.585 69.4808 250.051 69.1958 249.654 68.8498L250.341 67.3079C250.717 67.6133 251.175 67.8728 251.715 68.0865C252.254 68.29 252.814 68.4173 253.394 68.4681V65.415C252.671 65.242 252.066 65.0537 251.577 64.8502C251.099 64.6364 250.697 64.3311 250.371 63.9342C250.046 63.5271 249.883 62.9928 249.883 62.3313C249.883 61.507 250.183 60.8047 250.783 60.2246C251.384 59.6445 252.254 59.2985 253.394 59.1866V57.4615H254.646V59.156C255.216 59.1866 255.77 59.2833 256.31 59.4461C256.859 59.6089 257.338 59.8226 257.745 60.0873L257.119 61.6291C256.345 61.1813 255.521 60.9065 254.646 60.8047V63.8884C255.378 64.0614 255.984 64.2497 256.462 64.4533C256.951 64.6568 257.358 64.9621 257.684 65.3692C258.019 65.7661 258.187 66.2953 258.187 66.9568ZM251.852 62.2397C251.852 62.5756 251.984 62.8453 252.249 63.0488C252.514 63.2524 252.895 63.4254 253.394 63.5678V60.8505C252.875 60.932 252.488 61.0948 252.234 61.339C251.979 61.5833 251.852 61.8835 251.852 62.2397ZM254.646 68.4376C255.185 68.3562 255.582 68.1985 255.836 67.9644C256.101 67.7303 256.233 67.4403 256.233 67.0942C256.233 66.7482 256.096 66.4734 255.821 66.2699C255.546 66.0562 255.155 65.8781 254.646 65.7356V68.4376Z" fill="#333333"/>
<circle cx="253.921" cy="64.6362" r="12" stroke="#333333" stroke-width="2"/>
<path d="M304.893 50.2712C305.23 50.8615 305.298 51.489 305.097 52.1536C304.9 52.8068 304.415 53.4119 303.641 53.9688L304.339 55.193L303.443 55.704L302.751 54.4907C302.191 54.7617 301.625 54.9541 301.052 55.068C300.48 55.1818 299.981 55.1959 299.556 55.1102L299.418 53.7257C299.812 53.7906 300.246 53.7895 300.72 53.7223C301.189 53.6479 301.642 53.5105 302.078 53.3101L300.832 51.124C300.244 51.295 299.733 51.4074 299.3 51.4611C298.871 51.5033 298.458 51.4488 298.063 51.2975C297.663 51.139 297.329 50.8229 297.059 50.3492C296.722 49.7589 296.651 49.1335 296.844 48.473C297.037 47.8126 297.519 47.2096 298.289 46.6641L297.585 45.4289L298.481 44.918L299.173 46.1313C299.594 45.9205 300.03 45.7633 300.483 45.6597C300.943 45.552 301.373 45.5098 301.772 45.5331L301.953 46.8926C301.217 46.8877 300.514 47.0274 299.846 47.3118L301.105 49.5199C301.7 49.3446 302.211 49.2323 302.636 49.1828C303.069 49.1291 303.485 49.1815 303.884 49.3401C304.287 49.4872 304.623 49.7976 304.893 50.2712ZM298.431 49.4797C298.569 49.7202 298.773 49.8593 299.046 49.897C299.318 49.9348 299.662 49.9029 300.078 49.8013L298.968 47.8556C298.63 48.1258 298.419 48.4002 298.337 48.679C298.255 48.9578 298.286 49.2247 298.431 49.4797ZM302.962 52.7773C303.315 52.4988 303.535 52.2238 303.621 51.9524C303.715 51.6767 303.691 51.415 303.55 51.1673C303.409 50.9195 303.198 50.7788 302.919 50.7453C302.635 50.7044 302.281 50.7368 301.859 50.8425L302.962 52.7773Z" fill="#333333"/>
<circle cx="300.891" cy="50.3513" r="10.715" transform="rotate(-29.6871 300.891 50.3513)" fill="#FFE735"/>
<path d="M304.985 50.4664C305.306 51.0973 305.346 51.7536 305.104 52.4353C304.867 53.1052 304.331 53.7108 303.499 54.2519L304.164 55.5605L303.206 56.0478L302.547 54.7509C301.95 55.0051 301.352 55.1773 300.75 55.2674C300.149 55.3575 299.629 55.3474 299.191 55.237L299.116 53.7895C299.523 53.8766 299.975 53.897 300.471 53.8506C300.963 53.7964 301.441 53.6759 301.905 53.489L300.716 51.1522C300.096 51.3011 299.559 51.3927 299.106 51.4271C298.657 51.4497 298.23 51.3725 297.826 51.1955C297.419 51.0107 297.086 50.6652 296.829 50.1589C296.508 49.528 296.464 48.8736 296.698 48.1959C296.932 47.5182 297.463 46.9146 298.292 46.3852L297.62 45.065L298.578 44.5777L299.238 45.8746C299.686 45.6761 300.148 45.5342 300.624 45.4488C301.108 45.3595 301.558 45.3369 301.972 45.381L302.093 46.8047C301.327 46.763 300.589 46.8736 299.88 47.1364L301.08 49.4966C301.708 49.3437 302.245 49.2521 302.69 49.2217C303.143 49.1873 303.574 49.2625 303.982 49.4473C304.393 49.6204 304.728 49.9601 304.985 50.4664ZM298.3 49.3222C298.431 49.5792 298.637 49.7342 298.919 49.7869C299.201 49.8397 299.56 49.8236 299.997 49.7385L298.939 47.6588C298.574 47.9231 298.341 48.1983 298.242 48.4843C298.142 48.7703 298.162 49.0496 298.3 49.3222ZM302.851 52.9784C303.232 52.7061 303.475 52.4308 303.578 52.1526C303.69 51.8705 303.678 51.597 303.543 51.3322C303.408 51.0673 303.196 50.9105 302.907 50.8617C302.613 50.8051 302.244 50.8213 301.799 50.9103L302.851 52.9784Z" fill="#333333"/>
<path d="M340.039 51.4916C339.912 51.8788 339.661 52.1618 339.285 52.3404C338.916 52.5159 338.451 52.5439 337.892 52.4246L337.63 53.2277L337.042 53.0353L337.302 52.2394C336.956 52.0998 336.643 51.9258 336.362 51.7175C336.08 51.5091 335.873 51.2932 335.74 51.0697L336.3 50.451C336.43 50.6523 336.605 50.8445 336.825 51.0278C337.047 51.2063 337.291 51.352 337.555 51.465L338.025 50.031C337.712 49.8387 337.456 49.6572 337.258 49.4866C337.066 49.3127 336.924 49.1075 336.832 48.871C336.742 48.6298 336.747 48.3538 336.849 48.0431C336.976 47.6559 337.225 47.3722 337.596 47.192C337.967 47.0118 338.429 46.9829 338.981 47.1055L339.246 46.2952L339.834 46.4875L339.574 47.2834C339.837 47.3854 340.083 47.516 340.311 47.6753C340.544 47.8363 340.736 48.0101 340.887 48.197L340.356 48.825C340.061 48.4958 339.716 48.2401 339.321 48.0578L338.847 49.5063C339.165 49.7001 339.42 49.8816 339.614 50.0507C339.812 50.2213 339.956 50.4273 340.046 50.6685C340.143 50.9066 340.141 51.1809 340.039 51.4916ZM337.788 48.3026C337.737 48.4604 337.757 48.6074 337.85 48.7437C337.943 48.8799 338.096 49.0198 338.308 49.1634L338.726 47.887C338.469 47.8455 338.263 47.8626 338.106 47.9382C337.949 48.0139 337.843 48.1353 337.788 48.3026ZM338.148 51.643C338.414 51.6877 338.625 51.6745 338.78 51.6037C338.94 51.5344 339.047 51.4185 339.1 51.256C339.153 51.0934 339.131 50.9433 339.033 50.8054C338.937 50.6628 338.78 50.519 338.563 50.3739L338.148 51.643Z" fill="#333333"/>
<circle cx="338.392" cy="49.746" r="6.4245" transform="rotate(18.1131 338.392 49.746)" fill="#FFE735"/>
<path d="M339.989 51.611C339.838 52.0076 339.563 52.2896 339.163 52.4568C338.77 52.6211 338.285 52.6272 337.709 52.4753L337.396 53.298L336.794 53.0687L337.104 52.2534C336.751 52.091 336.434 51.8944 336.151 51.6636C335.869 51.4328 335.664 51.1978 335.537 50.9586L336.15 50.3426C336.275 50.5585 336.448 50.7672 336.668 50.9689C336.89 51.1656 337.136 51.3294 337.406 51.4601L337.966 49.9911C337.65 49.7755 337.393 49.574 337.195 49.3865C337.004 49.1961 336.866 48.9755 336.782 48.7249C336.7 48.4694 336.72 48.1825 336.841 47.8642C336.992 47.4675 337.265 47.1847 337.66 47.0155C338.055 46.8464 338.537 46.8393 339.106 46.9942L339.422 46.1642L340.025 46.3935L339.714 47.2088C339.983 47.3279 340.232 47.476 340.462 47.6532C340.696 47.8322 340.887 48.0227 341.035 48.2245L340.451 48.8518C340.161 48.4946 339.815 48.2114 339.412 48.0021L338.847 49.4858C339.168 49.7033 339.425 49.9048 339.618 50.0904C339.816 50.2778 339.956 50.4993 340.038 50.7548C340.127 51.0073 340.111 51.2927 339.989 51.611ZM337.805 48.1808C337.744 48.3424 337.758 48.4964 337.848 48.6428C337.938 48.7892 338.09 48.9424 338.304 49.1023L338.802 47.7949C338.537 47.739 338.321 47.7465 338.154 47.8174C337.987 47.8883 337.871 48.0095 337.805 48.1808ZM338.014 51.6747C338.289 51.7343 338.508 51.7311 338.674 51.6651C338.844 51.601 338.961 51.4856 339.024 51.3192C339.087 51.1527 339.072 50.9953 338.977 50.847C338.884 50.6938 338.728 50.5364 338.509 50.3746L338.014 51.6747Z" fill="#333333"/>
<path d="M325.304 79.3894C324.969 79.9808 324.465 80.3607 323.792 80.5291C323.13 80.6943 322.361 80.5874 321.487 80.2083L320.793 81.4349L319.895 80.927L320.582 79.7113C320.063 79.3692 319.607 78.9815 319.216 78.5483C318.825 78.1151 318.558 77.6939 318.413 77.2846L319.532 76.4572C319.678 76.8291 319.901 77.2011 320.202 77.5733C320.506 77.9382 320.856 78.2566 321.251 78.5285L322.49 76.3381C322.042 75.9208 321.684 75.54 321.416 75.1957C321.16 74.8483 320.995 74.4661 320.923 74.0492C320.854 73.625 320.954 73.1756 321.223 72.7011C321.557 72.1097 322.058 71.7277 322.724 71.5552C323.39 71.3827 324.155 71.4875 325.018 71.8698L325.718 70.6322L326.616 71.1402L325.928 72.3558C326.325 72.609 326.683 72.9035 327.004 73.2392C327.333 73.579 327.589 73.9264 327.774 74.2814L326.699 75.1336C326.326 74.4985 325.846 73.9668 325.259 73.5386L324.008 75.7509C324.463 76.1724 324.821 76.5532 325.082 76.8933C325.35 77.2376 325.518 77.6218 325.586 78.046C325.666 78.467 325.572 78.9148 325.304 79.3894ZM322.673 73.4345C322.536 73.6754 322.522 73.9226 322.629 74.176C322.736 74.4294 322.94 74.7084 323.24 75.013L324.343 73.0635C323.937 72.9113 323.594 72.8712 323.312 72.9432C323.03 73.0152 322.817 73.1789 322.673 73.4345ZM322.162 79.0146C322.582 79.175 322.931 79.2229 323.208 79.1583C323.493 79.0977 323.706 78.9433 323.846 78.6951C323.986 78.4468 323.999 78.1939 323.885 77.9364C323.774 77.6716 323.566 77.3848 323.258 77.0761L322.162 79.0146Z" fill="#333333"/>
<circle cx="323.184" cy="75.9932" r="10.715" transform="rotate(29.494 323.184 75.9932)" fill="#FFE735"/>
<path d="M325.183 79.5684C324.806 80.1672 324.262 80.5375 323.553 80.6793C322.856 80.8184 322.062 80.669 321.171 80.2312L320.388 81.4732L319.478 80.9001L320.254 79.6692C319.731 79.2874 319.276 78.8614 318.89 78.3912C318.505 77.921 318.247 77.4694 318.118 77.0363L319.322 76.2308C319.456 76.625 319.67 77.0232 319.964 77.4254C320.263 77.8203 320.611 78.1689 321.009 78.4715L322.407 76.2536C321.961 75.7971 321.608 75.3831 321.346 75.0116C321.096 74.6373 320.944 74.2315 320.889 73.7941C320.839 73.3492 320.965 72.8866 321.268 72.406C321.646 71.8072 322.185 71.4345 322.887 71.2881C323.589 71.1416 324.379 71.2886 325.259 71.7292L326.049 70.4761L326.958 71.0492L326.182 72.2801C326.582 72.5633 326.941 72.8874 327.258 73.2527C327.583 73.6226 327.832 73.9969 328.007 74.3755L326.846 75.2089C326.489 74.5295 326.016 73.9525 325.427 73.4778L324.015 75.7178C324.468 76.179 324.822 76.593 325.076 76.9599C325.338 77.3314 325.494 77.7396 325.544 78.1844C325.606 78.6265 325.486 79.0878 325.183 79.5684ZM322.741 73.2411C322.587 73.4851 322.56 73.7416 322.659 74.0106C322.758 74.2796 322.956 74.58 323.253 74.9118L324.497 72.9379C324.083 72.7594 323.727 72.7006 323.43 72.7616C323.134 72.8225 322.904 72.9824 322.741 73.2411ZM321.932 79.0225C322.362 79.2103 322.722 79.2774 323.014 79.2239C323.313 79.175 323.542 79.0249 323.701 78.7735C323.859 78.5222 323.885 78.2596 323.779 77.986C323.677 77.7049 323.474 77.3961 323.17 77.0597L321.932 79.0225Z" fill="#333333"/>
<defs>
<filter id="filter0_d" x="0" y="0" width="475.872" height="134" filterUnits="userSpaceOnUse" color-interpolation-filters="sRGB">
<feFlood flood-opacity="0" result="BackgroundImageFix"/>
<feColorMatrix in="SourceAlpha" type="matrix" values="0 0 0 0 0 0 0 0 0 0 0 0 0 0 0 0 0 0 127 0" result="hardAlpha"/>
<feOffset dx="-4" dy="4"/>
<feGaussianBlur stdDeviation="10"/>
<feColorMatrix type="matrix" values="0 0 0 0 0.0627451 0 0 0 0 0.384314 0 0 0 0 0.666667 0 0 0 0.2 0"/>
<feBlend mode="normal" in2="BackgroundImageFix" result="effect1_dropShadow"/>
<feBlend mode="normal" in="SourceGraphic" in2="effect1_dropShadow" result="shape"/>
</filter>
<filter id="filter1_d" x="68.1362" y="111" width="471.864" height="134" filterUnits="userSpaceOnUse" color-interpolation-filters="sRGB">
<feFlood flood-opacity="0" result="BackgroundImageFix"/>
<feColorMatrix in="SourceAlpha" type="matrix" values="0 0 0 0 0 0 0 0 0 0 0 0 0 0 0 0 0 0 127 0" result="hardAlpha"/>
<feOffset dx="-4" dy="4"/>
<feGaussianBlur stdDeviation="10"/>
<feColorMatrix type="matrix" values="0 0 0 0 0.0627451 0 0 0 0 0.384314 0 0 0 0 0.666667 0 0 0 0.2 0"/>
<feBlend mode="normal" in2="BackgroundImageFix" result="effect1_dropShadow"/>
<feBlend mode="normal" in="SourceGraphic" in2="effect1_dropShadow" result="shape"/>
</filter>
</defs>
</svg>
