<svg width="541" height="245" viewBox="0 0 541 245" fill="none" xmlns="http://www.w3.org/2000/svg">
<g filter="url(#filter0_d)">
<rect x="24.853" y="16" width="435.872" height="94" rx="12" fill="white"/>
</g>
<g filter="url(#filter1_d)">
<rect x="92.9893" y="127" width="431.864" height="94" rx="12" fill="#EBF0FF"/>
</g>
<path d="M138.505 156.37C141.505 156.37 143.705 156.94 145.105 158.08C146.525 159.2 147.235 160.74 147.235 162.7C147.235 163.94 146.935 165.06 146.335 166.06C145.755 167.04 144.865 167.82 143.665 168.4C142.485 168.96 141.025 169.24 139.285 169.24C137.805 169.24 136.375 169.02 134.995 168.58C133.615 168.12 132.475 167.49 131.575 166.69L132.955 164.32C133.675 165 134.595 165.55 135.715 165.97C136.835 166.37 138.015 166.57 139.255 166.57C140.835 166.57 142.055 166.24 142.915 165.58C143.795 164.9 144.235 163.98 144.235 162.82C144.235 161.56 143.755 160.61 142.795 159.97C141.835 159.31 140.195 158.98 137.875 158.98H133.105L134.215 148H146.065V150.61H136.735L136.165 156.37H138.505ZM153.116 161.272C151.884 161.272 150.876 160.856 150.092 160.024C149.324 159.176 148.94 158.048 148.94 156.64C148.94 155.232 149.324 154.112 150.092 153.28C150.876 152.432 151.884 152.008 153.116 152.008C154.348 152.008 155.348 152.432 156.116 153.28C156.884 154.112 157.268 155.232 157.268 156.64C157.268 158.048 156.884 159.176 156.116 160.024C155.348 160.856 154.348 161.272 153.116 161.272ZM163.124 152.2H165.98L154.508 169H151.652L163.124 152.2ZM153.116 159.304C153.66 159.304 154.084 159.08 154.388 158.632C154.708 158.184 154.868 157.52 154.868 156.64C154.868 155.76 154.708 155.096 154.388 154.648C154.084 154.2 153.66 153.976 153.116 153.976C152.588 153.976 152.164 154.208 151.844 154.672C151.524 155.12 151.364 155.776 151.364 156.64C151.364 157.504 151.524 158.168 151.844 158.632C152.164 159.08 152.588 159.304 153.116 159.304ZM164.516 169.192C163.716 169.192 162.996 169.008 162.356 168.64C161.732 168.256 161.244 167.712 160.892 167.008C160.54 166.304 160.364 165.488 160.364 164.56C160.364 163.632 160.54 162.816 160.892 162.112C161.244 161.408 161.732 160.872 162.356 160.504C162.996 160.12 163.716 159.928 164.516 159.928C165.748 159.928 166.748 160.352 167.516 161.2C168.3 162.032 168.692 163.152 168.692 164.56C168.692 165.968 168.3 167.096 167.516 167.944C166.748 168.776 165.748 169.192 164.516 169.192ZM164.516 167.224C165.06 167.224 165.484 167 165.788 166.552C166.108 166.088 166.268 165.424 166.268 164.56C166.268 163.696 166.108 163.04 165.788 162.592C165.484 162.128 165.06 161.896 164.516 161.896C163.988 161.896 163.564 162.12 163.244 162.568C162.924 163.016 162.764 163.68 162.764 164.56C162.764 165.44 162.924 166.104 163.244 166.552C163.564 167 163.988 167.224 164.516 167.224Z" fill="#00ADEE"/>
<path d="M286.628 157.99C287.828 158.45 288.748 159.11 289.388 159.97C290.028 160.83 290.348 161.86 290.348 163.06C290.348 164.32 290.008 165.42 289.328 166.36C288.648 167.28 287.678 167.99 286.418 168.49C285.158 168.99 283.678 169.24 281.978 169.24C280.298 169.24 278.828 168.99 277.568 168.49C276.328 167.99 275.368 167.28 274.688 166.36C274.008 165.42 273.668 164.32 273.668 163.06C273.668 161.86 273.978 160.83 274.598 159.97C275.238 159.11 276.158 158.45 277.358 157.99C276.398 157.53 275.668 156.92 275.168 156.16C274.668 155.4 274.418 154.5 274.418 153.46C274.418 152.3 274.728 151.29 275.348 150.43C275.988 149.57 276.878 148.91 278.018 148.45C279.158 147.99 280.478 147.76 281.978 147.76C283.498 147.76 284.828 147.99 285.968 148.45C287.128 148.91 288.018 149.57 288.638 150.43C289.278 151.29 289.598 152.3 289.598 153.46C289.598 154.48 289.338 155.38 288.818 156.16C288.318 156.92 287.588 157.53 286.628 157.99ZM281.978 150.19C280.558 150.19 279.438 150.5 278.618 151.12C277.798 151.72 277.388 152.54 277.388 153.58C277.388 154.62 277.788 155.44 278.588 156.04C279.408 156.64 280.538 156.94 281.978 156.94C283.438 156.94 284.578 156.64 285.398 156.04C286.238 155.44 286.658 154.62 286.658 153.58C286.658 152.54 286.228 151.72 285.368 151.12C284.528 150.5 283.398 150.19 281.978 150.19ZM281.978 166.81C283.638 166.81 284.948 166.47 285.908 165.79C286.868 165.09 287.348 164.15 287.348 162.97C287.348 161.81 286.868 160.9 285.908 160.24C284.948 159.56 283.638 159.22 281.978 159.22C280.318 159.22 279.018 159.56 278.078 160.24C277.138 160.9 276.668 161.81 276.668 162.97C276.668 164.15 277.138 165.09 278.078 165.79C279.018 166.47 280.318 166.81 281.978 166.81ZM301.135 156.82C303.195 157.02 304.765 157.66 305.845 158.74C306.925 159.8 307.465 161.16 307.465 162.82C307.465 164.02 307.165 165.11 306.565 166.09C305.965 167.05 305.065 167.82 303.865 168.4C302.685 168.96 301.235 169.24 299.515 169.24C298.015 169.24 296.575 169.02 295.195 168.58C293.815 168.12 292.685 167.49 291.805 166.69L293.185 164.32C293.905 165 294.825 165.55 295.945 165.97C297.065 166.37 298.255 166.57 299.515 166.57C301.075 166.57 302.285 166.24 303.145 165.58C304.025 164.92 304.465 164.01 304.465 162.85C304.465 161.69 304.035 160.79 303.175 160.15C302.315 159.51 301.015 159.19 299.275 159.19H297.595V157.09L302.875 150.61H292.765V148H306.625V150.04L301.135 156.82Z" fill="#1062AA"/>
<path d="M421.581 148V169H418.611V150.61H413.871V148H421.581ZM432.174 156.37C435.174 156.37 437.374 156.94 438.774 158.08C440.194 159.2 440.904 160.74 440.904 162.7C440.904 163.94 440.604 165.06 440.004 166.06C439.424 167.04 438.534 167.82 437.334 168.4C436.154 168.96 434.694 169.24 432.954 169.24C431.474 169.24 430.044 169.02 428.664 168.58C427.284 168.12 426.144 167.49 425.244 166.69L426.624 164.32C427.344 165 428.264 165.55 429.384 165.97C430.504 166.37 431.684 166.57 432.924 166.57C434.504 166.57 435.724 166.24 436.584 165.58C437.464 164.9 437.904 163.98 437.904 162.82C437.904 161.56 437.424 160.61 436.464 159.97C435.504 159.31 433.864 158.98 431.544 158.98H426.774L427.884 148H439.734V150.61H430.404L429.834 156.37H432.174Z" fill="#1062AA"/>
<path d="M138.331 186.293C138.226 187.195 137.892 187.893 137.329 188.385C136.771 188.873 136.026 189.117 135.097 189.117C134.089 189.117 133.28 188.756 132.671 188.033C132.065 187.311 131.763 186.344 131.763 185.133V184.312C131.763 183.52 131.903 182.822 132.185 182.221C132.47 181.619 132.872 181.158 133.392 180.838C133.911 180.514 134.513 180.352 135.196 180.352C136.103 180.352 136.829 180.605 137.376 181.113C137.923 181.617 138.241 182.316 138.331 183.211H137.2C137.103 182.531 136.89 182.039 136.562 181.734C136.237 181.43 135.782 181.277 135.196 181.277C134.478 181.277 133.913 181.543 133.503 182.074C133.097 182.605 132.894 183.361 132.894 184.342V185.168C132.894 186.094 133.087 186.83 133.474 187.377C133.86 187.924 134.401 188.197 135.097 188.197C135.722 188.197 136.2 188.057 136.532 187.775C136.868 187.49 137.091 186.996 137.2 186.293H138.331ZM139.415 185.771C139.415 185.15 139.536 184.592 139.778 184.096C140.024 183.6 140.364 183.217 140.798 182.947C141.235 182.678 141.733 182.543 142.292 182.543C143.155 182.543 143.853 182.842 144.384 183.439C144.919 184.037 145.187 184.832 145.187 185.824V185.9C145.187 186.518 145.067 187.072 144.829 187.564C144.595 188.053 144.257 188.434 143.815 188.707C143.378 188.98 142.874 189.117 142.304 189.117C141.444 189.117 140.747 188.818 140.212 188.221C139.681 187.623 139.415 186.832 139.415 185.848V185.771ZM140.505 185.9C140.505 186.604 140.667 187.168 140.991 187.594C141.319 188.02 141.757 188.232 142.304 188.232C142.854 188.232 143.292 188.018 143.616 187.588C143.94 187.154 144.103 186.549 144.103 185.771C144.103 185.076 143.937 184.514 143.604 184.084C143.276 183.65 142.839 183.434 142.292 183.434C141.757 183.434 141.325 183.646 140.997 184.072C140.669 184.498 140.505 185.107 140.505 185.9ZM147.565 182.66L147.595 183.363C148.06 182.816 148.687 182.543 149.476 182.543C150.362 182.543 150.966 182.883 151.286 183.562C151.497 183.258 151.771 183.012 152.106 182.824C152.446 182.637 152.847 182.543 153.308 182.543C154.698 182.543 155.405 183.279 155.429 184.752V189H154.345V184.816C154.345 184.363 154.241 184.025 154.034 183.803C153.827 183.576 153.479 183.463 152.991 183.463C152.589 183.463 152.255 183.584 151.989 183.826C151.724 184.064 151.569 184.387 151.526 184.793V189H150.437V184.846C150.437 183.924 149.985 183.463 149.083 183.463C148.372 183.463 147.886 183.766 147.624 184.371V189H146.54V182.66H147.565ZM158.089 182.66L158.118 183.363C158.583 182.816 159.21 182.543 159.999 182.543C160.886 182.543 161.489 182.883 161.81 183.562C162.021 183.258 162.294 183.012 162.63 182.824C162.97 182.637 163.37 182.543 163.831 182.543C165.222 182.543 165.929 183.279 165.952 184.752V189H164.868V184.816C164.868 184.363 164.765 184.025 164.558 183.803C164.351 183.576 164.003 183.463 163.515 183.463C163.112 183.463 162.778 183.584 162.513 183.826C162.247 184.064 162.093 184.387 162.05 184.793V189H160.96V184.846C160.96 183.924 160.509 183.463 159.606 183.463C158.896 183.463 158.409 183.766 158.147 184.371V189H157.063V182.66H158.089ZM168.771 189H167.687V182.66H168.771V189ZM167.599 180.979C167.599 180.803 167.651 180.654 167.757 180.533C167.866 180.412 168.026 180.352 168.237 180.352C168.448 180.352 168.608 180.412 168.718 180.533C168.827 180.654 168.882 180.803 168.882 180.979C168.882 181.154 168.827 181.301 168.718 181.418C168.608 181.535 168.448 181.594 168.237 181.594C168.026 181.594 167.866 181.535 167.757 181.418C167.651 181.301 167.599 181.154 167.599 180.979ZM174.202 187.318C174.202 187.025 174.091 186.799 173.868 186.639C173.649 186.475 173.265 186.334 172.714 186.217C172.167 186.1 171.731 185.959 171.407 185.795C171.087 185.631 170.849 185.436 170.692 185.209C170.54 184.982 170.464 184.713 170.464 184.4C170.464 183.881 170.683 183.441 171.12 183.082C171.562 182.723 172.124 182.543 172.808 182.543C173.526 182.543 174.108 182.729 174.554 183.1C175.003 183.471 175.228 183.945 175.228 184.523H174.138C174.138 184.227 174.011 183.971 173.757 183.756C173.507 183.541 173.19 183.434 172.808 183.434C172.413 183.434 172.104 183.52 171.882 183.691C171.659 183.863 171.548 184.088 171.548 184.365C171.548 184.627 171.651 184.824 171.858 184.957C172.065 185.09 172.438 185.217 172.978 185.338C173.521 185.459 173.96 185.604 174.296 185.771C174.632 185.939 174.88 186.143 175.04 186.381C175.204 186.615 175.286 186.902 175.286 187.242C175.286 187.809 175.06 188.264 174.606 188.607C174.153 188.947 173.565 189.117 172.843 189.117C172.335 189.117 171.886 189.027 171.495 188.848C171.104 188.668 170.798 188.418 170.575 188.098C170.356 187.773 170.247 187.424 170.247 187.049H171.331C171.351 187.412 171.495 187.701 171.765 187.916C172.038 188.127 172.397 188.232 172.843 188.232C173.253 188.232 173.581 188.15 173.827 187.986C174.077 187.818 174.202 187.596 174.202 187.318ZM180.39 187.318C180.39 187.025 180.278 186.799 180.056 186.639C179.837 186.475 179.452 186.334 178.901 186.217C178.354 186.1 177.919 185.959 177.595 185.795C177.274 185.631 177.036 185.436 176.88 185.209C176.728 184.982 176.651 184.713 176.651 184.4C176.651 183.881 176.87 183.441 177.308 183.082C177.749 182.723 178.312 182.543 178.995 182.543C179.714 182.543 180.296 182.729 180.741 183.1C181.19 183.471 181.415 183.945 181.415 184.523H180.325C180.325 184.227 180.198 183.971 179.944 183.756C179.694 183.541 179.378 183.434 178.995 183.434C178.601 183.434 178.292 183.52 178.069 183.691C177.847 183.863 177.735 184.088 177.735 184.365C177.735 184.627 177.839 184.824 178.046 184.957C178.253 185.09 178.626 185.217 179.165 185.338C179.708 185.459 180.147 185.604 180.483 185.771C180.819 185.939 181.067 186.143 181.228 186.381C181.392 186.615 181.474 186.902 181.474 187.242C181.474 187.809 181.247 188.264 180.794 188.607C180.341 188.947 179.753 189.117 179.03 189.117C178.522 189.117 178.073 189.027 177.683 188.848C177.292 188.668 176.985 188.418 176.763 188.098C176.544 187.773 176.435 187.424 176.435 187.049H177.519C177.538 187.412 177.683 187.701 177.952 187.916C178.226 188.127 178.585 188.232 179.03 188.232C179.44 188.232 179.769 188.15 180.015 187.986C180.265 187.818 180.39 187.596 180.39 187.318ZM184.063 189H182.979V182.66H184.063V189ZM182.892 180.979C182.892 180.803 182.944 180.654 183.05 180.533C183.159 180.412 183.319 180.352 183.53 180.352C183.741 180.352 183.901 180.412 184.011 180.533C184.12 180.654 184.175 180.803 184.175 180.979C184.175 181.154 184.12 181.301 184.011 181.418C183.901 181.535 183.741 181.594 183.53 181.594C183.319 181.594 183.159 181.535 183.05 181.418C182.944 181.301 182.892 181.154 182.892 180.979ZM185.517 185.771C185.517 185.15 185.638 184.592 185.88 184.096C186.126 183.6 186.466 183.217 186.899 182.947C187.337 182.678 187.835 182.543 188.394 182.543C189.257 182.543 189.954 182.842 190.485 183.439C191.021 184.037 191.288 184.832 191.288 185.824V185.9C191.288 186.518 191.169 187.072 190.931 187.564C190.696 188.053 190.358 188.434 189.917 188.707C189.479 188.98 188.976 189.117 188.405 189.117C187.546 189.117 186.849 188.818 186.313 188.221C185.782 187.623 185.517 186.832 185.517 185.848V185.771ZM186.606 185.9C186.606 186.604 186.769 187.168 187.093 187.594C187.421 188.02 187.858 188.232 188.405 188.232C188.956 188.232 189.394 188.018 189.718 187.588C190.042 187.154 190.204 186.549 190.204 185.771C190.204 185.076 190.038 184.514 189.706 184.084C189.378 183.65 188.94 183.434 188.394 183.434C187.858 183.434 187.427 183.646 187.099 184.072C186.771 184.498 186.606 185.107 186.606 185.9ZM193.673 182.66L193.708 183.457C194.192 182.848 194.825 182.543 195.606 182.543C196.946 182.543 197.622 183.299 197.634 184.811V189H196.55V184.805C196.546 184.348 196.44 184.01 196.233 183.791C196.03 183.572 195.712 183.463 195.278 183.463C194.927 183.463 194.618 183.557 194.353 183.744C194.087 183.932 193.88 184.178 193.731 184.482V189H192.647V182.66H193.673Z" fill="#333333"/>
<path d="M274.469 188.08H278.512V189H273.338V180.469H274.469V188.08ZM279.338 185.771C279.338 185.15 279.459 184.592 279.702 184.096C279.948 183.6 280.288 183.217 280.721 182.947C281.159 182.678 281.657 182.543 282.215 182.543C283.079 182.543 283.776 182.842 284.307 183.439C284.842 184.037 285.11 184.832 285.11 185.824V185.9C285.11 186.518 284.991 187.072 284.752 187.564C284.518 188.053 284.18 188.434 283.739 188.707C283.301 188.98 282.797 189.117 282.227 189.117C281.368 189.117 280.67 188.818 280.135 188.221C279.604 187.623 279.338 186.832 279.338 185.848V185.771ZM280.428 185.9C280.428 186.604 280.59 187.168 280.915 187.594C281.243 188.02 281.68 188.232 282.227 188.232C282.778 188.232 283.215 188.018 283.54 187.588C283.864 187.154 284.026 186.549 284.026 185.771C284.026 185.076 283.86 184.514 283.528 184.084C283.2 183.65 282.762 183.434 282.215 183.434C281.68 183.434 281.249 183.646 280.92 184.072C280.592 184.498 280.428 185.107 280.428 185.9ZM289.534 183.633C289.37 183.605 289.192 183.592 289 183.592C288.29 183.592 287.807 183.895 287.553 184.5V189H286.469V182.66H287.524L287.542 183.393C287.897 182.826 288.401 182.543 289.053 182.543C289.264 182.543 289.424 182.57 289.534 182.625V183.633ZM293.049 189.117C292.19 189.117 291.491 188.836 290.952 188.273C290.413 187.707 290.143 186.951 290.143 186.006V185.807C290.143 185.178 290.262 184.617 290.5 184.125C290.743 183.629 291.079 183.242 291.508 182.965C291.942 182.684 292.411 182.543 292.915 182.543C293.739 182.543 294.379 182.814 294.836 183.357C295.293 183.9 295.522 184.678 295.522 185.689V186.141H291.227C291.243 186.766 291.424 187.271 291.772 187.658C292.124 188.041 292.569 188.232 293.108 188.232C293.491 188.232 293.815 188.154 294.081 187.998C294.346 187.842 294.579 187.635 294.778 187.377L295.44 187.893C294.909 188.709 294.112 189.117 293.049 189.117ZM292.915 183.434C292.477 183.434 292.11 183.594 291.813 183.914C291.516 184.23 291.333 184.676 291.262 185.25H294.438V185.168C294.407 184.617 294.258 184.191 293.993 183.891C293.727 183.586 293.368 183.434 292.915 183.434ZM297.801 182.66L297.831 183.363C298.295 182.816 298.922 182.543 299.711 182.543C300.598 182.543 301.202 182.883 301.522 183.562C301.733 183.258 302.006 183.012 302.342 182.824C302.682 182.637 303.083 182.543 303.543 182.543C304.934 182.543 305.641 183.279 305.665 184.752V189H304.581V184.816C304.581 184.363 304.477 184.025 304.27 183.803C304.063 183.576 303.715 183.463 303.227 183.463C302.825 183.463 302.491 183.584 302.225 183.826C301.959 184.064 301.805 184.387 301.762 184.793V189H300.672V184.846C300.672 183.924 300.221 183.463 299.319 183.463C298.608 183.463 298.122 183.766 297.86 184.371V189H296.776V182.66H297.801ZM311.459 189H310.375V182.66H311.459V189ZM310.288 180.979C310.288 180.803 310.34 180.654 310.446 180.533C310.555 180.412 310.715 180.352 310.926 180.352C311.137 180.352 311.297 180.412 311.407 180.533C311.516 180.654 311.571 180.803 311.571 180.979C311.571 181.154 311.516 181.301 311.407 181.418C311.297 181.535 311.137 181.594 310.926 181.594C310.715 181.594 310.555 181.535 310.446 181.418C310.34 181.301 310.288 181.154 310.288 180.979ZM318.555 185.9C318.555 186.865 318.334 187.643 317.893 188.232C317.452 188.822 316.854 189.117 316.1 189.117C315.331 189.117 314.725 188.873 314.284 188.385V191.438H313.2V182.66H314.19L314.243 183.363C314.684 182.816 315.297 182.543 316.083 182.543C316.844 182.543 317.446 182.83 317.887 183.404C318.333 183.979 318.555 184.777 318.555 185.801V185.9ZM317.471 185.777C317.471 185.062 317.319 184.498 317.014 184.084C316.709 183.67 316.292 183.463 315.76 183.463C315.104 183.463 314.612 183.754 314.284 184.336V187.365C314.608 187.943 315.104 188.232 315.772 188.232C316.292 188.232 316.704 188.027 317.008 187.617C317.317 187.203 317.471 186.59 317.471 185.777ZM323.629 187.318C323.629 187.025 323.518 186.799 323.295 186.639C323.077 186.475 322.692 186.334 322.141 186.217C321.594 186.1 321.159 185.959 320.834 185.795C320.514 185.631 320.276 185.436 320.12 185.209C319.967 184.982 319.891 184.713 319.891 184.4C319.891 183.881 320.11 183.441 320.547 183.082C320.989 182.723 321.551 182.543 322.235 182.543C322.954 182.543 323.536 182.729 323.981 183.1C324.43 183.471 324.655 183.945 324.655 184.523H323.565C323.565 184.227 323.438 183.971 323.184 183.756C322.934 183.541 322.618 183.434 322.235 183.434C321.84 183.434 321.532 183.52 321.309 183.691C321.086 183.863 320.975 184.088 320.975 184.365C320.975 184.627 321.079 184.824 321.286 184.957C321.493 185.09 321.866 185.217 322.405 185.338C322.948 185.459 323.387 185.604 323.723 185.771C324.059 185.939 324.307 186.143 324.467 186.381C324.631 186.615 324.713 186.902 324.713 187.242C324.713 187.809 324.487 188.264 324.034 188.607C323.581 188.947 322.993 189.117 322.27 189.117C321.762 189.117 321.313 189.027 320.922 188.848C320.532 188.668 320.225 188.418 320.002 188.098C319.784 187.773 319.674 187.424 319.674 187.049H320.758C320.778 187.412 320.922 187.701 321.192 187.916C321.465 188.127 321.825 188.232 322.27 188.232C322.68 188.232 323.008 188.15 323.254 187.986C323.504 187.818 323.629 187.596 323.629 187.318ZM330.04 188.373C329.618 188.869 328.999 189.117 328.182 189.117C327.506 189.117 326.991 188.922 326.635 188.531C326.284 188.137 326.106 187.555 326.102 186.785V182.66H327.186V186.756C327.186 187.717 327.577 188.197 328.358 188.197C329.186 188.197 329.737 187.889 330.01 187.271V182.66H331.094V189H330.063L330.04 188.373ZM333.766 182.66L333.795 183.363C334.26 182.816 334.887 182.543 335.676 182.543C336.563 182.543 337.167 182.883 337.487 183.562C337.698 183.258 337.971 183.012 338.307 182.824C338.647 182.637 339.047 182.543 339.508 182.543C340.899 182.543 341.606 183.279 341.629 184.752V189H340.545V184.816C340.545 184.363 340.442 184.025 340.235 183.803C340.028 183.576 339.68 183.463 339.192 183.463C338.79 183.463 338.456 183.584 338.19 183.826C337.924 184.064 337.77 184.387 337.727 184.793V189H336.637V184.846C336.637 183.924 336.186 183.463 335.284 183.463C334.573 183.463 334.086 183.766 333.825 184.371V189H332.741V182.66H333.766ZM272.905 201.777C272.905 200.805 273.135 200.023 273.596 199.434C274.057 198.84 274.661 198.543 275.407 198.543C276.149 198.543 276.737 198.797 277.17 199.305V196H278.254V205H277.258L277.206 204.32C276.772 204.852 276.168 205.117 275.395 205.117C274.661 205.117 274.061 204.816 273.596 204.215C273.135 203.613 272.905 202.828 272.905 201.859V201.777ZM273.989 201.9C273.989 202.619 274.137 203.182 274.434 203.588C274.731 203.994 275.141 204.197 275.665 204.197C276.352 204.197 276.854 203.889 277.17 203.271V200.359C276.846 199.762 276.348 199.463 275.676 199.463C275.145 199.463 274.731 199.668 274.434 200.078C274.137 200.488 273.989 201.096 273.989 201.9ZM279.655 201.771C279.655 201.15 279.776 200.592 280.018 200.096C280.264 199.6 280.604 199.217 281.038 198.947C281.475 198.678 281.973 198.543 282.532 198.543C283.395 198.543 284.092 198.842 284.624 199.439C285.159 200.037 285.426 200.832 285.426 201.824V201.9C285.426 202.518 285.307 203.072 285.069 203.564C284.834 204.053 284.497 204.434 284.055 204.707C283.618 204.98 283.114 205.117 282.543 205.117C281.684 205.117 280.987 204.818 280.452 204.221C279.92 203.623 279.655 202.832 279.655 201.848V201.771ZM280.745 201.9C280.745 202.604 280.907 203.168 281.231 203.594C281.559 204.02 281.997 204.232 282.543 204.232C283.094 204.232 283.532 204.018 283.856 203.588C284.18 203.154 284.342 202.549 284.342 201.771C284.342 201.076 284.176 200.514 283.844 200.084C283.516 199.65 283.079 199.434 282.532 199.434C281.997 199.434 281.565 199.646 281.237 200.072C280.909 200.498 280.745 201.107 280.745 201.9ZM287.963 205H286.879V196H287.963V205ZM289.417 201.771C289.417 201.15 289.538 200.592 289.78 200.096C290.026 199.6 290.366 199.217 290.799 198.947C291.237 198.678 291.735 198.543 292.293 198.543C293.157 198.543 293.854 198.842 294.385 199.439C294.92 200.037 295.188 200.832 295.188 201.824V201.9C295.188 202.518 295.069 203.072 294.831 203.564C294.596 204.053 294.258 204.434 293.817 204.707C293.379 204.98 292.875 205.117 292.305 205.117C291.446 205.117 290.749 204.818 290.213 204.221C289.682 203.623 289.417 202.832 289.417 201.848V201.771ZM290.506 201.9C290.506 202.604 290.668 203.168 290.993 203.594C291.321 204.02 291.758 204.232 292.305 204.232C292.856 204.232 293.293 204.018 293.618 203.588C293.942 203.154 294.104 202.549 294.104 201.771C294.104 201.076 293.938 200.514 293.606 200.084C293.278 199.65 292.84 199.434 292.293 199.434C291.758 199.434 291.327 199.646 290.999 200.072C290.67 200.498 290.506 201.107 290.506 201.9ZM299.612 199.633C299.448 199.605 299.27 199.592 299.079 199.592C298.368 199.592 297.885 199.895 297.631 200.5V205H296.547V198.66H297.602L297.62 199.393C297.975 198.826 298.479 198.543 299.131 198.543C299.342 198.543 299.502 198.57 299.612 198.625V199.633ZM307.282 203.318C307.282 203.025 307.17 202.799 306.948 202.639C306.729 202.475 306.344 202.334 305.793 202.217C305.247 202.1 304.811 201.959 304.487 201.795C304.167 201.631 303.928 201.436 303.772 201.209C303.62 200.982 303.543 200.713 303.543 200.4C303.543 199.881 303.762 199.441 304.2 199.082C304.641 198.723 305.204 198.543 305.887 198.543C306.606 198.543 307.188 198.729 307.633 199.1C308.083 199.471 308.307 199.945 308.307 200.523H307.217C307.217 200.227 307.09 199.971 306.836 199.756C306.586 199.541 306.27 199.434 305.887 199.434C305.493 199.434 305.184 199.52 304.961 199.691C304.739 199.863 304.627 200.088 304.627 200.365C304.627 200.627 304.731 200.824 304.938 200.957C305.145 201.09 305.518 201.217 306.057 201.338C306.6 201.459 307.04 201.604 307.375 201.771C307.711 201.939 307.959 202.143 308.12 202.381C308.284 202.615 308.366 202.902 308.366 203.242C308.366 203.809 308.139 204.264 307.686 204.607C307.233 204.947 306.645 205.117 305.922 205.117C305.415 205.117 304.965 205.027 304.575 204.848C304.184 204.668 303.877 204.418 303.655 204.098C303.436 203.773 303.327 203.424 303.327 203.049H304.411C304.43 203.412 304.575 203.701 304.844 203.916C305.118 204.127 305.477 204.232 305.922 204.232C306.333 204.232 306.661 204.15 306.907 203.986C307.157 203.818 307.282 203.596 307.282 203.318ZM310.956 205H309.872V198.66H310.956V205ZM309.784 196.979C309.784 196.803 309.836 196.654 309.942 196.533C310.051 196.412 310.211 196.352 310.422 196.352C310.633 196.352 310.793 196.412 310.903 196.533C311.012 196.654 311.067 196.803 311.067 196.979C311.067 197.154 311.012 197.301 310.903 197.418C310.793 197.535 310.633 197.594 310.422 197.594C310.211 197.594 310.051 197.535 309.942 197.418C309.836 197.301 309.784 197.154 309.784 196.979ZM314.167 197.125V198.66H315.35V199.498H314.167V203.43C314.167 203.684 314.219 203.875 314.325 204.004C314.43 204.129 314.61 204.191 314.864 204.191C314.989 204.191 315.161 204.168 315.379 204.121V205C315.094 205.078 314.817 205.117 314.547 205.117C314.063 205.117 313.698 204.971 313.452 204.678C313.206 204.385 313.083 203.969 313.083 203.43V199.498H311.928V198.66H313.083V197.125H314.167ZM323.512 205C323.45 204.875 323.399 204.652 323.36 204.332C322.856 204.855 322.254 205.117 321.555 205.117C320.93 205.117 320.417 204.941 320.014 204.59C319.616 204.234 319.417 203.785 319.417 203.242C319.417 202.582 319.667 202.07 320.167 201.707C320.67 201.34 321.377 201.156 322.288 201.156H323.342V200.658C323.342 200.279 323.229 199.979 323.002 199.756C322.776 199.529 322.442 199.416 322 199.416C321.614 199.416 321.29 199.514 321.028 199.709C320.766 199.904 320.635 200.141 320.635 200.418H319.545C319.545 200.102 319.657 199.797 319.879 199.504C320.106 199.207 320.411 198.973 320.793 198.801C321.18 198.629 321.604 198.543 322.065 198.543C322.795 198.543 323.368 198.727 323.782 199.094C324.196 199.457 324.411 199.959 324.426 200.6V203.518C324.426 204.1 324.5 204.562 324.649 204.906V205H323.512ZM321.713 204.174C322.053 204.174 322.375 204.086 322.68 203.91C322.985 203.734 323.206 203.506 323.342 203.225V201.924H322.493C321.165 201.924 320.5 202.312 320.5 203.09C320.5 203.43 320.614 203.695 320.84 203.887C321.067 204.078 321.358 204.174 321.713 204.174ZM327.145 198.66L327.174 199.363C327.639 198.816 328.266 198.543 329.055 198.543C329.942 198.543 330.545 198.883 330.866 199.562C331.077 199.258 331.35 199.012 331.686 198.824C332.026 198.637 332.426 198.543 332.887 198.543C334.278 198.543 334.985 199.279 335.008 200.752V205H333.924V200.816C333.924 200.363 333.821 200.025 333.614 199.803C333.407 199.576 333.059 199.463 332.571 199.463C332.168 199.463 331.834 199.584 331.569 199.826C331.303 200.064 331.149 200.387 331.106 200.793V205H330.016V200.846C330.016 199.924 329.565 199.463 328.663 199.463C327.952 199.463 327.465 199.766 327.204 200.371V205H326.12V198.66H327.145ZM339.28 205.117C338.42 205.117 337.721 204.836 337.182 204.273C336.643 203.707 336.374 202.951 336.374 202.006V201.807C336.374 201.178 336.493 200.617 336.731 200.125C336.973 199.629 337.309 199.242 337.739 198.965C338.172 198.684 338.641 198.543 339.145 198.543C339.969 198.543 340.61 198.814 341.067 199.357C341.524 199.9 341.752 200.678 341.752 201.689V202.141H337.458C337.473 202.766 337.655 203.271 338.002 203.658C338.354 204.041 338.799 204.232 339.338 204.232C339.721 204.232 340.045 204.154 340.311 203.998C340.577 203.842 340.809 203.635 341.008 203.377L341.67 203.893C341.139 204.709 340.342 205.117 339.28 205.117ZM339.145 199.434C338.708 199.434 338.34 199.594 338.043 199.914C337.747 200.23 337.563 200.676 337.493 201.25H340.668V201.168C340.637 200.617 340.489 200.191 340.223 199.891C339.958 199.586 339.598 199.434 339.145 199.434ZM344.483 197.125V198.66H345.667V199.498H344.483V203.43C344.483 203.684 344.536 203.875 344.641 204.004C344.747 204.129 344.926 204.191 345.18 204.191C345.305 204.191 345.477 204.168 345.696 204.121V205C345.411 205.078 345.133 205.117 344.864 205.117C344.379 205.117 344.014 204.971 343.768 204.678C343.522 204.385 343.399 203.969 343.399 203.43V199.498H342.245V198.66H343.399V197.125H344.483Z" fill="#333333"/>
<path d="M415.752 188.08H419.795V189H414.621V180.469H415.752V188.08ZM420.621 185.771C420.621 185.15 420.742 184.592 420.984 184.096C421.23 183.6 421.57 183.217 422.004 182.947C422.441 182.678 422.939 182.543 423.498 182.543C424.361 182.543 425.058 182.842 425.59 183.439C426.125 184.037 426.392 184.832 426.392 185.824V185.9C426.392 186.518 426.273 187.072 426.035 187.564C425.801 188.053 425.463 188.434 425.021 188.707C424.584 188.98 424.08 189.117 423.51 189.117C422.65 189.117 421.953 188.818 421.418 188.221C420.886 187.623 420.621 186.832 420.621 185.848V185.771ZM421.711 185.9C421.711 186.604 421.873 187.168 422.197 187.594C422.525 188.02 422.963 188.232 423.51 188.232C424.06 188.232 424.498 188.018 424.822 187.588C425.146 187.154 425.308 186.549 425.308 185.771C425.308 185.076 425.142 184.514 424.81 184.084C424.482 183.65 424.045 183.434 423.498 183.434C422.963 183.434 422.531 183.646 422.203 184.072C421.875 184.498 421.711 185.107 421.711 185.9ZM430.816 183.633C430.652 183.605 430.474 183.592 430.283 183.592C429.572 183.592 429.09 183.895 428.836 184.5V189H427.752V182.66H428.806L428.824 183.393C429.179 182.826 429.683 182.543 430.336 182.543C430.547 182.543 430.707 182.57 430.816 182.625V183.633ZM434.332 189.117C433.472 189.117 432.773 188.836 432.234 188.273C431.695 187.707 431.426 186.951 431.426 186.006V185.807C431.426 185.178 431.545 184.617 431.783 184.125C432.025 183.629 432.361 183.242 432.791 182.965C433.224 182.684 433.693 182.543 434.197 182.543C435.021 182.543 435.662 182.814 436.119 183.357C436.576 183.9 436.804 184.678 436.804 185.689V186.141H432.51C432.525 186.766 432.707 187.271 433.054 187.658C433.406 188.041 433.851 188.232 434.39 188.232C434.773 188.232 435.097 188.154 435.363 187.998C435.629 187.842 435.861 187.635 436.06 187.377L436.722 187.893C436.191 188.709 435.394 189.117 434.332 189.117ZM434.197 183.434C433.76 183.434 433.392 183.594 433.095 183.914C432.799 184.23 432.615 184.676 432.545 185.25H435.72V185.168C435.689 184.617 435.541 184.191 435.275 183.891C435.01 183.586 434.65 183.434 434.197 183.434ZM439.084 182.66L439.113 183.363C439.578 182.816 440.205 182.543 440.994 182.543C441.881 182.543 442.484 182.883 442.804 183.562C443.015 183.258 443.289 183.012 443.625 182.824C443.965 182.637 444.365 182.543 444.826 182.543C446.217 182.543 446.924 183.279 446.947 184.752V189H445.863V184.816C445.863 184.363 445.76 184.025 445.552 183.803C445.345 183.576 444.998 183.463 444.51 183.463C444.107 183.463 443.773 183.584 443.508 183.826C443.242 184.064 443.088 184.387 443.045 184.793V189H441.955V184.846C441.955 183.924 441.504 183.463 440.601 183.463C439.89 183.463 439.404 183.766 439.142 184.371V189H438.058V182.66H439.084ZM452.742 189H451.658V182.66H452.742V189ZM451.57 180.979C451.57 180.803 451.623 180.654 451.728 180.533C451.838 180.412 451.998 180.352 452.209 180.352C452.42 180.352 452.58 180.412 452.689 180.533C452.799 180.654 452.853 180.803 452.853 180.979C452.853 181.154 452.799 181.301 452.689 181.418C452.58 181.535 452.42 181.594 452.209 181.594C451.998 181.594 451.838 181.535 451.728 181.418C451.623 181.301 451.57 181.154 451.57 180.979ZM459.838 185.9C459.838 186.865 459.617 187.643 459.176 188.232C458.734 188.822 458.136 189.117 457.383 189.117C456.613 189.117 456.008 188.873 455.566 188.385V191.438H454.482V182.66H455.472L455.525 183.363C455.967 182.816 456.58 182.543 457.365 182.543C458.127 182.543 458.728 182.83 459.17 183.404C459.615 183.979 459.838 184.777 459.838 185.801V185.9ZM458.754 185.777C458.754 185.062 458.601 184.498 458.297 184.084C457.992 183.67 457.574 183.463 457.043 183.463C456.386 183.463 455.894 183.754 455.566 184.336V187.365C455.89 187.943 456.386 188.232 457.054 188.232C457.574 188.232 457.986 188.027 458.291 187.617C458.599 187.203 458.754 186.59 458.754 185.777ZM464.912 187.318C464.912 187.025 464.801 186.799 464.578 186.639C464.359 186.475 463.974 186.334 463.424 186.217C462.877 186.1 462.441 185.959 462.117 185.795C461.797 185.631 461.558 185.436 461.402 185.209C461.25 184.982 461.174 184.713 461.174 184.4C461.174 183.881 461.392 183.441 461.83 183.082C462.271 182.723 462.834 182.543 463.517 182.543C464.236 182.543 464.818 182.729 465.263 183.1C465.713 183.471 465.937 183.945 465.937 184.523H464.847C464.847 184.227 464.72 183.971 464.467 183.756C464.217 183.541 463.9 183.434 463.517 183.434C463.123 183.434 462.814 183.52 462.592 183.691C462.369 183.863 462.258 184.088 462.258 184.365C462.258 184.627 462.361 184.824 462.568 184.957C462.775 185.09 463.148 185.217 463.687 185.338C464.23 185.459 464.67 185.604 465.006 185.771C465.342 185.939 465.59 186.143 465.75 186.381C465.914 186.615 465.996 186.902 465.996 187.242C465.996 187.809 465.769 188.264 465.316 188.607C464.863 188.947 464.275 189.117 463.552 189.117C463.045 189.117 462.595 189.027 462.205 188.848C461.814 188.668 461.508 188.418 461.285 188.098C461.066 187.773 460.957 187.424 460.957 187.049H462.041C462.06 187.412 462.205 187.701 462.474 187.916C462.748 188.127 463.107 188.232 463.552 188.232C463.963 188.232 464.291 188.15 464.537 187.986C464.787 187.818 464.912 187.596 464.912 187.318ZM471.322 188.373C470.9 188.869 470.281 189.117 469.465 189.117C468.789 189.117 468.273 188.922 467.918 188.531C467.566 188.137 467.388 187.555 467.385 186.785V182.66H468.469V186.756C468.469 187.717 468.859 188.197 469.64 188.197C470.469 188.197 471.019 187.889 471.293 187.271V182.66H472.377V189H471.345L471.322 188.373ZM475.049 182.66L475.078 183.363C475.543 182.816 476.17 182.543 476.959 182.543C477.845 182.543 478.449 182.883 478.769 183.562C478.98 183.258 479.254 183.012 479.59 182.824C479.929 182.637 480.33 182.543 480.791 182.543C482.181 182.543 482.888 183.279 482.912 184.752V189H481.828V184.816C481.828 184.363 481.724 184.025 481.517 183.803C481.31 183.576 480.963 183.463 480.474 183.463C480.072 183.463 479.738 183.584 479.472 183.826C479.207 184.064 479.052 184.387 479.01 184.793V189H477.92V184.846C477.92 183.924 477.469 183.463 476.566 183.463C475.855 183.463 475.369 183.766 475.107 184.371V189H474.023V182.66H475.049ZM414.187 201.777C414.187 200.805 414.418 200.023 414.879 199.434C415.34 198.84 415.943 198.543 416.689 198.543C417.431 198.543 418.019 198.797 418.453 199.305V196H419.537V205H418.541L418.488 204.32C418.054 204.852 417.451 205.117 416.677 205.117C415.943 205.117 415.344 204.816 414.879 204.215C414.418 203.613 414.187 202.828 414.187 201.859V201.777ZM415.271 201.9C415.271 202.619 415.42 203.182 415.717 203.588C416.013 203.994 416.424 204.197 416.947 204.197C417.635 204.197 418.136 203.889 418.453 203.271V200.359C418.129 199.762 417.631 199.463 416.959 199.463C416.427 199.463 416.013 199.668 415.717 200.078C415.42 200.488 415.271 201.096 415.271 201.9ZM420.937 201.771C420.937 201.15 421.058 200.592 421.301 200.096C421.547 199.6 421.886 199.217 422.32 198.947C422.758 198.678 423.256 198.543 423.814 198.543C424.677 198.543 425.375 198.842 425.906 199.439C426.441 200.037 426.709 200.832 426.709 201.824V201.9C426.709 202.518 426.59 203.072 426.351 203.564C426.117 204.053 425.779 204.434 425.338 204.707C424.9 204.98 424.396 205.117 423.826 205.117C422.967 205.117 422.269 204.818 421.734 204.221C421.203 203.623 420.937 202.832 420.937 201.848V201.771ZM422.027 201.9C422.027 202.604 422.189 203.168 422.513 203.594C422.842 204.02 423.279 204.232 423.826 204.232C424.377 204.232 424.814 204.018 425.138 203.588C425.463 203.154 425.625 202.549 425.625 201.771C425.625 201.076 425.459 200.514 425.127 200.084C424.799 199.65 424.361 199.434 423.814 199.434C423.279 199.434 422.847 199.646 422.519 200.072C422.191 200.498 422.027 201.107 422.027 201.9ZM429.246 205H428.162V196H429.246V205ZM430.699 201.771C430.699 201.15 430.82 200.592 431.062 200.096C431.308 199.6 431.648 199.217 432.082 198.947C432.519 198.678 433.017 198.543 433.576 198.543C434.439 198.543 435.136 198.842 435.668 199.439C436.203 200.037 436.47 200.832 436.47 201.824V201.9C436.47 202.518 436.351 203.072 436.113 203.564C435.879 204.053 435.541 204.434 435.099 204.707C434.662 204.98 434.158 205.117 433.588 205.117C432.728 205.117 432.031 204.818 431.496 204.221C430.965 203.623 430.699 202.832 430.699 201.848V201.771ZM431.789 201.9C431.789 202.604 431.951 203.168 432.275 203.594C432.603 204.02 433.041 204.232 433.588 204.232C434.138 204.232 434.576 204.018 434.9 203.588C435.224 203.154 435.386 202.549 435.386 201.771C435.386 201.076 435.22 200.514 434.888 200.084C434.56 199.65 434.123 199.434 433.576 199.434C433.041 199.434 432.609 199.646 432.281 200.072C431.953 200.498 431.789 201.107 431.789 201.9ZM440.894 199.633C440.73 199.605 440.552 199.592 440.361 199.592C439.65 199.592 439.168 199.895 438.914 200.5V205H437.83V198.66H438.885L438.902 199.393C439.258 198.826 439.761 198.543 440.414 198.543C440.625 198.543 440.785 198.57 440.894 198.625V199.633ZM448.564 203.318C448.564 203.025 448.453 202.799 448.23 202.639C448.011 202.475 447.627 202.334 447.076 202.217C446.529 202.1 446.094 201.959 445.769 201.795C445.449 201.631 445.211 201.436 445.054 201.209C444.902 200.982 444.826 200.713 444.826 200.4C444.826 199.881 445.045 199.441 445.482 199.082C445.924 198.723 446.486 198.543 447.17 198.543C447.888 198.543 448.47 198.729 448.916 199.1C449.365 199.471 449.59 199.945 449.59 200.523H448.5C448.5 200.227 448.373 199.971 448.119 199.756C447.869 199.541 447.552 199.434 447.17 199.434C446.775 199.434 446.467 199.52 446.244 199.691C446.021 199.863 445.91 200.088 445.91 200.365C445.91 200.627 446.013 200.824 446.22 200.957C446.427 201.09 446.801 201.217 447.34 201.338C447.883 201.459 448.322 201.604 448.658 201.771C448.994 201.939 449.242 202.143 449.402 202.381C449.566 202.615 449.648 202.902 449.648 203.242C449.648 203.809 449.422 204.264 448.969 204.607C448.515 204.947 447.927 205.117 447.205 205.117C446.697 205.117 446.248 205.027 445.857 204.848C445.467 204.668 445.16 204.418 444.937 204.098C444.719 203.773 444.609 203.424 444.609 203.049H445.693C445.713 203.412 445.857 203.701 446.127 203.916C446.4 204.127 446.76 204.232 447.205 204.232C447.615 204.232 447.943 204.15 448.189 203.986C448.439 203.818 448.564 203.596 448.564 203.318ZM452.238 205H451.154V198.66H452.238V205ZM451.066 196.979C451.066 196.803 451.119 196.654 451.224 196.533C451.334 196.412 451.494 196.352 451.705 196.352C451.916 196.352 452.076 196.412 452.185 196.533C452.295 196.654 452.349 196.803 452.349 196.979C452.349 197.154 452.295 197.301 452.185 197.418C452.076 197.535 451.916 197.594 451.705 197.594C451.494 197.594 451.334 197.535 451.224 197.418C451.119 197.301 451.066 197.154 451.066 196.979ZM455.449 197.125V198.66H456.633V199.498H455.449V203.43C455.449 203.684 455.502 203.875 455.607 204.004C455.713 204.129 455.892 204.191 456.146 204.191C456.271 204.191 456.443 204.168 456.662 204.121V205C456.377 205.078 456.099 205.117 455.83 205.117C455.345 205.117 454.98 204.971 454.734 204.678C454.488 204.385 454.365 203.969 454.365 203.43V199.498H453.211V198.66H454.365V197.125H455.449ZM464.795 205C464.732 204.875 464.681 204.652 464.642 204.332C464.138 204.855 463.537 205.117 462.838 205.117C462.213 205.117 461.699 204.941 461.297 204.59C460.898 204.234 460.699 203.785 460.699 203.242C460.699 202.582 460.949 202.07 461.449 201.707C461.953 201.34 462.66 201.156 463.57 201.156H464.625V200.658C464.625 200.279 464.511 199.979 464.285 199.756C464.058 199.529 463.724 199.416 463.283 199.416C462.896 199.416 462.572 199.514 462.31 199.709C462.049 199.904 461.918 200.141 461.918 200.418H460.828C460.828 200.102 460.939 199.797 461.162 199.504C461.388 199.207 461.693 198.973 462.076 198.801C462.463 198.629 462.886 198.543 463.347 198.543C464.078 198.543 464.65 198.727 465.064 199.094C465.478 199.457 465.693 199.959 465.709 200.6V203.518C465.709 204.1 465.783 204.562 465.931 204.906V205H464.795ZM462.996 204.174C463.336 204.174 463.658 204.086 463.963 203.91C464.267 203.734 464.488 203.506 464.625 203.225V201.924H463.775C462.447 201.924 461.783 202.312 461.783 203.09C461.783 203.43 461.896 203.695 462.123 203.887C462.349 204.078 462.64 204.174 462.996 204.174ZM468.427 198.66L468.457 199.363C468.922 198.816 469.549 198.543 470.338 198.543C471.224 198.543 471.828 198.883 472.148 199.562C472.359 199.258 472.633 199.012 472.969 198.824C473.308 198.637 473.709 198.543 474.17 198.543C475.56 198.543 476.267 199.279 476.291 200.752V205H475.207V200.816C475.207 200.363 475.103 200.025 474.896 199.803C474.689 199.576 474.342 199.463 473.853 199.463C473.451 199.463 473.117 199.584 472.851 199.826C472.586 200.064 472.431 200.387 472.388 200.793V205H471.299V200.846C471.299 199.924 470.847 199.463 469.945 199.463C469.234 199.463 468.748 199.766 468.486 200.371V205H467.402V198.66H468.427ZM480.562 205.117C479.703 205.117 479.004 204.836 478.465 204.273C477.926 203.707 477.656 202.951 477.656 202.006V201.807C477.656 201.178 477.775 200.617 478.013 200.125C478.256 199.629 478.592 199.242 479.021 198.965C479.455 198.684 479.924 198.543 480.427 198.543C481.252 198.543 481.892 198.814 482.349 199.357C482.806 199.9 483.035 200.678 483.035 201.689V202.141H478.74C478.756 202.766 478.937 203.271 479.285 203.658C479.636 204.041 480.082 204.232 480.621 204.232C481.004 204.232 481.328 204.154 481.594 203.998C481.859 203.842 482.092 203.635 482.291 203.377L482.953 203.893C482.422 204.709 481.625 205.117 480.562 205.117ZM480.427 199.434C479.99 199.434 479.623 199.594 479.326 199.914C479.029 200.23 478.845 200.676 478.775 201.25H481.951V201.168C481.92 200.617 481.771 200.191 481.506 199.891C481.24 199.586 480.881 199.434 480.427 199.434ZM485.765 197.125V198.66H486.949V199.498H485.765V203.43C485.765 203.684 485.818 203.875 485.924 204.004C486.029 204.129 486.209 204.191 486.463 204.191C486.588 204.191 486.76 204.168 486.978 204.121V205C486.693 205.078 486.416 205.117 486.146 205.117C485.662 205.117 485.297 204.971 485.051 204.678C484.804 204.385 484.681 203.969 484.681 203.43V199.498H483.527V198.66H484.681V197.125H485.765Z" fill="#333333"/>
<path d="M238.28 204V144" stroke="#00ADEE"/>
<path d="M377.559 204V144" stroke="#00ADEE"/>
<path d="M173.992 83.1498C173.992 89.7772 168.619 95.1498 161.992 95.1498H149.893C143.265 95.1498 137.893 89.7772 137.893 83.1498V65.0672L139.389 66.2476C141.506 67.9186 144.125 68.8275 146.822 68.8275H161.992C168.619 68.8275 173.992 74.2001 173.992 80.8275V83.1498Z" fill="#6FC6AD"/>
<rect x="142.765" y="77.4205" width="26.2397" height="1.20297" rx="0.601486" fill="white"/>
<rect x="142.765" y="81.3951" width="26.2397" height="1.20297" rx="0.601486" fill="white"/>
<rect x="142.765" y="85.3696" width="10.5415" height="1.20297" rx="0.601486" fill="white"/>
<path d="M124.829 44.3561C124.829 37.7287 119.456 32.3561 112.829 32.3561H63.2835C56.6561 32.3561 51.2835 37.7287 51.2835 44.3561V93.6439L57.7222 88.5628C59.8398 86.8917 62.4586 85.9829 65.1561 85.9829H112.829C119.456 85.9829 124.829 80.6103 124.829 73.9829V44.3561Z" fill="#6FC6AD"/>
<rect width="36.9872" height="2.45083" rx="1.22542" transform="matrix(-1 0 0 1 114.904 49.8142)" fill="white"/>
<rect width="54.1054" height="2.45083" rx="1.22542" transform="matrix(-1 0 0 1 114.904 57.9116)" fill="white"/>
<rect width="54.1054" height="2.45083" rx="1.22542" transform="matrix(-1 0 0 1 114.904 66.0088)" fill="white"/>
<path d="M209.054 80.1084C209.054 80.1084 232.808 53.3286 253.56 47.7402C284.745 39.3424 300.162 72.5221 332.458 72.5221C360.086 72.5221 366.235 49.3325 388.042 38.2099C407.549 28.2606 438.16 30.9207 438.16 30.9207" stroke="#00ADEE" stroke-width="2" stroke-linecap="round" stroke-linejoin="round"/>
<path d="M207.851 67.7258L249.386 73.7309L308.937 43.7052L384.002 55.7155L439.049 46.2074" stroke="#1062AA" stroke-width="2"/>
<path d="M197.369 94.0459L442.689 94.0459" stroke="#EBF0FF"/>
<path d="M207.851 91.1348L207.851 96.9571" stroke="#EBF0FF"/>
<path d="M331.563 91.1348L331.563 96.9571" stroke="#EBF0FF"/>
<path d="M221.742 91.1348L221.742 96.9571" stroke="#EBF0FF"/>
<path d="M345.454 91.1348L345.454 96.9571" stroke="#EBF0FF"/>
<path d="M235.632 91.1348L235.632 96.9571" stroke="#EBF0FF"/>
<path d="M359.344 91.1348L359.344 96.9571" stroke="#EBF0FF"/>
<path d="M249.523 91.1348L249.523 96.9571" stroke="#EBF0FF"/>
<path d="M373.235 91.1348L373.235 96.9571" stroke="#EBF0FF"/>
<path d="M263.414 91.1348L263.414 96.9571" stroke="#EBF0FF"/>
<path d="M387.125 91.1348L387.125 96.9571" stroke="#EBF0FF"/>
<path d="M277.305 91.1348L277.305 96.9571" stroke="#EBF0FF"/>
<path d="M401.017 91.1348L401.017 96.9571" stroke="#EBF0FF"/>
<path d="M291.195 91.1348L291.195 96.9571" stroke="#EBF0FF"/>
<path d="M414.907 91.1348L414.907 96.9571" stroke="#EBF0FF"/>
<path d="M305.086 91.1348L305.086 96.9571" stroke="#EBF0FF"/>
<path d="M428.798 91.1348L428.798 96.9571" stroke="#EBF0FF"/>
<path d="M318.977 91.1348L318.977 96.9571" stroke="#EBF0FF"/>
<path d="M442.688 91.1348L442.688 96.9571" stroke="#EBF0FF"/>
<circle cx="177.135" cy="46.6711" r="3.14314" transform="rotate(90 177.135 46.6711)" fill="#EBF0FF"/>
<circle cx="187.193" cy="40.3848" r="3.14314" transform="rotate(90 187.193 40.3848)" fill="#EBF0FF"/>
<circle cx="197.042" cy="46.6711" r="3.14314" transform="rotate(90 197.042 46.6711)" fill="#EBF0FF"/>
<rect x="475.853" y="44" width="48" height="38" rx="9" stroke="#00ADEE" stroke-width="2"/>
<path d="M475.903 51.8966L497.409 62.8523C499.15 63.7391 501.213 63.7229 502.94 62.8088L523.552 51.8966" stroke="#00ADEE" stroke-width="2"/>
<circle cx="499.853" cy="43.8086" r="7.80864" fill="white" stroke="#00ADEE" stroke-width="2"/>
<path d="M500.554 43.0753C501.167 43.1753 501.637 43.4053 501.964 43.7653C502.291 44.1187 502.454 44.5587 502.454 45.0853C502.454 45.492 502.347 45.8687 502.134 46.2153C501.921 46.5553 501.594 46.8287 501.154 47.0353C500.721 47.242 500.187 47.3453 499.554 47.3453C499.061 47.3453 498.574 47.282 498.094 47.1553C497.621 47.022 497.217 46.8353 496.884 46.5953L497.514 45.3553C497.781 45.5553 498.087 45.712 498.434 45.8253C498.787 45.932 499.147 45.9853 499.514 45.9853C499.921 45.9853 500.241 45.9087 500.474 45.7553C500.707 45.5953 500.824 45.372 500.824 45.0853C500.824 44.512 500.387 44.2253 499.514 44.2253H498.774V43.1553L500.214 41.5253H497.234V40.2253H502.134V41.2753L500.554 43.0753Z" fill="#1062AA"/>
<defs>
<filter id="filter0_d" x="0.853027" y="0" width="475.872" height="134" filterUnits="userSpaceOnUse" color-interpolation-filters="sRGB">
<feFlood flood-opacity="0" result="BackgroundImageFix"/>
<feColorMatrix in="SourceAlpha" type="matrix" values="0 0 0 0 0 0 0 0 0 0 0 0 0 0 0 0 0 0 127 0" result="hardAlpha"/>
<feOffset dx="-4" dy="4"/>
<feGaussianBlur stdDeviation="10"/>
<feColorMatrix type="matrix" values="0 0 0 0 0.0627451 0 0 0 0 0.384314 0 0 0 0 0.666667 0 0 0 0.2 0"/>
<feBlend mode="normal" in2="BackgroundImageFix" result="effect1_dropShadow"/>
<feBlend mode="normal" in="SourceGraphic" in2="effect1_dropShadow" result="shape"/>
</filter>
<filter id="filter1_d" x="68.9893" y="111" width="471.864" height="134" filterUnits="userSpaceOnUse" color-interpolation-filters="sRGB">
<feFlood flood-opacity="0" result="BackgroundImageFix"/>
<feColorMatrix in="SourceAlpha" type="matrix" values="0 0 0 0 0 0 0 0 0 0 0 0 0 0 0 0 0 0 127 0" result="hardAlpha"/>
<feOffset dx="-4" dy="4"/>
<feGaussianBlur stdDeviation="10"/>
<feColorMatrix type="matrix" values="0 0 0 0 0.0627451 0 0 0 0 0.384314 0 0 0 0 0.666667 0 0 0 0.2 0"/>
<feBlend mode="normal" in2="BackgroundImageFix" result="effect1_dropShadow"/>
<feBlend mode="normal" in="SourceGraphic" in2="effect1_dropShadow" result="shape"/>
</filter>
</defs>
</svg>
