<svg width="540" height="245" viewBox="0 0 540 245" fill="none" xmlns="http://www.w3.org/2000/svg">
<g filter="url(#filter0_d)">
<rect x="24" y="16" width="435.872" height="94" rx="12" fill="white"/>
</g>
<line x1="193.871" y1="90.3662" x2="193.871" y2="57.1859" stroke="#1062AA" stroke-width="5" stroke-linecap="round" stroke-linejoin="round"/>
<line x1="213.254" y1="90.3662" x2="213.254" y2="66.731" stroke="#81859C" stroke-width="5" stroke-linecap="round" stroke-linejoin="round"/>
<line x1="174.487" y1="90.3662" x2="174.487" y2="69.9127" stroke="#EBF0FF" stroke-width="5" stroke-linecap="round" stroke-linejoin="round"/>
<line x1="155.104" y1="90.3662" x2="155.104" y2="76.2761" stroke="#00ADEE" stroke-width="5" stroke-linecap="round" stroke-linejoin="round"/>
<line x1="232.638" y1="90.3662" x2="232.638" y2="61.9584" stroke="#00ADEE" stroke-width="5" stroke-linecap="round" stroke-linejoin="round"/>
<line x1="289.955" y1="90.3662" x2="289.955" y2="57.1859" stroke="#81859C" stroke-width="5" stroke-linecap="round" stroke-linejoin="round"/>
<line x1="309.339" y1="90.3662" x2="309.339" y2="66.731" stroke="#00ADEE" stroke-width="5" stroke-linecap="round" stroke-linejoin="round"/>
<line x1="270.572" y1="90.3662" x2="270.572" y2="63.5337" stroke="#1062AA" stroke-width="5" stroke-linecap="round" stroke-linejoin="round"/>
<line x1="251.188" y1="90.3662" x2="251.188" y2="65.5" stroke="#EBF0FF" stroke-width="5" stroke-linecap="round" stroke-linejoin="round"/>
<line x1="328.722" y1="90.3662" x2="328.722" y2="61.9584" stroke="#EBF0FF" stroke-width="5" stroke-linecap="round" stroke-linejoin="round"/>
<line x1="386.04" y1="90.3662" x2="386.04" y2="57.1859" stroke="#00ADEE" stroke-width="5" stroke-linecap="round" stroke-linejoin="round"/>
<line x1="405.423" y1="90.3662" x2="405.423" y2="57.186" stroke="#EBF0FF" stroke-width="5" stroke-linecap="round" stroke-linejoin="round"/>
<line x1="366.656" y1="90.3662" x2="366.656" y2="69.9127" stroke="#81859C" stroke-width="5" stroke-linecap="round" stroke-linejoin="round"/>
<line x1="347.273" y1="90.3662" x2="347.273" y2="76.2761" stroke="#1062AA" stroke-width="5" stroke-linecap="round" stroke-linejoin="round"/>
<line x1="424.807" y1="90.3662" x2="424.807" y2="61.9584" stroke="#1062AA" stroke-width="5" stroke-linecap="round" stroke-linejoin="round"/>
<path d="M48.2742 92.6597L69.9838 73.0375L90.8585 80.1349L105.471 58.8428" stroke="#00ADEE" stroke-width="3"/>
<path d="M46.6042 83.4749L60.799 71.7851L80.4212 83.4749L91.6935 58.8428" stroke="#1062AA" stroke-width="3"/>
<g filter="url(#filter1_d)">
<rect x="92.1363" y="127" width="431.864" height="94" rx="12" fill="#EBF0FF"/>
</g>
<path d="M149.922 163.84H145.932V169H143.022V163.84H131.352V161.74L142.092 148H145.332L135.042 161.26H143.112V156.7H145.932V161.26H149.922V163.84ZM165.615 148V150.04L157.125 169H153.945L162.255 150.61H152.655V154.36H149.775V148H165.615Z" fill="#1062AA"/>
<path d="M285.775 157.99C286.975 158.45 287.895 159.11 288.535 159.97C289.175 160.83 289.495 161.86 289.495 163.06C289.495 164.32 289.155 165.42 288.475 166.36C287.795 167.28 286.825 167.99 285.565 168.49C284.305 168.99 282.825 169.24 281.125 169.24C279.445 169.24 277.975 168.99 276.715 168.49C275.475 167.99 274.515 167.28 273.835 166.36C273.155 165.42 272.815 164.32 272.815 163.06C272.815 161.86 273.125 160.83 273.745 159.97C274.385 159.11 275.305 158.45 276.505 157.99C275.545 157.53 274.815 156.92 274.315 156.16C273.815 155.4 273.565 154.5 273.565 153.46C273.565 152.3 273.875 151.29 274.495 150.43C275.135 149.57 276.025 148.91 277.165 148.45C278.305 147.99 279.625 147.76 281.125 147.76C282.645 147.76 283.975 147.99 285.115 148.45C286.275 148.91 287.165 149.57 287.785 150.43C288.425 151.29 288.745 152.3 288.745 153.46C288.745 154.48 288.485 155.38 287.965 156.16C287.465 156.92 286.735 157.53 285.775 157.99ZM281.125 150.19C279.705 150.19 278.585 150.5 277.765 151.12C276.945 151.72 276.535 152.54 276.535 153.58C276.535 154.62 276.935 155.44 277.735 156.04C278.555 156.64 279.685 156.94 281.125 156.94C282.585 156.94 283.725 156.64 284.545 156.04C285.385 155.44 285.805 154.62 285.805 153.58C285.805 152.54 285.375 151.72 284.515 151.12C283.675 150.5 282.545 150.19 281.125 150.19ZM281.125 166.81C282.785 166.81 284.095 166.47 285.055 165.79C286.015 165.09 286.495 164.15 286.495 162.97C286.495 161.81 286.015 160.9 285.055 160.24C284.095 159.56 282.785 159.22 281.125 159.22C279.465 159.22 278.165 159.56 277.225 160.24C276.285 160.9 275.815 161.81 275.815 162.97C275.815 164.15 276.285 165.09 277.225 165.79C278.165 166.47 279.465 166.81 281.125 166.81ZM300.282 156.82C302.342 157.02 303.912 157.66 304.992 158.74C306.072 159.8 306.612 161.16 306.612 162.82C306.612 164.02 306.312 165.11 305.712 166.09C305.112 167.05 304.212 167.82 303.012 168.4C301.832 168.96 300.382 169.24 298.662 169.24C297.162 169.24 295.722 169.02 294.342 168.58C292.962 168.12 291.832 167.49 290.952 166.69L292.332 164.32C293.052 165 293.972 165.55 295.092 165.97C296.212 166.37 297.402 166.57 298.662 166.57C300.222 166.57 301.432 166.24 302.292 165.58C303.172 164.92 303.612 164.01 303.612 162.85C303.612 161.69 303.182 160.79 302.322 160.15C301.462 159.51 300.162 159.19 298.422 159.19H296.742V157.09L302.022 150.61H291.912V148H305.772V150.04L300.282 156.82Z" fill="#1062AA"/>
<path d="M420.728 148V169H417.758V150.61H413.018V148H420.728ZM431.321 156.37C434.321 156.37 436.521 156.94 437.921 158.08C439.341 159.2 440.051 160.74 440.051 162.7C440.051 163.94 439.751 165.06 439.151 166.06C438.571 167.04 437.681 167.82 436.481 168.4C435.301 168.96 433.841 169.24 432.101 169.24C430.621 169.24 429.191 169.02 427.811 168.58C426.431 168.12 425.291 167.49 424.391 166.69L425.771 164.32C426.491 165 427.411 165.55 428.531 165.97C429.651 166.37 430.831 166.57 432.071 166.57C433.651 166.57 434.871 166.24 435.731 165.58C436.611 164.9 437.051 163.98 437.051 162.82C437.051 161.56 436.571 160.61 435.611 159.97C434.651 159.31 433.011 158.98 430.691 158.98H425.921L427.031 148H438.881V150.61H429.551L428.981 156.37H431.321Z" fill="#1062AA"/>
<path d="M132.333 188.08H136.376V189H131.203V180.469H132.333V188.08ZM137.203 185.771C137.203 185.15 137.324 184.592 137.566 184.096C137.812 183.6 138.152 183.217 138.585 182.947C139.023 182.678 139.521 182.543 140.08 182.543C140.943 182.543 141.64 182.842 142.171 183.439C142.707 184.037 142.974 184.832 142.974 185.824V185.9C142.974 186.518 142.855 187.072 142.617 187.564C142.382 188.053 142.044 188.434 141.603 188.707C141.166 188.98 140.662 189.117 140.091 189.117C139.232 189.117 138.535 188.818 138 188.221C137.468 187.623 137.203 186.832 137.203 185.848V185.771ZM138.292 185.9C138.292 186.604 138.455 187.168 138.779 187.594C139.107 188.02 139.544 188.232 140.091 188.232C140.642 188.232 141.08 188.018 141.404 187.588C141.728 187.154 141.89 186.549 141.89 185.771C141.89 185.076 141.724 184.514 141.392 184.084C141.064 183.65 140.626 183.434 140.08 183.434C139.544 183.434 139.113 183.646 138.785 184.072C138.457 184.498 138.292 185.107 138.292 185.9ZM147.398 183.633C147.234 183.605 147.056 183.592 146.865 183.592C146.154 183.592 145.671 183.895 145.417 184.5V189H144.333V182.66H145.388L145.406 183.393C145.761 182.826 146.265 182.543 146.917 182.543C147.128 182.543 147.289 182.57 147.398 182.625V183.633ZM150.914 189.117C150.054 189.117 149.355 188.836 148.816 188.273C148.277 187.707 148.007 186.951 148.007 186.006V185.807C148.007 185.178 148.126 184.617 148.365 184.125C148.607 183.629 148.943 183.242 149.373 182.965C149.806 182.684 150.275 182.543 150.779 182.543C151.603 182.543 152.244 182.814 152.701 183.357C153.158 183.9 153.386 184.678 153.386 185.689V186.141H149.091C149.107 186.766 149.289 187.271 149.636 187.658C149.988 188.041 150.433 188.232 150.972 188.232C151.355 188.232 151.679 188.154 151.945 187.998C152.21 187.842 152.443 187.635 152.642 187.377L153.304 187.893C152.773 188.709 151.976 189.117 150.914 189.117ZM150.779 183.434C150.341 183.434 149.974 183.594 149.677 183.914C149.38 184.23 149.197 184.676 149.126 185.25H152.302V185.168C152.271 184.617 152.123 184.191 151.857 183.891C151.591 183.586 151.232 183.434 150.779 183.434ZM155.666 182.66L155.695 183.363C156.16 182.816 156.787 182.543 157.576 182.543C158.462 182.543 159.066 182.883 159.386 183.562C159.597 183.258 159.871 183.012 160.207 182.824C160.546 182.637 160.947 182.543 161.408 182.543C162.798 182.543 163.505 183.279 163.529 184.752V189H162.445V184.816C162.445 184.363 162.341 184.025 162.134 183.803C161.927 183.576 161.58 183.463 161.091 183.463C160.689 183.463 160.355 183.584 160.089 183.826C159.824 184.064 159.669 184.387 159.626 184.793V189H158.537V184.846C158.537 183.924 158.085 183.463 157.183 183.463C156.472 183.463 155.986 183.766 155.724 184.371V189H154.64V182.66H155.666ZM169.324 189H168.24V182.66H169.324V189ZM168.152 180.979C168.152 180.803 168.205 180.654 168.31 180.533C168.419 180.412 168.58 180.352 168.791 180.352C169.001 180.352 169.162 180.412 169.271 180.533C169.38 180.654 169.435 180.803 169.435 180.979C169.435 181.154 169.38 181.301 169.271 181.418C169.162 181.535 169.001 181.594 168.791 181.594C168.58 181.594 168.419 181.535 168.31 181.418C168.205 181.301 168.152 181.154 168.152 180.979ZM176.419 185.9C176.419 186.865 176.199 187.643 175.757 188.232C175.316 188.822 174.718 189.117 173.964 189.117C173.195 189.117 172.589 188.873 172.148 188.385V191.438H171.064V182.66H172.054L172.107 183.363C172.548 182.816 173.162 182.543 173.947 182.543C174.708 182.543 175.31 182.83 175.751 183.404C176.197 183.979 176.419 184.777 176.419 185.801V185.9ZM175.335 185.777C175.335 185.062 175.183 184.498 174.878 184.084C174.574 183.67 174.156 183.463 173.625 183.463C172.968 183.463 172.476 183.754 172.148 184.336V187.365C172.472 187.943 172.968 188.232 173.636 188.232C174.156 188.232 174.568 188.027 174.873 187.617C175.181 187.203 175.335 186.59 175.335 185.777ZM181.494 187.318C181.494 187.025 181.382 186.799 181.16 186.639C180.941 186.475 180.556 186.334 180.005 186.217C179.458 186.1 179.023 185.959 178.699 185.795C178.378 185.631 178.14 185.436 177.984 185.209C177.832 184.982 177.755 184.713 177.755 184.4C177.755 183.881 177.974 183.441 178.412 183.082C178.853 182.723 179.416 182.543 180.099 182.543C180.818 182.543 181.4 182.729 181.845 183.1C182.294 183.471 182.519 183.945 182.519 184.523H181.429C181.429 184.227 181.302 183.971 181.048 183.756C180.798 183.541 180.482 183.434 180.099 183.434C179.705 183.434 179.396 183.52 179.173 183.691C178.951 183.863 178.839 184.088 178.839 184.365C178.839 184.627 178.943 184.824 179.15 184.957C179.357 185.09 179.73 185.217 180.269 185.338C180.812 185.459 181.251 185.604 181.587 185.771C181.923 185.939 182.171 186.143 182.332 186.381C182.496 186.615 182.578 186.902 182.578 187.242C182.578 187.809 182.351 188.264 181.898 188.607C181.445 188.947 180.857 189.117 180.134 189.117C179.626 189.117 179.177 189.027 178.787 188.848C178.396 188.668 178.089 188.418 177.867 188.098C177.648 187.773 177.539 187.424 177.539 187.049H178.623C178.642 187.412 178.787 187.701 179.056 187.916C179.33 188.127 179.689 188.232 180.134 188.232C180.544 188.232 180.873 188.15 181.119 187.986C181.369 187.818 181.494 187.596 181.494 187.318ZM187.904 188.373C187.482 188.869 186.863 189.117 186.046 189.117C185.371 189.117 184.855 188.922 184.5 188.531C184.148 188.137 183.97 187.555 183.966 186.785V182.66H185.05V186.756C185.05 187.717 185.441 188.197 186.222 188.197C187.05 188.197 187.601 187.889 187.875 187.271V182.66H188.958V189H187.927L187.904 188.373ZM191.63 182.66L191.66 183.363C192.125 182.816 192.751 182.543 193.541 182.543C194.427 182.543 195.031 182.883 195.351 183.562C195.562 183.258 195.835 183.012 196.171 182.824C196.511 182.637 196.912 182.543 197.373 182.543C198.763 182.543 199.47 183.279 199.494 184.752V189H198.41V184.816C198.41 184.363 198.306 184.025 198.099 183.803C197.892 183.576 197.544 183.463 197.056 183.463C196.654 183.463 196.32 183.584 196.054 183.826C195.789 184.064 195.634 184.387 195.591 184.793V189H194.501V184.846C194.501 183.924 194.05 183.463 193.148 183.463C192.437 183.463 191.951 183.766 191.689 184.371V189H190.605V182.66H191.63ZM130.769 201.777C130.769 200.805 131 200.023 131.46 199.434C131.921 198.84 132.525 198.543 133.271 198.543C134.013 198.543 134.601 198.797 135.035 199.305V196H136.119V205H135.123L135.07 204.32C134.636 204.852 134.033 205.117 133.259 205.117C132.525 205.117 131.925 204.816 131.46 204.215C131 203.613 130.769 202.828 130.769 201.859V201.777ZM131.853 201.9C131.853 202.619 132.001 203.182 132.298 203.588C132.595 203.994 133.005 204.197 133.529 204.197C134.216 204.197 134.718 203.889 135.035 203.271V200.359C134.71 199.762 134.212 199.463 133.541 199.463C133.009 199.463 132.595 199.668 132.298 200.078C132.001 200.488 131.853 201.096 131.853 201.9ZM137.519 201.771C137.519 201.15 137.64 200.592 137.882 200.096C138.128 199.6 138.468 199.217 138.902 198.947C139.339 198.678 139.837 198.543 140.396 198.543C141.259 198.543 141.957 198.842 142.488 199.439C143.023 200.037 143.291 200.832 143.291 201.824V201.9C143.291 202.518 143.171 203.072 142.933 203.564C142.699 204.053 142.361 204.434 141.919 204.707C141.482 204.98 140.978 205.117 140.408 205.117C139.548 205.117 138.851 204.818 138.316 204.221C137.785 203.623 137.519 202.832 137.519 201.848V201.771ZM138.609 201.9C138.609 202.604 138.771 203.168 139.095 203.594C139.423 204.02 139.861 204.232 140.408 204.232C140.958 204.232 141.396 204.018 141.72 203.588C142.044 203.154 142.207 202.549 142.207 201.771C142.207 201.076 142.041 200.514 141.708 200.084C141.38 199.65 140.943 199.434 140.396 199.434C139.861 199.434 139.429 199.646 139.101 200.072C138.773 200.498 138.609 201.107 138.609 201.9ZM145.828 205H144.744V196H145.828V205ZM147.281 201.771C147.281 201.15 147.402 200.592 147.644 200.096C147.89 199.6 148.23 199.217 148.664 198.947C149.101 198.678 149.599 198.543 150.158 198.543C151.021 198.543 151.718 198.842 152.25 199.439C152.785 200.037 153.052 200.832 153.052 201.824V201.9C153.052 202.518 152.933 203.072 152.695 203.564C152.46 204.053 152.123 204.434 151.681 204.707C151.244 204.98 150.74 205.117 150.169 205.117C149.31 205.117 148.613 204.818 148.078 204.221C147.546 203.623 147.281 202.832 147.281 201.848V201.771ZM148.371 201.9C148.371 202.604 148.533 203.168 148.857 203.594C149.185 204.02 149.623 204.232 150.169 204.232C150.72 204.232 151.158 204.018 151.482 203.588C151.806 203.154 151.968 202.549 151.968 201.771C151.968 201.076 151.802 200.514 151.47 200.084C151.142 199.65 150.705 199.434 150.158 199.434C149.623 199.434 149.191 199.646 148.863 200.072C148.535 200.498 148.371 201.107 148.371 201.9ZM157.476 199.633C157.312 199.605 157.134 199.592 156.943 199.592C156.232 199.592 155.75 199.895 155.496 200.5V205H154.412V198.66H155.466L155.484 199.393C155.839 198.826 156.343 198.543 156.996 198.543C157.207 198.543 157.367 198.57 157.476 198.625V199.633ZM165.146 203.318C165.146 203.025 165.035 202.799 164.812 202.639C164.593 202.475 164.208 202.334 163.658 202.217C163.111 202.1 162.675 201.959 162.351 201.795C162.031 201.631 161.792 201.436 161.636 201.209C161.484 200.982 161.408 200.713 161.408 200.4C161.408 199.881 161.626 199.441 162.064 199.082C162.505 198.723 163.068 198.543 163.751 198.543C164.47 198.543 165.052 198.729 165.498 199.1C165.947 199.471 166.171 199.945 166.171 200.523H165.082C165.082 200.227 164.955 199.971 164.701 199.756C164.451 199.541 164.134 199.434 163.751 199.434C163.357 199.434 163.048 199.52 162.826 199.691C162.603 199.863 162.492 200.088 162.492 200.365C162.492 200.627 162.595 200.824 162.802 200.957C163.009 201.09 163.382 201.217 163.921 201.338C164.464 201.459 164.904 201.604 165.24 201.771C165.576 201.939 165.824 202.143 165.984 202.381C166.148 202.615 166.23 202.902 166.23 203.242C166.23 203.809 166.003 204.264 165.55 204.607C165.097 204.947 164.509 205.117 163.787 205.117C163.279 205.117 162.83 205.027 162.439 204.848C162.048 204.668 161.742 204.418 161.519 204.098C161.3 203.773 161.191 203.424 161.191 203.049H162.275C162.294 203.412 162.439 203.701 162.708 203.916C162.982 204.127 163.341 204.232 163.787 204.232C164.197 204.232 164.525 204.15 164.771 203.986C165.021 203.818 165.146 203.596 165.146 203.318ZM168.82 205H167.736V198.66H168.82V205ZM167.648 196.979C167.648 196.803 167.701 196.654 167.806 196.533C167.916 196.412 168.076 196.352 168.287 196.352C168.498 196.352 168.658 196.412 168.767 196.533C168.876 196.654 168.931 196.803 168.931 196.979C168.931 197.154 168.876 197.301 168.767 197.418C168.658 197.535 168.498 197.594 168.287 197.594C168.076 197.594 167.916 197.535 167.806 197.418C167.701 197.301 167.648 197.154 167.648 196.979ZM172.031 197.125V198.66H173.214V199.498H172.031V203.43C172.031 203.684 172.083 203.875 172.189 204.004C172.294 204.129 172.474 204.191 172.728 204.191C172.853 204.191 173.025 204.168 173.244 204.121V205C172.958 205.078 172.681 205.117 172.412 205.117C171.927 205.117 171.562 204.971 171.316 204.678C171.07 204.385 170.947 203.969 170.947 203.43V199.498H169.792V198.66H170.947V197.125H172.031ZM181.376 205C181.314 204.875 181.263 204.652 181.224 204.332C180.72 204.855 180.119 205.117 179.419 205.117C178.794 205.117 178.281 204.941 177.878 204.59C177.48 204.234 177.281 203.785 177.281 203.242C177.281 202.582 177.531 202.07 178.031 201.707C178.535 201.34 179.242 201.156 180.152 201.156H181.207V200.658C181.207 200.279 181.093 199.979 180.867 199.756C180.64 199.529 180.306 199.416 179.865 199.416C179.478 199.416 179.154 199.514 178.892 199.709C178.63 199.904 178.5 200.141 178.5 200.418H177.41C177.41 200.102 177.521 199.797 177.744 199.504C177.97 199.207 178.275 198.973 178.658 198.801C179.044 198.629 179.468 198.543 179.929 198.543C180.66 198.543 181.232 198.727 181.646 199.094C182.06 199.457 182.275 199.959 182.291 200.6V203.518C182.291 204.1 182.365 204.562 182.513 204.906V205H181.376ZM179.578 204.174C179.917 204.174 180.24 204.086 180.544 203.91C180.849 203.734 181.07 203.506 181.207 203.225V201.924H180.357C179.029 201.924 178.365 202.312 178.365 203.09C178.365 203.43 178.478 203.695 178.705 203.887C178.931 204.078 179.222 204.174 179.578 204.174ZM185.009 198.66L185.039 199.363C185.503 198.816 186.13 198.543 186.919 198.543C187.806 198.543 188.41 198.883 188.73 199.562C188.941 199.258 189.214 199.012 189.55 198.824C189.89 198.637 190.291 198.543 190.751 198.543C192.142 198.543 192.849 199.279 192.873 200.752V205H191.789V200.816C191.789 200.363 191.685 200.025 191.478 199.803C191.271 199.576 190.923 199.463 190.435 199.463C190.033 199.463 189.699 199.584 189.433 199.826C189.167 200.064 189.013 200.387 188.97 200.793V205H187.88V200.846C187.88 199.924 187.429 199.463 186.527 199.463C185.816 199.463 185.33 199.766 185.068 200.371V205H183.984V198.66H185.009ZM197.144 205.117C196.285 205.117 195.585 204.836 195.046 204.273C194.507 203.707 194.238 202.951 194.238 202.006V201.807C194.238 201.178 194.357 200.617 194.595 200.125C194.837 199.629 195.173 199.242 195.603 198.965C196.037 198.684 196.505 198.543 197.009 198.543C197.833 198.543 198.474 198.814 198.931 199.357C199.388 199.9 199.617 200.678 199.617 201.689V202.141H195.322C195.337 202.766 195.519 203.271 195.867 203.658C196.218 204.041 196.664 204.232 197.203 204.232C197.585 204.232 197.91 204.154 198.175 203.998C198.441 203.842 198.673 203.635 198.873 203.377L199.535 203.893C199.003 204.709 198.207 205.117 197.144 205.117ZM197.009 199.434C196.572 199.434 196.205 199.594 195.908 199.914C195.611 200.23 195.427 200.676 195.357 201.25H198.533V201.168C198.501 200.617 198.353 200.191 198.087 199.891C197.822 199.586 197.462 199.434 197.009 199.434ZM202.347 197.125V198.66H203.531V199.498H202.347V203.43C202.347 203.684 202.4 203.875 202.505 204.004C202.611 204.129 202.791 204.191 203.044 204.191C203.169 204.191 203.341 204.168 203.56 204.121V205C203.275 205.078 202.998 205.117 202.728 205.117C202.244 205.117 201.878 204.971 201.632 204.678C201.386 204.385 201.263 203.969 201.263 203.43V199.498H200.109V198.66H201.263V197.125H202.347Z" fill="#333333"/>
<path d="M273.616 188.08H277.659V189H272.485V180.469H273.616V188.08ZM278.485 185.771C278.485 185.15 278.606 184.592 278.849 184.096C279.095 183.6 279.434 183.217 279.868 182.947C280.306 182.678 280.804 182.543 281.362 182.543C282.225 182.543 282.923 182.842 283.454 183.439C283.989 184.037 284.257 184.832 284.257 185.824V185.9C284.257 186.518 284.138 187.072 283.899 187.564C283.665 188.053 283.327 188.434 282.886 188.707C282.448 188.98 281.944 189.117 281.374 189.117C280.515 189.117 279.817 188.818 279.282 188.221C278.751 187.623 278.485 186.832 278.485 185.848V185.771ZM279.575 185.9C279.575 186.604 279.737 187.168 280.061 187.594C280.39 188.02 280.827 188.232 281.374 188.232C281.925 188.232 282.362 188.018 282.686 187.588C283.011 187.154 283.173 186.549 283.173 185.771C283.173 185.076 283.007 184.514 282.675 184.084C282.347 183.65 281.909 183.434 281.362 183.434C280.827 183.434 280.395 183.646 280.067 184.072C279.739 184.498 279.575 185.107 279.575 185.9ZM288.681 183.633C288.516 183.605 288.339 183.592 288.147 183.592C287.436 183.592 286.954 183.895 286.7 184.5V189H285.616V182.66H286.671L286.688 183.393C287.044 182.826 287.548 182.543 288.2 182.543C288.411 182.543 288.571 182.57 288.681 182.625V183.633ZM292.196 189.117C291.337 189.117 290.638 188.836 290.099 188.273C289.559 187.707 289.29 186.951 289.29 186.006V185.807C289.29 185.178 289.409 184.617 289.647 184.125C289.89 183.629 290.225 183.242 290.655 182.965C291.089 182.684 291.557 182.543 292.061 182.543C292.886 182.543 293.526 182.814 293.983 183.357C294.44 183.9 294.669 184.678 294.669 185.689V186.141H290.374C290.39 186.766 290.571 187.271 290.919 187.658C291.27 188.041 291.716 188.232 292.255 188.232C292.638 188.232 292.962 188.154 293.227 187.998C293.493 187.842 293.725 187.635 293.925 187.377L294.587 187.893C294.056 188.709 293.259 189.117 292.196 189.117ZM292.061 183.434C291.624 183.434 291.257 183.594 290.96 183.914C290.663 184.23 290.479 184.676 290.409 185.25H293.585V185.168C293.554 184.617 293.405 184.191 293.14 183.891C292.874 183.586 292.515 183.434 292.061 183.434ZM296.948 182.66L296.977 183.363C297.442 182.816 298.069 182.543 298.858 182.543C299.745 182.543 300.349 182.883 300.669 183.562C300.88 183.258 301.153 183.012 301.489 182.824C301.829 182.637 302.229 182.543 302.69 182.543C304.081 182.543 304.788 183.279 304.811 184.752V189H303.727V184.816C303.727 184.363 303.624 184.025 303.417 183.803C303.21 183.576 302.862 183.463 302.374 183.463C301.972 183.463 301.638 183.584 301.372 183.826C301.106 184.064 300.952 184.387 300.909 184.793V189H299.819V184.846C299.819 183.924 299.368 183.463 298.466 183.463C297.755 183.463 297.268 183.766 297.007 184.371V189H295.923V182.66H296.948ZM310.606 189H309.522V182.66H310.606V189ZM309.434 180.979C309.434 180.803 309.487 180.654 309.593 180.533C309.702 180.412 309.862 180.352 310.073 180.352C310.284 180.352 310.444 180.412 310.554 180.533C310.663 180.654 310.718 180.803 310.718 180.979C310.718 181.154 310.663 181.301 310.554 181.418C310.444 181.535 310.284 181.594 310.073 181.594C309.862 181.594 309.702 181.535 309.593 181.418C309.487 181.301 309.434 181.154 309.434 180.979ZM317.702 185.9C317.702 186.865 317.481 187.643 317.04 188.232C316.599 188.822 316.001 189.117 315.247 189.117C314.477 189.117 313.872 188.873 313.431 188.385V191.438H312.347V182.66H313.337L313.39 183.363C313.831 182.816 314.444 182.543 315.229 182.543C315.991 182.543 316.593 182.83 317.034 183.404C317.479 183.979 317.702 184.777 317.702 185.801V185.9ZM316.618 185.777C316.618 185.062 316.466 184.498 316.161 184.084C315.856 183.67 315.438 183.463 314.907 183.463C314.251 183.463 313.759 183.754 313.431 184.336V187.365C313.755 187.943 314.251 188.232 314.919 188.232C315.438 188.232 315.85 188.027 316.155 187.617C316.464 187.203 316.618 186.59 316.618 185.777ZM322.776 187.318C322.776 187.025 322.665 186.799 322.442 186.639C322.224 186.475 321.839 186.334 321.288 186.217C320.741 186.1 320.306 185.959 319.981 185.795C319.661 185.631 319.423 185.436 319.266 185.209C319.114 184.982 319.038 184.713 319.038 184.4C319.038 183.881 319.257 183.441 319.694 183.082C320.136 182.723 320.698 182.543 321.382 182.543C322.1 182.543 322.682 182.729 323.128 183.1C323.577 183.471 323.802 183.945 323.802 184.523H322.712C322.712 184.227 322.585 183.971 322.331 183.756C322.081 183.541 321.765 183.434 321.382 183.434C320.987 183.434 320.679 183.52 320.456 183.691C320.233 183.863 320.122 184.088 320.122 184.365C320.122 184.627 320.225 184.824 320.432 184.957C320.64 185.09 321.013 185.217 321.552 185.338C322.095 185.459 322.534 185.604 322.87 185.771C323.206 185.939 323.454 186.143 323.614 186.381C323.778 186.615 323.86 186.902 323.86 187.242C323.86 187.809 323.634 188.264 323.181 188.607C322.727 188.947 322.14 189.117 321.417 189.117C320.909 189.117 320.46 189.027 320.069 188.848C319.679 188.668 319.372 188.418 319.149 188.098C318.931 187.773 318.821 187.424 318.821 187.049H319.905C319.925 187.412 320.069 187.701 320.339 187.916C320.612 188.127 320.972 188.232 321.417 188.232C321.827 188.232 322.155 188.15 322.401 187.986C322.651 187.818 322.776 187.596 322.776 187.318ZM329.186 188.373C328.765 188.869 328.145 189.117 327.329 189.117C326.653 189.117 326.138 188.922 325.782 188.531C325.431 188.137 325.253 187.555 325.249 186.785V182.66H326.333V186.756C326.333 187.717 326.724 188.197 327.505 188.197C328.333 188.197 328.884 187.889 329.157 187.271V182.66H330.241V189H329.21L329.186 188.373ZM332.913 182.66L332.942 183.363C333.407 182.816 334.034 182.543 334.823 182.543C335.71 182.543 336.313 182.883 336.634 183.562C336.845 183.258 337.118 183.012 337.454 182.824C337.794 182.637 338.194 182.543 338.655 182.543C340.046 182.543 340.753 183.279 340.776 184.752V189H339.692V184.816C339.692 184.363 339.589 184.025 339.382 183.803C339.175 183.576 338.827 183.463 338.339 183.463C337.936 183.463 337.602 183.584 337.337 183.826C337.071 184.064 336.917 184.387 336.874 184.793V189H335.784V184.846C335.784 183.924 335.333 183.463 334.431 183.463C333.72 183.463 333.233 183.766 332.972 184.371V189H331.888V182.66H332.913ZM272.052 201.777C272.052 200.805 272.282 200.023 272.743 199.434C273.204 198.84 273.807 198.543 274.554 198.543C275.296 198.543 275.884 198.797 276.317 199.305V196H277.401V205H276.405L276.352 204.32C275.919 204.852 275.315 205.117 274.542 205.117C273.807 205.117 273.208 204.816 272.743 204.215C272.282 203.613 272.052 202.828 272.052 201.859V201.777ZM273.136 201.9C273.136 202.619 273.284 203.182 273.581 203.588C273.878 203.994 274.288 204.197 274.811 204.197C275.499 204.197 276.001 203.889 276.317 203.271V200.359C275.993 199.762 275.495 199.463 274.823 199.463C274.292 199.463 273.878 199.668 273.581 200.078C273.284 200.488 273.136 201.096 273.136 201.9ZM278.802 201.771C278.802 201.15 278.923 200.592 279.165 200.096C279.411 199.6 279.751 199.217 280.184 198.947C280.622 198.678 281.12 198.543 281.679 198.543C282.542 198.543 283.239 198.842 283.77 199.439C284.306 200.037 284.573 200.832 284.573 201.824V201.9C284.573 202.518 284.454 203.072 284.216 203.564C283.981 204.053 283.643 204.434 283.202 204.707C282.765 204.98 282.261 205.117 281.69 205.117C280.831 205.117 280.134 204.818 279.599 204.221C279.067 203.623 278.802 202.832 278.802 201.848V201.771ZM279.891 201.9C279.891 202.604 280.054 203.168 280.378 203.594C280.706 204.02 281.143 204.232 281.69 204.232C282.241 204.232 282.679 204.018 283.003 203.588C283.327 203.154 283.489 202.549 283.489 201.771C283.489 201.076 283.323 200.514 282.991 200.084C282.663 199.65 282.225 199.434 281.679 199.434C281.143 199.434 280.712 199.646 280.384 200.072C280.056 200.498 279.891 201.107 279.891 201.9ZM287.11 205H286.026V196H287.11V205ZM288.563 201.771C288.563 201.15 288.684 200.592 288.927 200.096C289.173 199.6 289.513 199.217 289.946 198.947C290.384 198.678 290.882 198.543 291.44 198.543C292.304 198.543 293.001 198.842 293.532 199.439C294.067 200.037 294.335 200.832 294.335 201.824V201.9C294.335 202.518 294.216 203.072 293.977 203.564C293.743 204.053 293.405 204.434 292.964 204.707C292.526 204.98 292.022 205.117 291.452 205.117C290.593 205.117 289.895 204.818 289.36 204.221C288.829 203.623 288.563 202.832 288.563 201.848V201.771ZM289.653 201.9C289.653 202.604 289.815 203.168 290.14 203.594C290.468 204.02 290.905 204.232 291.452 204.232C292.003 204.232 292.44 204.018 292.765 203.588C293.089 203.154 293.251 202.549 293.251 201.771C293.251 201.076 293.085 200.514 292.753 200.084C292.425 199.65 291.987 199.434 291.44 199.434C290.905 199.434 290.474 199.646 290.145 200.072C289.817 200.498 289.653 201.107 289.653 201.9ZM298.759 199.633C298.595 199.605 298.417 199.592 298.225 199.592C297.515 199.592 297.032 199.895 296.778 200.5V205H295.694V198.66H296.749L296.766 199.393C297.122 198.826 297.626 198.543 298.278 198.543C298.489 198.543 298.649 198.57 298.759 198.625V199.633ZM306.429 203.318C306.429 203.025 306.317 202.799 306.095 202.639C305.876 202.475 305.491 202.334 304.94 202.217C304.393 202.1 303.958 201.959 303.634 201.795C303.313 201.631 303.075 201.436 302.919 201.209C302.766 200.982 302.69 200.713 302.69 200.4C302.69 199.881 302.909 199.441 303.347 199.082C303.788 198.723 304.35 198.543 305.034 198.543C305.753 198.543 306.335 198.729 306.78 199.1C307.229 199.471 307.454 199.945 307.454 200.523H306.364C306.364 200.227 306.237 199.971 305.983 199.756C305.733 199.541 305.417 199.434 305.034 199.434C304.64 199.434 304.331 199.52 304.108 199.691C303.886 199.863 303.774 200.088 303.774 200.365C303.774 200.627 303.878 200.824 304.085 200.957C304.292 201.09 304.665 201.217 305.204 201.338C305.747 201.459 306.186 201.604 306.522 201.771C306.858 201.939 307.106 202.143 307.266 202.381C307.431 202.615 307.513 202.902 307.513 203.242C307.513 203.809 307.286 204.264 306.833 204.607C306.38 204.947 305.792 205.117 305.069 205.117C304.561 205.117 304.112 205.027 303.722 204.848C303.331 204.668 303.024 204.418 302.802 204.098C302.583 203.773 302.474 203.424 302.474 203.049H303.557C303.577 203.412 303.722 203.701 303.991 203.916C304.265 204.127 304.624 204.232 305.069 204.232C305.479 204.232 305.807 204.15 306.054 203.986C306.304 203.818 306.429 203.596 306.429 203.318ZM310.102 205H309.018V198.66H310.102V205ZM308.931 196.979C308.931 196.803 308.983 196.654 309.089 196.533C309.198 196.412 309.358 196.352 309.569 196.352C309.78 196.352 309.94 196.412 310.05 196.533C310.159 196.654 310.214 196.803 310.214 196.979C310.214 197.154 310.159 197.301 310.05 197.418C309.94 197.535 309.78 197.594 309.569 197.594C309.358 197.594 309.198 197.535 309.089 197.418C308.983 197.301 308.931 197.154 308.931 196.979ZM313.313 197.125V198.66H314.497V199.498H313.313V203.43C313.313 203.684 313.366 203.875 313.472 204.004C313.577 204.129 313.757 204.191 314.011 204.191C314.136 204.191 314.307 204.168 314.526 204.121V205C314.241 205.078 313.964 205.117 313.694 205.117C313.21 205.117 312.845 204.971 312.599 204.678C312.352 204.385 312.229 203.969 312.229 203.43V199.498H311.075V198.66H312.229V197.125H313.313ZM322.659 205C322.597 204.875 322.546 204.652 322.507 204.332C322.003 204.855 321.401 205.117 320.702 205.117C320.077 205.117 319.563 204.941 319.161 204.59C318.763 204.234 318.563 203.785 318.563 203.242C318.563 202.582 318.813 202.07 319.313 201.707C319.817 201.34 320.524 201.156 321.434 201.156H322.489V200.658C322.489 200.279 322.376 199.979 322.149 199.756C321.923 199.529 321.589 199.416 321.147 199.416C320.761 199.416 320.436 199.514 320.175 199.709C319.913 199.904 319.782 200.141 319.782 200.418H318.692C318.692 200.102 318.804 199.797 319.026 199.504C319.253 199.207 319.557 198.973 319.94 198.801C320.327 198.629 320.751 198.543 321.212 198.543C321.942 198.543 322.515 198.727 322.929 199.094C323.343 199.457 323.557 199.959 323.573 200.6V203.518C323.573 204.1 323.647 204.562 323.796 204.906V205H322.659ZM320.86 204.174C321.2 204.174 321.522 204.086 321.827 203.91C322.132 203.734 322.352 203.506 322.489 203.225V201.924H321.64C320.311 201.924 319.647 202.312 319.647 203.09C319.647 203.43 319.761 203.695 319.987 203.887C320.214 204.078 320.505 204.174 320.86 204.174ZM326.292 198.66L326.321 199.363C326.786 198.816 327.413 198.543 328.202 198.543C329.089 198.543 329.692 198.883 330.013 199.562C330.224 199.258 330.497 199.012 330.833 198.824C331.173 198.637 331.573 198.543 332.034 198.543C333.425 198.543 334.132 199.279 334.155 200.752V205H333.071V200.816C333.071 200.363 332.968 200.025 332.761 199.803C332.554 199.576 332.206 199.463 331.718 199.463C331.315 199.463 330.981 199.584 330.716 199.826C330.45 200.064 330.296 200.387 330.253 200.793V205H329.163V200.846C329.163 199.924 328.712 199.463 327.809 199.463C327.099 199.463 326.612 199.766 326.35 200.371V205H325.266V198.66H326.292ZM338.427 205.117C337.567 205.117 336.868 204.836 336.329 204.273C335.79 203.707 335.52 202.951 335.52 202.006V201.807C335.52 201.178 335.64 200.617 335.878 200.125C336.12 199.629 336.456 199.242 336.886 198.965C337.319 198.684 337.788 198.543 338.292 198.543C339.116 198.543 339.757 198.814 340.214 199.357C340.671 199.9 340.899 200.678 340.899 201.689V202.141H336.604C336.62 202.766 336.802 203.271 337.149 203.658C337.501 204.041 337.946 204.232 338.485 204.232C338.868 204.232 339.192 204.154 339.458 203.998C339.724 203.842 339.956 203.635 340.155 203.377L340.817 203.893C340.286 204.709 339.489 205.117 338.427 205.117ZM338.292 199.434C337.854 199.434 337.487 199.594 337.19 199.914C336.893 200.23 336.71 200.676 336.64 201.25H339.815V201.168C339.784 200.617 339.636 200.191 339.37 199.891C339.104 199.586 338.745 199.434 338.292 199.434ZM343.63 197.125V198.66H344.813V199.498H343.63V203.43C343.63 203.684 343.682 203.875 343.788 204.004C343.893 204.129 344.073 204.191 344.327 204.191C344.452 204.191 344.624 204.168 344.843 204.121V205C344.557 205.078 344.28 205.117 344.011 205.117C343.526 205.117 343.161 204.971 342.915 204.678C342.669 204.385 342.546 203.969 342.546 203.43V199.498H341.391V198.66H342.546V197.125H343.63Z" fill="#333333"/>
<path d="M414.899 188.08H418.942V189H413.768V180.469H414.899V188.08ZM419.768 185.771C419.768 185.15 419.889 184.592 420.131 184.096C420.377 183.6 420.717 183.217 421.151 182.947C421.588 182.678 422.086 182.543 422.645 182.543C423.508 182.543 424.205 182.842 424.737 183.439C425.272 184.037 425.539 184.832 425.539 185.824V185.9C425.539 186.518 425.42 187.072 425.182 187.564C424.947 188.053 424.61 188.434 424.168 188.707C423.731 188.98 423.227 189.117 422.656 189.117C421.797 189.117 421.1 188.818 420.565 188.221C420.033 187.623 419.768 186.832 419.768 185.848V185.771ZM420.858 185.9C420.858 186.604 421.02 187.168 421.344 187.594C421.672 188.02 422.11 188.232 422.656 188.232C423.207 188.232 423.645 188.018 423.969 187.588C424.293 187.154 424.455 186.549 424.455 185.771C424.455 185.076 424.289 184.514 423.957 184.084C423.629 183.65 423.192 183.434 422.645 183.434C422.11 183.434 421.678 183.646 421.35 184.072C421.022 184.498 420.858 185.107 420.858 185.9ZM429.963 183.633C429.799 183.605 429.621 183.592 429.43 183.592C428.719 183.592 428.237 183.895 427.983 184.5V189H426.899V182.66H427.953L427.971 183.393C428.326 182.826 428.83 182.543 429.483 182.543C429.694 182.543 429.854 182.57 429.963 182.625V183.633ZM433.479 189.117C432.619 189.117 431.92 188.836 431.381 188.273C430.842 187.707 430.572 186.951 430.572 186.006V185.807C430.572 185.178 430.692 184.617 430.93 184.125C431.172 183.629 431.508 183.242 431.938 182.965C432.371 182.684 432.84 182.543 433.344 182.543C434.168 182.543 434.809 182.814 435.266 183.357C435.723 183.9 435.951 184.678 435.951 185.689V186.141H431.656C431.672 186.766 431.854 187.271 432.201 187.658C432.553 188.041 432.998 188.232 433.537 188.232C433.92 188.232 434.244 188.154 434.51 187.998C434.776 187.842 435.008 187.635 435.207 187.377L435.869 187.893C435.338 188.709 434.541 189.117 433.479 189.117ZM433.344 183.434C432.906 183.434 432.539 183.594 432.242 183.914C431.946 184.23 431.762 184.676 431.692 185.25H434.867V185.168C434.836 184.617 434.688 184.191 434.422 183.891C434.156 183.586 433.797 183.434 433.344 183.434ZM438.231 182.66L438.26 183.363C438.725 182.816 439.352 182.543 440.141 182.543C441.028 182.543 441.631 182.883 441.951 183.562C442.162 183.258 442.436 183.012 442.772 182.824C443.112 182.637 443.512 182.543 443.973 182.543C445.363 182.543 446.071 183.279 446.094 184.752V189H445.01V184.816C445.01 184.363 444.906 184.025 444.699 183.803C444.492 183.576 444.145 183.463 443.656 183.463C443.254 183.463 442.92 183.584 442.655 183.826C442.389 184.064 442.235 184.387 442.192 184.793V189H441.102V184.846C441.102 183.924 440.651 183.463 439.748 183.463C439.037 183.463 438.551 183.766 438.289 184.371V189H437.205V182.66H438.231ZM451.889 189H450.805V182.66H451.889V189ZM450.717 180.979C450.717 180.803 450.77 180.654 450.875 180.533C450.985 180.412 451.145 180.352 451.356 180.352C451.567 180.352 451.727 180.412 451.836 180.533C451.946 180.654 452 180.803 452 180.979C452 181.154 451.946 181.301 451.836 181.418C451.727 181.535 451.567 181.594 451.356 181.594C451.145 181.594 450.985 181.535 450.875 181.418C450.77 181.301 450.717 181.154 450.717 180.979ZM458.985 185.9C458.985 186.865 458.764 187.643 458.322 188.232C457.881 188.822 457.283 189.117 456.53 189.117C455.76 189.117 455.155 188.873 454.713 188.385V191.438H453.629V182.66H454.619L454.672 183.363C455.113 182.816 455.727 182.543 456.512 182.543C457.274 182.543 457.875 182.83 458.317 183.404C458.762 183.979 458.985 184.777 458.985 185.801V185.9ZM457.901 185.777C457.901 185.062 457.748 184.498 457.444 184.084C457.139 183.67 456.721 183.463 456.19 183.463C455.533 183.463 455.041 183.754 454.713 184.336V187.365C455.037 187.943 455.533 188.232 456.201 188.232C456.721 188.232 457.133 188.027 457.438 187.617C457.746 187.203 457.901 186.59 457.901 185.777ZM464.059 187.318C464.059 187.025 463.947 186.799 463.725 186.639C463.506 186.475 463.121 186.334 462.571 186.217C462.024 186.1 461.588 185.959 461.264 185.795C460.944 185.631 460.705 185.436 460.549 185.209C460.397 184.982 460.321 184.713 460.321 184.4C460.321 183.881 460.539 183.441 460.977 183.082C461.418 182.723 461.981 182.543 462.664 182.543C463.383 182.543 463.965 182.729 464.41 183.1C464.86 183.471 465.084 183.945 465.084 184.523H463.994C463.994 184.227 463.867 183.971 463.613 183.756C463.363 183.541 463.047 183.434 462.664 183.434C462.27 183.434 461.961 183.52 461.738 183.691C461.516 183.863 461.405 184.088 461.405 184.365C461.405 184.627 461.508 184.824 461.715 184.957C461.922 185.09 462.295 185.217 462.834 185.338C463.377 185.459 463.817 185.604 464.153 185.771C464.488 185.939 464.737 186.143 464.897 186.381C465.061 186.615 465.143 186.902 465.143 187.242C465.143 187.809 464.916 188.264 464.463 188.607C464.01 188.947 463.422 189.117 462.699 189.117C462.192 189.117 461.742 189.027 461.352 188.848C460.961 188.668 460.655 188.418 460.432 188.098C460.213 187.773 460.104 187.424 460.104 187.049H461.188C461.207 187.412 461.352 187.701 461.621 187.916C461.895 188.127 462.254 188.232 462.699 188.232C463.11 188.232 463.438 188.15 463.684 187.986C463.934 187.818 464.059 187.596 464.059 187.318ZM470.469 188.373C470.047 188.869 469.428 189.117 468.612 189.117C467.936 189.117 467.42 188.922 467.065 188.531C466.713 188.137 466.535 187.555 466.531 186.785V182.66H467.615V186.756C467.615 187.717 468.006 188.197 468.787 188.197C469.615 188.197 470.166 187.889 470.44 187.271V182.66H471.524V189H470.492L470.469 188.373ZM474.196 182.66L474.225 183.363C474.69 182.816 475.317 182.543 476.106 182.543C476.992 182.543 477.596 182.883 477.916 183.562C478.127 183.258 478.401 183.012 478.737 182.824C479.076 182.637 479.477 182.543 479.938 182.543C481.328 182.543 482.035 183.279 482.059 184.752V189H480.975V184.816C480.975 184.363 480.871 184.025 480.664 183.803C480.457 183.576 480.11 183.463 479.621 183.463C479.219 183.463 478.885 183.584 478.619 183.826C478.354 184.064 478.199 184.387 478.156 184.793V189H477.067V184.846C477.067 183.924 476.615 183.463 475.713 183.463C475.002 183.463 474.516 183.766 474.254 184.371V189H473.17V182.66H474.196ZM413.334 201.777C413.334 200.805 413.565 200.023 414.026 199.434C414.487 198.84 415.09 198.543 415.836 198.543C416.578 198.543 417.166 198.797 417.6 199.305V196H418.684V205H417.688L417.635 204.32C417.201 204.852 416.598 205.117 415.824 205.117C415.09 205.117 414.49 204.816 414.026 204.215C413.565 203.613 413.334 202.828 413.334 201.859V201.777ZM414.418 201.9C414.418 202.619 414.567 203.182 414.863 203.588C415.16 203.994 415.571 204.197 416.094 204.197C416.781 204.197 417.283 203.889 417.6 203.271V200.359C417.276 199.762 416.778 199.463 416.106 199.463C415.574 199.463 415.16 199.668 414.863 200.078C414.567 200.488 414.418 201.096 414.418 201.9ZM420.084 201.771C420.084 201.15 420.205 200.592 420.447 200.096C420.694 199.6 421.033 199.217 421.467 198.947C421.905 198.678 422.403 198.543 422.961 198.543C423.824 198.543 424.522 198.842 425.053 199.439C425.588 200.037 425.856 200.832 425.856 201.824V201.9C425.856 202.518 425.737 203.072 425.498 203.564C425.264 204.053 424.926 204.434 424.485 204.707C424.047 204.98 423.543 205.117 422.973 205.117C422.113 205.117 421.416 204.818 420.881 204.221C420.35 203.623 420.084 202.832 420.084 201.848V201.771ZM421.174 201.9C421.174 202.604 421.336 203.168 421.66 203.594C421.988 204.02 422.426 204.232 422.973 204.232C423.524 204.232 423.961 204.018 424.285 203.588C424.61 203.154 424.772 202.549 424.772 201.771C424.772 201.076 424.606 200.514 424.274 200.084C423.946 199.65 423.508 199.434 422.961 199.434C422.426 199.434 421.994 199.646 421.666 200.072C421.338 200.498 421.174 201.107 421.174 201.9ZM428.393 205H427.309V196H428.393V205ZM429.846 201.771C429.846 201.15 429.967 200.592 430.209 200.096C430.455 199.6 430.795 199.217 431.229 198.947C431.666 198.678 432.164 198.543 432.723 198.543C433.586 198.543 434.283 198.842 434.815 199.439C435.35 200.037 435.617 200.832 435.617 201.824V201.9C435.617 202.518 435.498 203.072 435.26 203.564C435.026 204.053 434.688 204.434 434.246 204.707C433.809 204.98 433.305 205.117 432.735 205.117C431.875 205.117 431.178 204.818 430.643 204.221C430.112 203.623 429.846 202.832 429.846 201.848V201.771ZM430.936 201.9C430.936 202.604 431.098 203.168 431.422 203.594C431.75 204.02 432.188 204.232 432.735 204.232C433.285 204.232 433.723 204.018 434.047 203.588C434.371 203.154 434.533 202.549 434.533 201.771C434.533 201.076 434.367 200.514 434.035 200.084C433.707 199.65 433.27 199.434 432.723 199.434C432.188 199.434 431.756 199.646 431.428 200.072C431.1 200.498 430.936 201.107 430.936 201.9ZM440.041 199.633C439.877 199.605 439.699 199.592 439.508 199.592C438.797 199.592 438.315 199.895 438.061 200.5V205H436.977V198.66H438.031L438.049 199.393C438.405 198.826 438.908 198.543 439.561 198.543C439.772 198.543 439.932 198.57 440.041 198.625V199.633ZM447.711 203.318C447.711 203.025 447.6 202.799 447.377 202.639C447.158 202.475 446.774 202.334 446.223 202.217C445.676 202.1 445.24 201.959 444.916 201.795C444.596 201.631 444.358 201.436 444.201 201.209C444.049 200.982 443.973 200.713 443.973 200.4C443.973 199.881 444.192 199.441 444.629 199.082C445.071 198.723 445.633 198.543 446.317 198.543C447.035 198.543 447.617 198.729 448.063 199.1C448.512 199.471 448.737 199.945 448.737 200.523H447.647C447.647 200.227 447.52 199.971 447.266 199.756C447.016 199.541 446.699 199.434 446.317 199.434C445.922 199.434 445.613 199.52 445.391 199.691C445.168 199.863 445.057 200.088 445.057 200.365C445.057 200.627 445.16 200.824 445.367 200.957C445.574 201.09 445.947 201.217 446.487 201.338C447.03 201.459 447.469 201.604 447.805 201.771C448.141 201.939 448.389 202.143 448.549 202.381C448.713 202.615 448.795 202.902 448.795 203.242C448.795 203.809 448.569 204.264 448.115 204.607C447.662 204.947 447.074 205.117 446.352 205.117C445.844 205.117 445.395 205.027 445.004 204.848C444.613 204.668 444.307 204.418 444.084 204.098C443.865 203.773 443.756 203.424 443.756 203.049H444.84C444.86 203.412 445.004 203.701 445.274 203.916C445.547 204.127 445.906 204.232 446.352 204.232C446.762 204.232 447.09 204.15 447.336 203.986C447.586 203.818 447.711 203.596 447.711 203.318ZM451.385 205H450.301V198.66H451.385V205ZM450.213 196.979C450.213 196.803 450.266 196.654 450.371 196.533C450.481 196.412 450.641 196.352 450.852 196.352C451.063 196.352 451.223 196.412 451.332 196.533C451.442 196.654 451.496 196.803 451.496 196.979C451.496 197.154 451.442 197.301 451.332 197.418C451.223 197.535 451.063 197.594 450.852 197.594C450.641 197.594 450.481 197.535 450.371 197.418C450.266 197.301 450.213 197.154 450.213 196.979ZM454.596 197.125V198.66H455.78V199.498H454.596V203.43C454.596 203.684 454.649 203.875 454.754 204.004C454.86 204.129 455.039 204.191 455.293 204.191C455.418 204.191 455.59 204.168 455.809 204.121V205C455.524 205.078 455.246 205.117 454.977 205.117C454.492 205.117 454.127 204.971 453.881 204.678C453.635 204.385 453.512 203.969 453.512 203.43V199.498H452.358V198.66H453.512V197.125H454.596ZM463.942 205C463.879 204.875 463.828 204.652 463.789 204.332C463.285 204.855 462.684 205.117 461.985 205.117C461.36 205.117 460.846 204.941 460.444 204.59C460.045 204.234 459.846 203.785 459.846 203.242C459.846 202.582 460.096 202.07 460.596 201.707C461.1 201.34 461.807 201.156 462.717 201.156H463.772V200.658C463.772 200.279 463.658 199.979 463.432 199.756C463.205 199.529 462.871 199.416 462.43 199.416C462.043 199.416 461.719 199.514 461.457 199.709C461.196 199.904 461.065 200.141 461.065 200.418H459.975C459.975 200.102 460.086 199.797 460.309 199.504C460.535 199.207 460.84 198.973 461.223 198.801C461.61 198.629 462.033 198.543 462.494 198.543C463.225 198.543 463.797 198.727 464.211 199.094C464.625 199.457 464.84 199.959 464.856 200.6V203.518C464.856 204.1 464.93 204.562 465.078 204.906V205H463.942ZM462.143 204.174C462.483 204.174 462.805 204.086 463.11 203.91C463.414 203.734 463.635 203.506 463.772 203.225V201.924H462.922C461.594 201.924 460.93 202.312 460.93 203.09C460.93 203.43 461.043 203.695 461.27 203.887C461.496 204.078 461.787 204.174 462.143 204.174ZM467.574 198.66L467.604 199.363C468.069 198.816 468.696 198.543 469.485 198.543C470.371 198.543 470.975 198.883 471.295 199.562C471.506 199.258 471.78 199.012 472.115 198.824C472.455 198.637 472.856 198.543 473.317 198.543C474.707 198.543 475.414 199.279 475.438 200.752V205H474.354V200.816C474.354 200.363 474.25 200.025 474.043 199.803C473.836 199.576 473.488 199.463 473 199.463C472.598 199.463 472.264 199.584 471.998 199.826C471.733 200.064 471.578 200.387 471.535 200.793V205H470.446V200.846C470.446 199.924 469.994 199.463 469.092 199.463C468.381 199.463 467.895 199.766 467.633 200.371V205H466.549V198.66H467.574ZM479.709 205.117C478.85 205.117 478.151 204.836 477.612 204.273C477.072 203.707 476.803 202.951 476.803 202.006V201.807C476.803 201.178 476.922 200.617 477.16 200.125C477.403 199.629 477.738 199.242 478.168 198.965C478.602 198.684 479.071 198.543 479.574 198.543C480.399 198.543 481.039 198.814 481.496 199.357C481.953 199.9 482.182 200.678 482.182 201.689V202.141H477.887C477.903 202.766 478.084 203.271 478.432 203.658C478.783 204.041 479.229 204.232 479.768 204.232C480.151 204.232 480.475 204.154 480.74 203.998C481.006 203.842 481.238 203.635 481.438 203.377L482.1 203.893C481.569 204.709 480.772 205.117 479.709 205.117ZM479.574 199.434C479.137 199.434 478.77 199.594 478.473 199.914C478.176 200.23 477.992 200.676 477.922 201.25H481.098V201.168C481.067 200.617 480.918 200.191 480.653 199.891C480.387 199.586 480.028 199.434 479.574 199.434ZM484.912 197.125V198.66H486.096V199.498H484.912V203.43C484.912 203.684 484.965 203.875 485.071 204.004C485.176 204.129 485.356 204.191 485.61 204.191C485.735 204.191 485.906 204.168 486.125 204.121V205C485.84 205.078 485.563 205.117 485.293 205.117C484.809 205.117 484.444 204.971 484.197 204.678C483.951 204.385 483.828 203.969 483.828 203.43V199.498H482.674V198.66H483.828V197.125H484.912Z" fill="#333333"/>
<path d="M237.427 204V144" stroke="#00ADEE"/>
<path d="M376.705 204V144" stroke="#00ADEE"/>
<path d="M495.343 56.9985C495.343 56.9985 492.938 56.9985 492.938 56.9985C489.618 56.9985 486.926 59.685 486.926 62.9989C486.926 66.3129 489.618 68.9994 492.938 68.9994C492.938 68.9994 495.343 68.9994 495.343 68.9994" stroke="#00ADEE" stroke-width="2" stroke-linecap="round"/>
<path d="M494.14 62.9998H503.76" stroke="#00ADEE" stroke-width="2" stroke-linecap="round"/>
<path d="M502.557 68.9996C502.557 68.9996 504.962 68.9996 504.962 68.9996C508.282 68.9996 510.974 66.3131 510.974 62.9991C510.974 59.6852 508.282 56.9987 504.962 56.9987C504.962 56.9987 502.557 56.9987 502.557 56.9987" stroke="#00ADEE" stroke-width="2" stroke-linecap="round"/>
<path d="M523 63C523 76.2529 512.234 87 498.95 87C485.666 87 474.9 76.2529 474.9 63C474.9 49.7471 485.666 39 498.95 39C512.234 39 523 49.7471 523 63Z" stroke="#00ADEE" stroke-width="2"/>
<path d="M156.03 37.096C155.19 37.096 154.43 36.912 153.75 36.544C153.078 36.168 152.55 35.656 152.166 35.008C151.782 34.352 151.59 33.616 151.59 32.8C151.59 31.984 151.782 31.252 152.166 30.604C152.55 29.948 153.082 29.436 153.762 29.068C154.442 28.692 155.202 28.504 156.042 28.504C156.698 28.504 157.298 28.616 157.842 28.84C158.386 29.056 158.85 29.38 159.234 29.812L158.454 30.568C157.822 29.904 157.034 29.572 156.09 29.572C155.466 29.572 154.902 29.712 154.398 29.992C153.894 30.272 153.498 30.66 153.21 31.156C152.93 31.644 152.79 32.192 152.79 32.8C152.79 33.408 152.93 33.96 153.21 34.456C153.498 34.944 153.894 35.328 154.398 35.608C154.902 35.888 155.466 36.028 156.09 36.028C157.026 36.028 157.814 35.692 158.454 35.02L159.234 35.776C158.85 36.208 158.382 36.536 157.83 36.76C157.286 36.984 156.686 37.096 156.03 37.096ZM163.233 37.072C162.601 37.072 162.033 36.932 161.529 36.652C161.025 36.372 160.629 35.988 160.341 35.5C160.061 35.004 159.921 34.444 159.921 33.82C159.921 33.196 160.061 32.64 160.341 32.152C160.629 31.656 161.025 31.272 161.529 31C162.033 30.72 162.601 30.58 163.233 30.58C163.865 30.58 164.429 30.72 164.925 31C165.429 31.272 165.821 31.656 166.101 32.152C166.389 32.64 166.533 33.196 166.533 33.82C166.533 34.444 166.389 35.004 166.101 35.5C165.821 35.988 165.429 36.372 164.925 36.652C164.429 36.932 163.865 37.072 163.233 37.072ZM163.233 36.064C163.641 36.064 164.005 35.972 164.325 35.788C164.653 35.596 164.909 35.332 165.093 34.996C165.277 34.652 165.369 34.26 165.369 33.82C165.369 33.38 165.277 32.992 165.093 32.656C164.909 32.312 164.653 32.048 164.325 31.864C164.005 31.68 163.641 31.588 163.233 31.588C162.825 31.588 162.457 31.68 162.129 31.864C161.809 32.048 161.553 32.312 161.361 32.656C161.177 32.992 161.085 33.38 161.085 33.82C161.085 34.26 161.177 34.652 161.361 34.996C161.553 35.332 161.809 35.596 162.129 35.788C162.457 35.972 162.825 36.064 163.233 36.064ZM176.082 30.58C176.882 30.58 177.514 30.812 177.978 31.276C178.45 31.74 178.686 32.428 178.686 33.34V37H177.534V33.472C177.534 32.856 177.39 32.392 177.102 32.08C176.822 31.768 176.418 31.612 175.89 31.612C175.306 31.612 174.842 31.796 174.498 32.164C174.154 32.524 173.982 33.044 173.982 33.724V37H172.83V33.472C172.83 32.856 172.686 32.392 172.398 32.08C172.118 31.768 171.714 31.612 171.186 31.612C170.602 31.612 170.138 31.796 169.794 32.164C169.45 32.524 169.278 33.044 169.278 33.724V37H168.126V30.64H169.23V31.588C169.462 31.26 169.766 31.012 170.142 30.844C170.518 30.668 170.946 30.58 171.426 30.58C171.922 30.58 172.362 30.68 172.746 30.88C173.13 31.08 173.426 31.372 173.634 31.756C173.874 31.388 174.206 31.1 174.63 30.892C175.062 30.684 175.546 30.58 176.082 30.58ZM188.762 30.58C189.562 30.58 190.194 30.812 190.658 31.276C191.13 31.74 191.366 32.428 191.366 33.34V37H190.214V33.472C190.214 32.856 190.07 32.392 189.782 32.08C189.502 31.768 189.098 31.612 188.57 31.612C187.986 31.612 187.522 31.796 187.178 32.164C186.834 32.524 186.662 33.044 186.662 33.724V37H185.51V33.472C185.51 32.856 185.366 32.392 185.078 32.08C184.798 31.768 184.394 31.612 183.866 31.612C183.282 31.612 182.818 31.796 182.474 32.164C182.13 32.524 181.958 33.044 181.958 33.724V37H180.806V30.64H181.91V31.588C182.142 31.26 182.446 31.012 182.822 30.844C183.198 30.668 183.626 30.58 184.106 30.58C184.602 30.58 185.042 30.68 185.426 30.88C185.81 31.08 186.106 31.372 186.314 31.756C186.554 31.388 186.886 31.1 187.31 30.892C187.742 30.684 188.226 30.58 188.762 30.58ZM193.485 30.64H194.637V37H193.485V30.64ZM194.061 29.416C193.837 29.416 193.649 29.344 193.497 29.2C193.353 29.056 193.281 28.88 193.281 28.672C193.281 28.464 193.353 28.288 193.497 28.144C193.649 27.992 193.837 27.916 194.061 27.916C194.285 27.916 194.469 27.988 194.613 28.132C194.765 28.268 194.841 28.44 194.841 28.648C194.841 28.864 194.765 29.048 194.613 29.2C194.469 29.344 194.285 29.416 194.061 29.416ZM198.661 37.072C198.141 37.072 197.641 37.004 197.161 36.868C196.681 36.724 196.305 36.544 196.033 36.328L196.513 35.416C196.793 35.616 197.133 35.776 197.533 35.896C197.933 36.016 198.337 36.076 198.745 36.076C199.753 36.076 200.257 35.788 200.257 35.212C200.257 35.02 200.189 34.868 200.053 34.756C199.917 34.644 199.745 34.564 199.537 34.516C199.337 34.46 199.049 34.4 198.673 34.336C198.161 34.256 197.741 34.164 197.413 34.06C197.093 33.956 196.817 33.78 196.585 33.532C196.353 33.284 196.237 32.936 196.237 32.488C196.237 31.912 196.477 31.452 196.957 31.108C197.437 30.756 198.081 30.58 198.889 30.58C199.313 30.58 199.737 30.632 200.161 30.736C200.585 30.84 200.933 30.98 201.205 31.156L200.713 32.068C200.193 31.732 199.581 31.564 198.877 31.564C198.389 31.564 198.017 31.644 197.761 31.804C197.505 31.964 197.377 32.176 197.377 32.44C197.377 32.648 197.449 32.812 197.593 32.932C197.737 33.052 197.913 33.14 198.121 33.196C198.337 33.252 198.637 33.316 199.021 33.388C199.533 33.476 199.945 33.572 200.257 33.676C200.577 33.772 200.849 33.94 201.073 34.18C201.297 34.42 201.409 34.756 201.409 35.188C201.409 35.764 201.161 36.224 200.665 36.568C200.177 36.904 199.509 37.072 198.661 37.072ZM204.673 37.072C204.153 37.072 203.653 37.004 203.173 36.868C202.693 36.724 202.317 36.544 202.045 36.328L202.525 35.416C202.805 35.616 203.145 35.776 203.545 35.896C203.945 36.016 204.349 36.076 204.757 36.076C205.765 36.076 206.269 35.788 206.269 35.212C206.269 35.02 206.201 34.868 206.065 34.756C205.929 34.644 205.757 34.564 205.549 34.516C205.349 34.46 205.061 34.4 204.685 34.336C204.173 34.256 203.753 34.164 203.425 34.06C203.105 33.956 202.829 33.78 202.597 33.532C202.365 33.284 202.249 32.936 202.249 32.488C202.249 31.912 202.489 31.452 202.969 31.108C203.449 30.756 204.093 30.58 204.901 30.58C205.325 30.58 205.749 30.632 206.173 30.736C206.597 30.84 206.945 30.98 207.217 31.156L206.725 32.068C206.205 31.732 205.593 31.564 204.889 31.564C204.401 31.564 204.029 31.644 203.773 31.804C203.517 31.964 203.389 32.176 203.389 32.44C203.389 32.648 203.461 32.812 203.605 32.932C203.749 33.052 203.925 33.14 204.133 33.196C204.349 33.252 204.649 33.316 205.033 33.388C205.545 33.476 205.957 33.572 206.269 33.676C206.589 33.772 206.861 33.94 207.085 34.18C207.309 34.42 207.421 34.756 207.421 35.188C207.421 35.764 207.173 36.224 206.677 36.568C206.189 36.904 205.521 37.072 204.673 37.072ZM208.86 30.64H210.012V37H208.86V30.64ZM209.436 29.416C209.212 29.416 209.024 29.344 208.872 29.2C208.728 29.056 208.656 28.88 208.656 28.672C208.656 28.464 208.728 28.288 208.872 28.144C209.024 27.992 209.212 27.916 209.436 27.916C209.66 27.916 209.844 27.988 209.988 28.132C210.14 28.268 210.216 28.44 210.216 28.648C210.216 28.864 210.14 29.048 209.988 29.2C209.844 29.344 209.66 29.416 209.436 29.416ZM214.936 37.072C214.304 37.072 213.736 36.932 213.232 36.652C212.728 36.372 212.332 35.988 212.044 35.5C211.764 35.004 211.624 34.444 211.624 33.82C211.624 33.196 211.764 32.64 212.044 32.152C212.332 31.656 212.728 31.272 213.232 31C213.736 30.72 214.304 30.58 214.936 30.58C215.568 30.58 216.132 30.72 216.628 31C217.132 31.272 217.524 31.656 217.804 32.152C218.092 32.64 218.236 33.196 218.236 33.82C218.236 34.444 218.092 35.004 217.804 35.5C217.524 35.988 217.132 36.372 216.628 36.652C216.132 36.932 215.568 37.072 214.936 37.072ZM214.936 36.064C215.344 36.064 215.708 35.972 216.028 35.788C216.356 35.596 216.612 35.332 216.796 34.996C216.98 34.652 217.072 34.26 217.072 33.82C217.072 33.38 216.98 32.992 216.796 32.656C216.612 32.312 216.356 32.048 216.028 31.864C215.708 31.68 215.344 31.588 214.936 31.588C214.528 31.588 214.16 31.68 213.832 31.864C213.512 32.048 213.256 32.312 213.064 32.656C212.88 32.992 212.788 33.38 212.788 33.82C212.788 34.26 212.88 34.652 213.064 34.996C213.256 35.332 213.512 35.596 213.832 35.788C214.16 35.972 214.528 36.064 214.936 36.064ZM223.225 30.58C224.033 30.58 224.673 30.816 225.145 31.288C225.625 31.752 225.865 32.436 225.865 33.34V37H224.713V33.472C224.713 32.856 224.565 32.392 224.269 32.08C223.973 31.768 223.549 31.612 222.997 31.612C222.373 31.612 221.881 31.796 221.521 32.164C221.161 32.524 220.981 33.044 220.981 33.724V37H219.829V30.64H220.933V31.6C221.165 31.272 221.477 31.02 221.869 30.844C222.269 30.668 222.721 30.58 223.225 30.58ZM234.796 36.628C234.628 36.772 234.42 36.884 234.172 36.964C233.924 37.036 233.668 37.072 233.404 37.072C232.764 37.072 232.268 36.9 231.916 36.556C231.564 36.212 231.388 35.72 231.388 35.08V31.588H230.308V30.64H231.388V29.248H232.54V30.64H234.364V31.588H232.54V35.032C232.54 35.376 232.624 35.64 232.792 35.824C232.968 36.008 233.216 36.1 233.536 36.1C233.888 36.1 234.188 36 234.436 35.8L234.796 36.628ZM239.584 30.58C240.392 30.58 241.032 30.816 241.504 31.288C241.984 31.752 242.224 32.436 242.224 33.34V37H241.072V33.472C241.072 32.856 240.924 32.392 240.628 32.08C240.332 31.768 239.908 31.612 239.356 31.612C238.732 31.612 238.24 31.796 237.88 32.164C237.52 32.524 237.34 33.044 237.34 33.724V37H236.188V28.096H237.34V31.54C237.58 31.236 237.892 31 238.276 30.832C238.668 30.664 239.104 30.58 239.584 30.58ZM244.356 30.64H245.508V37H244.356V30.64ZM244.932 29.416C244.708 29.416 244.52 29.344 244.368 29.2C244.224 29.056 244.152 28.88 244.152 28.672C244.152 28.464 244.224 28.288 244.368 28.144C244.52 27.992 244.708 27.916 244.932 27.916C245.156 27.916 245.34 27.988 245.484 28.132C245.636 28.268 245.712 28.44 245.712 28.648C245.712 28.864 245.636 29.048 245.484 29.2C245.34 29.344 245.156 29.416 244.932 29.416ZM249.532 37.072C249.012 37.072 248.512 37.004 248.032 36.868C247.552 36.724 247.176 36.544 246.904 36.328L247.384 35.416C247.664 35.616 248.004 35.776 248.404 35.896C248.804 36.016 249.208 36.076 249.616 36.076C250.624 36.076 251.128 35.788 251.128 35.212C251.128 35.02 251.06 34.868 250.924 34.756C250.788 34.644 250.616 34.564 250.408 34.516C250.208 34.46 249.92 34.4 249.544 34.336C249.032 34.256 248.612 34.164 248.284 34.06C247.964 33.956 247.688 33.78 247.456 33.532C247.224 33.284 247.108 32.936 247.108 32.488C247.108 31.912 247.348 31.452 247.828 31.108C248.308 30.756 248.952 30.58 249.76 30.58C250.184 30.58 250.608 30.632 251.032 30.736C251.456 30.84 251.804 30.98 252.076 31.156L251.584 32.068C251.064 31.732 250.452 31.564 249.748 31.564C249.26 31.564 248.888 31.644 248.632 31.804C248.376 31.964 248.248 32.176 248.248 32.44C248.248 32.648 248.32 32.812 248.464 32.932C248.608 33.052 248.784 33.14 248.992 33.196C249.208 33.252 249.508 33.316 249.892 33.388C250.404 33.476 250.816 33.572 251.128 33.676C251.448 33.772 251.72 33.94 251.944 34.18C252.168 34.42 252.28 34.756 252.28 35.188C252.28 35.764 252.032 36.224 251.536 36.568C251.048 36.904 250.38 37.072 249.532 37.072ZM264.898 30.58C265.698 30.58 266.33 30.812 266.794 31.276C267.266 31.74 267.502 32.428 267.502 33.34V37H266.35V33.472C266.35 32.856 266.206 32.392 265.918 32.08C265.638 31.768 265.234 31.612 264.706 31.612C264.122 31.612 263.658 31.796 263.314 32.164C262.97 32.524 262.798 33.044 262.798 33.724V37H261.646V33.472C261.646 32.856 261.502 32.392 261.214 32.08C260.934 31.768 260.53 31.612 260.002 31.612C259.418 31.612 258.954 31.796 258.61 32.164C258.266 32.524 258.094 33.044 258.094 33.724V37H256.942V30.64H258.046V31.588C258.278 31.26 258.582 31.012 258.958 30.844C259.334 30.668 259.762 30.58 260.242 30.58C260.738 30.58 261.178 30.68 261.562 30.88C261.946 31.08 262.242 31.372 262.45 31.756C262.69 31.388 263.022 31.1 263.446 30.892C263.878 30.684 264.362 30.58 264.898 30.58ZM272.381 37.072C271.749 37.072 271.181 36.932 270.677 36.652C270.173 36.372 269.777 35.988 269.489 35.5C269.209 35.004 269.069 34.444 269.069 33.82C269.069 33.196 269.209 32.64 269.489 32.152C269.777 31.656 270.173 31.272 270.677 31C271.181 30.72 271.749 30.58 272.381 30.58C273.013 30.58 273.577 30.72 274.073 31C274.577 31.272 274.969 31.656 275.249 32.152C275.537 32.64 275.681 33.196 275.681 33.82C275.681 34.444 275.537 35.004 275.249 35.5C274.969 35.988 274.577 36.372 274.073 36.652C273.577 36.932 273.013 37.072 272.381 37.072ZM272.381 36.064C272.789 36.064 273.153 35.972 273.473 35.788C273.801 35.596 274.057 35.332 274.241 34.996C274.425 34.652 274.517 34.26 274.517 33.82C274.517 33.38 274.425 32.992 274.241 32.656C274.057 32.312 273.801 32.048 273.473 31.864C273.153 31.68 272.789 31.588 272.381 31.588C271.973 31.588 271.605 31.68 271.277 31.864C270.957 32.048 270.701 32.312 270.509 32.656C270.325 32.992 270.233 33.38 270.233 33.82C270.233 34.26 270.325 34.652 270.509 34.996C270.701 35.332 270.957 35.596 271.277 35.788C271.605 35.972 271.973 36.064 272.381 36.064ZM280.67 30.58C281.478 30.58 282.118 30.816 282.59 31.288C283.07 31.752 283.31 32.436 283.31 33.34V37H282.158V33.472C282.158 32.856 282.01 32.392 281.714 32.08C281.418 31.768 280.994 31.612 280.442 31.612C279.818 31.612 279.326 31.796 278.966 32.164C278.606 32.524 278.426 33.044 278.426 33.724V37H277.274V30.64H278.378V31.6C278.61 31.272 278.922 31.02 279.314 30.844C279.714 30.668 280.166 30.58 280.67 30.58ZM289.018 36.628C288.85 36.772 288.642 36.884 288.394 36.964C288.146 37.036 287.89 37.072 287.626 37.072C286.986 37.072 286.49 36.9 286.138 36.556C285.786 36.212 285.61 35.72 285.61 35.08V31.588H284.53V30.64H285.61V29.248H286.762V30.64H288.586V31.588H286.762V35.032C286.762 35.376 286.846 35.64 287.014 35.824C287.19 36.008 287.438 36.1 287.758 36.1C288.11 36.1 288.41 36 288.658 35.8L289.018 36.628ZM293.807 30.58C294.615 30.58 295.255 30.816 295.727 31.288C296.207 31.752 296.447 32.436 296.447 33.34V37H295.295V33.472C295.295 32.856 295.147 32.392 294.851 32.08C294.555 31.768 294.131 31.612 293.579 31.612C292.955 31.612 292.463 31.796 292.103 32.164C291.743 32.524 291.563 33.044 291.563 33.724V37H290.411V28.096H291.563V31.54C291.803 31.236 292.115 31 292.499 30.832C292.891 30.664 293.327 30.58 293.807 30.58Z" fill="#81859C"/>
<path d="M49.1884 34.096V37H48.0004V34.072L44.6644 28.6H45.9484L48.6364 33.028L51.3364 28.6H52.5244L49.1884 34.096ZM58.6071 33.856C58.6071 33.944 58.5991 34.06 58.5831 34.204H53.4231C53.4951 34.764 53.7391 35.216 54.1551 35.56C54.5791 35.896 55.1031 36.064 55.7271 36.064C56.4871 36.064 57.0991 35.808 57.5631 35.296L58.1991 36.04C57.9111 36.376 57.5511 36.632 57.1191 36.808C56.6951 36.984 56.2191 37.072 55.6911 37.072C55.0191 37.072 54.4231 36.936 53.9031 36.664C53.3831 36.384 52.9791 35.996 52.6911 35.5C52.4111 35.004 52.2711 34.444 52.2711 33.82C52.2711 33.204 52.4071 32.648 52.6791 32.152C52.9591 31.656 53.3391 31.272 53.8191 31C54.3071 30.72 54.8551 30.58 55.4631 30.58C56.0711 30.58 56.6111 30.72 57.0831 31C57.5631 31.272 57.9351 31.656 58.1991 32.152C58.4711 32.648 58.6071 33.216 58.6071 33.856ZM55.4631 31.552C54.9111 31.552 54.4471 31.72 54.0711 32.056C53.7031 32.392 53.4871 32.832 53.4231 33.376H57.5031C57.4391 32.84 57.2191 32.404 56.8431 32.068C56.4751 31.724 56.0151 31.552 55.4631 31.552ZM62.347 30.58C63.227 30.58 63.899 30.796 64.363 31.228C64.835 31.66 65.071 32.304 65.071 33.16V37H63.979V36.16C63.787 36.456 63.511 36.684 63.151 36.844C62.799 36.996 62.379 37.072 61.891 37.072C61.179 37.072 60.607 36.9 60.175 36.556C59.751 36.212 59.539 35.76 59.539 35.2C59.539 34.64 59.743 34.192 60.151 33.856C60.559 33.512 61.207 33.34 62.095 33.34H63.919V33.112C63.919 32.616 63.775 32.236 63.487 31.972C63.199 31.708 62.775 31.576 62.215 31.576C61.839 31.576 61.471 31.64 61.111 31.768C60.751 31.888 60.447 32.052 60.199 32.26L59.719 31.396C60.047 31.132 60.439 30.932 60.895 30.796C61.351 30.652 61.835 30.58 62.347 30.58ZM62.083 36.184C62.523 36.184 62.903 36.088 63.223 35.896C63.543 35.696 63.775 35.416 63.919 35.056V34.168H62.143C61.167 34.168 60.679 34.496 60.679 35.152C60.679 35.472 60.803 35.724 61.051 35.908C61.299 36.092 61.643 36.184 62.083 36.184ZM68.3068 31.708C68.5068 31.34 68.8028 31.06 69.1948 30.868C69.5868 30.676 70.0628 30.58 70.6228 30.58V31.696C70.5588 31.688 70.4708 31.684 70.3588 31.684C69.7348 31.684 69.2428 31.872 68.8828 32.248C68.5308 32.616 68.3548 33.144 68.3548 33.832V37H67.2028V30.64H68.3068V31.708ZM78.9234 36.628C78.7554 36.772 78.5474 36.884 78.2994 36.964C78.0514 37.036 77.7954 37.072 77.5314 37.072C76.8914 37.072 76.3954 36.9 76.0434 36.556C75.6914 36.212 75.5154 35.72 75.5154 35.08V31.588H74.4354V30.64H75.5154V29.248H76.6674V30.64H78.4914V31.588H76.6674V35.032C76.6674 35.376 76.7514 35.64 76.9194 35.824C77.0954 36.008 77.3434 36.1 77.6634 36.1C78.0154 36.1 78.3154 36 78.5634 35.8L78.9234 36.628ZM82.8292 37.072C82.1972 37.072 81.6292 36.932 81.1252 36.652C80.6212 36.372 80.2252 35.988 79.9372 35.5C79.6572 35.004 79.5172 34.444 79.5172 33.82C79.5172 33.196 79.6572 32.64 79.9372 32.152C80.2252 31.656 80.6212 31.272 81.1252 31C81.6292 30.72 82.1972 30.58 82.8292 30.58C83.4612 30.58 84.0252 30.72 84.5212 31C85.0252 31.272 85.4172 31.656 85.6972 32.152C85.9852 32.64 86.1292 33.196 86.1292 33.82C86.1292 34.444 85.9852 35.004 85.6972 35.5C85.4172 35.988 85.0252 36.372 84.5212 36.652C84.0252 36.932 83.4612 37.072 82.8292 37.072ZM82.8292 36.064C83.2372 36.064 83.6012 35.972 83.9212 35.788C84.2492 35.596 84.5052 35.332 84.6892 34.996C84.8732 34.652 84.9652 34.26 84.9652 33.82C84.9652 33.38 84.8732 32.992 84.6892 32.656C84.5052 32.312 84.2492 32.048 83.9212 31.864C83.6012 31.68 83.2372 31.588 82.8292 31.588C82.4212 31.588 82.0532 31.68 81.7252 31.864C81.4052 32.048 81.1492 32.312 80.9572 32.656C80.7732 32.992 80.6812 33.38 80.6812 33.82C80.6812 34.26 80.7732 34.652 80.9572 34.996C81.1492 35.332 81.4052 35.596 81.7252 35.788C82.0532 35.972 82.4212 36.064 82.8292 36.064ZM96.945 28.096V37H95.841V35.992C95.585 36.344 95.261 36.612 94.869 36.796C94.477 36.98 94.045 37.072 93.573 37.072C92.957 37.072 92.405 36.936 91.917 36.664C91.429 36.392 91.045 36.012 90.765 35.524C90.493 35.028 90.357 34.46 90.357 33.82C90.357 33.18 90.493 32.616 90.765 32.128C91.045 31.64 91.429 31.26 91.917 30.988C92.405 30.716 92.957 30.58 93.573 30.58C94.029 30.58 94.449 30.668 94.833 30.844C95.217 31.012 95.537 31.264 95.793 31.6V28.096H96.945ZM93.669 36.064C94.069 36.064 94.433 35.972 94.761 35.788C95.089 35.596 95.345 35.332 95.529 34.996C95.713 34.652 95.805 34.26 95.805 33.82C95.805 33.38 95.713 32.992 95.529 32.656C95.345 32.312 95.089 32.048 94.761 31.864C94.433 31.68 94.069 31.588 93.669 31.588C93.261 31.588 92.893 31.68 92.565 31.864C92.245 32.048 91.989 32.312 91.797 32.656C91.613 32.992 91.521 33.38 91.521 33.82C91.521 34.26 91.613 34.652 91.797 34.996C91.989 35.332 92.245 35.596 92.565 35.788C92.893 35.972 93.261 36.064 93.669 36.064ZM101.441 30.58C102.321 30.58 102.993 30.796 103.457 31.228C103.929 31.66 104.165 32.304 104.165 33.16V37H103.073V36.16C102.881 36.456 102.605 36.684 102.245 36.844C101.893 36.996 101.473 37.072 100.985 37.072C100.273 37.072 99.7007 36.9 99.2687 36.556C98.8447 36.212 98.6327 35.76 98.6327 35.2C98.6327 34.64 98.8367 34.192 99.2447 33.856C99.6527 33.512 100.301 33.34 101.189 33.34H103.013V33.112C103.013 32.616 102.869 32.236 102.581 31.972C102.293 31.708 101.869 31.576 101.309 31.576C100.933 31.576 100.565 31.64 100.205 31.768C99.8447 31.888 99.5407 32.052 99.2927 32.26L98.8127 31.396C99.1407 31.132 99.5327 30.932 99.9887 30.796C100.445 30.652 100.929 30.58 101.441 30.58ZM101.177 36.184C101.617 36.184 101.997 36.088 102.317 35.896C102.637 35.696 102.869 35.416 103.013 35.056V34.168H101.237C100.261 34.168 99.7727 34.496 99.7727 35.152C99.7727 35.472 99.8967 35.724 100.145 35.908C100.393 36.092 100.737 36.184 101.177 36.184ZM111.807 30.64L108.723 37.636C108.451 38.284 108.131 38.74 107.763 39.004C107.403 39.268 106.967 39.4 106.455 39.4C106.143 39.4 105.839 39.348 105.543 39.244C105.255 39.148 105.015 39.004 104.823 38.812L105.315 37.948C105.643 38.26 106.023 38.416 106.455 38.416C106.735 38.416 106.967 38.34 107.151 38.188C107.343 38.044 107.515 37.792 107.667 37.432L107.871 36.988L105.063 30.64H106.263L108.483 35.728L110.679 30.64H111.807Z" fill="#81859C"/>
<defs>
<filter id="filter0_d" x="0" y="0" width="475.872" height="134" filterUnits="userSpaceOnUse" color-interpolation-filters="sRGB">
<feFlood flood-opacity="0" result="BackgroundImageFix"/>
<feColorMatrix in="SourceAlpha" type="matrix" values="0 0 0 0 0 0 0 0 0 0 0 0 0 0 0 0 0 0 127 0" result="hardAlpha"/>
<feOffset dx="-4" dy="4"/>
<feGaussianBlur stdDeviation="10"/>
<feColorMatrix type="matrix" values="0 0 0 0 0.0627451 0 0 0 0 0.384314 0 0 0 0 0.666667 0 0 0 0.2 0"/>
<feBlend mode="normal" in2="BackgroundImageFix" result="effect1_dropShadow"/>
<feBlend mode="normal" in="SourceGraphic" in2="effect1_dropShadow" result="shape"/>
</filter>
<filter id="filter1_d" x="68.1363" y="111" width="471.864" height="134" filterUnits="userSpaceOnUse" color-interpolation-filters="sRGB">
<feFlood flood-opacity="0" result="BackgroundImageFix"/>
<feColorMatrix in="SourceAlpha" type="matrix" values="0 0 0 0 0 0 0 0 0 0 0 0 0 0 0 0 0 0 127 0" result="hardAlpha"/>
<feOffset dx="-4" dy="4"/>
<feGaussianBlur stdDeviation="10"/>
<feColorMatrix type="matrix" values="0 0 0 0 0.0627451 0 0 0 0 0.384314 0 0 0 0 0.666667 0 0 0 0.2 0"/>
<feBlend mode="normal" in2="BackgroundImageFix" result="effect1_dropShadow"/>
<feBlend mode="normal" in="SourceGraphic" in2="effect1_dropShadow" result="shape"/>
</filter>
</defs>
</svg>
