<svg width="212" height="212" viewBox="0 0 212 212" fill="none" xmlns="http://www.w3.org/2000/svg">
<path d="M105.9 211.8C164.387 211.8 211.8 164.387 211.8 105.9C211.8 47.413 164.387 0 105.9 0C47.413 0 0 47.413 0 105.9C0 164.387 47.413 211.8 105.9 211.8Z" fill="white"/>
<path d="M200.13 22.08H166.88C164.198 22.0879 161.629 23.1567 159.733 25.0528C157.837 26.949 156.768 29.5185 156.76 32.2V46.2C156.765 48.8824 157.833 51.4534 159.73 53.3501C161.627 55.2468 164.198 56.3147 166.88 56.32V63L174.77 56.32H200.13C202.811 56.3121 205.379 55.243 207.274 53.3466C209.168 51.4501 210.235 48.8807 210.24 46.2V32.2C210.232 29.5202 209.165 26.9522 207.271 25.0564C205.377 23.1605 202.81 22.0906 200.13 22.08Z" fill="#EBF0FF"/>
<path d="M187.207 46H185.228V39.0991H177.702V46H175.733V31.0703H177.702V37.4893H185.228V31.0703H187.207V46ZM192.467 46H190.57V34.9053H192.467V46ZM190.417 31.9624C190.417 31.6548 190.509 31.395 190.693 31.1831C190.885 30.9712 191.165 30.8652 191.534 30.8652C191.903 30.8652 192.184 30.9712 192.375 31.1831C192.566 31.395 192.662 31.6548 192.662 31.9624C192.662 32.27 192.566 32.5264 192.375 32.7314C192.184 32.9365 191.903 33.0391 191.534 33.0391C191.165 33.0391 190.885 32.9365 190.693 32.7314C190.509 32.5264 190.417 32.27 190.417 31.9624Z" fill="#333333"/>
<path d="M184.62 100.08V86.66" stroke="#F7DECE" stroke-width="3" stroke-linecap="round" stroke-linejoin="round"/>
<path d="M188.54 100.08V86.66" stroke="#F7DECE" stroke-width="3" stroke-linecap="round" stroke-linejoin="round"/>
<path d="M192.46 100.08V86.66" stroke="#F7DECE" stroke-width="3" stroke-linecap="round" stroke-linejoin="round"/>
<path d="M196.38 100.08V86.66" stroke="#F7DECE" stroke-width="3" stroke-linecap="round" stroke-linejoin="round"/>
<path d="M198.01 95.2H183V109.47H198.01V95.2Z" fill="#F7DECE"/>
<path d="M190.5 105.84C190.5 126.774 182.185 146.852 167.383 161.655C152.581 176.459 132.504 184.777 111.57 184.78" stroke="#1A59A3" stroke-width="15" stroke-miterlimit="10"/>
<path d="M148.39 189.52V179.25C148.374 174.216 146.367 169.392 142.808 165.832C139.248 162.273 134.424 160.266 129.39 160.25H82.29C77.2841 160.263 72.487 162.258 68.9473 165.797C65.4076 169.337 63.4132 174.134 63.4 179.14V189.52C63.4027 190.671 63.5711 191.817 63.9 192.92C77.1749 198.596 91.4625 201.522 105.9 201.522C120.337 201.522 134.625 198.596 147.9 192.92C148.226 191.816 148.391 190.671 148.39 189.52Z" fill="#1A59A3"/>
<path d="M106.81 143.32H104.97C101.115 143.32 97.99 146.445 97.99 150.3V162.45C97.99 166.305 101.115 169.43 104.97 169.43H106.81C110.665 169.43 113.79 166.305 113.79 162.45V150.3C113.79 146.445 110.665 143.32 106.81 143.32Z" fill="#F7DECE"/>
<path d="M106.81 130.27H104.97C101.115 130.27 97.99 133.395 97.99 137.25V149.4C97.99 153.255 101.115 156.38 104.97 156.38H106.81C110.665 156.38 113.79 153.255 113.79 149.4V137.25C113.79 133.395 110.665 130.27 106.81 130.27Z" fill="#DDBDAB"/>
<path d="M63.4 152.05V148.05C63.4317 136.788 67.9195 125.996 75.8829 118.033C83.8464 110.069 94.638 105.582 105.9 105.55C117.16 105.584 127.949 110.073 135.911 118.036C143.872 126 148.358 136.79 148.39 148.05V152.05C148.39 152.05 137.11 144.39 105.9 144.39C74.69 144.39 63.4 152.05 63.4 152.05Z" fill="#333333"/>
<path d="M142.75 75.84V109.1C142.75 137.89 114.15 152.1 105.9 152.1C93.77 152.05 69 131 69 109.1V75.84C69 69.24 74 63.84 80.11 63.84H131.6C137.75 63.84 142.75 69.24 142.75 75.84Z" fill="#F7DECE"/>
<path d="M148.39 85.04V89.04H63.39V85.04C63.39 79.4593 64.4894 73.9332 66.6253 68.7775C68.7613 63.6217 71.892 58.9372 75.8386 54.9915C79.7852 51.0458 84.4704 47.9162 89.6267 45.7815C94.783 43.6467 100.309 42.5487 105.89 42.55C111.471 42.5487 116.997 43.6467 122.153 45.7815C127.31 47.9162 131.995 51.0458 135.941 54.9915C139.888 58.9372 143.019 63.6217 145.155 68.7775C147.291 73.9332 148.39 79.4593 148.39 85.04Z" fill="#333333"/>
<path d="M74.68 89.02H63.4V152.05H74.68V89.02Z" fill="#333333"/>
<path d="M148.39 89.02H137.11V152.05H148.39V89.02Z" fill="#333333"/>
<path d="M111.57 130C111.602 130.765 111.479 131.529 111.208 132.246C110.938 132.962 110.525 133.617 109.995 134.169C109.465 134.722 108.828 135.162 108.124 135.463C107.419 135.763 106.661 135.918 105.895 135.918C105.129 135.918 104.371 135.763 103.666 135.463C102.962 135.162 102.325 134.722 101.795 134.169C101.265 133.617 100.852 132.962 100.582 132.246C100.311 131.529 100.188 130.765 100.22 130" fill="#EB001B"/>
<path d="M81.38 111.8C81.4609 109.776 82.3244 107.862 83.7884 106.461C85.2525 105.061 87.2028 104.283 89.2288 104.292C91.2547 104.302 93.1981 105.097 94.6495 106.51C96.101 107.923 96.9472 109.845 97.01 111.87" stroke="#333333" stroke-linecap="round" stroke-linejoin="round"/>
<path d="M113.8 111.8C113.809 109.729 114.641 107.746 116.112 106.288C116.841 105.566 117.704 104.994 118.654 104.606C119.603 104.218 120.619 104.02 121.645 104.025C122.671 104.03 123.685 104.236 124.631 104.633C125.577 105.03 126.435 105.609 127.157 106.337C127.879 107.066 128.451 107.929 128.839 108.879C129.227 109.828 129.425 110.844 129.42 111.87" stroke="#333333" stroke-linecap="round" stroke-linejoin="round"/>
</svg>
