<svg width="1280" height="386" viewBox="0 0 1280 386" fill="none" xmlns="http://www.w3.org/2000/svg">
<path d="M332.032 360.807H234.761C163.135 360.807 104.84 302.512 104.84 230.886V166.152C104.84 113.167 61.797 70.1235 8.812 70.1235H0V36.2312H8.812C80.4378 36.2312 138.733 94.526 138.733 166.152V230.886C138.733 283.871 181.776 326.914 234.761 326.914H332.032V360.807Z" fill="#1A59A3"/>
<path d="M401.963 384.983H368.861C346.267 384.983 327.739 366.455 327.739 343.861C327.739 321.266 346.267 302.738 368.861 302.738H401.963C409.419 302.738 415.52 308.839 415.52 316.295V371.313C415.52 378.883 409.419 384.983 401.963 384.983Z" fill="#F7DECE"/>
<path d="M363.891 324.655C357.677 324.655 352.593 319.571 352.593 313.358V272.687C352.593 266.473 357.677 261.389 363.891 261.389C370.104 261.389 375.188 266.473 375.188 272.687V313.358C375.188 319.571 370.104 324.655 363.891 324.655Z" fill="#F7DECE"/>
<path d="M441.73 325.559H401.059C394.846 325.559 389.762 320.475 389.762 314.261C389.762 308.048 394.846 302.964 401.059 302.964H441.73C447.944 302.964 453.027 308.048 453.027 314.261C453.027 320.475 448.057 325.559 441.73 325.559Z" fill="#F7DECE"/>
<path d="M415.52 342.279H374.849C368.635 342.279 363.552 337.195 363.552 330.981C363.552 324.768 368.635 319.684 374.849 319.684H415.52C421.733 319.684 426.817 324.768 426.817 330.981C426.817 337.195 421.733 342.279 415.52 342.279Z" fill="#F7DECE"/>
<path d="M415.52 363.744H374.849C368.635 363.744 363.552 358.66 363.552 352.447C363.552 346.233 368.635 341.149 374.849 341.149H415.52C421.733 341.149 426.817 346.233 426.817 352.447C426.817 358.66 421.733 363.744 415.52 363.744Z" fill="#F7DECE"/>
<path d="M415.52 385.322H374.849C368.635 385.322 363.552 380.238 363.552 374.025C363.552 367.811 368.635 362.727 374.849 362.727H415.52C421.733 362.727 426.817 367.811 426.817 374.025C426.817 380.238 421.733 385.322 415.52 385.322Z" fill="#F7DECE"/>
<path d="M176.127 27.9841C176.127 27.9841 173.98 21.3186 172.512 19.85C170.817 18.1553 163.474 15.331 163.474 15.331C163.474 15.331 170.252 12.3937 171.721 10.812C173.416 9.1174 176.127 2.67786 176.127 2.67786C176.127 2.67786 179.177 9.79524 180.646 11.2639C182.341 12.9585 188.78 15.331 188.78 15.331C188.78 15.331 181.889 18.3813 180.307 19.9629C178.725 21.5446 176.127 27.9841 176.127 27.9841Z" fill="white"/>
<path d="M176.127 28.549C175.901 28.549 175.675 28.436 175.562 28.2101C174.997 26.4025 173.19 21.4316 172.06 20.3019C170.817 19.0591 165.281 16.6867 163.248 15.8959C163.022 15.7829 162.909 15.5569 162.909 15.331C162.909 15.105 163.022 14.8791 163.248 14.7661C165.056 13.9753 170.139 11.6028 171.382 10.3601C172.625 9.11739 174.884 4.14651 175.675 2.33892C175.788 2.11297 176.014 2 176.24 2C176.466 2 176.692 2.11297 176.805 2.33892C177.596 4.25949 180.081 9.56928 181.211 10.812C182.454 12.0547 187.311 14.0883 189.119 14.7661C189.345 14.8791 189.458 14.9921 189.458 15.331C189.458 15.5569 189.345 15.7829 189.119 15.8959C187.198 16.6867 182.002 19.1721 180.872 20.4148C179.629 21.6575 177.483 26.5154 176.805 28.2101C176.579 28.436 176.353 28.549 176.127 28.549ZM164.943 15.331C167.089 16.2348 171.608 18.1553 172.964 19.511C174.093 20.6408 175.562 24.3689 176.24 26.5154C177.144 24.4819 178.725 20.8667 179.968 19.737C181.211 18.4943 185.278 16.5737 187.311 15.5569C185.278 14.7661 181.55 13.1845 180.307 11.8288C179.064 10.5861 177.144 6.29303 176.127 4.25949C175.223 6.29303 173.416 10.1342 172.173 11.3769C170.93 12.3936 166.976 14.3142 164.943 15.331Z" fill="#333333"/>
<path d="M150.708 35.4406C150.708 35.4406 149.465 31.4865 148.561 30.5827C147.545 29.5659 143.252 27.8713 143.252 27.8713C143.252 27.8713 147.206 26.0637 148.109 25.1599C149.126 24.1431 150.708 20.302 150.708 20.302C150.708 20.302 152.515 24.4821 153.419 25.3858C154.436 26.4026 158.164 27.7583 158.164 27.7583C158.164 27.7583 154.097 29.5659 153.193 30.4697C152.289 31.7124 150.708 35.4406 150.708 35.4406Z" fill="white"/>
<path d="M150.708 36.0053C150.482 36.0053 150.256 35.8923 150.143 35.6663C149.691 34.1977 148.674 31.7122 148.109 31.0344C147.432 30.3565 144.607 29.1138 143.026 28.5489C142.8 28.436 142.687 28.21 142.687 27.9841C142.687 27.7581 142.8 27.5322 143.026 27.4192C144.607 26.7414 147.093 25.4986 147.77 24.9338C148.448 24.2559 149.804 21.3186 150.256 20.3018C150.369 20.0759 150.595 19.9629 150.821 19.9629C151.047 19.9629 151.273 20.0759 151.386 20.3018C152.064 21.8835 153.419 24.5948 153.984 25.1597C154.662 25.8376 157.486 27.0803 158.503 27.4192C158.729 27.5322 158.842 27.6451 158.842 27.9841C158.842 28.21 158.729 28.436 158.503 28.5489C157.373 29.0008 154.323 30.4695 153.645 31.1474C152.967 31.8252 151.725 34.6496 151.273 35.6663C151.16 35.8923 150.934 36.0053 150.708 36.0053ZM144.72 27.9841C146.076 28.5489 148.335 29.5657 149.013 30.2436C149.578 30.8084 150.369 32.616 150.821 33.8587C151.386 32.616 152.176 30.9214 152.854 30.2436C153.532 29.5657 155.453 28.5489 156.808 27.9841C155.566 27.4192 153.758 26.6284 153.08 25.9505C152.402 25.2727 151.386 23.2391 150.821 21.8835C150.256 23.1262 149.352 25.0467 148.674 25.7246C147.883 26.4024 145.963 27.3062 144.72 27.9841Z" fill="#333333"/>
<path d="M65.0733 142.879H42.8173C39.0892 142.879 36.0389 145.929 36.0389 149.658V159.034C36.0389 162.763 39.0892 165.813 42.8173 165.813V170.219L48.1271 165.813H65.0733C68.8015 165.813 71.8518 162.763 71.8518 159.034V149.658C71.8518 145.929 68.8015 142.879 65.0733 142.879Z" fill="#EBF0FF"/>
<path d="M45.7547 155.984C46.5658 155.984 47.2233 155.327 47.2233 154.515C47.2233 153.704 46.5658 153.047 45.7547 153.047C44.9436 153.047 44.286 153.704 44.286 154.515C44.286 155.327 44.9436 155.984 45.7547 155.984Z" fill="white"/>
<path d="M54.0017 155.984C54.8129 155.984 55.4704 155.327 55.4704 154.515C55.4704 153.704 54.8129 153.047 54.0017 153.047C53.1906 153.047 52.5331 153.704 52.5331 154.515C52.5331 155.327 53.1906 155.984 54.0017 155.984Z" fill="white"/>
<path d="M62.2489 155.984C63.0601 155.984 63.7176 155.327 63.7176 154.515C63.7176 153.704 63.0601 153.047 62.2489 153.047C61.4378 153.047 60.7803 153.704 60.7803 154.515C60.7803 155.327 61.4378 155.984 62.2489 155.984Z" fill="white"/>
<path d="M220.816 252.633C229.552 252.633 236.633 245.552 236.633 236.816C236.633 228.081 229.552 221 220.816 221C212.081 221 205 228.081 205 236.816C205 245.552 212.081 252.633 220.816 252.633Z" fill="#FFE735"/>
<path d="M224.77 242.917C223.98 243.595 222.85 244.047 221.268 244.16V246.419H220.252V244.16C219.235 244.16 218.331 243.934 217.54 243.595C216.636 243.256 215.958 242.804 215.507 242.352L216.071 241.222C216.523 241.674 217.201 242.013 217.879 242.352C218.67 242.691 219.461 242.804 220.252 242.917V237.607C219.348 237.381 218.557 237.155 217.992 236.929C217.427 236.703 216.862 236.252 216.41 235.8C215.958 235.348 215.846 234.67 215.846 233.766C215.846 232.749 216.184 231.846 216.975 231.168C217.766 230.49 218.783 230.038 220.364 229.925V227.666H221.381V229.925C222.172 229.925 222.85 230.038 223.641 230.264C224.319 230.49 224.996 230.829 225.448 231.168L224.996 232.297C224.432 231.959 223.867 231.62 223.302 231.507C222.737 231.281 222.059 231.168 221.494 231.168V236.478C222.511 236.703 223.302 236.929 223.98 237.155C224.658 237.381 225.109 237.833 225.561 238.285C226.013 238.85 226.239 239.415 226.239 240.319C226.013 241.335 225.561 242.126 224.77 242.917ZM218.105 235.235C218.67 235.574 219.348 235.913 220.364 236.139V231.168C219.348 231.281 218.67 231.507 218.105 231.959C217.54 232.41 217.314 232.975 217.314 233.653C217.314 234.331 217.653 234.783 218.105 235.235ZM223.754 242.013C224.319 241.561 224.545 240.997 224.545 240.319C224.545 239.641 224.319 239.076 223.754 238.737C223.189 238.398 222.398 238.059 221.381 237.833V242.804C222.398 242.691 223.189 242.465 223.754 242.013Z" fill="#333333"/>
<path d="M441.843 321.492H436.759C435.855 321.492 435.064 320.701 435.064 319.797V308.726C435.064 307.822 435.855 307.031 436.759 307.031H441.504C445.571 307.031 448.847 310.194 448.96 314.035C449.073 315.956 448.282 317.877 446.927 319.345C445.571 320.701 443.763 321.492 441.843 321.492ZM436.759 308.161C436.42 308.161 436.194 308.387 436.194 308.726V319.797C436.194 320.136 436.42 320.362 436.759 320.362H441.843C443.537 320.362 445.006 319.684 446.249 318.554C447.379 317.312 448.056 315.843 447.943 314.148C447.83 310.872 445.006 308.274 441.617 308.274H436.759V308.161Z" fill="white"/>
<path d="M369.426 278.787H358.355C357.451 278.787 356.66 277.996 356.66 277.093V272.348C356.66 268.281 359.823 265.004 363.665 264.891C365.698 264.778 367.506 265.569 368.861 266.925C370.217 268.281 371.008 270.088 371.008 272.122V277.206C371.121 277.996 370.33 278.787 369.426 278.787ZM363.891 265.908C363.778 265.908 363.778 265.908 363.665 265.908C360.388 266.021 357.79 268.846 357.79 272.235V276.98C357.79 277.319 358.016 277.545 358.355 277.545H369.426C369.765 277.545 369.991 277.319 369.991 276.98V271.896C369.991 270.201 369.313 268.733 368.184 267.49C366.941 266.473 365.472 265.908 363.891 265.908Z" fill="white"/>
<path d="M1045.24 360.807H947.968V326.914H1045.24C1098.22 326.914 1141.27 283.871 1141.27 230.886V129.209C1141.27 117.912 1132.12 108.761 1120.82 108.761C1109.52 108.761 1100.37 117.912 1100.37 129.209C1100.37 140.507 1109.52 149.658 1120.82 149.658V183.55C1090.88 183.55 1066.48 159.147 1066.48 129.209C1066.48 99.271 1090.88 74.8685 1120.82 74.8685C1150.76 74.8685 1175.16 99.271 1175.16 129.209V230.886C1175.16 302.625 1116.86 360.807 1045.24 360.807Z" fill="#6FC6AD"/>
<path d="M1120.71 183.663V149.77C1143.75 149.77 1162.51 131.017 1162.51 107.97H1196.4C1196.4 149.657 1162.51 183.663 1120.71 183.663Z" fill="#6FC6AD"/>
<path d="M1196.4 107.97H1162.51C1162.51 68.4289 1194.7 36.2312 1234.25 36.2312H1280V70.1235H1234.25C1213.35 70.1235 1196.4 87.0697 1196.4 107.97Z" fill="#6FC6AD"/>
<path d="M1051.89 254H1074.03C1077.76 254 1080.81 257.05 1080.81 260.778V270.155C1080.81 273.883 1077.76 276.934 1074.03 276.934V281.34L1068.72 276.934H1051.78C1048.05 276.934 1045 273.883 1045 270.155V260.778C1045.11 257.05 1048.16 254 1051.89 254Z" fill="#EBF0FF"/>
<path d="M1071.21 267.218C1072.02 267.218 1072.68 266.56 1072.68 265.749C1072.68 264.938 1072.02 264.281 1071.21 264.281C1070.4 264.281 1069.74 264.938 1069.74 265.749C1069.74 266.56 1070.4 267.218 1071.21 267.218Z" fill="white"/>
<path d="M1062.96 267.218C1063.77 267.218 1064.43 266.56 1064.43 265.749C1064.43 264.938 1063.77 264.281 1062.96 264.281C1062.15 264.281 1061.49 264.938 1061.49 265.749C1061.49 266.56 1062.15 267.218 1062.96 267.218Z" fill="white"/>
<path d="M1054.72 267.218C1055.53 267.218 1056.18 266.56 1056.18 265.749C1056.18 264.938 1055.53 264.281 1054.72 264.281C1053.9 264.281 1053.25 264.938 1053.25 265.749C1053.25 266.56 1053.9 267.218 1054.72 267.218Z" fill="white"/>
<path d="M1151.92 9H1129.78C1126.05 9 1123 12.0503 1123 15.7785V25.1553C1123 28.8835 1126.05 31.9338 1129.78 31.9338V36.3398L1135.09 31.9338H1152.03C1155.76 31.9338 1158.81 28.8835 1158.81 25.1553V15.7785C1158.7 12.0503 1155.65 9 1151.92 9Z" fill="#EBF0FF"/>
<path d="M1132.6 22.218C1131.79 22.218 1131.13 21.5604 1131.13 20.7493C1131.13 19.9382 1131.79 19.2806 1132.6 19.2806C1133.41 19.2806 1134.07 19.9382 1134.07 20.7493C1134.07 21.5604 1133.41 22.218 1132.6 22.218Z" fill="white"/>
<path d="M1140.85 22.218C1140.04 22.218 1139.38 21.5604 1139.38 20.7493C1139.38 19.9382 1140.04 19.2806 1140.85 19.2806C1141.66 19.2806 1142.32 19.9382 1142.32 20.7493C1142.32 21.5604 1141.66 22.218 1140.85 22.218Z" fill="white"/>
<path d="M1149.1 22.218C1148.29 22.218 1147.63 21.5604 1147.63 20.7493C1147.63 19.9382 1148.29 19.2806 1149.1 19.2806C1149.91 19.2806 1150.57 19.9382 1150.57 20.7493C1150.57 21.5604 1149.91 22.218 1149.1 22.218Z" fill="white"/>
<path d="M1010.22 214.392C1018.95 214.392 1026.03 207.311 1026.03 198.575C1026.03 189.84 1018.95 182.759 1010.22 182.759C1001.48 182.759 994.401 189.84 994.401 198.575C994.401 207.311 1001.48 214.392 1010.22 214.392Z" fill="#FFE735"/>
<path d="M1014.28 204.563C1013.49 205.241 1012.36 205.693 1010.78 205.806V208.065H1009.77V205.806C1008.75 205.806 1007.84 205.58 1007.05 205.241C1006.15 204.902 1005.47 204.45 1005.02 203.998L1005.59 202.868C1006.04 203.32 1006.71 203.659 1007.39 203.998C1008.18 204.337 1008.97 204.45 1009.77 204.563V199.253C1008.86 199.027 1008.07 198.801 1007.51 198.575C1006.94 198.349 1006.38 197.898 1005.92 197.446C1005.47 196.994 1005.36 196.316 1005.36 195.412C1005.36 194.395 1005.7 193.492 1006.49 192.814C1007.28 192.136 1008.3 191.684 1009.88 191.571V189.312H1010.89V191.571C1011.69 191.571 1012.36 191.684 1013.15 191.91C1013.83 192.136 1014.51 192.475 1014.96 192.814L1014.51 193.943C1013.95 193.605 1013.38 193.266 1012.82 193.153C1012.25 192.927 1011.57 192.814 1011.01 192.814V198.124C1012.02 198.349 1012.82 198.575 1013.49 198.801C1014.17 199.027 1014.62 199.479 1015.07 199.931C1015.53 200.496 1015.75 201.061 1015.75 201.965C1015.41 202.981 1015.07 203.885 1014.28 204.563ZM1007.51 196.881C1008.07 197.22 1008.75 197.559 1009.77 197.785V192.814C1008.75 192.927 1008.07 193.153 1007.51 193.605C1006.94 194.056 1006.71 194.621 1006.71 195.299C1006.71 195.977 1007.05 196.542 1007.51 196.881ZM1013.15 203.772C1013.72 203.32 1013.95 202.755 1013.95 202.078C1013.95 201.4 1013.72 200.835 1013.15 200.496C1012.59 200.157 1011.8 199.818 1010.78 199.592V204.563C1011.8 204.45 1012.59 204.111 1013.15 203.772Z" fill="#333333"/>
<path d="M1213.82 361.633C1222.55 361.633 1229.63 354.552 1229.63 345.816C1229.63 337.081 1222.55 330 1213.82 330C1205.08 330 1198 337.081 1198 345.816C1198 354.552 1205.08 361.633 1213.82 361.633Z" fill="#FFE735"/>
<path d="M1217.88 351.804C1217.09 352.482 1215.96 352.934 1214.38 353.047V355.306H1213.36V353.047C1212.35 353.047 1211.44 352.821 1210.65 352.482C1209.75 352.143 1209.07 351.691 1208.62 351.239L1209.18 350.109C1209.64 350.561 1210.31 350.9 1210.99 351.239C1211.78 351.578 1212.57 351.691 1213.36 351.804V346.494C1212.46 346.268 1211.67 346.042 1211.11 345.816C1210.54 345.59 1209.98 345.139 1209.52 344.687C1209.07 344.235 1208.96 343.557 1208.96 342.653C1208.96 341.636 1209.3 340.733 1210.09 340.055C1210.88 339.377 1211.9 338.925 1213.48 338.812V336.552H1214.49V338.812C1215.29 338.812 1215.96 338.925 1216.75 339.151C1217.43 339.377 1218.11 339.716 1218.56 340.055L1218.11 341.184C1217.54 340.846 1216.98 340.507 1216.41 340.394C1215.85 340.168 1215.17 340.055 1214.61 340.055V345.364C1215.62 345.59 1216.41 345.816 1217.09 346.042C1217.77 346.268 1218.22 346.72 1218.67 347.172C1219.13 347.737 1219.35 348.302 1219.35 349.206C1219.01 350.222 1218.67 351.126 1217.88 351.804ZM1211.11 344.122C1211.67 344.461 1212.35 344.8 1213.36 345.026V340.055C1212.35 340.168 1211.67 340.394 1211.11 340.846C1210.54 341.297 1210.31 341.862 1210.31 342.54C1210.31 343.218 1210.65 343.783 1211.11 344.122ZM1216.75 351.013C1217.32 350.561 1217.54 349.996 1217.54 349.319C1217.54 348.641 1217.32 348.076 1216.75 347.737C1216.19 347.398 1215.4 347.059 1214.38 346.833V351.804C1215.4 351.691 1216.19 351.352 1216.75 351.013Z" fill="#333333"/>
<path d="M878.037 384.983H911.139C933.733 384.983 952.261 366.455 952.261 343.861C952.261 321.266 933.733 302.738 911.139 302.738H878.037C870.581 302.738 864.48 308.839 864.48 316.295V371.313C864.48 378.883 870.581 384.983 878.037 384.983Z" fill="#F3D2A2"/>
<path d="M916.109 324.655C909.896 324.655 904.812 319.571 904.812 313.357V272.687C904.812 266.473 909.896 261.389 916.109 261.389C922.323 261.389 927.407 266.473 927.407 272.687V313.357C927.407 319.571 922.436 324.655 916.109 324.655Z" fill="#F3D2A2"/>
<path d="M878.941 325.559H838.27C832.056 325.559 826.973 320.475 826.973 314.261C826.973 308.048 832.056 302.964 838.27 302.964H878.941C885.154 302.964 890.238 308.048 890.238 314.261C890.238 320.475 885.154 325.559 878.941 325.559Z" fill="#F3D2A2"/>
<path d="M878.941 345.329H838.27C832.056 345.329 826.973 340.245 826.973 334.032C826.973 327.818 832.056 322.734 838.27 322.734H878.941C885.154 322.734 890.238 327.818 890.238 334.032C890.238 340.245 885.154 345.329 878.941 345.329Z" fill="#F3D2A2"/>
<path d="M878.941 365.213H838.27C832.056 365.213 826.973 360.129 826.973 353.915C826.973 347.702 832.056 342.618 838.27 342.618H878.941C885.154 342.618 890.238 347.702 890.238 353.915C890.238 360.129 885.154 365.213 878.941 365.213Z" fill="#F3D2A2"/>
<path d="M878.941 384.983H838.27C832.056 384.983 826.973 379.899 826.973 373.686C826.973 367.472 832.056 362.388 838.27 362.388H878.941C885.154 362.388 890.238 367.472 890.238 373.686C890.238 379.899 885.154 384.983 878.941 384.983Z" fill="#F3D2A2"/>
<path d="M919.273 349.848C913.511 349.848 908.088 347.589 903.908 343.522C895.435 335.049 895.435 321.379 903.908 312.906C904.134 312.68 904.473 312.68 904.699 312.906C904.925 313.131 904.925 313.47 904.699 313.696C896.678 321.718 896.678 334.71 904.699 342.731C912.72 350.752 925.712 350.752 933.733 342.731C933.959 342.505 934.298 342.505 934.524 342.731C934.75 342.957 934.75 343.296 934.524 343.522C930.457 347.589 925.034 349.848 919.273 349.848Z" fill="#333333"/>
<path d="M882.556 324.316H832.621C832.282 324.316 832.056 324.09 832.056 323.751C832.056 323.412 832.282 323.186 832.621 323.186H882.556C882.895 323.186 883.121 323.412 883.121 323.751C883.121 324.09 882.782 324.316 882.556 324.316Z" fill="#333333"/>
<path d="M882.556 344.425H832.621C832.282 344.425 832.056 344.199 832.056 343.86C832.056 343.521 832.282 343.296 832.621 343.296H882.556C882.895 343.296 883.121 343.521 883.121 343.86C883.121 344.199 882.782 344.425 882.556 344.425Z" fill="#333333"/>
<path d="M882.556 364.648H832.621C832.282 364.648 832.056 364.422 832.056 364.083C832.056 363.744 832.282 363.518 832.621 363.518H882.556C882.895 363.518 883.121 363.744 883.121 364.083C883.121 364.422 882.782 364.648 882.556 364.648Z" fill="#333333"/>
<circle cx="1040" cy="20" r="20" fill="#1062AA"/>
<path d="M1046.25 29.4961H1033.62C1033.48 29.4961 1032.3 29.4355 1031.64 28.5065C1030.93 27.517 1031.23 26.4063 1031.51 25.639C1032.83 22.1251 1036.21 19.7826 1039.97 19.7826C1043.7 19.7826 1046.98 22.004 1048.35 25.4572C1048.78 26.5275 1048.74 27.7594 1048.23 28.4864C1047.54 29.4759 1046.37 29.4961 1046.25 29.4961ZM1039.97 21.2366C1036.84 21.2366 1033.98 23.2156 1032.89 26.1438C1032.55 27.0526 1032.67 27.4161 1032.83 27.6584C1033.07 28.0017 1033.64 28.0421 1033.64 28.0421H1046.23C1046.23 28.0421 1046.75 28.0219 1047 27.6584C1047.16 27.4161 1047.26 26.7294 1046.98 25.9823C1045.84 23.1147 1043.09 21.2366 1039.97 21.2366Z" fill="white" stroke="white" stroke-width="0.5"/>
<path d="M1039.97 21.2365C1037.2 21.2365 1034.93 18.995 1034.93 16.2081C1034.93 13.4213 1037.2 11.2 1039.97 11.2C1042.75 11.2 1045.01 13.4415 1045.01 16.2283C1045.01 19.0152 1042.75 21.2365 1039.97 21.2365ZM1039.97 12.6539C1038.01 12.6539 1036.41 14.2493 1036.41 16.2081C1036.41 18.167 1038.01 19.7624 1039.97 19.7624C1041.94 19.7624 1043.54 18.167 1043.54 16.2081C1043.54 14.2493 1041.94 12.6539 1039.97 12.6539Z" fill="white" stroke="white" stroke-width="0.5"/>
<rect x="1210" y="192.84" width="35" height="25" rx="6" transform="rotate(-26.9096 1210 192.84)" stroke="#1062AA" stroke-width="2"/>
<path d="M1213.17 199.083L1229.6 198.017C1231.24 197.91 1232.76 197.137 1233.82 195.877L1244.38 183.242" stroke="#1062AA" stroke-width="2"/>
</svg>
