<svg width="630" height="551" viewBox="0 0 630 551" fill="none" xmlns="http://www.w3.org/2000/svg">
<path d="M0 0H630V251C630 416.685 495.685 551 330 551H0V0Z" fill="#FFE735"/>
<rect x="70" y="130" width="301" height="220" stroke="white" stroke-width="2"/>
<path d="M70 111C70 104.373 75.3726 99 82 99H359C365.627 99 371 104.373 371 111V130H70V111Z" fill="white" stroke="white" stroke-width="2"/>
<circle cx="89" cy="114" r="4" fill="#FFE735"/>
<circle cx="103" cy="114" r="4" fill="#FFE735"/>
<circle cx="117" cy="114" r="4" fill="#FFE735"/>
<path d="M146 407.105L198.123 366.746L247.024 407.105L339.391 330.871L382.858 366.746L471 294" stroke="#1062AA" stroke-width="10"/>
<path d="M439.051 287.724L475.018 290.35L472.392 326.316" stroke="#1062AA" stroke-width="10"/>
<path d="M117.513 180.382L119.637 182.506C120.322 183.191 121.446 183.191 122.113 182.506L135.173 169.446C135.857 168.761 135.857 167.638 135.173 166.971L133.049 164.847C132.364 164.162 131.241 164.162 130.574 164.847L117.513 177.89C116.829 178.574 116.829 179.698 117.513 180.382Z" stroke="#1062AA" stroke-width="2" stroke-miterlimit="10" stroke-linecap="round" stroke-linejoin="round"/>
<path d="M152.643 164.513L150.519 166.637C149.835 167.322 149.835 168.446 150.519 169.113L163.579 182.173C164.264 182.857 165.388 182.857 166.055 182.173L168.179 180.049C168.863 179.364 168.863 178.241 168.179 177.574L155.118 164.513C154.434 163.829 153.328 163.829 152.643 164.513Z" stroke="#1062AA" stroke-width="2" stroke-miterlimit="10" stroke-linecap="round" stroke-linejoin="round"/>
<path d="M127.572 194.566C128.643 195.637 130.416 195.637 131.487 194.566L134.313 191.74C135.384 190.669 135.384 188.896 134.313 187.825C133.242 186.754 131.469 186.754 130.398 187.825L127.572 190.651C126.501 191.722 126.501 193.495 127.572 194.566Z" stroke="#1062AA" stroke-width="2" stroke-miterlimit="10" stroke-linecap="round" stroke-linejoin="round"/>
<path d="M135.964 202.255C137.035 203.325 138.808 203.325 139.879 202.255L145.127 197.006C146.198 195.935 146.198 194.162 145.127 193.091C144.057 192.021 142.284 192.021 141.213 193.091L135.964 198.34C134.876 199.428 134.876 201.184 135.964 202.255Z" stroke="#1062AA" stroke-width="2" stroke-miterlimit="10" stroke-linecap="round" stroke-linejoin="round"/>
<path d="M139.726 206.292C140.797 207.363 142.57 207.363 143.64 206.292L146.467 203.466C147.537 202.395 147.537 200.622 146.467 199.551C145.396 198.48 143.623 198.48 142.552 199.551L139.726 202.377C138.655 203.448 138.655 205.221 139.726 206.292Z" stroke="#1062AA" stroke-width="2" stroke-miterlimit="10" stroke-linecap="round" stroke-linejoin="round"/>
<path d="M131.487 198.48C132.558 199.551 134.331 199.551 135.402 198.48L140.598 193.284C141.668 192.213 141.668 190.441 140.598 189.37C139.527 188.299 137.754 188.299 136.683 189.37L131.487 194.566C130.416 195.637 130.416 197.409 131.487 198.48Z" stroke="#1062AA" stroke-width="2" stroke-miterlimit="10" stroke-linecap="round" stroke-linejoin="round"/>
<path d="M149.587 189.721L155.205 195.338C156.275 196.409 158.048 196.409 159.119 195.338C160.19 194.268 160.19 192.495 159.119 191.424L146.638 178.943" stroke="#1062AA" stroke-width="2" stroke-miterlimit="10" stroke-linecap="round" stroke-linejoin="round"/>
<path d="M145.569 193.548L151.133 199.182C152.204 200.253 153.977 200.253 155.048 199.182C156.119 198.112 156.119 196.339 155.048 195.268L149.659 189.879" stroke="#1062AA" stroke-width="2" stroke-miterlimit="10" stroke-linecap="round" stroke-linejoin="round"/>
<path d="M146.91 203.304C147.981 204.374 149.754 204.374 150.825 203.304C151.896 202.233 151.896 200.46 150.825 199.389L146.846 195.5" stroke="#1062AA" stroke-width="2" stroke-miterlimit="10" stroke-linecap="round" stroke-linejoin="round"/>
<path d="M149.591 167.656L139.041 178.205C137.971 179.276 137.971 181.049 139.041 182.12C140.112 183.191 141.885 183.191 142.956 182.12L146.783 178.293" stroke="#1062AA" stroke-width="2" stroke-miterlimit="10" stroke-linecap="round" stroke-linejoin="round"/>
<path d="M156.522 175.871C156.083 178.451 153.836 180.435 151.116 180.435C149.343 180.435 147.78 179.592 146.78 178.293" stroke="#1062AA" stroke-width="2" stroke-miterlimit="10" stroke-linecap="round" stroke-linejoin="round"/>
<path d="M123.343 181.278L127.96 190.265" stroke="#1062AA" stroke-width="2" stroke-miterlimit="10" stroke-linecap="round" stroke-linejoin="round"/>
<path d="M134.459 170.183L142.428 174.8" stroke="#1062AA" stroke-width="2" stroke-miterlimit="10" stroke-linecap="round" stroke-linejoin="round"/>
<path d="M159.118 191.441L163.576 182.173" stroke="#1062AA" stroke-width="2" stroke-miterlimit="10" stroke-linecap="round" stroke-linejoin="round"/>
<path d="M160.816 274.633C169.552 274.633 176.633 267.552 176.633 258.816C176.633 250.081 169.552 243 160.816 243C152.081 243 145 250.081 145 258.816C145 267.552 152.081 274.633 160.816 274.633Z" fill="white"/>
<path d="M164.884 264.804C164.093 265.482 162.963 265.934 161.381 266.047V268.306H160.365V266.047C159.348 266.047 158.444 265.821 157.653 265.482C156.749 265.143 156.072 264.691 155.62 264.239L156.185 263.109C156.636 263.561 157.314 263.9 157.992 264.239C158.783 264.578 159.574 264.691 160.365 264.804V259.494C159.461 259.268 158.67 259.042 158.105 258.816C157.54 258.59 156.975 258.139 156.523 257.687C156.072 257.235 155.959 256.557 155.959 255.653C155.959 254.636 156.298 253.733 157.088 253.055C157.879 252.377 158.896 251.925 160.478 251.812V249.552H161.494V251.812C162.285 251.812 162.963 251.925 163.754 252.151C164.432 252.377 165.11 252.716 165.561 253.055L165.11 254.184C164.545 253.846 163.98 253.507 163.415 253.394C162.85 253.168 162.172 253.055 161.607 253.055V258.364C162.624 258.59 163.415 258.816 164.093 259.042C164.771 259.268 165.222 259.72 165.674 260.172C166.126 260.737 166.352 261.302 166.352 262.206C166.013 263.222 165.674 264.126 164.884 264.804ZM158.105 257.122C158.67 257.461 159.348 257.8 160.365 258.026V253.055C159.348 253.168 158.67 253.394 158.105 253.846C157.54 254.297 157.314 254.862 157.314 255.54C157.314 256.218 157.653 256.783 158.105 257.122ZM163.754 264.013C164.319 263.561 164.545 262.996 164.545 262.319C164.545 261.641 164.319 261.076 163.754 260.737C163.189 260.398 162.398 260.059 161.381 259.833V264.804C162.398 264.691 163.189 264.352 163.754 264.013Z" fill="#333333"/>
<circle cx="254.5" cy="226.052" r="58.5" fill="white"/>
<path d="M255.8 254.752C248.984 254.752 243.464 252.256 239.24 247.264C235.112 242.176 233.048 235.552 233.048 227.392C233.048 219.232 235.112 212.656 239.24 207.664C243.464 202.576 248.984 200.032 255.8 200.032C262.52 200.032 267.992 202.528 272.216 207.52C276.44 212.512 278.552 219.136 278.552 227.392C278.552 235.648 276.44 242.272 272.216 247.264C267.992 252.256 262.52 254.752 255.8 254.752ZM316.856 200.752H325.352L256.52 301.552H248.024L316.856 200.752ZM255.8 248.272C260.504 248.272 264.248 246.448 267.032 242.8C269.912 239.056 271.352 233.92 271.352 227.392C271.352 220.864 269.912 215.776 267.032 212.128C264.248 208.384 260.504 206.512 255.8 206.512C251 206.512 247.208 208.384 244.424 212.128C241.64 215.872 240.248 220.96 240.248 227.392C240.248 233.824 241.64 238.912 244.424 242.656C247.208 246.4 251 248.272 255.8 248.272ZM317.576 302.272C310.856 302.272 305.384 299.776 301.16 294.784C296.936 289.696 294.824 283.072 294.824 274.912C294.824 266.752 296.936 260.176 301.16 255.184C305.384 250.096 310.856 247.552 317.576 247.552C324.392 247.552 329.864 250.096 333.992 255.184C338.216 260.176 340.328 266.752 340.328 274.912C340.328 283.072 338.216 289.696 333.992 294.784C329.864 299.776 324.392 302.272 317.576 302.272ZM317.576 295.792C322.376 295.792 326.168 293.92 328.952 290.176C331.736 286.432 333.128 281.344 333.128 274.912C333.128 268.48 331.736 263.392 328.952 259.648C326.168 255.904 322.376 254.032 317.576 254.032C312.872 254.032 309.08 255.904 306.2 259.648C303.416 263.296 302.024 268.384 302.024 274.912C302.024 281.44 303.416 286.576 306.2 290.32C309.08 293.968 312.872 295.792 317.576 295.792Z" fill="#333333"/>
<circle cx="428.308" cy="194" r="30" fill="#333333"/>
<path d="M458.308 194H428.308V224" stroke="white"/>
<path d="M433.308 229C449.877 229 463.308 215.569 463.308 199H433.308V229Z" fill="white"/>
<path d="M117.816 314.633C126.552 314.633 133.633 307.552 133.633 298.816C133.633 290.081 126.552 283 117.816 283C109.081 283 102 290.081 102 298.816C102 307.552 109.081 314.633 117.816 314.633Z" fill="white"/>
<path d="M121.884 304.804C121.093 305.482 119.963 305.934 118.381 306.047V308.306H117.365V306.047C116.348 306.047 115.444 305.821 114.653 305.482C113.749 305.143 113.072 304.691 112.62 304.239L113.185 303.109C113.636 303.561 114.314 303.9 114.992 304.239C115.783 304.578 116.574 304.691 117.365 304.804V299.494C116.461 299.268 115.67 299.042 115.105 298.816C114.54 298.59 113.975 298.139 113.523 297.687C113.072 297.235 112.959 296.557 112.959 295.653C112.959 294.636 113.298 293.733 114.088 293.055C114.879 292.377 115.896 291.925 117.478 291.812V289.552H118.494V291.812C119.285 291.812 119.963 291.925 120.754 292.151C121.432 292.377 122.11 292.716 122.561 293.055L122.11 294.184C121.545 293.846 120.98 293.507 120.415 293.394C119.85 293.168 119.172 293.055 118.607 293.055V298.364C119.624 298.59 120.415 298.816 121.093 299.042C121.771 299.268 122.222 299.72 122.674 300.172C123.126 300.737 123.352 301.302 123.352 302.206C123.013 303.222 122.674 304.126 121.884 304.804ZM115.105 297.122C115.67 297.461 116.348 297.8 117.365 298.026V293.055C116.348 293.168 115.67 293.394 115.105 293.846C114.54 294.297 114.314 294.862 114.314 295.54C114.314 296.218 114.653 296.783 115.105 297.122ZM120.754 304.013C121.319 303.561 121.545 302.996 121.545 302.319C121.545 301.641 121.319 301.076 120.754 300.737C120.189 300.398 119.398 300.059 118.381 299.833V304.804C119.398 304.691 120.189 304.352 120.754 304.013Z" fill="#333333"/>
<path fill-rule="evenodd" clip-rule="evenodd" d="M178.628 304.327C178.628 307.474 181.179 310.025 184.327 310.025C187.474 310.025 190.025 307.474 190.025 304.327C190.025 301.179 187.474 298.628 184.327 298.628C181.179 298.628 178.628 301.179 178.628 304.327ZM184.327 297C180.28 297 177 300.28 177 304.327C177 308.373 180.28 311.653 184.327 311.653C188.373 311.653 191.653 308.373 191.653 304.327C191.653 300.28 188.373 297 184.327 297Z" fill="#1062AA"/>
<path fill-rule="evenodd" clip-rule="evenodd" d="M187.684 301.795C188.048 302.121 188.094 302.699 187.787 303.086L184.878 306.749C184.577 307.128 184.046 307.183 183.681 306.873L180.987 304.584C180.615 304.268 180.555 303.692 180.852 303.297C181.15 302.902 181.692 302.838 182.064 303.154L184.102 304.886L186.469 301.904C186.776 301.518 187.32 301.469 187.684 301.795Z" fill="#1062AA"/>
</svg>
