<svg width="367" height="100" viewBox="0 0 367 100" fill="none" xmlns="http://www.w3.org/2000/svg">
<path d="M81.1458 37.1244L73.7076 43.5V37.1244C69.9885 37.1244 67 34.0695 67 30.4168V6.70763C67 2.98855 70.055 0 73.7076 0H101.866C105.585 0 108.574 3.05496 108.574 6.70763V30.3504C108.574 34.0695 105.519 37.058 101.866 37.058L81.1458 37.1244Z" fill="#FFE735"/>
<circle cx="87.7871" cy="18.5402" r="11" stroke="#333333" stroke-width="2"/>
<path d="M87.7871 7.54016V29.5402" stroke="#333333" stroke-width="2" stroke-linecap="round" stroke-linejoin="round"/>
<path d="M98.7871 18.5402L76.7871 18.5402" stroke="#333333" stroke-width="2" stroke-linecap="round" stroke-linejoin="round"/>
<path d="M87.7871 7.54016C87.7871 7.54016 81.7871 11.0402 81.7871 18.5402C81.7871 26.0402 87.7871 29.5402 87.7871 29.5402" stroke="#333333" stroke-width="2" stroke-linecap="round" stroke-linejoin="round"/>
<path d="M87.7871 29.5402C87.7871 29.5402 93.7871 26.0402 93.7871 18.5402C93.7871 11.0402 87.7871 7.54016 87.7871 7.54016" stroke="#333333" stroke-width="2" stroke-linecap="round" stroke-linejoin="round"/>
<path d="M286.819 32.8623C281.949 31.2869 270.487 31.7157 267.622 35.4407C260.172 35.5842 251.434 42.3163 250.287 51.1999C249.154 59.991 251.681 64.0729 252.58 70.6842C253.598 78.1738 257.809 80.5689 261.177 81.5719C266.02 87.9697 271.169 87.6958 279.813 87.6958C296.694 87.6958 304.733 76.4001 305.444 57.2162C305.872 45.6125 299.065 36.8252 286.819 32.8623Z" fill="#292F33"/>
<path d="M296.473 58.036C294.839 55.7749 292.748 53.954 288.163 53.308C289.882 54.0957 291.53 56.8176 291.745 58.3212C291.96 59.8248 292.176 61.0431 290.814 59.5395C285.362 53.5139 279.423 55.8864 273.539 52.2048C269.429 49.634 268.179 46.7893 268.179 46.7893C268.179 46.7893 267.678 50.586 261.445 54.4546C259.639 55.5766 257.484 58.0737 256.288 61.7609C255.428 64.4111 255.695 66.776 255.695 70.8145C255.695 82.6052 265.411 92.5182 277.398 92.5182C289.386 92.5182 299.102 82.5183 299.102 70.8145C299.104 63.4798 298.335 60.6162 296.473 58.036Z" fill="#F7DECE"/>
<path d="M295.109 77.3218C293.141 79.3997 289.206 83.5553 285.272 81.4775C279.707 78.5383 277.401 79.3997 277.401 79.3997C277.401 79.3997 275.094 78.5402 269.529 81.4775C265.595 83.5553 261.658 79.3997 259.692 77.3218C258.3 75.8523 253.789 73.1662 253.789 77.3218C253.789 83.5553 257.724 87.7109 257.724 87.7109C261.658 98.1 269.529 98.1 269.529 98.1C271.498 100.178 283.303 100.178 285.27 98.1C285.27 98.1 293.141 98.1 297.076 87.7109C297.076 87.7109 301.01 83.5553 301.01 77.3218C301.012 73.1662 296.499 75.8542 295.109 77.3218Z" fill="#292F33"/>
<path d="M277.401 87.7128C269.53 87.7128 263.627 83.5572 277.401 83.5572C291.175 83.5572 285.272 87.7128 277.401 87.7128Z" fill="#F7DECE"/>
<path d="M279.811 76.8439H274.988C274.322 76.8439 273.783 76.3056 273.783 75.6388C273.783 74.972 274.322 74.4337 274.988 74.4337H279.811C280.478 74.4337 281.016 74.972 281.016 75.6388C281.016 76.3056 280.478 76.8439 279.811 76.8439Z" fill="#C1694F"/>
<path d="M267.754 68.4042C266.422 68.4042 265.342 67.3238 265.342 65.9921V63.5799C265.342 62.2483 266.422 61.1678 267.754 61.1678C269.086 61.1678 270.166 62.2483 270.166 63.5799V65.9921C270.166 67.3238 269.086 68.4042 267.754 68.4042ZM287.046 68.4042C285.714 68.4042 284.633 67.3238 284.633 65.9921V63.5799C284.633 62.2483 285.714 61.1678 287.046 61.1678C288.377 61.1678 289.458 62.2483 289.458 63.5799V65.9921C289.458 67.3238 288.377 68.4042 287.046 68.4042Z" fill="#662113"/>
<path d="M54.779 71.384C54.779 67.2114 52.6653 63.8284 50.0567 63.8284C50.034 63.8284 50.017 63.8378 49.9944 63.8378C47.1383 51.9357 38.5229 43.2863 28.3341 43.2863C18.1452 43.2863 9.52796 51.9376 6.6738 63.8378C6.65113 63.8359 6.63225 63.8284 6.61147 63.8284C4.00286 63.8284 1.88916 67.2114 1.88916 71.384C1.88916 75.364 3.81775 78.5903 6.26013 78.8831C8.57028 91.4425 17.5653 99.7179 28.3341 99.7179C39.1009 99.7179 48.0979 91.4425 50.4061 78.8831C52.8504 78.5903 54.779 75.364 54.779 71.384Z" fill="#7C533E"/>
<path d="M18.8894 73.273C17.8467 73.273 17.0005 72.4286 17.0005 71.3841V67.6062C17.0005 66.5635 17.8467 65.7173 18.8894 65.7173C19.9321 65.7173 20.7783 66.5635 20.7783 67.6062V71.3841C20.7783 72.4286 19.9321 73.273 18.8894 73.273ZM37.7786 73.273C36.7341 73.273 35.8897 72.4286 35.8897 71.3841V67.6062C35.8897 66.5635 36.7341 65.7173 37.7786 65.7173C38.8232 65.7173 39.6676 66.5635 39.6676 67.6062V71.3841C39.6676 72.4286 38.8232 73.273 37.7786 73.273Z" fill="black"/>
<path d="M28.3335 92.1622C20.3982 92.1622 17.9614 90.1279 17.5534 89.7198C16.8149 88.9813 16.8149 87.7875 17.5534 87.0489C18.2675 86.333 19.4121 86.3122 20.1526 86.9809C20.3037 87.0905 22.2304 88.3844 28.3335 88.3844C34.6709 88.3844 36.505 86.9885 36.5239 86.9733C37.2606 86.2386 38.4147 86.2744 39.1552 87.013C39.8937 87.7516 39.8522 88.9832 39.1155 89.7217C38.7056 90.1278 36.2689 92.1622 28.3335 92.1622ZM30.2224 82.7176H26.4446C25.4019 82.7176 24.5557 81.8733 24.5557 80.8287C24.5557 79.7841 25.4019 78.9398 26.4446 78.9398H30.2224C31.267 78.9398 32.1114 79.7841 32.1114 80.8287C32.1114 81.8733 31.267 82.7176 30.2224 82.7176Z" fill="#3D2E24"/>
<path d="M56.6677 57.5005C56.6677 55.8174 55.7818 54.3516 54.4558 53.5148C54.656 52.9916 54.7788 52.4287 54.7788 51.8337C54.7788 49.4234 52.9673 47.4589 50.6364 47.1699C50.8592 46.5598 51.0009 45.91 51.0009 45.2225C51.0009 42.0925 48.4641 39.5557 45.3342 39.5557C44.588 39.5557 43.8797 39.7087 43.228 39.9712C42.5744 37.561 40.3946 35.7778 37.7785 35.7778C36.1351 35.7778 34.6693 36.4881 33.6342 37.6044C32.837 35.4397 30.7743 33.8889 28.3338 33.8889C25.8934 33.8889 23.8307 35.4397 23.0335 37.6044C21.9984 36.4881 20.5326 35.7778 18.8892 35.7778C16.2731 35.7778 14.0933 37.561 13.4416 39.9712C12.788 39.7087 12.0797 39.5557 11.3335 39.5557C8.20359 39.5557 5.66677 42.0925 5.66677 45.2225C5.66677 45.91 5.80844 46.5598 6.03133 47.1699C3.7004 47.4589 1.88892 49.4234 1.88892 51.8337C1.88892 52.4287 2.0117 52.9916 2.21193 53.5148C0.885905 54.3516 0 55.8174 0 57.5005C0 59.1589 0.85946 60.6134 2.15526 61.4559C1.98904 61.9866 1.88892 62.5609 1.88892 63.1672C1.88892 65.7758 3.57951 67.8895 5.66677 67.8895C6.28445 67.8895 6.85679 67.6874 7.37247 67.3587C8.21115 70.0845 9.44461 71.6334 9.44461 67.8895C9.44461 64.8956 9.46917 63.069 10.8802 60.1808C13.1261 60.9421 16.3732 60.4812 19.4427 58.7094C19.9754 58.4015 20.4721 58.0671 20.9406 57.7177C21.6546 60.2904 24.692 62.2228 28.3338 62.2228C30.7819 62.2228 32.9371 61.335 34.3161 59.9806C35.2152 62.3588 38.0977 64.1117 41.5563 64.1117C43.5888 64.1117 45.4267 63.5034 46.783 62.5231C47.2779 64.2496 47.2967 65.7777 47.2967 67.8895C47.2967 72.3247 48.5699 70.4547 49.4104 67.4362C49.894 67.7195 50.4305 67.8895 51.0009 67.8895C53.0882 67.8895 54.7788 65.7758 54.7788 63.1672C54.7788 62.5609 54.6787 61.9866 54.5143 61.4559C55.8082 60.6134 56.6677 59.1589 56.6677 57.5005Z" fill="#0B0200"/>
<path d="M163.073 34.9149C157.903 33.2432 145.742 33.6984 142.701 37.652C134.796 37.8031 125.521 44.9489 124.305 54.3746C123.102 63.704 125.784 68.0353 126.738 75.0507C127.818 82.9993 132.287 85.5399 135.859 86.6053C140.999 93.396 146.462 93.1051 155.636 93.1051C173.551 93.1051 182.083 81.118 182.837 60.761C183.292 48.4453 176.069 39.1196 163.073 34.9149Z" fill="#FFE51E"/>
<path d="M173.318 61.63C171.584 59.2291 169.365 57.2968 164.501 56.613C166.326 57.4498 168.073 60.3379 168.301 61.9341C168.53 63.5302 168.758 64.8222 167.313 63.2261C161.528 56.8302 155.226 59.35 148.981 55.4418C144.62 52.7123 143.292 49.6957 143.292 49.6957C143.292 49.6957 142.759 53.7248 136.146 57.8294C134.229 59.0195 131.941 61.6696 130.674 65.5835C129.762 68.3961 130.045 70.9046 130.045 75.1905C130.043 87.7028 140.355 98.2222 153.077 98.2222C165.799 98.2222 176.11 87.6102 176.11 75.1886C176.108 67.4063 175.294 64.3651 173.318 61.63Z" fill="#FFDC5D"/>
<path d="M130.988 75.1905C130.988 74.3084 130.976 73.4999 130.965 72.75C130.923 69.8675 130.895 68.9949 131.571 66.9076C132.797 63.1279 134.994 60.6893 136.645 59.6655C140.751 57.1154 142.648 54.5503 143.515 52.8484C144.425 54.0535 145.986 55.7157 148.481 57.276C151.229 58.9968 153.955 59.5314 156.59 60.0489C160.117 60.7403 163.447 61.3938 166.611 64.8921C167.177 65.5174 167.672 65.9329 168.245 65.9329H168.677L169.087 65.5495C169.55 65.0149 169.442 63.2185 169.259 61.953C169.104 60.8744 168.819 60.0074 168.003 58.8249C169.992 59.6296 171.722 61.3693 172.916 63.0221C174.648 65.421 175.168 70.1962 175.168 75.1905C175.168 77.716 175.009 80.455 174.607 83.2015C175.564 80.6873 176.112 77.9899 176.112 75.1905C176.112 67.4082 175.296 64.367 173.32 61.63C171.586 59.2291 169.367 57.2968 164.503 56.613C166.327 57.4498 168.075 60.3379 168.303 61.9341C168.532 63.5302 168.76 64.8222 167.315 63.2261C161.53 56.8302 155.228 59.35 148.983 55.4418C144.62 52.7123 143.292 49.6957 143.292 49.6957C143.292 49.6957 142.759 53.7248 136.146 57.8294C134.229 59.0195 131.941 61.6696 130.674 65.5835C129.762 68.3961 130.045 70.9046 130.045 75.1905C130.045 77.9994 130.589 80.6967 131.539 83.2071C131.142 80.472 130.988 77.7368 130.988 75.1905Z" fill="#FFAC33"/>
<path d="M141.744 72.5687C140.353 72.5687 139.226 71.441 139.226 70.0508V67.5328C139.226 66.1426 140.353 65.0149 141.744 65.0149C143.134 65.0149 144.261 66.1426 144.261 67.5328V70.0508C144.261 71.441 143.134 72.5687 141.744 72.5687ZM164.411 72.5687C163.02 72.5687 161.893 71.441 161.893 70.0508V67.5328C161.893 66.1426 163.02 65.0149 164.411 65.0149C165.801 65.0149 166.929 66.1426 166.929 67.5328V70.0508C166.929 71.441 165.801 72.5687 164.411 72.5687Z" fill="#662113"/>
<path d="M153.077 90.6665C145.141 90.6665 142.705 88.6321 142.297 88.2241C141.558 87.4855 141.558 86.2917 142.297 85.5531C143.011 84.8372 144.155 84.8165 144.896 85.4851C145.047 85.5947 146.974 86.8886 153.077 86.8886C159.414 86.8886 161.248 85.4927 161.267 85.4776C162.004 84.7428 163.158 84.7787 163.898 85.5173C164.637 86.2558 164.595 87.4874 163.859 88.226C163.449 88.6321 161.012 90.6665 153.077 90.6665ZM155.636 81.2218H150.517C149.811 81.2218 149.238 80.6495 149.238 79.943C149.238 79.2366 149.811 78.6642 150.517 78.6642H155.636C156.343 78.6642 156.915 79.2366 156.915 79.943C156.915 80.6495 156.343 81.2218 155.636 81.2218Z" fill="#C1694F"/>
<path d="M209.146 37.1244L201.708 43.5V37.1244C197.989 37.1244 195 34.0695 195 30.4168V6.70763C195 2.98855 198.055 0 201.708 0H229.866C233.585 0 236.574 3.05496 236.574 6.70763V30.3504C236.574 34.0695 233.519 37.058 229.866 37.058L209.146 37.1244Z" fill="#00ADEE"/>
<path fill-rule="evenodd" clip-rule="evenodd" d="M216 7.77096C214.714 7.77096 213.452 8.11055 212.343 8.75448C211.235 9.39841 210.322 10.3232 209.699 11.4329C209.075 12.5426 208.764 13.7968 208.797 15.0652C208.83 16.3282 209.204 17.5595 209.88 18.6324L216.009 27.5369L222.12 18.633C222.796 17.5599 223.17 16.3284 223.203 15.0652C223.236 13.7968 222.925 12.5426 222.301 11.4329C221.678 10.3232 220.765 9.39841 219.657 8.75448C218.548 8.11055 217.286 7.77096 216 7.77096ZM211.433 7.22851C212.817 6.42418 214.394 6 216 6C217.606 6 219.183 6.42418 220.567 7.22851C221.951 8.03284 223.092 9.188 223.871 10.5741C224.65 11.9603 225.039 13.5268 224.997 15.1112C224.955 16.6957 224.485 18.2402 223.634 19.5845C223.628 19.5938 223.622 19.6029 223.616 19.612L216.754 29.611C216.587 29.8541 216.309 29.9998 216.011 30C215.714 30.0002 215.435 29.8549 215.268 29.612L208.385 19.613C208.379 19.6036 208.372 19.5941 208.366 19.5845C207.515 18.2402 207.045 16.6957 207.003 15.1112C206.961 13.5268 207.35 11.9603 208.129 10.5741C208.908 9.188 210.049 8.03284 211.433 7.22851ZM216.005 12.2947C214.558 12.2947 213.385 13.4522 213.385 14.88C213.385 16.3078 214.558 17.4653 216.005 17.4653C217.452 17.4653 218.625 16.3078 218.625 14.88C218.625 13.4522 217.452 12.2947 216.005 12.2947ZM211.59 14.88C211.59 12.4741 213.567 10.5238 216.005 10.5238C218.443 10.5238 220.42 12.4741 220.42 14.88C220.42 17.2859 218.443 19.2362 216.005 19.2362C213.567 19.2362 211.59 17.2859 211.59 14.88Z" fill="white"/>
<path d="M339.146 37.1244L331.708 43.5V37.1244C327.989 37.1244 325 34.0695 325 30.4168V6.70763C325 2.98855 328.055 0 331.708 0H359.866C363.585 0 366.574 3.05496 366.574 6.70763V30.3504C366.574 34.0695 363.519 37.058 359.866 37.058L339.146 37.1244Z" fill="#1062AA"/>
<path d="M344.593 21.696C344.593 21.056 344.697 20.496 344.905 20.016C345.129 19.52 345.393 19.104 345.697 18.768C346.017 18.432 346.433 18.032 346.945 17.568C347.585 17.008 348.057 16.528 348.361 16.128C348.665 15.712 348.817 15.216 348.817 14.64C348.817 13.856 348.513 13.232 347.905 12.768C347.297 12.288 346.457 12.048 345.385 12.048C343.513 12.048 342.081 12.68 341.089 13.944L339.337 12.696C340.009 11.832 340.865 11.168 341.905 10.704C342.961 10.24 344.177 10.008 345.553 10.008C347.297 10.008 348.681 10.392 349.705 11.16C350.729 11.912 351.241 12.952 351.241 14.28C351.241 14.936 351.129 15.52 350.905 16.032C350.697 16.528 350.441 16.944 350.137 17.28C349.833 17.616 349.425 18.016 348.913 18.48C348.257 19.072 347.769 19.592 347.449 20.04C347.145 20.488 346.993 21.04 346.993 21.696H344.593ZM345.817 27.144C345.369 27.144 344.993 27 344.689 26.712C344.401 26.408 344.257 26.04 344.257 25.608C344.257 25.176 344.401 24.816 344.689 24.528C344.993 24.224 345.369 24.072 345.817 24.072C346.265 24.072 346.633 24.224 346.921 24.528C347.209 24.816 347.353 25.176 347.353 25.608C347.353 26.04 347.201 26.408 346.897 26.712C346.609 27 346.249 27.144 345.817 27.144Z" fill="white"/>
</svg>
