<svg width="67" height="18" viewBox="0 0 67 18" fill="none" xmlns="http://www.w3.org/2000/svg">
<path d="M25.4611 7.77253C25.2501 9.09621 24.2333 9.09621 23.255 9.09621H22.6986L23.0823 6.60233C23.1015 6.44886 23.2358 6.33376 23.3893 6.33376H23.6386C24.3101 6.33376 24.9431 6.33376 25.2693 6.71743C25.4803 6.96682 25.5378 7.31213 25.4611 7.77253ZM25.0391 4.30029H21.3366C21.0872 4.30029 20.8762 4.49213 20.8187 4.74152L19.3223 14.2566C19.284 14.4484 19.4374 14.6211 19.6293 14.6211H21.3942C21.6435 14.6211 21.8546 14.4293 21.9121 14.1799L22.315 11.6093C22.3533 11.3599 22.5644 11.168 22.8329 11.168H24.0031C26.4395 11.168 27.8591 9.97865 28.2235 7.63825C28.3962 6.62152 28.2235 5.8158 27.7439 5.24029C27.2068 4.62642 26.2668 4.30029 25.0391 4.30029Z" fill="#253D80"/>
<path d="M33.634 11.187C33.4613 12.2037 32.6556 12.8751 31.6389 12.8751C31.1209 12.8751 30.7181 12.7025 30.4495 12.3955C30.1809 12.0886 30.085 11.6474 30.1617 11.1486C30.3152 10.1511 31.1401 9.44126 32.1568 9.44126C32.6556 9.44126 33.0777 9.61391 33.3462 9.92085C33.6148 10.247 33.7107 10.7074 33.634 11.187ZM36.1087 7.73391H34.3246C34.1711 7.73391 34.0368 7.84901 34.0177 8.00248L33.9409 8.50126L33.8258 8.32861C33.4421 7.77228 32.5789 7.58044 31.7348 7.58044C29.7781 7.58044 28.0899 9.05759 27.7638 11.1486C27.5911 12.1845 27.8405 13.1821 28.416 13.8727C28.9532 14.5057 29.7397 14.7743 30.6605 14.7743C32.2336 14.7743 33.116 13.7576 33.116 13.7576L33.0393 14.2564C33.0009 14.4482 33.1544 14.6208 33.3462 14.6208H34.9385C35.1879 14.6208 35.3989 14.429 35.4564 14.1796L36.4156 8.0984C36.454 7.90657 36.3005 7.73391 36.1087 7.73391Z" fill="#253D80"/>
<path d="M45.5663 7.73462H43.7822C43.6095 7.73462 43.4561 7.81135 43.3601 7.96482L40.9046 11.5905L39.8687 8.09911C39.8112 7.88809 39.6001 7.73462 39.3699 7.73462H37.6242C37.4132 7.73462 37.2597 7.94564 37.3365 8.13747L39.2932 13.9118L37.4516 16.5207C37.2981 16.7318 37.4516 17.0003 37.701 17.0003H39.485C39.6577 17.0003 39.8112 16.9236 39.9071 16.7701L45.8348 8.19503C45.9691 8.02237 45.8156 7.73462 45.5663 7.73462Z" fill="#253D80"/>
<path d="M51.9152 7.77253C51.7042 9.09621 50.6874 9.09621 49.7091 9.09621H49.1527L49.5556 6.60233C49.5748 6.44886 49.7091 6.33376 49.8625 6.33376H50.1119C50.7834 6.33376 51.4164 6.33376 51.7425 6.71743C51.9152 6.96682 51.9727 7.31213 51.9152 7.77253ZM51.474 4.30029H47.7715C47.5221 4.30029 47.3111 4.49213 47.2727 4.74152L45.7764 14.2566C45.7381 14.4484 45.8915 14.6211 46.0834 14.6211H47.9825C48.1552 14.6211 48.3087 14.4868 48.347 14.3142L48.7691 11.6284C48.8074 11.3791 49.0185 11.1872 49.287 11.1872H50.4572C52.8936 11.1872 54.3131 9.99784 54.6776 7.65743C54.8503 6.6407 54.6776 5.83498 54.198 5.25948C53.6609 4.62642 52.7209 4.30029 51.474 4.30029Z" fill="#189BD7"/>
<path d="M60.0881 11.187C59.9154 12.2037 59.1097 12.8751 58.093 12.8751C57.575 12.8751 57.1722 12.7025 56.9036 12.3955C56.635 12.0886 56.5391 11.6474 56.6158 11.1486C56.7693 10.1511 57.5942 9.44126 58.6109 9.44126C59.1097 9.44126 59.5318 9.61391 59.8003 9.92085C60.0497 10.247 60.1648 10.7074 60.0881 11.187ZM62.5628 7.73391H60.7979C60.6444 7.73391 60.5101 7.84901 60.4909 8.00248L60.4142 8.50126L60.2799 8.32861C59.8962 7.77228 59.033 7.58044 58.1889 7.58044C56.2322 7.58044 54.544 9.05759 54.2179 11.1486C54.0452 12.1845 54.2946 13.1821 54.8701 13.8727C55.4073 14.5057 56.1938 14.7743 57.1146 14.7743C58.6877 14.7743 59.5701 13.7576 59.5701 13.7576L59.4934 14.2564C59.455 14.4482 59.6085 14.6208 59.8003 14.6208H61.3926C61.642 14.6208 61.853 14.429 61.8913 14.1796L62.8505 8.0984C62.8889 7.90657 62.7546 7.73391 62.5628 7.73391Z" fill="#189BD7"/>
<path d="M64.6533 4.56887L63.1378 14.2566C63.0994 14.4484 63.2529 14.6211 63.4447 14.6211H64.9794C65.2288 14.6211 65.4398 14.4293 65.4973 14.1799L66.9937 4.66478C67.032 4.47295 66.8786 4.30029 66.6867 4.30029H64.9794C64.8067 4.30029 64.6724 4.4154 64.6533 4.56887Z" fill="#189BD7"/>
<path d="M3.91769 16.4434L4.20544 14.6401L3.57238 14.6209H0.560547L2.65156 1.34583C2.65156 1.30747 2.67075 1.2691 2.70911 1.24991C2.74748 1.23073 2.78585 1.21155 2.82422 1.21155H7.90788C9.59604 1.21155 10.7662 1.55685 11.3609 2.24746C11.6487 2.57359 11.8213 2.91889 11.9173 3.28338C12.0132 3.66706 12.0132 4.14665 11.9173 4.72216V4.76052V5.12501L12.205 5.27848C12.4544 5.41277 12.6271 5.54705 12.7805 5.71971C13.0299 6.00746 13.1834 6.35277 13.2409 6.77481C13.3177 7.19685 13.2793 7.7148 13.1834 8.29031C13.0491 8.96174 12.8381 9.53725 12.5503 10.0168C12.2818 10.4581 11.9556 10.8226 11.5528 11.1103C11.1691 11.3789 10.7279 11.5899 10.2291 11.705C9.73033 11.8393 9.174 11.8968 8.56013 11.8968H8.15727C7.86952 11.8968 7.60095 11.9928 7.38993 12.1846C7.17891 12.3764 7.02544 12.6258 6.98707 12.9136L6.9487 13.067L6.44993 16.2323L6.43074 16.3474C6.43074 16.3858 6.41156 16.405 6.39238 16.4242C6.37319 16.4434 6.35401 16.4434 6.33482 16.4434H3.91769Z" fill="#253D80"/>
<path d="M12.4737 4.79895C12.4545 4.89487 12.4353 4.99079 12.4161 5.10589C11.7447 8.53976 9.44265 9.72915 6.52674 9.72915H5.03041C4.66592 9.72915 4.37817 9.99772 4.32062 10.343L3.55327 15.1965L3.34225 16.5777C3.30388 16.8079 3.47654 17.0189 3.72592 17.0189H6.37327C6.68021 17.0189 6.94878 16.7887 7.00633 16.4818L7.02551 16.3475L7.52429 13.1822L7.56265 13.0095C7.62021 12.7026 7.86959 12.4724 8.19571 12.4724H8.59857C11.1692 12.4724 13.1643 11.4365 13.759 8.42466C14.0084 7.15854 13.8741 6.12262 13.2218 5.37446C13.0108 5.14426 12.7614 4.95242 12.4737 4.79895Z" fill="#189BD7"/>
<path d="M11.7645 4.5305C11.6686 4.49213 11.5535 4.47295 11.4384 4.45376C11.3233 4.43458 11.2082 4.41539 11.1123 4.39621C10.7094 4.33866 10.2682 4.30029 9.78863 4.30029H5.79843C5.70251 4.30029 5.60659 4.31948 5.52986 4.35784C5.33802 4.45376 5.20374 4.62642 5.18455 4.83744L4.34047 10.2089L4.32129 10.3623C4.37884 10.017 4.68578 9.74845 5.03108 9.74845H6.52741C9.46251 9.74845 11.7454 8.55906 12.4168 5.12519C12.436 5.02927 12.4552 4.93336 12.4743 4.81825C12.3017 4.72234 12.129 4.6456 11.918 4.58805C11.8796 4.54968 11.8221 4.5305 11.7645 4.5305Z" fill="#242F65"/>
<path d="M5.18447 4.81875C5.22284 4.60773 5.35713 4.43508 5.52978 4.33916C5.60651 4.3008 5.70243 4.28161 5.79835 4.28161H9.78855C10.2681 4.28161 10.7094 4.31998 11.1122 4.37753C11.2273 4.39671 11.3424 4.4159 11.4383 4.43508C11.5534 4.45427 11.6494 4.49263 11.7645 4.51182C11.822 4.531 11.8604 4.55018 11.9179 4.55018C12.1098 4.60773 12.3016 4.68447 12.4743 4.78039C12.6661 3.51426 12.4743 2.651 11.7836 1.86447C11.0163 1.00121 9.65426 0.636719 7.90855 0.636719H2.82488C2.46039 0.636719 2.15346 0.905289 2.11509 1.25059L0.00488866 14.6791C-0.0334786 14.9477 0.158357 15.1779 0.426928 15.1779H3.55386L4.34039 10.171L5.18447 4.81875Z" fill="#253D80"/>
</svg>
