<svg width="70" height="20" viewBox="0 0 70 20" fill="none" xmlns="http://www.w3.org/2000/svg">
<path d="M9.70014 0.550294C11.1771 0.549645 12.6353 0.881778 13.9663 1.52202L14.5772 1.8402L13.6863 2.62929L12.3519 1.25475L10.0521 3.27202L8.69787 1.82302L4.4686 5.58202L7.17633 8.53474L6.11997 9.45111L8.79142 12.4038L7.73506 13.3202L11.5564 17.5202L13.8181 15.4666L15.7908 17.6685C15.4007 17.9612 14.9743 18.2558 14.518 18.5123C13.056 19.3307 11.4081 19.7597 9.7326 19.7583C4.35915 19.7468 6.24689e-05 15.4386 6.24689e-05 10.1403C-0.0190284 4.87756 4.34006 0.550294 9.70014 0.550294ZM7.91833 9.55356L10.2372 7.50002L12.315 9.7922L9.99605 11.8457L7.91833 9.55356ZM9.56969 13.5143L11.8695 11.4423L13.9657 13.7332L11.6468 15.7867L9.56969 13.5143ZM6.26824 5.64947L8.58587 3.59593L10.663 5.88811L8.34406 7.94165L6.26824 5.64947ZM10.5147 4.54856L12.2329 3.00857L13.792 4.71402L12.0738 6.27311L10.5147 4.54856ZM13.5947 11.6077L15.3129 10.0677L16.872 11.791L15.1531 13.3304L13.5947 11.6077ZM15.122 15.0734L16.8401 13.5334L18.3973 15.2388L16.6791 16.7966L15.122 15.0734ZM15.8277 7.15765L16.9776 6.13056L18.0161 7.26774L16.8662 8.2942L15.8277 7.15765ZM14.3437 3.76584L15.4936 2.72093L16.5328 3.87593L15.3822 4.90302L14.3437 3.76584ZM17.2926 10.5507L18.4425 9.52365L19.4989 10.6608L18.3305 11.6873L17.2926 10.5507ZM12.1177 8.00211L13.8359 6.46211L15.3937 8.16756L13.6755 9.70756L12.1177 8.00211ZM24.1106 5.43502H25.0422L26.497 10.9994H26.5701L27.6379 5.43502H28.8623L27.1728 12.8849H26.0426L24.6197 7.6362H24.5459L23.1637 12.8849H22.0341L20.3319 5.42802H21.504L22.6762 10.9924H22.7494L24.1106 5.43502ZM30.3495 9.71774H32.7454C32.6932 8.61365 32.1599 8.17265 31.5999 8.17265C30.9617 8.17265 30.4691 8.66711 30.3546 9.71774H30.3495ZM33.5873 11.6956V12.4948C33.1164 12.7685 32.4889 12.9785 31.7419 12.9785C29.9842 12.9785 29.2619 11.8839 29.2619 10.223C29.2619 8.62383 30.0676 7.46756 31.6375 7.46756C32.9452 7.46756 33.7515 8.32029 33.7515 10.034V10.4235H30.3406C30.3406 11.6854 30.8529 12.2435 31.9315 12.2435C32.4966 12.2435 33.0133 12.043 33.5949 11.6962L33.5873 11.6956ZM36.1869 12.1416C36.5216 12.288 36.8881 12.3109 37.1503 12.3109C37.9248 12.3109 38.5102 11.8273 38.5102 10.1231C38.5102 8.78674 38.0291 8.35593 37.3279 8.35593C36.9091 8.35593 36.6056 8.47174 36.1869 8.70274V12.1416ZM36.1977 7.92447C36.5108 7.75647 37.044 7.53502 37.6104 7.53502C38.9086 7.53502 39.6098 8.43865 39.6098 10.1225C39.6098 12.0952 38.668 13.0466 37.1509 13.0466C36.4408 13.027 35.7438 12.851 35.1095 12.5311V5.17729L36.1913 4.91447V7.90538L36.1977 7.92447ZM44.5493 12.8881H43.8798L41.7442 7.6082H41.6507V12.8881H40.7088V5.42993H41.9816L44.3253 11.3099H44.3775L46.6175 5.42993H47.9157V12.8881H46.7728V7.47583H46.6786L44.5493 12.8881ZM52.5274 10.223C52.5274 8.80392 51.9521 8.20383 51.2407 8.20383C50.5502 8.20383 49.9533 8.80329 49.9533 10.223C49.9533 11.6644 50.498 12.2422 51.2407 12.2422C51.9833 12.2422 52.5274 11.6644 52.5274 10.223ZM48.8543 10.223C48.8543 8.38202 49.8597 7.46756 51.2407 7.46756C52.6216 7.46756 53.627 8.38202 53.627 10.223C53.627 12.0214 52.675 12.9785 51.2407 12.9785C49.8063 12.9785 48.8543 12.0207 48.8543 10.223ZM54.4409 8.23947C54.9118 7.95502 55.9065 7.46056 57.1098 7.46056C58.3654 7.46056 58.8357 7.95502 58.8357 9.03874V12.8467H57.7538V9.2812C57.7538 8.45074 57.3466 8.30311 56.812 8.30311C56.3939 8.30311 55.8594 8.49274 55.5355 8.68174V12.8467H54.4537L54.4409 8.23947ZM61.1393 9.71074H63.5358C63.4849 8.60665 62.9504 8.16565 62.3904 8.16565C61.7521 8.16565 61.2608 8.66011 61.145 9.71074H61.1393ZM64.3777 11.6886V12.4878C63.9068 12.7615 63.2794 12.9715 62.5323 12.9715C60.7759 12.9715 60.0524 11.8769 60.0524 10.216C60.0524 8.61683 60.858 7.46056 62.4279 7.46056C63.7363 7.46056 64.5426 8.31329 64.5426 10.027V10.4165H61.1304C61.1304 11.6784 61.6433 12.2365 62.7213 12.2365C63.2857 12.2365 63.8031 12.036 64.3847 11.6892L64.3777 11.6886ZM68.8902 7.46056H70L68.1056 12.7188C67.5818 14.1697 66.9436 14.927 65.7408 14.927V14.0654C66.4536 14.0654 66.8863 13.4971 67.1434 12.7182L65.1337 7.45993H66.2792L67.6187 11.3303H67.6824L68.8902 7.46056Z" fill="#106DB3"/>
</svg>
